<mxfile host="Electron" agent="Mozilla/5.0 (Windows NT 10.0; Win64; x64) AppleWebKit/537.36 (KHTML, like Gecko) draw.io/28.1.2 Chrome/138.0.7204.243 Electron/37.4.0 Safari/537.36" version="28.1.2">
  <diagram name="PÃ¡gina-1" id="Fo3zD2w6zsr3sNxF0VPk">
    <mxGraphModel dx="1678" dy="2158" grid="1" gridSize="10" guides="1" tooltips="1" connect="1" arrows="1" fold="1" page="1" pageScale="1" pageWidth="827" pageHeight="1169" math="0" shadow="0">
      <root>
        <mxCell id="0" />
        <mxCell id="1" parent="0" />
        <mxCell id="Na29aNG7F6KIejRiTE2y-32" value="" style="whiteSpace=wrap;html=1;" vertex="1" parent="1">
          <mxGeometry x="20" y="-10" width="920" height="790" as="geometry" />
        </mxCell>
        <mxCell id="Na29aNG7F6KIejRiTE2y-1" value="" style="whiteSpace=wrap;html=1;aspect=fixed;" vertex="1" parent="1">
          <mxGeometry x="80" y="60" width="630" height="630" as="geometry" />
        </mxCell>
        <mxCell id="Na29aNG7F6KIejRiTE2y-7" value="" style="whiteSpace=wrap;html=1;strokeColor=default;dashed=1;dashPattern=8 8;gradientColor=none;fillColor=none;strokeWidth=2;perimeterSpacing=2;" vertex="1" parent="1">
          <mxGeometry x="336" y="165" width="300" height="500" as="geometry" />
        </mxCell>
        <mxCell id="Na29aNG7F6KIejRiTE2y-2" value="" style="shape=image;verticalLabelPosition=bottom;labelBackgroundColor=default;verticalAlign=top;aspect=fixed;imageAspect=0;image=data:image/jpeg,/9j/4AAQSkZJRgABAQAAAQABAAD/2wCEAAkGBxASEhUTExIVFhUVFhgWGRcXFRUXFRYVFRcXFhgVFRcYHSggGBomHRUVITEhJSkrLi4vFx8zODMtNygtLi0BCgoKDg0OGxAQGi0hHyUvLS0tLy0tLSstLS0tLS0rKy0tLS4uLy8tLS0tNS0tLS0tLS01LS0tLS0tLS0tLS0tLf/AABEIAKgBLAMBIgACEQEDEQH/xAAbAAEAAgMBAQAAAAAAAAAAAAAABgcDBAUCAf/EAEwQAAEDAgIFCAQJCQcEAwAAAAEAAgMEERIhBQYxQVEHEyIyYXGBkVJzsbIUIzNCYnKhwdEVFiQ0U4KSk8IXQ1Si0uHwdLPD0zVEY//EABoBAQADAQEBAAAAAAAAAAAAAAABAgMFBAb/xAAvEQACAQIDBwQBAwUAAAAAAAAAAQIDEQQhMRJBUXGR0eEFEyIyYRRCoRUjUrHB/9oADAMBAAIRAxEAPwC20REAREQBERAEREAREQBERAEREAREQBEQIAirSTXTSBfKGCnDWSPYMQINmE/S4WXw64aTH+Fy7/pfS+i7+ErVUZtXSPPLFUouzkWYiimpOn6mqfOycRgxYAMAIzdivtJvsClazaadmbxkpK6CIigkIiIAiIgCIiAIiIAiIgCIiAIiIAiIgCIiAIiIAiIgCIiAIiIAiIEARVe3X7SDicLKewcW5hwOR+v2hffz60j6FN9v+taqjNq6R55YujF2ckWegVZQ676SdezKbIlpviGYtfa/PaPNe/zz0n6FL5ntPp/RPkUVCpwIeLor9yI+dtR/1FQlR87ud7Kpa8M0gMuKNhJlkLunhAc7rAcQsr6hxveGPff447+cv70n/AvfTXxXZnGrS/uN/niu5MOTj9Yre+P+tT1V9yYPLpawuABJjuAbgdffvVgrn1fuzuYdWpR5BERZmwRFwdbdZG0TGkN5yV5syO9r22uJG4bO8olchu2p3kXL1f07DWR44jmMnMPWYeBHsO9dRCU7hERAEREAREQBERAEREAREQBERAEREAREQBERAERfCUB9QKsI+UDSDs2x01rkZh42ED9p2jzXr8+9I/s6X/P3/tFqqM3mkeaWLoxdnJEUpt/rHe9GvY6vh/S5KCKQh3QabPdtkDeldtwBvzw+a2BTyW6kdrfthssfuuuhTXxXk4ld/OXddz3S7H+sk/8AGkux31T7tQsNNM9uMGNpPOOv8ZaxOG4HHYM1kdO7P4pmyx+O3WeP6nqy08MrLJ2y6ruYZutN62X2LxLv7neyde4WyPMhwNzkeTeQNsSMwOItvWR1PJndke+/xw+nf2v8uxQs14YllLpvXcl3Jh8tWd8f9asBU1oPTVVSSTGNkN3uAcJCSAW3PRIcOK7H596R/Z0v+ft//TsPkV4Z0pyk2kdijiaUKcYykr2RZqKJ6kay1FW+dkzI280IyObDhfHjve7jfqhSxYNNOzPbGSkroKr9NzGbSUzjsgDYm9htcnzL/NWgqqeLVta07edv4G5HtC9ODSdZXPB6nJxw0rGF8slJKKuHaD8Yz5r2Hbf8fFWpQ1bJo2SsN2vaHDuO49u7wVcvYHAg7CLHuOSxaqa5NpKc07opJXMkfhw2sGk3sSc9uLdvW+OoWkpR3nk9JxblBwm9C0kUDbyjH51FKB2PBPlhC7ehdcqKpIYHmOQ/MkGEnsB6pPZe68DhJao68asJfVpkhREVTQIiIAiIgCIiAIiIAiIgCIiAIiIAiIgC8u2FQnWDXWogqpIIoGPEYbmXOB6TWu7vnLTbrzXuGVHH/GfxWkaU5K6RhPE0oPZlJJ8yFUmwfXd/3Ilk3D6v9AXqCjqGixgvmT1wNpaePFoWT4NP/h91uuOFl0YJ7Kun0ZwqrTm2mt+9ceZ7o9/rn+/AvQ6n7p9yReKaOobe9Pe7y/rgWxFpt5sCy2mtb4Lut8qOBH3lWV+D6PsRK13muq7mvJ15PWSe1ixO2O7j7syzcxUXcTBfE5zuuMsVsvsQ08+f6Pt+mPpD+oouT6PsVeuq6x7n2Dqy+sl9wL3UfO7neyqXmCKobivT3xOc7rgWxCxH2LI4TG/6Ltv/AHo34/8A2O+xQk7aPo+xZtX1W7eu5rVXXm+u7/tr4/5373tnXt1PUFzyYOu4m2MZXFrL6aefP9H23+eN+L/W5Sl+H0fYh2vqt2+PDmSzku+XrPqw/wDkVhqodXdI1lG+V7KZrudDAQ5+zBitax+ku5+e+kP8HF/MP4rw1KNRzbUX0OxQxNGNOMXNXS4osJVxr7TfBqtlV/dztwP4hzR1rbxYN/hKx1Gselpcg6GAHe1uJ3gXYly3UDcXOzPdNJxeb+Q4LWhha20pWsefGeoYb23Fu9+BvSzAC4N77O3t7logLDVzSFzGMGKSR4Y0dpNvvC6bNVtKuy5uFvaZB9110qmJp03aWpwKOAr4iO3BZczSJ3rJq5oj4fUg4b08Ju91uudojB33y8L8Qu5Qcnr3EGrqMQ283FcN7i4gfYPFTiipI4WCONgYxuxo2D8T2rn4nGe4tmKyO16f6V7Evcm7szoiLnnbCIiAIiIAiIgCIiAIiIAiIgCIsNRBjFsb2/UOE+drjwQGhrJpplJA6Vxbit0GE5vduaBttxO4LX0JrZR1QGGQMedschDXg9l8nDtC1qnUWhkdikEz3He6eRx8yVi/s80b+zk/mv8AxU5FcyI6wf8AyVX282R3c3GvUM7GtOJwbnvIC1NctAxUtU1kYcI3xhwu4k4gSCLnPcPNcqOgjJzB8yuvhJz9pKKPmvUaNP8AUOU5NX4LyduHTMDnFuK3AnJp7ifvXQBvsUY/JsXA+ZXplCwbC4dznBeiEqv7kup4qkcM/o2uav8A9JKvj3gZkgd5so+af6cn8x34rE7R0Z23Pe4lXcp7kupmo0d8n08nRrNPRMsG9M3ztsA357yt2kropBdjgezY4d4XA/JsXA+ZT8mxcD5lZJ173drG8lhHGyck+NiT2Xx7w0XJAHEmw+1R5tMBsc/+N34rw+gYduI97iVq5Ttkv58GChRvnJ9PJvT6wRNeGi7m73DYO7iuhBWRv6r2nxz8tqj/AOTYuB8yn5Ni4HzKyi66edmbzWEaWy5J8kSeyWUcbSNGxzx3Pd+K8SxDZief33fitdufD+fBhsU/8n08ncrq+OIXc4X3DefBaEWkGSZ4hfgciPBcr4EzgfMr7BoozSsgibeR5ttNmje53YBmsKlarD5NKx6qWFw9a0E5bXImPJ5o3n6h9W4dCLoR9ryM3DuBP8Q4Kf1ukIYRillYwfScB5A5nwUeg1BoWtA+OvbMiaRtzvNgbC/BDye6OOZZIT66S/tXHnPbk5M+oo0vagoRWSPui9d6aepMDThbh6L3dHnH36rQdgtsvmfbKVFP7PNG/s5P5r/xXZ0doZkAAjkmwj5rpXPHdZ97eCo7GivvOkiIoLBERAEREAREQBERAEREAREQBERAEREBDeU7Rhkp2ztHSp3Yj6t2TvIhp81X8b72I71d8sbXAtcAWuBBB2EHIg+CpzT+hZaKo5kNL45DeE3AuD8wk5YgTbyO9e3CV1TdpaHK9TwjrRUoao8tN19RujK0f/Ul8lmZouvdk2jk8S0e1dH9VS4nC/p2Iv8AX/RhWZjmMjkmewvEeABgcW3c8kAucMw0WOzaSAtyn1U0m/bHHEOL5A4+TLrVMM9LI+N7gXC7XdEFjmGxsWuFnNORzCr7yqpxpvMv+llh2qlZZX0MlaIHMjlgxYX3Ba4HJ7A3FhJzLbutfsK01lqKhzyMVrAWAADWtG2zWtADR3BYltTjKMUpO7PJXlCVRuCsgi+LyZArmVj2vLnALE6Urwlyyie3yErwix4nFwjjaXyONmtaLklUnNRV5G9KlKpLZghNLawALnHJrQLkk7AAFZmo+rHwRhklzqJB0j6DdvNg+FyfwWHU3U8U5E89n1B2DItiB3N4u7R4cTL1xsRiHVeWh9PgsEqEbv7MIiLzHvCIiAIiIAiIgCIiAIiIAiIgCIiAIiIAiIgCIiALQ01omKqiMUou05gjrNduc07it9EBAotJVGj3CGtu+E5R1IBOW5sg232dvftUogma9oexwc05hzTcHuIXRnhY9pY9oc1wsWuAII7QVE6jUx8LjJQTuhJzMT+lC4+0eN/BXUjGVPgSISu4rga2aJdO0SMA5xg2em3bbvG7yWq7TGkYMqmhc8D+8pziB7cOdvsXyLXuhOT3SRng+M3H8N1rTm4S2keatRVSDhLQhRkPCy+GQqS6artFVHTFQ1knpYJLO+uMOfftUSnqYmkjnGuA3txWPdcArqU8TCSzdjgVsBUpuyV1+DKSi1m1rCbNu48Gi5XRptEV0vydJJ3uGAf5rKZYmmt5EMDXlpE11jlma3abe1Sih5Pqt+c0zIm+iy73eeQHmVK9D6l0VPZwj5x4zxy2cb8QLBo8rrzVMel9Ue+j6RJ51HbkV/oXV2srLFjeaiP96/K4+g3a7wy7VZGrurVPRt+LGJ560jrF7uweiOwfau0i59SrKo7yZ2aGGp0VaCCIizNwiIgCIiAIiIAiIgCIiAIiIAiIgCIiAIiIAiIgCIiALDTVcclzHIx9jY4XB1jwNjktXWE/otR6mT3HKAckHytR6tnvFTYhvOxZ6IigkLxLE1/WaHfWAPtXtEBou0PSnbTw/wApn4L3HounbsgiHdGwfcttEFj5G0N6oA7hb2L6iIDFUVMcYBe9rATYYnBtzwFzmVlVX8r5+OgG7mnfa/8A2Cn+rriaSnJzPMx+4FNiE87HRREUEhERAEREAREQBERAEREAREQBERAEREAREQBERAF4lka1pc4gNaCSSbAAZkkr2oNyr6ScyCOFptzziXdrI8Jt3Eub5IiG7I5OsXKLK5xZSDA29ucIDnv7WtIs0cNp7lyvhunLY/0y22/Nvt5YdngpTyZ6usZEKqRoMkl+buL4GC4uPpHPPhZTtWukUSb1ZUVNr7UGKWCpHOB8b2B4Aa9rnNIGICwcLnsK3uSH5Wo9Wz3iuzyj6uRyQvqWNDZYhicQOuwdbFxIGd+whcXkiNpagn9m33ip3EZ7WZLtbNa4qJoFscrhdsd7WHpPO4e2yr06y6XqnHmnSkejBGcLewloJ8ytaihfpPSHSJtI8ucfRibnYfugNHaVc1FSRwsbHG0MY0WAGzx4ntUZInORUP5y6XpXDnXSj6M8fRd4uF/Iqw9Uda461pFsEzRdzL3BGzGw7xmO667dbRxzMMcjA9jtoIy8OB7Qqb0jA/RdeMBJEbg9p3uidta7wxNPddNRnEueonbG1z3uDWtBc5xNgAMySqw0/wAoc8j8FIMDb2DsIdK/uaQQ3usT3Lq8q+kyIYYWnKYl7u1jLYR3Euv+6tjk11fZHC2pe0GWXNpPzI8wMPAu2k8LBFlmS227IiLpdOAc4fhttt8Mnu2+5Sbk+1qqqiV0E9n4WF3OYQ1zbEDC+wtnc8Dkp8vLWAXIAF9tgM+/iouSo23lYcr3y8Hqne+pZHpyGj0fBJIc+ZjDWAjE92AZD7zuUT5Xvl4PVO99R3R1HVaRmZGCTgY1uI9SKNthe3hs2uKtbIrezZJ9UtY9IVdcOkeazL2ADm2MsbZ2ve9rG9zmp5pvTENJEZZTkMgB1nOOxrRvPsXzQWhoaSIRRDtc49Z7t7nH7tyrLlGr3z1vMNzEWGNreMj7Yj33IH7qjVk/VHzSOuukKp+GDFGDsZE0ueRxLgMR8LBYH12mqbpvdVNG28gc9njjBAVpavaCio4hGwDFbpvt0nu3knhwG5fNYdOwUceOU3JyawWxPPADhxJyCXI2Xq2RzVDXwVDhDUBrJHZNeMmPPokHquO7cexThUTR0M1dUu5iIMLnYrMuI4Rfbfdbb2nYFbWt2kXUtFI8Ou8Naxrt+N5DMXfmT4I0TGWRw9bdfWwOdDThr5G5Oec2MI2tAHWcN+4dqikGnNNzkOidO65ywRDm/MMw271tcm+rjKl75phijiIAacw+Qi/S4gCxtvJCtgC2W77EyRCTeZ5ixYRitisL22XtnbsuvaIqmgREQBERAEREAREQBERAEREAVc8r8BtTSbhzjD3uwOHuu8lYy5usGiGVcD4X5Ys2u9F4za7/AJuJUrUiSujn6gVjZaGHCc42824cHM494sfFSJUlT1VdoqctthJ2tdcxStGxwtt7CMx5hSgcqIw50pxetGH3bqWiqkt5KNdq1sNFOXHN7DG0cXPFgB9p8FDuSWmLjUncWNZftcXH7lwa+vrdKztaG4iOrG24jjB2ucTs7XH/AGVq6r6DZRwNiBu6+J7rdZ52nuGQHYE0RGruVjyeVIg0g1smWIPhz3POwfxNt4q5VWXKJqo8PdVwNJa7pSNbtY7fIANoO08Dnvy1tB8o88TAyaPngMg/Fhkt9I2Id35HvRq4T2cmWsqa5Sats9c5rM8DWxZb33JIHi+3gujprlJmkYWwR8zfIvLsTwPo2ADT25rJyfaoyOkbVTtLWNOKNrus9+0PIOYaNue023bSVg3fJGTlYpHNFK7c1joz2OAYftsfJS7UatbLQwlpzYwRuHBzOjn4WPitrWXQzayndC42J6THei8dU92dj2EqpKOurdFzubbCfnMdnHIBscLbexwO/wAE1Qfxdy70VcDlR6P6r0vW9G/8N1u6ka3VVZUPjkYzAGF12NcMBuAASSb3ufJRZltpHI5Xfl4PVO99a/J5rTHTEwShrY5HXEgFi1xy+MO9vbu7tmxyvfLweqd769aY1L52khqadvxnMxmSMfP6Au5o9PiN/fttuKO98izgVTOtjTT6Ue9wy55kw7Wktfl5EeC7XJzrS8PbRy3c13Rjd85hAJwO+jllw7tkh1+1XNXGJIgOejBsMhzjNuC/HaR3kb1CyZZ/JZGfWfXGnpYwWESyPaHMYDlhdse8jY37T9qrvRei6zSs5ke42v05SOiwegxvHg0d5XA5vBJhlY7omzmdR9htGYOE+Cm39ooiiEVNSMiDRYYnFzR24QBc9pKm1tCt76lh6F0RDSxiOFthtJPWcfScd59i4HKj+on1sftK2dRNNVFXA6SZoBDy1rmjC17bXuB2HK61uVH9RPrY/aVXeXf1MHJOP0R/rne4xTVQvkn/AFN/rne4xTRHqI6BERQWCIiAIiIAiIgCIiAIiIAiIgCIiAwVlHFM3BLG17eDmhw+3YuP+Zmjr3+DM7rvt5YrIiXIOvRUUULcEUbWN4NaAPG21bCIhIXIrdWKGZxdJTRlx2uAwk95ba6IgFDqxQwkOjpow4bHEYiO4uvZddEQBa1dQwzNwyxskbwc0G3dfZ4L6iA5A1L0de/wZndd9vLFZdeioooW4Io2Rt4MaGjvNtq+olyLGDSeh6aow89E2TDfDi3X27N2QyW6xoAAAsALADYANgCIhJoM0JStmNQIWCY36ds7kWJtsuRv2roIiA0tI6Jp6gfHQsktsLm5judtC59Pqfo9hxCmYSPSxOHk4kIiXIsjuNAAsBYDIDcBwCwV1FFMwxysD2O2tOzI3HjfevqISeNHaPigYI4mBjASbDidpJOZK2kRAEREAREQBERAEREB/9k=;" vertex="1" parent="1">
          <mxGeometry x="90" y="70" width="103.58" height="58" as="geometry" />
        </mxCell>
        <mxCell id="Na29aNG7F6KIejRiTE2y-4" value="" style="shape=image;verticalLabelPosition=bottom;labelBackgroundColor=default;verticalAlign=top;aspect=fixed;imageAspect=0;image=data:image/png,iVBORw0KGgoAAAANSUhEUgAAAMEAAACTCAYAAAA3BH1gAAAAAXNSR0IArs4c6QAAAARnQU1BAACxjwv8YQUAAAAJcEhZcwAADsMAAA7DAcdvqGQAAHVWSURBVHhe7f33s2VZdt8HfvY+5prnTb70rmx3VcM0GmA3GgABOpAECc1MKKgYhDSaCM3EjP4JRsw/MxESoZGoEaWhyNCAAxAg0Y1Gw7Qpk1WVptK9l/nsdcftPT+stc4971ZmVnZXVnU1ulbVy3vvsdus73J77b1dWZaRL+gL+htGMUacc3jvaZoG59ziJS35xQNf0Bf0004xilx3zrXfn0VfgOAL+htHXan/LA1g9AUIvqCfefoCBF/Qzzx9AYIv6GeevgDBF/QzT1+A4Av6macvQPAF/czTFyD4gn7m6acGBE8a9IgxPvG40eJ5+754z7N+L577gv7m0U8FCGwI3Ji6OyJogyHdc/Zn57u/7T67p/vbaPGeL4DwN5s+FyB4FpMtMuIiY9ufnVu8t/vsxXue9JzuObtn8blzijyj6E+kbnm+oM8HfS5AsCiZu9+7APDet39dxnSaKLX4Z9T93dUG3nsc899dgHk9zxPAI8cAHPI4A8NHwWT32+fTAfUF/aTILWaRdpnvWce65550/Elkz3kadRnevgtvRbz3JEmC/JwzVQRlY6EnM57HOQghKtN26uIEBlHfEUJovzvnaJrmOerowEWIBgoUEA6Qd8Z4un7PQ89+52n6+DKepiddb8e6fdA9t3js80yLffiscn8EBF1arPiTOvBH7dgu2XNDR/IuPqsLApTpY4w4vS+GQBMCddMQmoamaajrmqZpaEJDDAICn3q8T0icxyeONEnx3uG9fCZJckp7OAQgEAnKwB9tRmF05+YgEKY/zTzWRl2ASb3afz4xfZJ+MFpklO7zFs993ukTg8Aqb0z5PI3bZaCn0eJz7HcIof0dgaauqZuaGCNNHYnRmFsYO4RIo0xf1zVl01BVNUUp91V1Q900NCESHTiXkGYpaZ6TOkeaOFLvSHCk3pMknixNSbOUxHuc9zhlXu8dOE/iPT7xeOfx3hEVFN5JQzs31ypmfkmbqNnl5h0jwFCMLVik0QD4IzCetd+LJqnX3G96Gtk1Vt7u96fR81zzSegTgaALAOswe8hHKgu4GInSw21jmcRDOyjGSGgCIQZCCK0EDyG0zF03tTB5XVOUFbOqpKwaQh2oQ0NZlhRlRVXXFHVDGRrRAtHRBKiahroOBO8hSSFJcT6BJBENkGWkWYoLAULAVSVUJS42OALeQ5qkJD7BEXExkDlIvCfxjizNyPK01RjOORwO1zI8pN6RqkZL0hSfJGR6fZKIOef0Xu+EebyfayBrYwON90l77PS5uQ9kffak/umSHbc+6t7jnGv7ya6x59u5JzGSc67V1IvnnoeeVtYXQVYH9+OAIISgnTa3v828CAtOX9SGq0MQRq4qmg5jN43cV9cNVd1QNTV1XVPVNXVVUYVIWQfKomwld4hQhSjXR5GL0SfSESFQRaijI3qP8wkuzXA+IQgrC/P1eiRZik8zfJKIOaSfhIZQ1zRlQSgLQl0Rm5oYGkF1CMTQ4JqKhIDXjkoSR+o8OIdX0yeoHI9EHA0Z4GIgNgGfOJzzpA6IAU8kTRLVFmb+CfDSVMrmnCNxniRNyNJUPhMBXpJ40kQ0WpZlpKkANk0T0jQjSVPSxMqnJhqqnU4dc8QYlPlFqxnjy7HTIAgqrIwX5JFPZ6gfhZ70nKcBY/H44u9F+kQgsIomiUihpmkYjUY8evSIxwcHVFVFjI6qqWmqhiYGmiZS1A11EwiIAxrqhiYEonNUEYoQ5DhQNgKU4BMaEjVbIt6nuDQDL53pkhSfJiRpTpJl+DQhuESOJwlJkpNkPVziwXs8Iml96nGJwzuvZovaHlq3SCRUDaEJAuQgplVoGmKoCKEm1g2EmhAa1XkQmwBNQyQSQyQiWiU0NaEJEAOxrqmLQhgnBlwTqKuCWFcCsBiITQWxgRAgOjGIYiPgAXziRHN4TwIkRJLE0Us9iYImzzKSJCXLUrK8R56lpEmmGseReNeCJklS8jQjyVOyJCNJE9IkUXDJ+SyT5yapmITGQMYTi9/t9xw40sQC8WczKPBUxpRnfdT0Wnz/4vdF+kQgME3gnDiLZVly48Z7fPvP/4IfvH+LWXSQ5iLJZzMpcKP8lWW4JAHnybyo8yTv4fIepBlJlsnvNMOnGVl/QNLrkfb6+CwjzXLSnnZkmrTOrPcetNMiDoeCxCc4EmL0YkiLA9B2SHuMSIgOL2yLdxDDHPCRCCEqczdEF3FBfJEYInh5awiNmH9EqbATqUojJh7mqNcCsPnvilBXhLomxkCoK5qmEkFR10Q939RVayYSggCwqaGucDHgnRY8NKJJhOv0uJYpRFysSWIgTcSU896TevWLkoQs8SREvLOoW0a/l9Hv98h7PfIsI0tTsjwnTTMBRzLXOlmWkmU5eZ7peQFSmqXyvA6AeILZFNVkXqTYMdOeBAQWQGLfn8TgnwgE3ZenacpsNuNP//Rb/I//5g/41u096o3z9NdWCWVJPZvhQsBXYkr4TG1eIHeQeU+S52S5NKrPUpIsJU1zsjyn1x+Q9/tkg6EAIMtIezl5LyfJPEnqSJJU7ei5TS0q3t6V4JwAT/5U8kda53UewRQ5pf+rUyNoaRs/WANrW0SxebwTIDmnzK5jBK4FkrwjdO+zc1HMxhg13BpFe8Qm0oQGF2uxyYOcD436Tur3xKYmNkGstaYh1pVooigaSQBUEqqSuqqoiwKaUu5Vc6+paylODLi6JtYFTTUj1AEHZKknSxPSNMW7SOoTenlO3uvRy1Lxd5KELM8YDvr0en0G/R55ntPv9+n3+uS9jCzNyPOsNakt0GDfu76G92KmyvFEW3Eu9Y2M2RdNNNc1+xboE4GATrQhyzImkwn/7g//iN//X/+/fPfYkb3xyyyfvwhNJFS1qPS6JjY1oanFJq4bkqbGNw3EQOoCPjbEUBNDEOC42DqRPknwUSRaliZkeU+ljiNRqeSd2MQ+TfFpKhIoS8UWzvqkmZhMSZLgDTgmCZMEl3i8S3BetEN0MlDmvCciwBXGV6CAoCfqh1OmjvNjp0coDAnK/woK5yA67Vy9SB6lktsjBkQUjSTf5bdD3hmJhCDvFq0lmsdFDTyEmhBqQi1/TV0TYkVsRNOEqlbNo6ZfVVNXJVU5oykrAWSMuCh+XChmhEq0T5o4AWBdEpsaFyFPXMvQWeLIfEKaJeSpaIs8z8jTjF6vR55nJF7Mt34vJ03F7BJNktPr9ej15HueiZ/jvZMARaIBCNV6SZqSqWaSNnoyaKTZPgEITmmCLGM8GvHv/ujf89/92/8fPwirDL/x91i6/hqeDPElAy5EaUiVOiFUUFfEuibWtaj0pqQpC1H5dUWsS5FITSOgq2qoKtIQxK4n4p2AxQNJE3Ax4DRqkiQJaYI0aJKIFvFi46ZJiksS0sRLRCdLSfOMNO+RppmaWAKgJOvh1Qn1adqOV4jTKL6G857ovER0pGSnBsaiMbsybuxYJ8b4nWbVi+bf7V7Eumm1lNMf7W9aTxxc7LxTgGJgIgY14SA0xizdgIaYI0EDAk2j/dcIOOrZlLosCE1FbCrKoqIuZjRVSVNW0NTUTYCmJjaVgCTWuNDgY5DxF6dh58ThYiRxjjxVBnee1EOSpPRy8Vf6qRczLXGkauL5RDRTmqb0eznLK8tsbZ1hZ2eHPM+fqRE+EQjoACFJU6aTCX/4R3/M7/+vf8D3mhWWvvnbLL/6Jt73CUEYNDrUphZbVmxmdRRb268Rdd+YcxjwNIRGpVwjEsrVtZgNTYULFbHW72VBU5XqsIqGcaGGUOPqBmKDq2t8HfBB3uVpSFzA4UiylCzriYmm0aI01bGDPKfXz8mzjDRT3yXLybKMRM8nWS7aJknFMVcgukS0i0krWvtXgIJKKpH00ljORR1N1vZWLTRneEGEM87XHjrVUW6uiOxJdqmzf/S9QuLXREWm4CLqxcigIoFIkMBAkNBxjJGmlvZsTbYgJhshiOYITWuSUZvWacRaqGvqsqQuS0Jd0pT2V1CXBXVVQVXSFDNiXRDrGaGSc845sjwjz3sM+j12tjb5uTff5Jvf/CYbGxvarp+CT0AHBGmSMJ3N+KN//8f8/v/yv/EX0x7DX/9HrH/pq7i0T2hE+rTRFzriz3okWthA49BRukMiCKLiAyKdXIgSJYlRJEtsiI3Y0gTRGrFRhzEE/S2RnNhUUM6IVUUoC2JVEMoZsZpBVcmzifimITYNLgScd2qGRbLUk6s55pMM5x1Z4iVq0stIsx55mquDmLYgSXu5ahSxl5NUQrNpIsBJ0kxA4zy0cX8DQ6eJOkwe1exxXdOre4GSdatdomyul3VuaNHR6SKnPpCTu6QfIxJjsGCAFK7VIIhwMxDEpqFWh76pSqpiRlNXVEVBXZY0RUlVllRFRVHMKIsZ1bSgLAuqYsZsOmM6nVHOJhTTCUVRUFUlZTWjnM2IeJJeLm3flJwfen7zl3+e3/tn/4xLly61YXz4qEn04kCQpkynU/74T/6Ef/Gv/i3fOYLhb/wTNr7yKyTZQJwq79ocGWlk80L1YU/ovI+Q9bVJKaQj2g6Vk9rpUSIxiPSSaAlEJPQYG7GRY1MSKzG7Qi2qOtahjcaIs9kQqgqaCteU+LLERZVw5QxXzUTbRDXJIvgYSVT6JIknTVMys4OzlLyXk/b79PpDesMl8v6ANMvJ8h5ZryeDdqn5K6pJXCKRLp+o3+LVvBFtEtX0EQaex/Lbtlmg6MCbiWbBgM6FomjUN2lNKBNADRHRtKGZh3+buqGpKpqqoq4rqqqiKSuqckYxmVAWBeVsRlnOKIqCejajms0oipKiDhS1hMXLpqGUIBZlEyibSN0EGRvyCY1LqX1CE4Akw/UHIkQO7nPp5Db/8CtX+L/9n/8Lrl+7Rpamqu2E4U+1wYsEwWw640/+9D/yL/7f/x/+dK9k+Lf/KZu/8Ksk+ZDYyPXy/K5RfOpxLZ2WVKcFlJw/fdx+tGk5HZK4T6djnZTbuaDhTxk+g0AI2ulBYv1RzTT5rHGhJgYJRcYgtm5TFsRqpv5Lo9omQlURq5k4j2UBTY1vKpKqhFpA5IiSmpGkpM6T4MjTlHzQp7+8TM8cxDwn7fXpDwbkgyXyXp9sMCDVMZEkkU8blQYb4EpFRAg3zxuwbQwVIg4CwtxipspYTWwCIdbEOlA3NU1VU5cVdVXSlDOqYkpZFhSTKVUxo5gVzKYzqqmcK8qCoqqp6oqmLCmqmjpEmugonaOOnhAjdYhU0VElObXvQZLRpCkhzQlpJoOgPiX6hOhTYpoRkpSYZOASGfVPM2KIJHff4fK9P+d3Xt3iv/4vf4/r166TpTL4+KmDYDqb8qff+ja//y//FX9y74T+b/wuW1/7DZLBMjROfDD3hI5oydj8I6/RMx1YPBtDH0uteSE8T3QyCCdFU4kY5LsodzHJHIjJRQSC+DchqBmmTNOIHRGbhliVhGpGU82gFuYPRUGcTcXxN+1SNwKassDVNalHY/W06RuJhzzL6WU90Sq9nCzvDIL1+mR5n6zXk1CzapkkzSXknGT4RPyR0GHyuqoIVUlVVVSzKVVZaESopJoVVNVUzJSqYjYVyV43DVVdUpYi7WdlpcweKeuGqqwlWdE5qugIztHESCAhpD1IU5qsR/QZMU2JzhN8SkgyQtrD6XGSlJjIoGf0Xr4jA5voyHkEcJKvFcsSf/N7XL33Z/zT187wX/+ffo+rV66Qpp+BOZQkCUVZ8K1vfZt/8S//R/7o5iP6v/a7bH/975EtrYsmiOD801/wTLI3d243yDybVDU4gU8LnPaHHmkdp/k18087J4YH+i/diIsDghOHPwrKnMX8aYAGNGEjNrU4g+Y41iJpQ1kRZlNCMSPWM2gEFKEsCNMxoZgJGEIg1DXEiiRGEg+Zk/SJLNVQYj9l0O/RHyzRHwzJl4bk/aH4Ih7quqauasqiZDYaU8zGFNOCyWTCZFZQFCVlVYltXhUUTcO0cczKSBMheEdwnuA9wSU0eBqX0CQZwWfEmBCTlNjLiUku0jtJwKfELMMpg4fW9xHGjlhIWrsNJ4LIy2dr6zVRTWIBgQNc4ojFlOS9v+Da7l/xv3vjAv/3//L3uHTxUhsqfRKDf2IQWNgpTVOKWcG3vvNt/tv/1//AH7xzj/6v/S47v/YP6a1tKgjErXoOzv306CPI0QPmlEfUxhYNYECwXlG5YzCwsy3NwSHAk/qq2mIeCDBrEGijYjFEHUOR0CJI3J5aJHVTSTw/1jWhLKirGVQllCWxLIiFmFwJER9rUiTcmCUpvSxV0yqBYsZsdMy4hlEVKKcFZV1TBChCpGwiDWJ+NA4a56iTjNr3qF0KSSKMnGTgE6JP5p9pQnSpSGufQCJOvg1O4hwxkcFKEYi+tWFljN5p0EO1LMrsanpSN9DIeBMgaTP9HmSSQhNnY7J3/4yX93/A//4XrvJ//S9+j4sXLkqGr9Iik39iEHQ1QVmWfOfPv8N/89/99/ybv/6A/Ju/w/nf/B36G2c1DAjOchE+J9Th/Zah5wBYLKcAxsDxJIrK4S14jBZviPp0J6CTQuh9TkAxD48GXJSEQYu4EBoa9U1CUxHLUpP8ZKCKSsdeKnH0nYaB43TC9M5N9h/tcpKtMhtuqCRPaNTODj6BJNM/Y+5MpLlXaa5Jf8LcWhHnNM9kXvsYlYm1ziLdJRgSldEdURg7aojcezGFvIcQcNMp7viYWMxwmmJCU2uaisdtbxPX1gSY42PSd77Fq0dv8X/46sv8X/7z/yPnzp1/YZrgiZMA7IaooTHLdIw6mhjrSmPIHWn7OSIrjlPmN8aXbjRoWNhvDnrpR6uL3G2awjmdQ9D9a59vV0d9iIItGGOgAsNDTOSTFHyG8xnO9/BpD58NyfqrZMsb5Kvb5FvnGZy7wuD8SyxdeoXh1dcZXH+D4ctfof/ym/RefoP02pfh/DWmg2UOQsZ+f5OT7euMzr3K9NzLFGevU+1co9m+QrN5kWbjHM36DmFti7C0ThyuQG8ImTiuMVFGdV6CDag2s2BC0+AaSecgis9FaGA6g6Mj3OPHuL1d3MMHuPv3cHfu4G7fhr1Hkr6Og6aBo0Pih3fgwQPi8ZFovqaB2ZR4cEAcj7Uv1WwNmoHQDo5pN70AeiIIjCksfSJNJSfEhSAxeBtmt7yA0/Lxc0oigV3URtVQ4/xzHk6Mek1EO9numT9KaQEwahpYm1hnWRM5xO92iPaM4lIopymkogcSPBne5/ikT5IPSfJlkt4K2WCNbGWdbHWLfHOH3tYO6fomsT+k9ilNNqRZ2SCsbhCWVoj9ZegNIB8Q8xwyYfSo5sy8VjrPwsZfqgo3m+HGYzg+xh0e4B4/hr1d4uEhrigM3biiwO0/hgf3cHt7uMMD4vGxMPL+PvHBfdyjPQkYmIaYjHFHR5JGs7xC3NqGjU1cvy9CJ4a5Jg2Nzv+Q6F2MOoflBdETQWCawCSe5be7KIWJdXVaJf4UgEDi68LYosKFwaML+tk1VYRjnTGnm7cJdHj/maQXGXO7DlD085RW0XdEpwOKWgzlMy2X/kWndncCLhXQVpVo6aZSd0WAjeq+NtE2BFzd4KpaJhVVlTjzUd8PUBS4gwPcw13c7kPc7i7u4UPc/fu423dEyo/HYvYER5wVxP3HuMNDub8/wC0tw+oqsd8X5p1O52aP5pvhHG5lhXjmDPHMGdzaGm4wlHR6J+HPLghcaFqtPOe9T05PBEGXXGcWkw8NsSpkECp2Xczn4oqfIEmESCSIMnuoNYtyRqgLHSSK4viqvxetsT9Jez9305j/oABR4CyCRMCpDB4Bp5mvdYkrpyIxmyDgwSnDVbjxGHdygjs6wh0diuTe3cU93oPxWMDiZR63G50I8z96RByPcU0j5YqROJ0ST05gNpPfMUJd44qSmCTEzU3izg7xzBnY2sKtrIjvgYBbRsGDOMOAy3JiT5zgaHOvUc5UNSqTnEq8CySdpLoXRR8LAnMwEp/IqGtZEKtSGsv95ADQ1UHd70+m+cCSA0KoqE6OKB5+yOzBHYrdexSPH1Du71IdPaIeHVAXE0Ko2gzQ1m/4NOk5OrZtcmfSXk2HpoG6JIZqrjCIUFa4w0Pc3h48fiwS/viYeHRE3NuFBw/E3AlifrgYcJMJTCaCseUV4tYWYXubuL6O6+UypyKIXeecSOoYAi7PcEtD4nCJOBwSB2qC6ay+iGg6dA5GjDLpyoHwUyNp3jKwJ4AH0xw6p0ITGp+nrZ6XPhYETifXpKnMz23KUlNv1Wb7jEnMGTSeI1EIKcXTozsgqQFOGaOpCsq9e8ze/QHTt37A7O3vM3vr+0zf+h7Td77H+N0fUDz4kGY2IkTp7M8EBM9BsVNJsZCc1K9pxLypK2EyJxLXjce43V04OCBWpYzO5j1i3hPmHY1hMpb6efWF6lpac2mJuLFJ3NiQSM3SMq7XU8d5Dlqno+8mhcz0k3/NplPBjk5gCpLYKNpN6oDmhLVaT5/gomgCMYfmgYgXRR8LApDJ5qn3uNgQqhmhrqRi3R75DCgi6lSiFubkase1n/Nkr+5vp9LcEYllQXN0QPP4gHg4JRxMqfeOqR/sU9+5R/Xee5R3btKcHEKs1ITSUMlPmE61eMdncDEIUzeVDuI5kbbTCXE0kjqsrMDmBmFrE7exgev35+aM9qdTGzx6R8wz6OWQ5ZotK+ZKdE7GA6RRJUUlmoc/b6YYZfSaoBnFqM8VI64WP0Q4XlJCrDLRJxJOdWKeSW5XReoCaWdO9IuiZ4KgZSCvS4+EiljOZC5AmCP8syIHc8cxqmOLRAps5NckixPOle/qSzqHhvoqmSqZDPCDHfzgHPS2Id+GuISb1oSTY8JsKtmmKqheqPh5ASTtgAgA54ixkfTzYGpPgOGcg/6AuLxCXF6GwUBHfWVlDRmsUCaMEr2RaaS2/IzxQiNONYj9ro68JmvN54arpiZGmW+CmDetfxOihFk7EaD5nyyiEL0NuEVi3eCamsRJZvNn6hO0hcYclDB3jFkwhz4DPIigiPIqFwkEHcFVdayRHmc5Qy7odwOJgEAm1Acd/exBMsRly7h8FZcvS26Lep6ttjYgfI7IAkYSUgRXV7iqEmmOIl/JGWOlMuIrwkLr1X7X61uzRDWpE1A5G9WN+j7VxmIOaeM437adNrgKIk2diDqPu67UD1HAtmBYNIciTudZ+3YNp88QBDFKOEomkKQkOAmnNbXU0UlFRa0t3v0pkLOelw5zMRLqgnp6TDU5phkf08xOaKoRoZkSmoImlsQoPowBQ+qgGaPRQCJLuOAlqcvphBmRsIsF+ZyRcwIEnfTigszJaBkrSFqGmDzGnKbd5mZN25naLsKC8+P2fGNseZbNBZGRYiuPObaiKOy9Mk+aIJJdmUgroe+1pW9a6aPmUKjwjjY69JmaQwBZltIf9OnlmUwSr215Qws5aoN+yuS0zUQIRGJTUh4+YvLBW0zf/QHT999hevMG09vvM713i+nDuxS79yn2d6lODqgnJ9SzqUy2KQqoCulUojCCqvMYg65rtCAxf9Q6dq//Ue99TnImwLXcRI3UODVRlKmdmSw2OKg+k0w20odEBYNmuNoIOSAMHHUwzZnEl/CEs/tNequKksiVOsEqUCWapH6CNWwHrISm1Q5SHAlnuxhINEjzmWkC0wLOObIsY2nQJ88zqGU0UVZGmNvbL7KTLQKkFv/8PxNADtEC5Yzq0UOKmx9Q3rpFefsu5a0PKd6/xey9G0zf/gHTt7/H7L13KG6+T3H7JsWHtyjvfUh4tEscHRDHj4mTfeL0iFhOiE0hWsJBTCSsZ9r9ebRdVEkrvkorR1sTQeTKi2ks4/GoM9FikOmpjjCXFs7SN6IOV1uwQE0U7Fzn2kbDpc6pc6qNblEdfbaASQtCx6xpzaHOnxO/BQOehmQlr1wZqAnQzLWDgUjypGpSncQkmmCxNX58eioIDGlOs0n7/T5ZmsgaOaUu5+FEelgbvigSH0Q+bWDIaQ6PaCeJjYeyIJwcw3gGhYe6BzNPHDXExyc0dz6k+uAm9e27VB/uUt66R3nzDtWdOzSPHxLHB8TRLvH4PuHkIXG8Sxg/ppmNJNqiKcFme38c70Ysx2hedmMCsRxVaDDvxI955DOp5Tlj7CBzgQWwqsGiMmk4HcK0U22bGiO3UhqN2kg41EVac0XA0ZH6dr+3C+WclEkmGXUthmjvcE60ryXodY8byKJk4boQSNOUPM9VOJ9qik9EzwUC52T9H++9TEnUGVgudir3wmjeKaelqXzO+VHi2eIwZbjeOn64jR9s4/vb+HQNQoprUhxLwArUfeIshULmCaBrlUKEpiAWJ4TJPmF2JDPNnExzNP74OKA77XgXFxxKA4Yed+pwo3b3j0vGiy0T65zrVvIbAGKUCE6b0KeBg6jaNcR5qMmkWpepo5wX80mYWgqgf0EluD7fTqEmmkSa9Kg928yhFkxaRjTKZNEn9XVwURYTU3PoRdJTQSASVz7tpZIbL9LGRe3ghfs+CYlq1ryeKNKyNSgconlMwjmRKLEJ4FJ8muOyAWRLkC/heiv43jK+t4LrrUjUJ1vGJ8v4ZIkkW8L31/HLO/iVs/ilbeit4bIBznLn1S59XnNoDl6tA1HmPqOLB6iUFHNE6qM882OR8RNI6oSrxRwi1MpgWvhgTuucwecjtfYgrZz9Rp4rDa18oCnf8krTNB3t0dE2UQsoPoHlmSmz17oEpXPzOQl6PVFBkOjq3VF8Bdc06hirdm7L+MnpqSDoaoL201ZOqyWLVLjjxZGYQVEzOzUtI8Z2CZbYzNRmL4mN5NmHupwzVZR5tA5HdBLpkQEedbLwRJ+CTyHJ8PkS9Ndw/U3ccAs/3MIPN/G9JZnf2trFcwAYa8v/88+ISldR/sQYCU1FMzmhHh0RqmkLhOjkHtMMPwqdutpAYM8LFb4pxbmkI92jSen53aLFdXxB1NIcAFHte1k6W/tEs0xNKOoCCxJhU+Y3ISWwbAsoA2lWeHXgQ2hTttt3mvPu9FlablfLdFWYzxF4kdrgqSDoktNM0iRJZDBGoyqnO/BH68wnkTEVURxJ0Qg11eiA4t4HFB+8Q/HBDYpb7zG98wHF/TvU+7s000PidJ84eUycnsgyK43kmojE8xIC1UW5bAnH6BOcl4ndMi82J6Y5PuvJDCvnPzISLT6KZXvqZ+u7CGCcg1hXlPu7TG58n8nb36O4f5tmeqLjK9KmrZYVsbnYHE+kVnobnyjfOieJZrEuZbZWjK1DG2MU7WDM7YSB5/91mN/+UHvd6TNMigcNc6I2uxVCHLe2cHK93DPX4AaKDiC9Mb32vTG/to0MbsoaSPa+nwgIvBev3PKHbKaTFMQ6r/v9xyRrfLM/nSM2BdXefabvvsX07beYvfse03ffZ3Ljfcpb79Ps3icc79GM9ognD4ijB4STh4TRLs3kgDAbSdSnHEM1kRUkQqmLe4nDKlpHG1fnzbpc1gtabHiT+qeAoFqg+1mfHDC7dYPi3R/S3LpJffs2xf0PCdMTmUhgDGlmkpkjH0MRQ8KcZ5wqKyyOb7F8bUuT4qAMZw66MqQ3wOgzhNGjsEdclMy6+PApZpwzrqHSGN3CrDICLNfNQ6TMI09x/u45UA0fooFMC4CU/UXRc4HA2VqQ3hNDaNevbO08sC5ZuPM5SCsT28iKdIhzalhUFfXRIc3BMXFcE6qcUOQwTmBcQ1G1C/LGGIjlmDB9TBjtUh8/pD55SDy5Tzy+Rzi+Szi+RzjZI4xHxGJKrKZQTaEpIFRqT1veu6wKHUOttr3+KaPL/6ol7LiDWJdUjx7Q3L1Nr3asLp+lP4vEu/eo9u4TiqkwZ8uIKiWlIZ5JTwKBFCTKZ2ubi2QWv8NuUCaMYiDGGOcDWE77Qv8cqo05zdSoRI6qyeQZ1vfK6NaPTp9jqd8KmPYe5+Y+QVRfoQl6LGmFoTj7YZ7I+ZPQBE7nFCTei19QV8IYHfUn9DE9uEARaYhWska1VVUORdAJ6CXgcdky9DZw/U18bwOfLePzIcnSFsnSGfxwC9dfg3xJ7H5T9URcqHHVDIoRYXJCmE2I5QRXHOGm+zJWMH5MGD2iGR1SHz6m2n1AsfeA8vEu1eEjypMDmtlI/BNjPMvbaTsmUk9HNPuPSGYFK5uXWL/0OqsrO+RFoH74kPr4UIElom4OJKTjjR/bdpqT8bx9F35SBztKTk4r9UEc/A5zS3mZh2sNMNbi0cKpCha9T542r6+Uw3wN9UFM2juV7qYh5iWXvrAoUOIh1RyhINEtQtCJ/Do+YSkWMcjKG1n2QgHA84DAzJJU15+Xxa0EBMawQsIAT6S2R62x5bvF0cWRVamhoKNtQ11My2fEtI9LMlzaw2d9fDrA50P8YA2/tIVfOoNfOUeycp5k+Szp8jbpyln8ynn88jmSpTMkg3VcPmj3SEi8w9PgqinMjgiTA5rjA6oH95ndfJ/JjbeZ3Pgh0xs/ZPb+Dynu36aeHEPUmVFOTCrTXsSGenxImIzo5UssbZ6nv77DcOs8w+UNODqmPtiXUWs1w6zu4iiLBpTnmlSet2sXBO0xM010fdbYdMwtJ1Z/bE0cfZc9J2oaNsq8pkk0p1+cZjN3kOdp+NK5+fpJc2a3MuuztY1Ew58GmYVCFY1zUyiZZ5C60EgYvAMC7z+6weMnoY8FgVO1ZwvYOud0mUNdW7SD8Dna5xS1M6KzCI4eU8anAyRRvxJSdOggizGCLlUo/SbMIg6XJzpdwSzJiUkf0gFkQ5LeMn6wCv01GGzAcEujQKskw2X88jpuuI0bbOIH67jeKi4b4tMc33gYNW2adXV/l/KDWxS3PqA+2m81oVkyFumJsSGMT6BsyPtr5MNVfJaTLq3SX94gDY7m+JgwHYELag10tYnWTSW2aMq5gInMm9lavAuCqGnHoPc6WqCaSaK8L+2qE+iNee3PyoQ7PegnwJ+XV6wBBYqW194r91pAYe4DteMJNi/Bno1eoxmkAjLZOsu7qJuDiCZ4kdrgY0FgmsB7GTn2zmsiVSdzED4KgCj/SGFVWtplagu3AImRUJfU4yOq/QdUj+9THexSHj6iPj6gmYyIVaESRNbJbMNpKnXaP30eMRKdhkSdF0jpsn/4BNIcsgEhHxJ6a8TBJgy38Uub+OEayWCLtL9Dmm3jk008K7hpQzw6pplONGIhDItFExGnL5QFLkayfECS9kS6JxlJb4ncD3DTKdXomGY6piknNOWUpinnvocTURAjc1Mpajt2mnjOPyZ55yt1C1OrX6WMZ+nvDgXbKaltf9Kuc/NOyiAkF0WneVXdyFJbIrlHtOM8uU4uUU1jmkr3WJNHzzWXXCzmseQrybpLme5L8ZmDAGUsc0q8k1AcoW7Tk0+TdJ44NZ3wIqfaSBuUVvrV0xOKBx8ye+eHlO+8RfneDYr3blDc/oDwaJcwPiLODmF6RCxOiOWIWE7nodogi8kao7goO7A4J1P72g5z6HcJf4YQBVu6HiY+E3Wc9XXgbRnfW8Plq5D2JLFOGaaV3B1Dw3jJeS+rW7tEOtR5kqRHng9Iyobm4JDq0S7l7j3KvXvUjx9SnxzQFBNiU2rESrWMSvNO47Vk18VoS0dGTaST40SZ2BJr25xwXlYxQ5XxnHZOVCa2zlKzBwUS+g4pjkr0dgzC/vTfKMCzPCVQU0jTsdtxgi4QED9JXi2/Y5C93LIsE03wkzCHDAR5npN6dVaCLia1eIM6XGIjS4WcE2kZgu7RFWU1a+cczou92ExOqB/t4vb2GRwX9E8qsoMx6dGUrHbkIZIUI5LxI/xoFz96CNNDzQjVdIfxI8J0nzg7JMyOCbUwFKHCxVokZVeLtKaBHZM/6WAZRwiaXk2SEdIUclkk1jmRsoq0uY3sHD7P8Xm/na4oTOpxaU4+XKWXDsinNf7REe7BI/jwHvWtDyhvvkdx7y718QGhKlR4qEYQrjrV0pHuu42JFQQwDzbYUip6XIAgjNzykjGgvUzbp6WoDKzL2hvwBaV6q/yj10s6hry3o8FCIyAwP8Ryh6SRlLmlLlF9gthUxNjIDMc01Sb/KOf9uPSxIDBV3GoCLxMjwFTcwvXWaZgGiEQCTVUweXzIyf1dZkfHNE3dNqADQjnDlSXDfJnVrctsbF9lY+Mym1vX2b74JbYuvsLq1jmWV1YZ9nKGecZgsExvuEriwJdHuPEunNwjntwljh4SxvvE0R5xdF/GDyaPiJN9QjEi1FNiPSNWJa6p5mZEkEV4XTSJbxN2pMOiAqFV5caAtlOmT0mX1/BLS9QuUjcyou1ixKU52co2yxsXWRueYTVZZcWtsBIGDKeQPzomvP8+xa33qI4eaefLvU8CgcOEjcOlqQgWjamjPpeUTRkqCmhQp1uA0HFUTRCYg2p/Boog6Rfzx4jmiFEEWasdkE/x8WK72QfutOONt9XtFJhWVwN2lPwwV+nq37qvtNP6vCht8LEgEE0wf6G93EWJYHREiVyvzG/3NFVJMRpxcn+XR+98wMPvvcve2zcZ7z6mHE9VM8wHeJK0h++v4Aar+OEGg43zrF1+jbVrb7B+7Q3Wrn6Z9UuvsnrxNbauvsGZaz/HxvnrrGydY3l1naXhMoP+gMFghf5gVTbaqKf42T5M9mC6D8VYliiZneDGj2C0SxztwfgRcXJA0MG1WJwQZyc60DbVfbtk7VDZjdL2PyjlXC2LEPi8T9PPKWNBWUxkoV3nwGdkS1KnpbXzLK2eZXn9AitbV1jbvMLSYAN3eEB19xbN0b5MZ1SQPckccgizOduXzesSh1EcXcFmh6GMmTuaS6S39mHUKE0XAC0QVBs4mV8cO76XDDoK8+KkjGZORWyEXa9HnWavm653QCamk/KcvU5HwV3QEeOFfZdfBBA+FgRoYUznxXbHep17q5W2DhIpYU5NQ1PMmD4+5OjOLgd37rN/5y6P37vN/o0PObm/x+TxIeXxiSwgW9SMJhMe7R9w/8Eu9x/ssX88ZkYKwzV6G2cZbF1geO4yy+evs3r5NTavfVn/3mDr+ptsXn2TjStfYePaz7P10i+yeeVLrJ25yMraJsPBEv3hMsO1DYar2+RpRlZPSIsj0skByeQxrjjBhRLKY+L4IZw80JHoXeL4gHB8SP14l+rhXcqHd8Wm371Ltfsh5e49qt371EdHhNmMqppRFiMxbYiyA2eWkfYGpL0l0t4y6XCFbHWdfHWNNO+3oCIKc0tMH3WMT5OJHed0Xm7UaE8jpp9IaRmosgkx0pl6T6vF7O8pplDL3HbO3q/M2zTKwLH1KaL+I+CYM7Y476YFOj5BVH/Gif8U7X26f0SiKf2yO41THrTAyyej5wLBXBqJgym7wdhI42lNAIrstnCyQ6PvZQw311je3iTLM2aHJxzf3eXo9kOO7uxx9OCEvf0pt/YOeO/mTd57921uvPMWN27c4Pbdu+wfHjOdVVQh0riUmOa4fIgfrpAurZOtbJIsb8FwnTDYIK7sMDj3EutXv8T61S+zef0rnHn559h+5RfYfv1vsf2lr7P58i+ycfV1Ni6+xMb5q6yeucDa2cusnX2JpeV1ej6QhSlpeYQvDkmKGcnJmHD7FuVb36f8/l9QfP8v5p8/+Guqd94i3LxJenhCHhJSl84ZS5c6tMkpYnrVhGrK9PgRJ3u3qKlJNrZIVzckbUObUDTBaTJ2i8pszjkBgKVTaxe02tmidW15FqQ9mrrQAqEr5Cy0qe8TKImjbFtg2QnTGq1G0oQ7nIzA68bm8wQ9uT7a/R41k2S02Nc1mXfik6apFveTM7/Rc4LAVpyQ1QlOhUjjaRBIxMHCcJ4k79NfX2Xtyll2vnSd8195lZ0vXWf14hmy5SEuTdRETKmDZ1LMKMopdQhUoWE0GfF4b4/dhw/Z233I40eP2H/0mMODfQ4ODtjfP+TR4wMePNzj7t173L59h9u373D3/gMeH48oSfFLokWG2xdZPnuNlQsvs3LpVVYuvsryhVcYnH+J/tnrLF94hfVrX2Hr1a+ydfUNNi+8xMb562ycu8r6mStsXHiFjTMvs5JvMmz6DOuMQZUyrFIGVcagTOnXOctxibXhDmsbl+mvbOOSnFjXVLMRxegxs+NdpkcPmB3cZ7J3h+O773Jw921OxruwtUnv4jXS1U2JLKkWlk7vDpt1NYEKHT3pjAHVtIhItCxGdWYjKkUhOhudVcY1e93F+TFEghsITIsYQNqSGcDslGkHL3M3onO6DH2j1UpaZke1mJhtLcRwMeCDbEyeZwICq/tnqgksxCXlFWcHlT5zSSGfovadfiYkaUa+tMzS1garF86wduU8Gy9dZPPlS2xcu8DaxTMsn99k5fwGa1tLrA/g7NY6l65c4/LVlzh79gLLgyUIkdl0yujkhJPjQ44ODth//Jjdh7vcv3+fD+98yO1bN7lz5wPufniTD+/c5M7tWzy4/5D9w2PGk4KyDFRNpA6OOnjqCLOq5nhacjCeMg4pDDcYnLnIyoVrrFx8hfUrX2L96ptsXP85Nl/5Kpuv/BKbV3+BjUtfYf3Sm2xcepP1y2+ycfEN1i98mfVzr7F+/jXWzr/K8MwVstVNXJJQVWMm412Oj+9ytH+Lo72bHO19wOHuBxwc3mUaJ3DmDPlLr5KfvYTvDcS0aH0yEbHdLhfHXZlVW/8j5o2ZPObHyZ2t9FVEyLU27TEGHf+Qvxg753SKpsw6E4Y3R7Z9r8lGtfNRIDjEN0HD1yS6xwFzIIgjLeUWX0YAZkmc7RxjFOCtEP7x6blAIG1oDq+ZRsb3VohWLklasf3nExIvu9ineZ+sPyBfWqa3ssJgfZXB+hqDzTVWzm2xsrXCSt9xZn2Fyxcvcv36S1y//gqXrlxl5+w51tY3WFpeYjgYkOe6narzbaq0TxPyLCfLc6KDk9EJDx884N6H97l37z4PHz5k9/5DHjx4wIN797h75za3br7P+zfe4ca7P+Tmzfe5v7vLybSgdim+t0y6tEG2skVvY4fB5jkGW+cZbl9kuH2RwdZFBpvnGWxdYLB9kcH2Rfob58nXzpAubZD0l/FJTqgLJpN9TsrHTLKKWRaYpg3jNDBbSglnNkivv8zgtTfpnb9KMlzBkSjjmu0eTd62TS4CU9hGDs/HKaQzlDlbJrPQsPRTGx0yILXXqi2vDCYRpKiJhebsGjCFDWxXGgNBCzo1/9Dn2QQbAdl8Ma/2HgxMUlvhu4B3sme1ZS2A8ORnpgmscKIN5r5BBwmdT3QoXT5bX0ujb+as4SzHPyFJe2RLS2RLQ3wSSakZ5BkrK6tsbG6xuXWGre0zbG5tsbW1xcbmFhub22xub7O9s8PZc+e5dOkyV69c5/r1V7h2/RUuXbnO9s5Z+v0BTdMwmUw4Pjrm8OCA/b1H7O495MGD+zy8f59HDx+wv7fHg3t3uHXrJrdu3eL+vYc8erTP0eERo5MR49GY8XjMeDJlPJkwmk44OhlxcHTE8fEJRVkJH+n6/uZ0xqakHO0zmT5m5hvixjqcP09y+TLptatk11+md/1V+ldeId+5QNJfVjPIzA4NPXbat/2qHC9ROmOarpk6n6IofsjcGXZR9ptrnWVzvBUMrdPcVTTYcdm7wN5r7xSGVC2DBUfU/4mGr04Y1MaKupWKqr1MazTiGHvvdDf7OQheBAB4bhBYw2my0xy9Ty5EW61WilllVY3pBBSHa9fn92mOHy7h+z3qYkxTjHEO2W0+keHyPO/R6w3oD5YYDpdYXllldW2dzY0tts/scO7cBS5cvMTlK1e4fu0q169f49KVy5y/cI7N7S2WV9dYWl5haWnI0nDI0tIyK6trrK1vsb6xRX+wRF3XHOwf8uD+fe7f/ZC7d+5w785t/fyQu7dvc+fmTW69/x7vv/cO777zFu/deJu7H97h8PFjppMRZTGlKiU6VIyOGe0/ZHJywrSMTGaROunh17fId86T75wjW9+WXKak13aJcxrZaZnK2nbxuzCbMJg6yDaVUvvCmXlqDKj/OZB/nTPbam7qdJxWYTa1BJJE9ynTTfNCI3ObHfNIj2IBfZ9gQpxjp9oAL9vYzleiNuDKtdEh89gbWaQrS1LZm03neMhlT+a/H5V+NBBo4Vr0thGLthrtv3Jf2xYdskbqmFYBfJKQDIck65uU9YxyfEhoSr1G78MBHoft+ZuSJpn4HVlOv9djeZCzuZSws5pxdn2VM9tnOHNmh50zO2yf2eHMzg5nz53j/PmLXLp8hSvXXubaK69y/dXXuPbSK1y6dJmN9U3yvEeMkaosmEzGnByfcHhwwMHjR+w/2mN3b5eHew/ZU41y984t7ty5zf27d9l7+IBHew/ZffCQe/fucvf+fXb3Dtm/f8DuO3c4uL1LMZqKNkwynMsgJmqpCPPNTaAnkElnpwwTzQ63CI6ODCtzt9LXtESXUd0CCKJ8KtsLuBQEAiBJCZEu1DQKnXPeMqVURIwzC6AoqKItxJvKFq1R69P6HFoeF2VlO6oSHyrSxJOl6al9yl6EP8DzguC0LzB3RlS2tH/SSE9A5xMOgY36qWOFJxksk+5coHaB2fiAUBb4tp/MPpTOsU+jSMS7QFYf0R/fYWl0k9VwwnKekGU9sqxPvz9guLTC0soaq+sbbGxtc2Znh3PnL3D+0hUuX7nGlasvcfXaS1y6fJVzFy6wc/Ys22e2Wd/aYmV9ndW1dVbX1lhb22BjfZONjS1WVtfw3jOdTDjYf8ze7i4P793n9s33ef/W+9x9dMDe/ohH9x7x6OaHPHrvNge3HzB5fCT7JZu5gI28zqXiYjcb8zvlNTGb5JzTqIows/kBqlHaOL6YV2amdt8lHD9nXNeiTXyTNjpkj7c+1OQ8AdhCGFbNLbEc5tc573WzP3OWFZwRKbNDwq5VgasLHVvTFU/a8r4Yei4QOCcjdT7xeJVUKrNaFWt2nhhLz0cCKusch8+HZGfOEYd9ZpMjZkd71JMT2Te41gW/2uiFfqokEqejgdljmodvEe58l97JHXIkGS1GW0nZ4UjwamJlWY8879PvDRkMVlhaXmNtfUN8jq0zbO3ssH32HOfOn+f8xYtcuHyZS1evce3aS7z80qu88srrvPzy61y+cp2z586zvrHBcDjENQXl8QPq8pB8fUh/a4v+2jqD5WVcA7PHx4weHEgKSTmVUfMoJqYIHWGGxfa0X8or2hdCjq5kR00bFVyaP6QPlgdYOLQDwlYSax+DCkB1bLVYbd+15xy66Z8wMLEzCb8VoPP5B7bCn1wftUxmjsnvGBqoCtks3XvSJGmnWJpgfhH0fCBQJvdaSWlsORdVesncAHXCfgSyRoSIT1Oy5VX85hZVLJjufUB4fAs/3sWNd4mTR4TpY5k7PN2nGR/QTPaJ033c9IBYTQlNLZtWT0dUxZgmyDLyDg23af/HII6hCCoN0+FweHCyDmma5WTZgF5/yGAwZHlplZWVdVbXNljf3GRz64yYWGfFvDp/4QLnL57n7PYGa73Aal6wc2GFC29e59LPv8bln/syF9/4MmdeusrSxho4RzUraapSAO5E+kYzcTqRn7a9nvC9BUaH8duTTk0d+1RtHY3F3WkgiT9gq0KrCRNRDaADpF7aS8ppZfa6hpNqAcyhF03vEvEhYt1IWkeS6HNMnMo7pGDaF1EyTh2BLM3EHOosw/iiNMJzgSCqjdr+1maXf7WhTCIsdNrHUev8RQfOk2Q9sp0LxJUB9eg++f4P2SpuslneYXlyk97x++RHH7R/veP3WRp/wHJxj34Y43pr+K1X8OfepBycpWhSQlD1ijTwXAOpdHJiXrW80xFM0p9q7qmT6ZzH+6RdqDhNM/J+n/5gwLCXkhZH+OqI/tqAtetX2bh+jY0rl9i8fomt166y9fo1Nl6+xPL5LfKlIT5NhHdMmLSS0Qozp5a3u9/1h5ghZlLoVfrTqQmpL5L+0ihW+wCBhd3WAkSwIw6wvb01hVoNoWkQUpBOA9I60w7NQI4Bl3RAgwLAIlWmwVRKeefo9TLdtFzTQz5zEHQqa1KVTrNJtEfA0aL6Ockkn3SSx5GRb50hPXuO0PckxUMuJI95c6Pi57dq3lwveWN1ypfXpnxpbcobazO+slHypc3AxWVHb7AOm68Szv0ixdIVSvqyElFrqypjIwCwWpj6F4dUGEp5wARby44GDBejaHuT2k1JcbDLyf0bFM2E5Px5ehevkq2sk+oO9L21ZQabawy31xlurdNfWSHJBzLvIYqEbnn4IxA4fdy+m6nSFlR50BiyNR/0D6dmDYq3jrNpyBdnWtsLidRE3atBTJ95qnSbouHm2oaoc4ajRYJS4e9GFyLz3amVdr8VQQSOlLkmdY5er0euUyt/YuZQCIGmqQlR56pa4yAgEfAKM/9IZADQbok4kt6QbOci8dxlJr0+UHNxo89XXz7H1798ia9/+QLfeP0C33j9HF//0gV+5fWLfPX6WV4/s8zaoE+TLjNN1ymSJRrM+RLGbQXVU0hO2QVzgFiD2+h5NK3nkH0Rqhnl4S5H995jNH4E66sCgLUtcJIDZP6UczKI6H1KkuQk3gb9NCpi2lHe3pbNSmSfDukAs9Fb09QujlHL74XPzHlFmTTIGkgi8u1hBgLpl9aSsrkBWnYJZohfIcctrKpggHlqunOyJwLmm0iotQWNc8ZJUjeRQjKy3JSkMZLn+alJ9i8KADwvCCLQNA1VVdKYytJCO9UMcxPpxymcdLrTDnQkJMvruPPXOFy/yAfjhgdHJzgXObO1xvmz25w/u82Fc/J5dnuDnfUlLq6lbA0cWeKoo6MxYEYtlxmpH0t23Vy6RixCZowEzkW8awj1hNn+fY4fvsfo5CFha5PelWtk69t4n6mQsCiNk3VQgzC7WNQy6o22hLKL/jpd5u6v9rsTRjdt5jCUqN1u6cft+EFss0oFJyqJ7alqkbQOcETTs5n7DMqoMeqiu8b87V/H8bb7MCAh4wzeVrzWl0VABWrUa31T410kTXTxN9MyL5CeDwQxKghq2eDb6XiBGI3yvyF08ebnIYfCR+EUwSc9ko0dynPXuelX+Yt7+/zggzvsHx7SxIDLMpK8h9eNNBIfWc1rdgaBtRxSc+iwzpxrm48nu1c7FLOLza6W6I0jEMoxs/17HN1/h+OjezSrQ3ovvUp+TvJ/JE1AmL1laAOji2KmGciQSIlIcynrolDp/pIiKjgTGTtxzpwfYUqJiHkFxfx+p/0qM+0M2Gr+qH/iEMERVWvIjEB1mr2ATSJDGs1q28rMhNOx/xZ8sZM35KyDTOWoSYrTcQ3JM5JMhQ7IXiA9FwhM/YegrdsOd2vLylU/JgKUnDKKmUcuIcmG+K0LTM9e44PQ5zsfPOAvf/Au9x7sMpvNxBQ1weCglzacHdacHUQGtuy9SlSxM1lgoydRVCaXT2F8CQEad0m6QEMzHTF59CGHt3/IyWiXZm2Z/KVX6F24TDJYAcv/6Uh2eX3nU//mQsT+kzZZLK3xN1YTNWVES5nBrgwY9RnO6i9S1z5bR9Teh4U6533eDsQ1Add0Qpsaym0lt5NMUVEkC89vM1Vt7wNkXwKNDklk0XhLUjLkubr4s0NWRbc6vmB6LhCgSJwvhqrOCdrYsNA9Px6JRJxLzUiC7y2RbF9gunOVW+ka37m3z1+88wHv3brDwf4+VSlzcQESB9v9wKXlwLlhZDl1JE6eO5d2HcZWyW7f5ZxrP2O00qgz6QKEkjAbURzc5/jeDQ7uv8eoOiGe2aJ//RV6F66SDJaJJK2VYUbeU8lOdS95yuXdVpZqd+qg5bT2sO8xiqSWGgqTmnkn+7YlYtOr+Rht3oi+x2HzH2R2l5g2ogUIsicxXUdXBQiN7GiEd7LhiZlgzkOSqTbQqqq/EqMKGXRXzbrEE0nzjCQV32nOcy+GPhYE80Z0styK7u3lXKIN/5Te+rFImn4uDaOMJPeW8GcuU1x6lbvDs3z30YRvvXObv377Bnfu3eXo6IiykB3Wh1ngwnLDqxuRyyuRldyReZXsTuqDUyZzwij2vY3NKxBwyAK6yHKMTTmhPNll9OB9Du/8kMPH7zOhwF28SP/lL9M7f4VksAxIpKdbG63eJybHHAnyOP2hWrGNALXHLANUpa0T9Jh5h/eSC6Rax4SyMKOFluWZdv2pqE5tE2rQGWFoVEkW9XLRtIfY8ybZybL5eANSRhfmGy1GA1Ets8p6vR5ZnrcDnkYt4D8BfSwITM0K6DU6kKSydDniKOqVC3LqxyQnzxFwScdEl+L7KyTbF6kvv8ruxmW+N0v5ow8e8od/9Q7f/cG7fHD7Qx493mc2HbGczHhpveLntgOvrkfODKCfQ5LI+kmineX7/A+8jyQ+yjUuyqyvcko9OaTYv8/J/Rsc3P4+j+/+kOPJLtXqgPT6dQavvE5+5gK+v4wjBTW9xDJRUfcCAMCTHhPn5otIaZXhJvZN0qLf1VyKUaSvU2ZHmT0qiNp+VbA4ZWhcd7VqYVQXZJJMO/9X3y+JfDpO4LxmreqyL7oVVlu01lFXHwckOhRlDdJ+r0/eiQ51hfMnpY8Fgb0shEDd1IQo4S1nS+W1alNb/EWQUyZ0zjABeHw2JNk4S7zwEqNzL3NreJY/P4E/vvWIf//Dm/zHH77HD967xf37dymPH7IaHnE53edS75jtdMRyPCENE5k0X3b/xrICRXFMPT2imhxQjvaZHjxk9OgORw/eY//eWxw+uMHJ5BHlUoq7dIn85dfoX32FfGOHJOtD1FAkYiM7VLS+QIosNrPa7Gp0RcScmZ/WHB06NytIXQh4NZVMujo5PX+Ji7JahCa+tVEdx1xloCtxqF8n71JnWkFAkkgKRSPbScl6UIpQM+eCCD+nfCWbc9Sk3tHTqZXd3CERzp+8fT8WBLRACISoM/4TWbYcdGM7uWqxdz4hSeucMo6iA5eRDNdIdy7jr36J8cXXubNynr8qevyHByP+/QcP+ZN3bvHtt2/w1o232Lv7NmH/XYbH79MffQBHt6ge32H26EOmjz5kuneb8cObHD/4gKP7Nzi89w6H997i4P7bHO7e4GD/Foejh4zjhGptCX/5Mr3X32Tw6pfpnb1Mqg5wDFZKA4B1zotsE32aPlp4dR6mNIEl4Uvj9/mG3BLONnNpbh5ZuNNhg4WWEjFnUqsXWTofD7D3KaPHxKaDqmmjg2UxSUXym//gIGpUr3Xs7T+vPklE1ieqS1mCMZ/PJej+fTYgMPUjP3A+xWeZpgBLZ1s12t55YSTPl/+EwSQsm+KzAenaNumF68QrrzO5+Bq7m1e4kW/xl2WPbx/U/MeHx3zn3i5v37vL/Yc3Odx7n+O99zh8eIODBzc4fPAuBw9vsP/gPfb33md//zaHh/c4nuwxbo6YZBXVao94dpPk2lXyV1+n//KX6F+8Sra2SZL11QFW5lfOEwB07ZAXR90Wlu/CzEFHdInaH076zjmIXsSJmTvopwBGgYKZU5qbY89RJm1Nj1QmDREFBGImRUmL0PwgFBiyVKUwvPO66bdqgjaD1GoR1a6zEWF0/+KmJHGQ571T65B6jSy9CPr4JynSzCRySUqS93Bp1na6NKugWqr/gkh7U2WUvKu1AR0OmQKZrW2Tnb2Mv/gy1cXXODn/Ko/OvMSH65d5f3CWG8kqH7ge90jZJ3KSNoyziklWM8kCsyVPtdKjXl+iObNOPL+Dv3yZ7NpL9F96lf711xhcuU5v54JMgM+HRLX9oStJre6fDgCYN8n8u77SRRUVTswjOa79ExWaek10ulaQLZGo83+tHqgmsFSTGDsz0LxvzWADAUHGD+a+gtr4dS1mlPfqE6jdj5pIbYRxXn7tZjkYalxTkyWefq8/XxDaAPxZ+QT20qZpqOuG6BN81selqbSDXae1kYGhFwgETve8w3KNpHOIjuhSXN4nHa6RrG7jN87BmYtw9hrhwstUF1+luPgaxaXXCFdfI3npVdKXXyF9+VXSV14lf+U1+i+/Sv+l1+hff5XelZfpnb9KvnOBfPMs2coWvr+KS/st81uezxygKAOdKvmnQx2sifAxk3VuntiFokON0eb3x2jbIEkGqAgXBbVe1+1bmRrb2YMAGRGWNY70eNLZfywEqHSXU69RRZtLkHjIZOkUovSpCxHXaOq1Oucx1hBrEu/J8qzNIDWB/JmBwBqiqRuquia6BJf1ZPkVRbAAWFhCGt20g/6jAP9E1NbVIW03jyI4TUeQlOgE5zN82icdrJCtbpJvnCXdvkh69gr5+av0LlxjcOEa/YvX6F+4Sv/cFXpnL9LbPk9vfYd8ZYOkv0SS9nUnywTiPOwpnwYB+fyJUKRN44hBF9x1Ng1WLujIj/YeopgmLsi0SJd4YUSz/fUW6TpDhA5yJZ1lUnRXSeCjK0w3uuYoag45N48iJQmkmYRO9XIbh5DXKR8FiUgl3pNlqWwSo+bQi6SPBYEUMtKEhqYRc8hlvXavALShZKhfjkRzwOZQmEtLueHHI627U/YzdS3vUkCAZN9EJ7tVugx8hk97uLSHS/uiyfIBLusLo6c9XNLHJT1ZldolSLqbvUnK376z1UatnP1scdB5l0Oc4lDbFEdZvAAb/IqxNdvm94h5E0OQ+nXn+eoFUaUxUYIiLjaiLfJcGB7EydVnWMxfJJ6ODNe1KMc0FUe7sb2vNY3aNKe+I9KZhokc9w7yLCXPcryXsSkQC0Uu+XGZaU4fCwIMBE1DHQIhzXB5LtLDSWGkQHOWiYitKUqi+1uAEq2hFCRWYXnZwsufQBHrKIOW5NwISygo9UJZ90bVuU7qx75b1kAAF3Sea9Tveql2q7Gbfpo20hDuT4osshN1f+nWLJEwpomiTovoPdKnktek0SyLCOn3rrR1OoPPOTFjbKRXRosbcJLmEs1ZNXMo6EhymslxjRYJu5gZh7akAFhCsNKuThfgzfOcXi8nSbyEUTub+H0mILCXxNbmlI3pwmxMU4xo6hkhVMRYEamJThZnmje7/tsZfLEPeXR3Ms5ChZ5SP+seAZ0JFDlqHShSW2Fpv5/xnzzho/e03/Ud9k55V1uknwypnR/D3EaOPiE63a9NE/SitotxlkPus5lizoSHQzNOLf3B3qO945VJFXhm8kQsgW/BX0CiRjHT0KZuwIeTzFasLZ32teusT6qHvZPlF/M8b5l+EaSflD4WBGgD9no91tfXWO95eoe7NDffpnj/LYoP36PYvUV1cJ/6+BH15Ej2DAilbuimYtYF2bNWmlsZ/DRYRHMI2E5JryehQXrvNC3+7h4z7v24v+49T/v+pPf8hEjaSNIRIrLZSLsHM8rAURlYAd72AepYWkgSWUnCInB2v2nImHhJfFNTK9Yy28x5WbJ+/g5NjwgR1+YmMXeiNfWmBUxUrRLRzFKd1N80eCBNU9I2PDoXyKDg/oT0XCBI05SdnR1++au/yNe//DKv9Wp2Ht5g6cZ3Sd76Fs33/pTy+99i+sM/Z/r+9yjuvke5d5fq4CH1aJ96dizLnTcFkUb6wcswuzDfRyvSWkemJdSUak9gQHoKffSRPzq9iGd8GmT1dgqC2HT2RtZNRXQiTQsCx+nITrQZYR3tgPSFc2KqOGv3KKaWc56oDi0WHm1kqmTMbJl1oIm4RsOjSSLAAVytCyJ0NYr1qa5kYeWhaXS5lUb3xpAdagCaEGgaWbb+RdAzQWCIS9OUSxcv8lt/+zf43X/wd/hHX3uD37y2za9upXw1n/LabJfze++xdvv79N/7Lsnb3yb+8FuUb/0Z07e/y/TG95neepfpgzsUB3tU40OaakwIM4ilmFEmnaw3uvWLKqc6wNBv80sUFKZbTLLNtcnfUIqqBRoJR0Zcx5zoCgozh7TZojGdgsNCF8ZYnQ/XSA5PdGr2OF13SJeAj2mqIXN9bwi4WlcG8eKouxihroTZvY4uGwVdKYROgl4MuLrCx4Ys1TWHbIygMzr+IuiZIDDy3rOyssLLL7/C137xF/m1X/klfusbv8Rv/+ov8Y++/ov89le/xN95/Qq/fm2bb2z3+eqw5kvNPleO77D98G0GH/wV/u3vUH//Tym+/x8Z//DPGL/zl0xuvUPx8A7VwR71+JCmHBHqGTGWQKP+BafAYYEOhcy8MRQAT6VnnPqpo46AcDhJaQkLTNSpcLT2awM4Bg61wS2H33WOgWpg5ttzOd0HwUySRiMLaUZMLSsUifTYvmRJKn5BkNRonI46W0i1BaRqiESnacqDZJJ9lpFlummkjhbbiPGLAMIzQWDqJqo33uv3WVtf4+zZs1y5fJlXX3mFn3vzDb7+y1/lN3/t6/z23/4Gv/PrX+ef/OpX+Z2vvcHf+/IVfv3SBl9b83yJE66cfMjWvR/Qf+fb8Nd/TPPX/4Hi+99m+tafM7nxV0xuvc3swU2K/QeUo32aYkyoCxk0oQEnkQgDhBTyVJE76Jg3UFcvfOTan3ZSppapk2LTGzO20j5qX3bNh6hedRc0phk617mos89sLkHSWVbF0jRSM3nErCJqdmnL8Kk8PwTdOTRtTZu2vwLC/PZ85b/UMkgtjVqF8ouk53qaMZP3nsQnZFlGr9djMBiwtrbKzs4Zrl6+xKsvXeeN11/lF974Er/8C1/hN375F/m7f+uX+Mff/Bq/+82v8k++9gZ/7/VLfOPskK/0Sq5NH7L94G36N/6M+Fd/yOw7f8D4z/4dJ9/9Y46//x1G732f6b33KQ7uU432CeVYNhJHnGzno9RAN/+jZXjbuNoYoVsZOdT9/dNGxjfyQzShi/M9JGSdUA1Rqy8lI7CdJ9iPLmjoaAPDF7rSRDu1UucexCj7vMUgzriuTRqdmkO20kQqOUVi/ovNLw70adaLCPjs+RJQgTTLGAyH5P0eXscnuqbQi/ALngsEdICwaIt5XRnMgDEcDlheXmZjY52LF87zyssv8QtfeYNv/Mov8Zu/9g3+/m98k3/8G9/gH//a1/jtX3qDv/vGVX790gZfXYFXm0PO7d9m9c4PyN7+NvVf/hHT7/4hk7/8E8Y/+Dbjd/6Kye13mD28Tbn/UHaOn43E4Y6yB7BItwVtod3ZDmxh5tMC2TH97H7/XJKIXV1xuhE5nFgcXwKfnRorw+gRi8bYnGHMZ1BzRJnL0VlWxQDjEJNH84ZsyqUwum7O17H/LZoEOsjovYRIzbx1onGikzJGJ89wMZClCf1+XwbLnKRRNzYm8oLomSAwlNln0zQ0TSOJdBpFWASFXe+9121fBRxLy8tsbGxw6dIlvvzlL/PLX/sl/vav/Sr/8O/8Jr/7D/4O/8nf/U3+yW/8Lf7h177Mb716gV/ZynktHnH28fssffCX+O//KdV3/5DJt/43Rt/5A07+8j9w8sM/Z/z+D5neuyWgmBwQijGxLiDItp8yCVxHvxATQOpjZV7k8s7xp17TOfUToEXZFzU7M+CJSaaMN6+Bcxo6bSfimybQ8KimL7QXO52T4CzaI3MJ2vnFWN6QpkykMlWybZIQiVV3r2J9Z2Oj7TaSLSaSqytodKVAA5Mm26VJQr/fI0uzJ9T8xdAzQfA0MgAYCOwYPFlVOd3XIPFeVo5eXmZzY5OzZ89y+dIlXn3lJX7h59/km7/yNf7ub3yTf/xbv8bv/uY3+ae//iv8w6+9yW+9domvn1vmzV7FlfF91u58j+T7f8L0T/8Nj//wf2L33/0rdv/9v2bvz/6Qwx/8OeNbNyj2H9DMTkRD+IjLIj6FmED0kehFygmj6EAgkgCIfnaT5Fqu7zL/TwgIcx/HDkRCaIg+JWa5OKnWHypdXbIwohsVIjZfXK8HTWe28YKoUx+9I6YyIGZAcqodXK9HzDKdPOOlHUMgeifjB86LVqhrMZOKGe74GHdwgNvbxe3uEo+OJALVzneWFIssTen3B7rw1pzvurz1SSn55//8n/8/Fg92afFlNlzd9c5ttk/3WgNI97vd370m8V6zBHOGwyGra6tsbW6yc2abC+fPcfniRV66conrl85z9ewZzq8vs9nzLIeCdLRPfHyf6uEtyvs3Ke7dptq9S/V4l+pon3pyIiPb1VQcbI1dg24X5BDNYNGIJ7TnnP3V6VNYfOSiz5DMyHGJI8aGYn+Xo7f/isnDuzSbl+DqG7C0Jglu4wk8fiyO6pkt4uq63Ht4AAcHuMEAts/IZ2xw0xnu5JiY93Ab67gsh5Nj4miMy3PY3ibmGZSlMPFoBKsrsLomezw3De7oCB49wlUlbmsbt7EhmwnuPiSOTtr8IXdygjvYJx4dwWQKS0uwtQ3LK1AWpLs3Od8c8YuvXuONN99geWmpTaIzrfEsWuTDp9HHgsAeYMwuW2iePoe+sKsBFs0k+x7lR3us+0e7ooWs9ZnnOYPhkJWVFdbX19na3uLszg4XzurfzjbntzY4szxkI3csx5JeMcYfPaLeu0Nx7yblg9vMdu9S7D6g3H9EeXxIPT6hKabEuiDGUte20XraGjpmxlr9Oux/GgZO/JBFJDzh0IsjEygOQsXs0UOO3/lrJnsPqLYuES9/GQarssvLyQnu8SNhmu0zsLYm2D86FBAsDWH7DPRyMUGmBW50TMxy/Nqa+BhHR8TRCNfLiVvbkj9UVrj9x7jjI0gziRAVhb7vMRwd4/IMzuwQV1alz8cT8RW8l6iR1SXNcMtLsLWFW98QzTKbku/d5EI84Zdev8Ybb7zBYDicg0D57Fn0QkGAPjBJJItvkeG7ny2zL4DAzocYZSnHKN9jiDSaHy5LPQaquqYsaypL2tO5p94n5L2c4dIy65sbbJ85y4XzF7hw/hwXzu1wfnuLnfVVNgc5K66iNzshOdkn7u9S792lvH+b6b3bzB7cpti9S/H4IdXxAfX4hLqciYMdapGIGp3AyVC9fUf8QsmXiQqaltuV8+3nYru/MGDIO513xFBT7j3g5O2/5OTRLvXWJbj0OgyWoapwJ8cCAu9xZ3ZgbVWsoMMD4v6+gmCbmOdi+8+muONjqetgiGsq4qNHuNGYOBzgtrbEB6grue5kJJI9BChmItGLQnhkfR23vYXrD2Tijve4fh+3sopbWYHlVVhdEY2zuYlbXSMOBuATXDEhf3SbS4z4pddf4stfep1evz+3QDom0dPohYHAqGXiIE5ml/m7L4qqMTo3npL2dce5bpqGuglUdUPdyHyFsqwpK/mrqlqOVTVl1VCUJWVZUdSNLnXjyXs9lpaWWFldZX1zkzNnzrBzdodzZ7bZ2dxge2WJtX7CsqvoTY/xR7s0ex9SPLjF7P4tygcfUjz8kNnePYqDPerjQ5rRMc1sQlNXku+CjU8sbmCugGh/WiqaUNQkNjHMOzd0yS5fPP5UEiRFJOgSmopKQTB6tEezfRkuvkrsL0Fd4o5PYP+xrA6yfYa4vAxVjXu0q5pgGba3Ie+JtpjNxMyZzURDnpzg9vfFll9dEdMmSURrVLKVEnku92c5LstgOIT1ddjaguVlHStIoNcT02ltHVZXcSvLcn5pCP0BWH5QUxMnR/Qe3eJKMuNX3niZ1157jZ4m0WF8t9g0C7TIm08jV5blvNeeQV0J3zWL7HdX8ttnQEYVo0r/ECJ1XdM0Ep5rYqQOgVo3BzdQyAjoHDhBV79rmnqe0h104n+wqJwAKQRxEuu6oSoLZpMpo8mY8eiE48MjDvb32T844PDkhHFRUtaBWYAZCVVvCfor+OEKyeo6fm2LbGWdbHWddGWVZLhE0l8m6Q11HkICLtEthFRCScVbQFh2rPxrvH76V3vI6GM0RogSrfGJo6nGHP/wL7j7r/6fPHj3baavfR33td8mrm4TZxPcnQ9x771LSDLcSy/D+gbMpnDrJuzuweVL8NrrxMFQfIjjY7h9CzeeEHo9MROrktjr486cIe6clTyhWrXGZCx1TlKZcuslyS4mMigmo78WftVWcZIb5EIjmrepcU0FZYErCyjGxP37rNz9Pt/cdPxX/+nv8A/+/t9n0OvroxQAz2Bs40vn3MfmGX0sCIyh7SH28FPSHnSJxo6Nr1ojNIGgk3LqOlDXFY1mJTYhUjY1dVXThEBd19RBptgFTaiKUcylGCNNY8wvYGmahtBo9mSQ93TJIaZoHRpCXVNXFdPJhPH4hNFozGQyYToZc3xywuHRCUfjCeNZybQKFDjqtAe9PgzXSNY28aubpGub5Otb5CsbZMsr+P6QpNfHZQN8IptISE95kHWo58JevwiPd4GgiWNK6h6dum+uTKK5VLgEQjXm6K3vcvd/+m948MENitd+lfiLf4+4sgnTCe7eXXj3HTF1zp6D4RIUUzg4IDQN/tJl4tWrYg6FgCsK3OPHxNlUzBIvi3PFXg83HBL7fV0+Rd1z7WvUlzOtKG2vc4o1o5QoOU7UJa6Y4WZj4myMKya4aoqbjvGzE5icwPEuq8Uhv/6la/xX//l/xm/91t8h15RsecGzNcELBcEidR8uJJ0oklsY0RiyaYKYPyrt66qRtYs0ASqESNk01FVF1TQ0tYAhRAHPXLPIe5uga9tHeZ6BoGtydctJ1OVHLEqlGYihqambQNCVtqfTCePRiPHJiNFozNHxCQdHh5ycjBgXBbM6MCOhTnvE3gCGq2QrG2Srm6RrG6RrmyRrW6RLq2SDJZJ+nyTvywy8JNP8fOYjQ13eR4/LFz1hh6z+YlaJHyIzuSJAEgUEP/wLPvyf/1t2b92keO1XCT//W7C8BtOp+AO3buOmU1hZIfZ6oqqiE/NkawvW1oia2uBCgLIkNrUMTjnL57E/p6toCyPKOqJadHTKZl3hqhKqGVQFVDN8UUA5IRZj3PQENznBjQ9hNiKtZqTU5KEhDSVpU+GrGVvLfb75K1/jP/tn/yl/61f+FmmatELgWUzNpwkCY7IuCOTQ3N4PjSRz1SGKSVIL49eNagJlXJHocx+hDoGmlusEQPNRQdcmiYk/0r5Lpwg6J0whwNJr9Pf8GdJwNibgvUyfDEQpj45+VlXFdDrj8OiQk4NDRuMTTk5GHB+fMJpMmRYzJmVFERylzwj5ELe0ilvdxC+vk61tkK9uiLZY2yJZWScbDPBZD5em+DSThXq9jtLquMSckYTkqLSxmVXOSYOL7HW4BOpyxNFb3+XO//Iv2PvwLsWr34Sv/DpxuIwrCgHC4aEwdprK8odZCmkuoc48x6XJ/F3alvIuBZsGwOS7mKCEILvX1CWuLuX5ZYErJzA9htERTA5xszFJNSUpprhyiqtnpNVUGL+ZkbvIsJezurzE+soyS4MB/V5OL0vZ3tri537uK3zzm9/k2rVrrdkdQviIJbJInxoIUBPHfAKR6MgQehR73yR0FQJl1VCXNXVTtc6v2P3yKWaO+AchRhq9JkR5RsvATmdPRQlfCggEFF4viCHIjMnuNEMFWuyMV5gWsgYyoDiQ9e+dIzSBoiypy4KqqiiKGZPRiOl4rNu5HnFwdMzh8Qmj6YxZVVM0jtJ5qrSH76+Qrm+SbZwh3dghW9skXV0nW10jW16VSfz5AJfl+DTTCSa2CK52VmeQ2gbwUHDYOZdCU445/MF3uP2vf5+9+3uUr30T3vgGsTfQJU8kt9+0Ypv/43Vk1gnYnGldcyaRkV9JnqtlBlkt6wC5uhRzqRjB5AQ3PYbpCDeb4IsRyUykvJuekMWaYeroJ5488fR7Gcv9nKVBn6XhgJWlIRvrG2xvy0btKysrDAYDBv0+K6ur7OzscO7cOZaWlloBh4L1WfSpgcCY8rQmCNS1Sn8FQdU0VGb+1AKAqq71fE1Vi+Rtook/YUZxatUcUmY1m9OY1crRdNI3DASN3tOtbqPmmVNzqAsKHDS1AhFIko8CAwV+3dTEuiE0NWVZMBqNODkZMRmdiON9MmY0HjOaTJgW4lNU3lP5nCodEJdWSVfXydc2SJfWyZbXSNbWyVfWSZfXxOnuLeHSDJ96MTmcaopo2pBT6HCpoylHHHz/z/jwX//37D06oHz914iv/TIx68viVU6A5ZBJ7FKrOahw4PCSd9U0YsPXNdQFrpxBOcXNRsTJCW42ws3G+GICsxFueoSbjnDlhLypRKrnjpUsYZA48gSWl5bYXF9jTZl7ZWWZtdVV1tbWWVldYWV5hZWVZVaWV1haXqLX65GmKVmWkWVZu0ON9YMJs4+jTw0EpgVMLaEvq+uGJhijiwlUNUEluzB9XddUVUVZ1zS1SHsxTeS58l0kUug62EHmwYq2mQMxaITI8twb+x01/0TvD1LIj4DAEg9Co4uKOQG3vSNGmVgu7DLXWInmwYemkXrUNVUjdZtNpkzHI0bjCUejEUdHhxzsH3A4mjAua6roCD4hJDnkQ/zqBtnmGfLtc+RbZ8k3dkiXV8mWlvCDAT4f4NNcl8LXmVvKxJGI8wgIvvdn3P03/5K9gxHl679KfPmrxCSXFSK8LhETdbU50yYhEBHH1YWaWJUwG8vfdIybHOFGB7jxgUj18ZFI+bqiR0PmAzmBXgL9Xs7qcMj62irbW5uc2dpkc32d5aVl1tbX2NrcYHllmV7ea7OPB4OBTqAXpk9sJ5oFJrexKet3E1LPYmo+TRDYg7u/Y8c+r2th+LJqKJuGoOaNhEUb0RBV3e59FtTEaTQsGulEQoyJ9U/A0HahnFMQdH2IECW04hQodoc1gpVZwoz2HAAb5zCgyW+rb1SQOe9bILgodnprWiHzaMuyYjKdMjo64uhgn6OjI0YnJ632GI3EjJo2UCcZcbCMX17DrWyRrmyQbWyTb54h39whXd0gXVohGwzxvR4+7Wl+vscnnroYcfjX3+HOv/0feHRSCAiu/7yAINRi3oikkSmLQZPVzFGdHuPGx/jxIe7kADfah+kxaTkhKSdk1YQ0VPQI9NOE4aDH2soKGxtrbG1ssLGxzsb6Opubm6xvbLC5vsHq2horK8uym+dwyECzQJNUIkgmSFGrwpi6y+gm5BaPPw8A+LRB4DoDEDHOQ6HRIkC1DGyVBoCq+qgvEEK7jlHojBYHNX/sc/4Oiz5FvJ+bBbbKQivdDRhS2FYzRAOB+Q6tpNdApWojMxOk0SXpz+v8WAMB1hmIieIQzePV3k68JJ+FJlCWBXVZinAoC2YTiUKdHB9xeHTI0fExo5MR48mEaVkxqSIVCaG/DMtrJGvbJGubZKvrZOsbpKsSkUqWVvC9IelwSAwVh9//S+7+wf/Mo0lN+do3CJe/JBGpsoC6FJOmnMJMTBtfjmCi0n5yiJ8ckU1PSIsRaTkhdw3Dfo+VpSErwwFLwyErqyusra21DH/mzDY7OztsbmywsrLC8rIwfZ7lrVRP0mRhc5fTUt74ydp18ZiBoG3z5wQAnwUIDL0xxnYjv9iGRFUb1DoSXFXC+AYCtd3tdzRp3zFnQow6vjAPk9r7jbrXWvVaEHQBod9BnD57DwYCndxh13YBbnW1Z5tWiYij7nQltm4HWcPbM60jvZp+TV3T1BVFVVIWBdPJlPHomJPjE46Pjjk6ES0xLmS8oozQ+JSQD2B5nXT9jCwGvLpJfuYMyWDI6Ob77H77j3hcQHn152H7Ir6cShhycoybHOGnx7jpCF+ckNcFaVOSNgUZDb0ElvKcQS9nkKcsDQdsbGyyvb3N5oZIdrHjV1laXmZlaYnh0pClwVA3z9CNtr3MP/ZeBUiiwqHDyF1mtO/W3t12tz7rXvMsRl6k+GmBIHR8AnR+QZfZgjJ4bY6xOsdBQVAp89tfZUyqzNJEWUSqBUUM8zXru35Ch8FYaChh8I6GWgCD+Q7WIV2GjWpKRdNEWm9j/FPf9dr2/rohMm/49tlRojKJtyUHZXBAwBcJdU1RFBRFQTmbMh6NGY9lvGJ0MuLo5Ei1xZRxHalcSkhzQt4nrklYtjg65Pjmu4xqR715EXoDktmIrBiR1VPypiALNXkM9FNY6ucM+z36WcZgIKntq2trLC2v0O/3GQ6HrKyssrK6yvLyMr1+n2G/T7/fp5fnZHlOlqYkXqY/uiQh9Z40kf0DfOL1nICgKxi6312nTYzpu8xu37vHnpfipwUCK6g9vGWsVqKLnT+X+BrKbHQFOx0Qq9RHaEeCF0FgWqE1gxCGUVNGGDbIiiGnyifvNwYNaqbZfYAOuHWBA7ig68CeBpppOKIuD/MkUka3d5lplKizF6OMQ+BlC1UDoAkTM8/sUU3TUFc1VVlRlQWT8YjR8REnR0ccHR9zoiPdk+mMcYAiembTCdPDQ8ro8L0BSZLQo2Ep9QwHKUv9HoN+n0FfZv2trq2ytLJKv9ef2+1LQ7K81y5vkmUpaZq16TFemTxJE2V2Mf+yJCHLUnKN6KSJOrnekaaetAWFhICTJNG1T0UQJJ05AnR4bJF5f1QgfGogoKMNul67/AnTRx0viFEYuG4CVRAQNLWAoA6W4zN3amWkWEBQq8aIZvfHCEQavafR57eTPkDO69iBNaqBKZjNqeMNDhnpjJE218gaWcp92qQyppVrTIrLO81XwXKdvEh9i3jY+7ttRUd7sdjBWsbWPwkywl0WBbPplNlsxmw6ZTqZSEh2PObk+ITx+ISmieS9jH5vwHDQZ2m4xNLygOFgSK/fI+/16Q0GDPoD8l4Pr0yepQlJIikJwcw69XGwcSCN1BgYnBNJntrswSwT8Fikx8+1QZoocFLhG9EQIgSSxJHojDdrg8X+s2On2uljKH5aILAO7Ko0Ox7VPm/j9Rb5qcXskUE0SVUwaW5SWYAhjNLE2I4cy3Pn8X8DgQ2ICe+JVogKOgOps7BpXetCBtKwVgeza4IBTrVHW5cFf6LbCfJ8A5Bon2hAUkYxRmhUs+lDTj9PNcccyK1i6bxL/BaH+EmmNUNdU5UlRTFjOpkwnU4ITSDNUnq9PnlvQNbLdZsjKZOUTcrlvEa4TCtJc0idtY99RwpHZSpzeq33feLJklRArxqhu91qamBQ7ZKlKVmWKDCSFgTSptKuTsvT7Q9rDyvPs5iaTxMEPGWsoFs4YW4BgUhn8Q+qRu17beRgaRKqJWzwzJ5Rt8fkezcSZAwqmkbyjWx02KjLpGinWhm7jRjMZOoyvA2ydcYmonxpI0DWQQYiAYNqIbum0yZSJosqdaRdlHZyzG3n9n2oGWZm3+L9gFfh04LNicRuV3PQ+wkyTqCF0mer/6JM175b28vqgL7DgG37BEgbStmdc6RpQpbJ3mLOhKU+N01T8iylpwNgeZYKQBJPmiownYDCJ16ykzqCa7HfPo7ipwmCtnM6ktHsRitoK/nUea5Vgsm9MhDQhEjTVFSN+gRNoNEVDMS5FonfRBl0M3AZCOQz0mhektnvUTvMmNLKaqHVGMXEcr7TuAaqqOOpxuDKEFEBYPX1Xtb5dCrNLfQbDChOw7H6uwWHdoR1DjroFolqHugmFDr908ob1PnpAutU6FG1iSw9pO/vlF+e1dFuZuIpM6Pmj7dyh4BPJLxpdUbNIdMibX2cAMzO5+o0m9OLauEkScR/yHM1nVLSRBzrNElI04TUS1g11fEEe6bwzZy/umV6GsVPEwRG3cLYy7pM5zqSMlqHdCojDCyJdq1jrKaOjTobIweLKtlz7Fq1540BRVtYQp74Hfa+brlPfV8oF6jEtXOd+lhdrG7WsG15DFCdaFP3fV3mN8a0P2lHXfJc0zhANEUMEdcZlAv229kEeXuPE3PCObwmB8Y4B49pi/n7OkBSlvWmbTp1Nl+gawF0748aaEi8lxFgvd4hbZmo75AmCT5JyBIBfJKIf5FmCb00IVPHO0nFZ5B3zAfVjA/iwqDtk8iucZ8GCE51/gIircPtmDVYlxFiBxCxY+cLI83nHVR13Y4VyKizaIhoIOhI/KbRgbegI9fmaAeJMDX1PBkvqrQP6LIfXfNDmb5bZnMQjSG6zG2MYgwdNNIVO5qofU43tBzUXHS24qC0l1MGNCCZJNaT8h7r4FYSz8PHIJLZqVQXzWRmiWvHXeyZdp3E8+daxsjql6jGsPJb3Vtg6PckSSWq1AGBON7iCwhT2nvlXjGhMnqpmkVJotEk0USL77V2/YmC4EnUbVT7HnUhXyu4Fcg6of3r2OURJ5LcoknqTFeN5CRZ5mgr+Y3xzBzRc7UyWRNUe+h9RNEOMWpG5QII7M8aGpA4uIYyjQEbW13NmESZN7TAtPETaxsxvxLdacWiZ7SZq/I4e7+1n8xYM0k/b98Y5XnSsfr5BOaNCnjcfHM+ebb4Ok6B1TWtrI5EWwNoDoLu8+36RAGUaGg10eiYV98hT1Pydi1RBbtpRe8lepRm5KloCwOBAcDeZf1i7dMtz5NI2u8zAEF8giaw3120dkHQvTYaE5p07ZwTYOj0y0rnIygzl3Wts9Oipl3Po06Njke04AgynhCChBqtIeV9wlz2287Zs5xpgQ5grROs7NaxUQ622skcxqgRLLnCmFgAFlVKmwnUNPLseWrInPGt7dp2Q0GoILDzJmntXWDpIWJ+2PNEiIBD/QvzATrviOoMW995XZnOOUei5kqipo3Y9CLt5ZisJJ0pCFIdXBPAdbSICoc0sftkuqrVqctP1vZdPnoaxc8KBM8iK/AidSumB2QwKdo+YNoJKFOZnR8kZTvGSBWaNgW6CQoCTb9uWtMpUjWV7LhpIGhnpimzKkgiEENH0+ios5WyZYpOHazsZrJ0I0xRr0n0XGsiGQM7VCoLMPQl83ttS1Vl/m5bWlnkh5TBOQFO1ycwU8ieIYymWkcB2ChYvUp7k/ghzkfuhdE17Jsmc1td/+y+p4IgS+XdqTB6lojWMAAA7TO7vkBXwCwCwOr0LIqfBxA8iboVsT/TBKqfP9LhRHTk2Gx83XqsUS1QS75SiDIabGZU3QTKqqSsZMGtOQPq3AOLQpnjrXMd5D3qNwTRFibhrfEtP8ZMFQOfdZZTDdKaSR8BgRomWjf73YKubQE7YFooECRzfH6/Mr3T51iZ7B5xopVZW4mua3pqubyGMLMsw+u+YI06oE4n9KeJSHNjXskPUhNGBwfNdEw0jUIAIoBIkoQscRIa1eusHGL6eAX/nD+iCYYfEQB8XkDQLezidyNTid17nvXdQNBtoMYcZh1dbiybtWkoyoqyrISxOw0aFpP5WhAoI3ee1ZVC9mmNa8fMJ7HGtnPdzrTymxljUjooKLwBwe5FEv5MQ4hk109kCr+Ycwaiubkml0TBRDxtWrRjGPH0/OtEw5upLuZrJqrVVxhaGDhR0yXVgTfvxa7PdJnGxP4SBYzT6xMBm4HA6klXKHZ4pbG1Tn9EAPB5AcGTqFuJ8AQ/gU5l7bvdZ592PraSbt5Zc8YSCV+W81lsEmWSqFPTCNN3zRTTDML4YlKZadR1itvyaIeZhjrlRyhDR2NmvT7GuaOKRcY6TqpXSZg43SijKwk77SbPEba3QT0xn8zfkcttUpC1c1Spm+hglpOLAHl3pqO6XiM+IpnFZ3EONWuEiTP9NNMmTWSvYdeOEkvOkAzCKSCSeVTolPCzsmhdrazGI92+f16Kn1cQ0GEkI6twt5B2jTVAFwxdENixOJ9AqEDQnKSgS75opEgW9JIxBBuAM9sitABpKHUWXNPmOImP0Y4gm1lmppT6NE4lreuMKZhEdV7mPEdlMDr3W/lxsiS518iJ74y9mLSUOkZJo1C7PgRZRrI1tzqjz3SYwUCQprI0jCWvyWoWEqkyJm8/bSBUbfckNQBIGDNJLYNUQpz+lBbQvZRtjKNT9yeR9auVtUvPYuIn0ecaBIv0cZW2yviFMQe7r0tiv+t31RTiD4jjKwCYD2qJJoBGbe2qqmQ+RFVRVjInOppm6YxDWPpHo860jEPMUyas4U3TRBsx1nLadVIXcf6dLQfTSUvxTn0mrbPT364zhtBqK2sXZVYza0IQk8KpZnGWwpBmJKnkAEUFqTm6qUV10lQZW3OFlLkzZXyn/oXZ/2lqUl4AZkKsrXOnv1qN9gThx4/B9ItkfPO5BsFiAzyJjOm7IAidKXfWCYvPsvvQxrR5CTJGIOMRoBrC5j3Y4l+2JGQljjKWCBgidZABPPEnbKKQ7CYvfkkAjeo0jezz1XWoTQqKrO5Idy2rAceuTfw8R6lbR+89SZpCB8zC4NLpThkdJ0IAJ8AwIZEkCb1c5vaa1JibTo48y8gzyTCVqI8yt/oCmaVSOyDOQ56p7pTjEw1zah2fRI053p3zi/yweP5HoZ8KEDyLupVf/L5IxkTW+fa7e8zunf85WcwqzkOwVWesoW4kMS/YgF2IbQ5To2umVrVMGw0Gkqahqqt20bBg/kLU+b0WTrU6RYPMnFGkPLIuvwHE+Xn6gdNRX6/RGK+DeAaCREOcEbHf5X4BgIUjiaIVRMrLytDdtkuThDxLZWeYRCJcMgCWkGZq7rRgEzjLe2wMQABj7W7PN9Ove/xJTP6kYz8O/dSDYJGM+Rcr8jRQGHXVsTQuxnYCBvmiHWQ2v0h9M00EBPMkOXGqG0odg6gb9T+aRswpm+ugKl/8Elklr1sW+zOb3+sAWVCAOKexcnMindMFsMR/SDTFgKhrvsZAajvURGF2i+Ikmp0pgJJnSsh0nsYs42COJEnp5RrpUeDJAnRyj5lNAgKtkP6243LotK/XdCI9dv7TpL9RIFiUDPZ78TjKdE4Zx67pmk9dCdW9XxgSQEHQKJMSZUmWKKaSzHzTMGyoqStZQcMyXmvVEq1jbvn/Hf/A3mehzqaR6JUxlwBTMfMEEICUVRzbuYSPsqyQRHJwRBzeyUbsidro7eiuAsBrnn/i56nUPpFBLskWlWeJ6SMPtzYUjM4Z3v6eRNKmzSmhZMefds8npb9RIHge6gKDTqcIc88Zr9sJXaAsAmIeZelI7Uanf0aJ1zfK5BZylexVnQeh0zyr7op8tQzEYaZSBwR1XQNOpLVzRE38N+nsEi/c3b7fxlhEI8yTlmW0OdEdIBP1DVJNiRDGT0lSOWeDXPYs8x08sg+DV1PsNJN/FAD2ae35LKf3Wcz4Isn62/2sgKBL1thGXeZePO7UVnUL2iOaqaQUOza8gQB06UhNtQhRZ34188lBtvxMXdeUdUWjm1+Lo22ml6UHi0lk5oyYIVr2thwWAbN8H9vpXSM1gE8luuN1RT0BQdqOKHsvdr5zphm62kZAYBNwvGqnLlm7GRhoBwHlnLXfk+hZjPii6WcWBIvS52nU7SS7J+nswtPtVOtYe651sh03qYemKIRG4v4CCl2IrI061TKhSMOrFnK1udnyfAnbOmVYoo41mKmkIEiQmH2a2VInkHoJU2ZpgsPL1MUkIdFVsc1Eak0a1Rw2qmu2fYwSP7P62zFpEzC/ykhAfLrtF9vts6afWRDwBCB0GfZJDfGk4/MOnzO+SUs7t3htFDGtZo6OBOtCA90U8GiLD2uKRq2r79maqeako86yRIRkcMymSsYY29FaG7F10E5TzBLf5uLYM+YMLfOCTeU4p9MrO23UbZPFtrHzJiiMFtvx435/2mR95n4WQfDjUpe5u8xvn11zqXtN0JlX1sliXiGmi2kKxKSx0eMYZYRawq6BQHd0WyJSMeoO9TrJHpXaBgKvqzd4Bx6vmkBHZTWGb8xv5U28pkLoptiuNW3mzO01i7TLNGYy2j1Sh4+21+eJvgDBj0DWsYvUPd7t8C4Z01tjd4/bPR99TlTHdz5G0QRbNcN8DNEY7USYDvAcIsSdRozEZrfBNTtpIBDwGRjmUZ45dX8vMrmds8jOYjs86d7PC30Bgk+Zusxi5BfGJBY1R5e695umUEdAzaHQDujZ9XJabHoxzDsZlwoGdSGInfLEeNq+fxItMr6VofsMu65LnzfG79IXIHjB9KzO7moCYyaTnItMtPi7+906rftbfIEnMKGT1ezs2PywfIl2fOFeK5992nu6ADam6dr8T6r7s9rk80BfgOAzpCcxmdnQLVMqw3T/ukxov7sM+RHGV5pfLwph8Tnt9VGS4uy8kb2rW7buNe4pmmCxHJ93srZ0zwGC00N4X9CPTIvM1GXGLoNFBYf9Ld5j5xeZdpFOMbrS4nP0wlYj2DXdT3vX4rvts/uOxff9NNHHtSemCZ7nwi/o6WQM/6P8NjKGs/NPYzg7b9Kty6yLz44LJo6RMfziO57U/4vP/WkjawOvS2Eu1rlLX5hDPyVkzGt+w9MY+gsS6goC89GeRq4sy/hFQ37+qcvwXQ3wRd99lBY12Me10xea4Av6G0ddIcEzTEyjL3yCL+hvHC1qyS80wRf0M00fBwCA/z/uzVDSpA8BZQAAAABJRU5ErkJggg==;" vertex="1" parent="1">
          <mxGeometry x="383" y="281" width="113" height="86.07" as="geometry" />
        </mxCell>
        <mxCell id="Na29aNG7F6KIejRiTE2y-5" value="" style="shape=image;verticalLabelPosition=bottom;labelBackgroundColor=default;verticalAlign=top;aspect=fixed;imageAspect=0;image=data:image/png,iVBORw0KGgoAAAANSUhEUgAAAMEAAACTCAYAAAA3BH1gAAAAAXNSR0IArs4c6QAAAARnQU1BAACxjwv8YQUAAAAJcEhZcwAADsMAAA7DAcdvqGQAAHVWSURBVHhe7f33s2VZdt8HfvY+5prnTb70rmx3VcM0GmA3GgABOpAECc1MKKgYhDSaCM3EjP4JRsw/MxESoZGoEaWhyNCAAxAg0Y1Gw7Qpk1WVptK9l/nsdcftPT+stc4971ZmVnZXVnU1ulbVy3vvsdus73J77b1dWZaRL+gL+htGMUacc3jvaZoG59ziJS35xQNf0Bf0004xilx3zrXfn0VfgOAL+htHXan/LA1g9AUIvqCfefoCBF/Qzzx9AYIv6GeevgDBF/QzT1+A4Av6macvQPAF/czTFyD4gn7m6acGBE8a9IgxPvG40eJ5+754z7N+L577gv7m0U8FCGwI3Ji6OyJogyHdc/Zn57u/7T67p/vbaPGeL4DwN5s+FyB4FpMtMuIiY9ufnVu8t/vsxXue9JzuObtn8blzijyj6E+kbnm+oM8HfS5AsCiZu9+7APDet39dxnSaKLX4Z9T93dUG3nsc899dgHk9zxPAI8cAHPI4A8NHwWT32+fTAfUF/aTILWaRdpnvWce65550/Elkz3kadRnevgtvRbz3JEmC/JwzVQRlY6EnM57HOQghKtN26uIEBlHfEUJovzvnaJrmOerowEWIBgoUEA6Qd8Z4un7PQ89+52n6+DKepiddb8e6fdA9t3js80yLffiscn8EBF1arPiTOvBH7dgu2XNDR/IuPqsLApTpY4w4vS+GQBMCddMQmoamaajrmqZpaEJDDAICn3q8T0icxyeONEnx3uG9fCZJckp7OAQgEAnKwB9tRmF05+YgEKY/zTzWRl2ASb3afz4xfZJ+MFpklO7zFs993ukTg8Aqb0z5PI3bZaCn0eJz7HcIof0dgaauqZuaGCNNHYnRmFsYO4RIo0xf1zVl01BVNUUp91V1Q900NCESHTiXkGYpaZ6TOkeaOFLvSHCk3pMknixNSbOUxHuc9zhlXu8dOE/iPT7xeOfx3hEVFN5JQzs31ypmfkmbqNnl5h0jwFCMLVik0QD4IzCetd+LJqnX3G96Gtk1Vt7u96fR81zzSegTgaALAOswe8hHKgu4GInSw21jmcRDOyjGSGgCIQZCCK0EDyG0zF03tTB5XVOUFbOqpKwaQh2oQ0NZlhRlRVXXFHVDGRrRAtHRBKiahroOBO8hSSFJcT6BJBENkGWkWYoLAULAVSVUJS42OALeQ5qkJD7BEXExkDlIvCfxjizNyPK01RjOORwO1zI8pN6RqkZL0hSfJGR6fZKIOef0Xu+EebyfayBrYwON90l77PS5uQ9kffak/umSHbc+6t7jnGv7ya6x59u5JzGSc67V1IvnnoeeVtYXQVYH9+OAIISgnTa3v828CAtOX9SGq0MQRq4qmg5jN43cV9cNVd1QNTV1XVPVNXVVUYVIWQfKomwld4hQhSjXR5GL0SfSESFQRaijI3qP8wkuzXA+IQgrC/P1eiRZik8zfJKIOaSfhIZQ1zRlQSgLQl0Rm5oYGkF1CMTQ4JqKhIDXjkoSR+o8OIdX0yeoHI9EHA0Z4GIgNgGfOJzzpA6IAU8kTRLVFmb+CfDSVMrmnCNxniRNyNJUPhMBXpJ40kQ0WpZlpKkANk0T0jQjSVPSxMqnJhqqnU4dc8QYlPlFqxnjy7HTIAgqrIwX5JFPZ6gfhZ70nKcBY/H44u9F+kQgsIomiUihpmkYjUY8evSIxwcHVFVFjI6qqWmqhiYGmiZS1A11EwiIAxrqhiYEonNUEYoQ5DhQNgKU4BMaEjVbIt6nuDQDL53pkhSfJiRpTpJl+DQhuESOJwlJkpNkPVziwXs8Iml96nGJwzuvZovaHlq3SCRUDaEJAuQgplVoGmKoCKEm1g2EmhAa1XkQmwBNQyQSQyQiWiU0NaEJEAOxrqmLQhgnBlwTqKuCWFcCsBiITQWxgRAgOjGIYiPgAXziRHN4TwIkRJLE0Us9iYImzzKSJCXLUrK8R56lpEmmGseReNeCJklS8jQjyVOyJCNJE9IkUXDJ+SyT5yapmITGQMYTi9/t9xw40sQC8WczKPBUxpRnfdT0Wnz/4vdF+kQgME3gnDiLZVly48Z7fPvP/4IfvH+LWXSQ5iLJZzMpcKP8lWW4JAHnybyo8yTv4fIepBlJlsnvNMOnGVl/QNLrkfb6+CwjzXLSnnZkmrTOrPcetNMiDoeCxCc4EmL0YkiLA9B2SHuMSIgOL2yLdxDDHPCRCCEqczdEF3FBfJEYInh5awiNmH9EqbATqUojJh7mqNcCsPnvilBXhLomxkCoK5qmEkFR10Q939RVayYSggCwqaGucDHgnRY8NKJJhOv0uJYpRFysSWIgTcSU896TevWLkoQs8SREvLOoW0a/l9Hv98h7PfIsI0tTsjwnTTMBRzLXOlmWkmU5eZ7peQFSmqXyvA6AeILZFNVkXqTYMdOeBAQWQGLfn8TgnwgE3ZenacpsNuNP//Rb/I//5g/41u096o3z9NdWCWVJPZvhQsBXYkr4TG1eIHeQeU+S52S5NKrPUpIsJU1zsjyn1x+Q9/tkg6EAIMtIezl5LyfJPEnqSJJU7ei5TS0q3t6V4JwAT/5U8kda53UewRQ5pf+rUyNoaRs/WANrW0SxebwTIDmnzK5jBK4FkrwjdO+zc1HMxhg13BpFe8Qm0oQGF2uxyYOcD436Tur3xKYmNkGstaYh1pVooigaSQBUEqqSuqqoiwKaUu5Vc6+paylODLi6JtYFTTUj1AEHZKknSxPSNMW7SOoTenlO3uvRy1Lxd5KELM8YDvr0en0G/R55ntPv9+n3+uS9jCzNyPOsNakt0GDfu76G92KmyvFEW3Eu9Y2M2RdNNNc1+xboE4GATrQhyzImkwn/7g//iN//X/+/fPfYkb3xyyyfvwhNJFS1qPS6JjY1oanFJq4bkqbGNw3EQOoCPjbEUBNDEOC42DqRPknwUSRaliZkeU+ljiNRqeSd2MQ+TfFpKhIoS8UWzvqkmZhMSZLgDTgmCZMEl3i8S3BetEN0MlDmvCciwBXGV6CAoCfqh1OmjvNjp0coDAnK/woK5yA67Vy9SB6lktsjBkQUjSTf5bdD3hmJhCDvFq0lmsdFDTyEmhBqQi1/TV0TYkVsRNOEqlbNo6ZfVVNXJVU5oykrAWSMuCh+XChmhEq0T5o4AWBdEpsaFyFPXMvQWeLIfEKaJeSpaIs8z8jTjF6vR55nJF7Mt34vJ03F7BJNktPr9ej15HueiZ/jvZMARaIBCNV6SZqSqWaSNnoyaKTZPgEITmmCLGM8GvHv/ujf89/92/8fPwirDL/x91i6/hqeDPElAy5EaUiVOiFUUFfEuibWtaj0pqQpC1H5dUWsS5FITSOgq2qoKtIQxK4n4p2AxQNJE3Ax4DRqkiQJaYI0aJKIFvFi46ZJiksS0sRLRCdLSfOMNO+RppmaWAKgJOvh1Qn1adqOV4jTKL6G857ovER0pGSnBsaiMbsybuxYJ8b4nWbVi+bf7V7Eumm1lNMf7W9aTxxc7LxTgGJgIgY14SA0xizdgIaYI0EDAk2j/dcIOOrZlLosCE1FbCrKoqIuZjRVSVNW0NTUTYCmJjaVgCTWuNDgY5DxF6dh58ThYiRxjjxVBnee1EOSpPRy8Vf6qRczLXGkauL5RDRTmqb0eznLK8tsbZ1hZ2eHPM+fqRE+EQjoACFJU6aTCX/4R3/M7/+vf8D3mhWWvvnbLL/6Jt73CUEYNDrUphZbVmxmdRRb268Rdd+YcxjwNIRGpVwjEsrVtZgNTYULFbHW72VBU5XqsIqGcaGGUOPqBmKDq2t8HfBB3uVpSFzA4UiylCzriYmm0aI01bGDPKfXz8mzjDRT3yXLybKMRM8nWS7aJknFMVcgukS0i0krWvtXgIJKKpH00ljORR1N1vZWLTRneEGEM87XHjrVUW6uiOxJdqmzf/S9QuLXREWm4CLqxcigIoFIkMBAkNBxjJGmlvZsTbYgJhshiOYITWuSUZvWacRaqGvqsqQuS0Jd0pT2V1CXBXVVQVXSFDNiXRDrGaGSc845sjwjz3sM+j12tjb5uTff5Jvf/CYbGxvarp+CT0AHBGmSMJ3N+KN//8f8/v/yv/EX0x7DX/9HrH/pq7i0T2hE+rTRFzriz3okWthA49BRukMiCKLiAyKdXIgSJYlRJEtsiI3Y0gTRGrFRhzEE/S2RnNhUUM6IVUUoC2JVEMoZsZpBVcmzifimITYNLgScd2qGRbLUk6s55pMM5x1Z4iVq0stIsx55mquDmLYgSXu5ahSxl5NUQrNpIsBJ0kxA4zy0cX8DQ6eJOkwe1exxXdOre4GSdatdomyul3VuaNHR6SKnPpCTu6QfIxJjsGCAFK7VIIhwMxDEpqFWh76pSqpiRlNXVEVBXZY0RUlVllRFRVHMKIsZ1bSgLAuqYsZsOmM6nVHOJhTTCUVRUFUlZTWjnM2IeJJeLm3flJwfen7zl3+e3/tn/4xLly61YXz4qEn04kCQpkynU/74T/6Ef/Gv/i3fOYLhb/wTNr7yKyTZQJwq79ocGWlk80L1YU/ovI+Q9bVJKaQj2g6Vk9rpUSIxiPSSaAlEJPQYG7GRY1MSKzG7Qi2qOtahjcaIs9kQqgqaCteU+LLERZVw5QxXzUTbRDXJIvgYSVT6JIknTVMys4OzlLyXk/b79PpDesMl8v6ANMvJ8h5ZryeDdqn5K6pJXCKRLp+o3+LVvBFtEtX0EQaex/Lbtlmg6MCbiWbBgM6FomjUN2lNKBNADRHRtKGZh3+buqGpKpqqoq4rqqqiKSuqckYxmVAWBeVsRlnOKIqCejajms0oipKiDhS1hMXLpqGUIBZlEyibSN0EGRvyCY1LqX1CE4Akw/UHIkQO7nPp5Db/8CtX+L/9n/8Lrl+7Rpamqu2E4U+1wYsEwWw640/+9D/yL/7f/x/+dK9k+Lf/KZu/8Ksk+ZDYyPXy/K5RfOpxLZ2WVKcFlJw/fdx+tGk5HZK4T6djnZTbuaDhTxk+g0AI2ulBYv1RzTT5rHGhJgYJRcYgtm5TFsRqpv5Lo9omQlURq5k4j2UBTY1vKpKqhFpA5IiSmpGkpM6T4MjTlHzQp7+8TM8cxDwn7fXpDwbkgyXyXp9sMCDVMZEkkU8blQYb4EpFRAg3zxuwbQwVIg4CwtxipspYTWwCIdbEOlA3NU1VU5cVdVXSlDOqYkpZFhSTKVUxo5gVzKYzqqmcK8qCoqqp6oqmLCmqmjpEmugonaOOnhAjdYhU0VElObXvQZLRpCkhzQlpJoOgPiX6hOhTYpoRkpSYZOASGfVPM2KIJHff4fK9P+d3Xt3iv/4vf4/r166TpTL4+KmDYDqb8qff+ja//y//FX9y74T+b/wuW1/7DZLBMjROfDD3hI5oydj8I6/RMx1YPBtDH0uteSE8T3QyCCdFU4kY5LsodzHJHIjJRQSC+DchqBmmTNOIHRGbhliVhGpGU82gFuYPRUGcTcXxN+1SNwKassDVNalHY/W06RuJhzzL6WU90Sq9nCzvDIL1+mR5n6zXk1CzapkkzSXknGT4RPyR0GHyuqoIVUlVVVSzKVVZaESopJoVVNVUzJSqYjYVyV43DVVdUpYi7WdlpcweKeuGqqwlWdE5qugIztHESCAhpD1IU5qsR/QZMU2JzhN8SkgyQtrD6XGSlJjIoGf0Xr4jA5voyHkEcJKvFcsSf/N7XL33Z/zT187wX/+ffo+rV66Qpp+BOZQkCUVZ8K1vfZt/8S//R/7o5iP6v/a7bH/975EtrYsmiOD801/wTLI3d243yDybVDU4gU8LnPaHHmkdp/k18087J4YH+i/diIsDghOHPwrKnMX8aYAGNGEjNrU4g+Y41iJpQ1kRZlNCMSPWM2gEFKEsCNMxoZgJGEIg1DXEiiRGEg+Zk/SJLNVQYj9l0O/RHyzRHwzJl4bk/aH4Ih7quqauasqiZDYaU8zGFNOCyWTCZFZQFCVlVYltXhUUTcO0cczKSBMheEdwnuA9wSU0eBqX0CQZwWfEmBCTlNjLiUku0jtJwKfELMMpg4fW9xHGjlhIWrsNJ4LIy2dr6zVRTWIBgQNc4ojFlOS9v+Da7l/xv3vjAv/3//L3uHTxUhsqfRKDf2IQWNgpTVOKWcG3vvNt/tv/1//AH7xzj/6v/S47v/YP6a1tKgjErXoOzv306CPI0QPmlEfUxhYNYECwXlG5YzCwsy3NwSHAk/qq2mIeCDBrEGijYjFEHUOR0CJI3J5aJHVTSTw/1jWhLKirGVQllCWxLIiFmFwJER9rUiTcmCUpvSxV0yqBYsZsdMy4hlEVKKcFZV1TBChCpGwiDWJ+NA4a56iTjNr3qF0KSSKMnGTgE6JP5p9pQnSpSGufQCJOvg1O4hwxkcFKEYi+tWFljN5p0EO1LMrsanpSN9DIeBMgaTP9HmSSQhNnY7J3/4yX93/A//4XrvJ//S9+j4sXLkqGr9Iik39iEHQ1QVmWfOfPv8N/89/99/ybv/6A/Ju/w/nf/B36G2c1DAjOchE+J9Th/Zah5wBYLKcAxsDxJIrK4S14jBZviPp0J6CTQuh9TkAxD48GXJSEQYu4EBoa9U1CUxHLUpP8ZKCKSsdeKnH0nYaB43TC9M5N9h/tcpKtMhtuqCRPaNTODj6BJNM/Y+5MpLlXaa5Jf8LcWhHnNM9kXvsYlYm1ziLdJRgSldEdURg7aojcezGFvIcQcNMp7viYWMxwmmJCU2uaisdtbxPX1gSY42PSd77Fq0dv8X/46sv8X/7z/yPnzp1/YZrgiZMA7IaooTHLdIw6mhjrSmPIHWn7OSIrjlPmN8aXbjRoWNhvDnrpR6uL3G2awjmdQ9D9a59vV0d9iIItGGOgAsNDTOSTFHyG8xnO9/BpD58NyfqrZMsb5Kvb5FvnGZy7wuD8SyxdeoXh1dcZXH+D4ctfof/ym/RefoP02pfh/DWmg2UOQsZ+f5OT7euMzr3K9NzLFGevU+1co9m+QrN5kWbjHM36DmFti7C0ThyuQG8ImTiuMVFGdV6CDag2s2BC0+AaSecgis9FaGA6g6Mj3OPHuL1d3MMHuPv3cHfu4G7fhr1Hkr6Og6aBo0Pih3fgwQPi8ZFovqaB2ZR4cEAcj7Uv1WwNmoHQDo5pN70AeiIIjCksfSJNJSfEhSAxeBtmt7yA0/Lxc0oigV3URtVQ4/xzHk6Mek1EO9numT9KaQEwahpYm1hnWRM5xO92iPaM4lIopymkogcSPBne5/ikT5IPSfJlkt4K2WCNbGWdbHWLfHOH3tYO6fomsT+k9ilNNqRZ2SCsbhCWVoj9ZegNIB8Q8xwyYfSo5sy8VjrPwsZfqgo3m+HGYzg+xh0e4B4/hr1d4uEhrigM3biiwO0/hgf3cHt7uMMD4vGxMPL+PvHBfdyjPQkYmIaYjHFHR5JGs7xC3NqGjU1cvy9CJ4a5Jg2Nzv+Q6F2MOoflBdETQWCawCSe5be7KIWJdXVaJf4UgEDi68LYosKFwaML+tk1VYRjnTGnm7cJdHj/maQXGXO7DlD085RW0XdEpwOKWgzlMy2X/kWndncCLhXQVpVo6aZSd0WAjeq+NtE2BFzd4KpaJhVVlTjzUd8PUBS4gwPcw13c7kPc7i7u4UPc/fu423dEyo/HYvYER5wVxP3HuMNDub8/wC0tw+oqsd8X5p1O52aP5pvhHG5lhXjmDPHMGdzaGm4wlHR6J+HPLghcaFqtPOe9T05PBEGXXGcWkw8NsSpkECp2Xczn4oqfIEmESCSIMnuoNYtyRqgLHSSK4viqvxetsT9Jez9305j/oABR4CyCRMCpDB4Bp5mvdYkrpyIxmyDgwSnDVbjxGHdygjs6wh0diuTe3cU93oPxWMDiZR63G50I8z96RByPcU0j5YqROJ0ST05gNpPfMUJd44qSmCTEzU3izg7xzBnY2sKtrIjvgYBbRsGDOMOAy3JiT5zgaHOvUc5UNSqTnEq8CySdpLoXRR8LAnMwEp/IqGtZEKtSGsv95ADQ1UHd70+m+cCSA0KoqE6OKB5+yOzBHYrdexSPH1Du71IdPaIeHVAXE0Ko2gzQ1m/4NOk5OrZtcmfSXk2HpoG6JIZqrjCIUFa4w0Pc3h48fiwS/viYeHRE3NuFBw/E3AlifrgYcJMJTCaCseUV4tYWYXubuL6O6+UypyKIXeecSOoYAi7PcEtD4nCJOBwSB2qC6ay+iGg6dA5GjDLpyoHwUyNp3jKwJ4AH0xw6p0ITGp+nrZ6XPhYETifXpKnMz23KUlNv1Wb7jEnMGTSeI1EIKcXTozsgqQFOGaOpCsq9e8ze/QHTt37A7O3vM3vr+0zf+h7Td77H+N0fUDz4kGY2IkTp7M8EBM9BsVNJsZCc1K9pxLypK2EyJxLXjce43V04OCBWpYzO5j1i3hPmHY1hMpb6efWF6lpac2mJuLFJ3NiQSM3SMq7XU8d5Dlqno+8mhcz0k3/NplPBjk5gCpLYKNpN6oDmhLVaT5/gomgCMYfmgYgXRR8LApDJ5qn3uNgQqhmhrqRi3R75DCgi6lSiFubkase1n/Nkr+5vp9LcEYllQXN0QPP4gHg4JRxMqfeOqR/sU9+5R/Xee5R3btKcHEKs1ITSUMlPmE61eMdncDEIUzeVDuI5kbbTCXE0kjqsrMDmBmFrE7exgev35+aM9qdTGzx6R8wz6OWQ5ZotK+ZKdE7GA6RRJUUlmoc/b6YYZfSaoBnFqM8VI64WP0Q4XlJCrDLRJxJOdWKeSW5XReoCaWdO9IuiZ4KgZSCvS4+EiljOZC5AmCP8syIHc8cxqmOLRAps5NckixPOle/qSzqHhvoqmSqZDPCDHfzgHPS2Id+GuISb1oSTY8JsKtmmKqheqPh5ASTtgAgA54ixkfTzYGpPgOGcg/6AuLxCXF6GwUBHfWVlDRmsUCaMEr2RaaS2/IzxQiNONYj9ro68JmvN54arpiZGmW+CmDetfxOihFk7EaD5nyyiEL0NuEVi3eCamsRJZvNn6hO0hcYclDB3jFkwhz4DPIigiPIqFwkEHcFVdayRHmc5Qy7odwOJgEAm1Acd/exBMsRly7h8FZcvS26Lep6ttjYgfI7IAkYSUgRXV7iqEmmOIl/JGWOlMuIrwkLr1X7X61uzRDWpE1A5G9WN+j7VxmIOaeM437adNrgKIk2diDqPu67UD1HAtmBYNIciTudZ+3YNp88QBDFKOEomkKQkOAmnNbXU0UlFRa0t3v0pkLOelw5zMRLqgnp6TDU5phkf08xOaKoRoZkSmoImlsQoPowBQ+qgGaPRQCJLuOAlqcvphBmRsIsF+ZyRcwIEnfTigszJaBkrSFqGmDzGnKbd5mZN25naLsKC8+P2fGNseZbNBZGRYiuPObaiKOy9Mk+aIJJdmUgroe+1pW9a6aPmUKjwjjY69JmaQwBZltIf9OnlmUwSr215Qws5aoN+yuS0zUQIRGJTUh4+YvLBW0zf/QHT999hevMG09vvM713i+nDuxS79yn2d6lODqgnJ9SzqUy2KQqoCulUojCCqvMYg65rtCAxf9Q6dq//Ue99TnImwLXcRI3UODVRlKmdmSw2OKg+k0w20odEBYNmuNoIOSAMHHUwzZnEl/CEs/tNequKksiVOsEqUCWapH6CNWwHrISm1Q5SHAlnuxhINEjzmWkC0wLOObIsY2nQJ88zqGU0UVZGmNvbL7KTLQKkFv/8PxNADtEC5Yzq0UOKmx9Q3rpFefsu5a0PKd6/xey9G0zf/gHTt7/H7L13KG6+T3H7JsWHtyjvfUh4tEscHRDHj4mTfeL0iFhOiE0hWsJBTCSsZ9r9ebRdVEkrvkorR1sTQeTKi2ks4/GoM9FikOmpjjCXFs7SN6IOV1uwQE0U7Fzn2kbDpc6pc6qNblEdfbaASQtCx6xpzaHOnxO/BQOehmQlr1wZqAnQzLWDgUjypGpSncQkmmCxNX58eioIDGlOs0n7/T5ZmsgaOaUu5+FEelgbvigSH0Q+bWDIaQ6PaCeJjYeyIJwcw3gGhYe6BzNPHDXExyc0dz6k+uAm9e27VB/uUt66R3nzDtWdOzSPHxLHB8TRLvH4PuHkIXG8Sxg/ppmNJNqiKcFme38c70Ysx2hedmMCsRxVaDDvxI955DOp5Tlj7CBzgQWwqsGiMmk4HcK0U22bGiO3UhqN2kg41EVac0XA0ZH6dr+3C+WclEkmGXUthmjvcE60ryXodY8byKJk4boQSNOUPM9VOJ9qik9EzwUC52T9H++9TEnUGVgudir3wmjeKaelqXzO+VHi2eIwZbjeOn64jR9s4/vb+HQNQoprUhxLwArUfeIshULmCaBrlUKEpiAWJ4TJPmF2JDPNnExzNP74OKA77XgXFxxKA4Yed+pwo3b3j0vGiy0T65zrVvIbAGKUCE6b0KeBg6jaNcR5qMmkWpepo5wX80mYWgqgf0EluD7fTqEmmkSa9Kg928yhFkxaRjTKZNEn9XVwURYTU3PoRdJTQSASVz7tpZIbL9LGRe3ghfs+CYlq1ryeKNKyNSgconlMwjmRKLEJ4FJ8muOyAWRLkC/heiv43jK+t4LrrUjUJ1vGJ8v4ZIkkW8L31/HLO/iVs/ilbeit4bIBznLn1S59XnNoDl6tA1HmPqOLB6iUFHNE6qM882OR8RNI6oSrxRwi1MpgWvhgTuucwecjtfYgrZz9Rp4rDa18oCnf8krTNB3t0dE2UQsoPoHlmSmz17oEpXPzOQl6PVFBkOjq3VF8Bdc06hirdm7L+MnpqSDoaoL201ZOqyWLVLjjxZGYQVEzOzUtI8Z2CZbYzNRmL4mN5NmHupwzVZR5tA5HdBLpkQEedbLwRJ+CTyHJ8PkS9Ndw/U3ccAs/3MIPN/G9JZnf2trFcwAYa8v/88+ISldR/sQYCU1FMzmhHh0RqmkLhOjkHtMMPwqdutpAYM8LFb4pxbmkI92jSen53aLFdXxB1NIcAFHte1k6W/tEs0xNKOoCCxJhU+Y3ISWwbAsoA2lWeHXgQ2hTttt3mvPu9FlablfLdFWYzxF4kdrgqSDoktNM0iRJZDBGoyqnO/BH68wnkTEVURxJ0Qg11eiA4t4HFB+8Q/HBDYpb7zG98wHF/TvU+7s000PidJ84eUycnsgyK43kmojE8xIC1UW5bAnH6BOcl4ndMi82J6Y5PuvJDCvnPzISLT6KZXvqZ+u7CGCcg1hXlPu7TG58n8nb36O4f5tmeqLjK9KmrZYVsbnYHE+kVnobnyjfOieJZrEuZbZWjK1DG2MU7WDM7YSB5/91mN/+UHvd6TNMigcNc6I2uxVCHLe2cHK93DPX4AaKDiC9Mb32vTG/to0MbsoaSPa+nwgIvBev3PKHbKaTFMQ6r/v9xyRrfLM/nSM2BdXefabvvsX07beYvfse03ffZ3Ljfcpb79Ps3icc79GM9ognD4ijB4STh4TRLs3kgDAbSdSnHEM1kRUkQqmLe4nDKlpHG1fnzbpc1gtabHiT+qeAoFqg+1mfHDC7dYPi3R/S3LpJffs2xf0PCdMTmUhgDGlmkpkjH0MRQ8KcZ5wqKyyOb7F8bUuT4qAMZw66MqQ3wOgzhNGjsEdclMy6+PApZpwzrqHSGN3CrDICLNfNQ6TMI09x/u45UA0fooFMC4CU/UXRc4HA2VqQ3hNDaNevbO08sC5ZuPM5SCsT28iKdIhzalhUFfXRIc3BMXFcE6qcUOQwTmBcQ1G1C/LGGIjlmDB9TBjtUh8/pD55SDy5Tzy+Rzi+Szi+RzjZI4xHxGJKrKZQTaEpIFRqT1veu6wKHUOttr3+KaPL/6ol7LiDWJdUjx7Q3L1Nr3asLp+lP4vEu/eo9u4TiqkwZ8uIKiWlIZ5JTwKBFCTKZ2ubi2QWv8NuUCaMYiDGGOcDWE77Qv8cqo05zdSoRI6qyeQZ1vfK6NaPTp9jqd8KmPYe5+Y+QVRfoQl6LGmFoTj7YZ7I+ZPQBE7nFCTei19QV8IYHfUn9DE9uEARaYhWska1VVUORdAJ6CXgcdky9DZw/U18bwOfLePzIcnSFsnSGfxwC9dfg3xJ7H5T9URcqHHVDIoRYXJCmE2I5QRXHOGm+zJWMH5MGD2iGR1SHz6m2n1AsfeA8vEu1eEjypMDmtlI/BNjPMvbaTsmUk9HNPuPSGYFK5uXWL/0OqsrO+RFoH74kPr4UIElom4OJKTjjR/bdpqT8bx9F35SBztKTk4r9UEc/A5zS3mZh2sNMNbi0cKpCha9T542r6+Uw3wN9UFM2juV7qYh5iWXvrAoUOIh1RyhINEtQtCJ/Do+YSkWMcjKG1n2QgHA84DAzJJU15+Xxa0EBMawQsIAT6S2R62x5bvF0cWRVamhoKNtQ11My2fEtI9LMlzaw2d9fDrA50P8YA2/tIVfOoNfOUeycp5k+Szp8jbpyln8ynn88jmSpTMkg3VcPmj3SEi8w9PgqinMjgiTA5rjA6oH95ndfJ/JjbeZ3Pgh0xs/ZPb+Dynu36aeHEPUmVFOTCrTXsSGenxImIzo5UssbZ6nv77DcOs8w+UNODqmPtiXUWs1w6zu4iiLBpTnmlSet2sXBO0xM010fdbYdMwtJ1Z/bE0cfZc9J2oaNsq8pkk0p1+cZjN3kOdp+NK5+fpJc2a3MuuztY1Ew58GmYVCFY1zUyiZZ5C60EgYvAMC7z+6weMnoY8FgVO1ZwvYOud0mUNdW7SD8Dna5xS1M6KzCI4eU8anAyRRvxJSdOggizGCLlUo/SbMIg6XJzpdwSzJiUkf0gFkQ5LeMn6wCv01GGzAcEujQKskw2X88jpuuI0bbOIH67jeKi4b4tMc33gYNW2adXV/l/KDWxS3PqA+2m81oVkyFumJsSGMT6BsyPtr5MNVfJaTLq3SX94gDY7m+JgwHYELag10tYnWTSW2aMq5gInMm9lavAuCqGnHoPc6WqCaSaK8L+2qE+iNee3PyoQ7PegnwJ+XV6wBBYqW194r91pAYe4DteMJNi/Bno1eoxmkAjLZOsu7qJuDiCZ4kdrgY0FgmsB7GTn2zmsiVSdzED4KgCj/SGFVWtplagu3AImRUJfU4yOq/QdUj+9THexSHj6iPj6gmYyIVaESRNbJbMNpKnXaP30eMRKdhkSdF0jpsn/4BNIcsgEhHxJ6a8TBJgy38Uub+OEayWCLtL9Dmm3jk008K7hpQzw6pplONGIhDItFExGnL5QFLkayfECS9kS6JxlJb4ncD3DTKdXomGY6piknNOWUpinnvocTURAjc1Mpajt2mnjOPyZ55yt1C1OrX6WMZ+nvDgXbKaltf9Kuc/NOyiAkF0WneVXdyFJbIrlHtOM8uU4uUU1jmkr3WJNHzzWXXCzmseQrybpLme5L8ZmDAGUsc0q8k1AcoW7Tk0+TdJ44NZ3wIqfaSBuUVvrV0xOKBx8ye+eHlO+8RfneDYr3blDc/oDwaJcwPiLODmF6RCxOiOWIWE7nodogi8kao7goO7A4J1P72g5z6HcJf4YQBVu6HiY+E3Wc9XXgbRnfW8Plq5D2JLFOGaaV3B1Dw3jJeS+rW7tEOtR5kqRHng9Iyobm4JDq0S7l7j3KvXvUjx9SnxzQFBNiU2rESrWMSvNO47Vk18VoS0dGTaST40SZ2BJr25xwXlYxQ5XxnHZOVCa2zlKzBwUS+g4pjkr0dgzC/vTfKMCzPCVQU0jTsdtxgi4QED9JXi2/Y5C93LIsE03wkzCHDAR5npN6dVaCLia1eIM6XGIjS4WcE2kZgu7RFWU1a+cczou92ExOqB/t4vb2GRwX9E8qsoMx6dGUrHbkIZIUI5LxI/xoFz96CNNDzQjVdIfxI8J0nzg7JMyOCbUwFKHCxVokZVeLtKaBHZM/6WAZRwiaXk2SEdIUclkk1jmRsoq0uY3sHD7P8Xm/na4oTOpxaU4+XKWXDsinNf7REe7BI/jwHvWtDyhvvkdx7y718QGhKlR4qEYQrjrV0pHuu42JFQQwDzbYUip6XIAgjNzykjGgvUzbp6WoDKzL2hvwBaV6q/yj10s6hry3o8FCIyAwP8Ryh6SRlLmlLlF9gthUxNjIDMc01Sb/KOf9uPSxIDBV3GoCLxMjwFTcwvXWaZgGiEQCTVUweXzIyf1dZkfHNE3dNqADQjnDlSXDfJnVrctsbF9lY+Mym1vX2b74JbYuvsLq1jmWV1YZ9nKGecZgsExvuEriwJdHuPEunNwjntwljh4SxvvE0R5xdF/GDyaPiJN9QjEi1FNiPSNWJa6p5mZEkEV4XTSJbxN2pMOiAqFV5caAtlOmT0mX1/BLS9QuUjcyou1ixKU52co2yxsXWRueYTVZZcWtsBIGDKeQPzomvP8+xa33qI4eaefLvU8CgcOEjcOlqQgWjamjPpeUTRkqCmhQp1uA0HFUTRCYg2p/Boog6Rfzx4jmiFEEWasdkE/x8WK72QfutOONt9XtFJhWVwN2lPwwV+nq37qvtNP6vCht8LEgEE0wf6G93EWJYHREiVyvzG/3NFVJMRpxcn+XR+98wMPvvcve2zcZ7z6mHE9VM8wHeJK0h++v4Aar+OEGg43zrF1+jbVrb7B+7Q3Wrn6Z9UuvsnrxNbauvsGZaz/HxvnrrGydY3l1naXhMoP+gMFghf5gVTbaqKf42T5M9mC6D8VYliiZneDGj2C0SxztwfgRcXJA0MG1WJwQZyc60DbVfbtk7VDZjdL2PyjlXC2LEPi8T9PPKWNBWUxkoV3nwGdkS1KnpbXzLK2eZXn9AitbV1jbvMLSYAN3eEB19xbN0b5MZ1SQPckccgizOduXzesSh1EcXcFmh6GMmTuaS6S39mHUKE0XAC0QVBs4mV8cO76XDDoK8+KkjGZORWyEXa9HnWavm653QCamk/KcvU5HwV3QEeOFfZdfBBA+FgRoYUznxXbHep17q5W2DhIpYU5NQ1PMmD4+5OjOLgd37rN/5y6P37vN/o0PObm/x+TxIeXxiSwgW9SMJhMe7R9w/8Eu9x/ssX88ZkYKwzV6G2cZbF1geO4yy+evs3r5NTavfVn/3mDr+ptsXn2TjStfYePaz7P10i+yeeVLrJ25yMraJsPBEv3hMsO1DYar2+RpRlZPSIsj0skByeQxrjjBhRLKY+L4IZw80JHoXeL4gHB8SP14l+rhXcqHd8Wm371Ltfsh5e49qt371EdHhNmMqppRFiMxbYiyA2eWkfYGpL0l0t4y6XCFbHWdfHWNNO+3oCIKc0tMH3WMT5OJHed0Xm7UaE8jpp9IaRmosgkx0pl6T6vF7O8pplDL3HbO3q/M2zTKwLH1KaL+I+CYM7Y476YFOj5BVH/Gif8U7X26f0SiKf2yO41THrTAyyej5wLBXBqJgym7wdhI42lNAIrstnCyQ6PvZQw311je3iTLM2aHJxzf3eXo9kOO7uxx9OCEvf0pt/YOeO/mTd57921uvPMWN27c4Pbdu+wfHjOdVVQh0riUmOa4fIgfrpAurZOtbJIsb8FwnTDYIK7sMDj3EutXv8T61S+zef0rnHn559h+5RfYfv1vsf2lr7P58i+ycfV1Ni6+xMb5q6yeucDa2cusnX2JpeV1ej6QhSlpeYQvDkmKGcnJmHD7FuVb36f8/l9QfP8v5p8/+Guqd94i3LxJenhCHhJSl84ZS5c6tMkpYnrVhGrK9PgRJ3u3qKlJNrZIVzckbUObUDTBaTJ2i8pszjkBgKVTaxe02tmidW15FqQ9mrrQAqEr5Cy0qe8TKImjbFtg2QnTGq1G0oQ7nIzA68bm8wQ9uT7a/R41k2S02Nc1mXfik6apFveTM7/Rc4LAVpyQ1QlOhUjjaRBIxMHCcJ4k79NfX2Xtyll2vnSd8195lZ0vXWf14hmy5SEuTdRETKmDZ1LMKMopdQhUoWE0GfF4b4/dhw/Z233I40eP2H/0mMODfQ4ODtjfP+TR4wMePNzj7t173L59h9u373D3/gMeH48oSfFLokWG2xdZPnuNlQsvs3LpVVYuvsryhVcYnH+J/tnrLF94hfVrX2Hr1a+ydfUNNi+8xMb562ycu8r6mStsXHiFjTMvs5JvMmz6DOuMQZUyrFIGVcagTOnXOctxibXhDmsbl+mvbOOSnFjXVLMRxegxs+NdpkcPmB3cZ7J3h+O773Jw921OxruwtUnv4jXS1U2JLKkWlk7vDpt1NYEKHT3pjAHVtIhItCxGdWYjKkUhOhudVcY1e93F+TFEghsITIsYQNqSGcDslGkHL3M3onO6DH2j1UpaZke1mJhtLcRwMeCDbEyeZwICq/tnqgksxCXlFWcHlT5zSSGfovadfiYkaUa+tMzS1garF86wduU8Gy9dZPPlS2xcu8DaxTMsn99k5fwGa1tLrA/g7NY6l65c4/LVlzh79gLLgyUIkdl0yujkhJPjQ44ODth//Jjdh7vcv3+fD+98yO1bN7lz5wPufniTD+/c5M7tWzy4/5D9w2PGk4KyDFRNpA6OOnjqCLOq5nhacjCeMg4pDDcYnLnIyoVrrFx8hfUrX2L96ptsXP85Nl/5Kpuv/BKbV3+BjUtfYf3Sm2xcepP1y2+ycfEN1i98mfVzr7F+/jXWzr/K8MwVstVNXJJQVWMm412Oj+9ytH+Lo72bHO19wOHuBxwc3mUaJ3DmDPlLr5KfvYTvDcS0aH0yEbHdLhfHXZlVW/8j5o2ZPObHyZ2t9FVEyLU27TEGHf+Qvxg753SKpsw6E4Y3R7Z9r8lGtfNRIDjEN0HD1yS6xwFzIIgjLeUWX0YAZkmc7RxjFOCtEP7x6blAIG1oDq+ZRsb3VohWLklasf3nExIvu9ineZ+sPyBfWqa3ssJgfZXB+hqDzTVWzm2xsrXCSt9xZn2Fyxcvcv36S1y//gqXrlxl5+w51tY3WFpeYjgYkOe6narzbaq0TxPyLCfLc6KDk9EJDx884N6H97l37z4PHz5k9/5DHjx4wIN797h75za3br7P+zfe4ca7P+Tmzfe5v7vLybSgdim+t0y6tEG2skVvY4fB5jkGW+cZbl9kuH2RwdZFBpvnGWxdYLB9kcH2Rfob58nXzpAubZD0l/FJTqgLJpN9TsrHTLKKWRaYpg3jNDBbSglnNkivv8zgtTfpnb9KMlzBkSjjmu0eTd62TS4CU9hGDs/HKaQzlDlbJrPQsPRTGx0yILXXqi2vDCYRpKiJhebsGjCFDWxXGgNBCzo1/9Dn2QQbAdl8Ma/2HgxMUlvhu4B3sme1ZS2A8ORnpgmscKIN5r5BBwmdT3QoXT5bX0ujb+as4SzHPyFJe2RLS2RLQ3wSSakZ5BkrK6tsbG6xuXWGre0zbG5tsbW1xcbmFhub22xub7O9s8PZc+e5dOkyV69c5/r1V7h2/RUuXbnO9s5Z+v0BTdMwmUw4Pjrm8OCA/b1H7O495MGD+zy8f59HDx+wv7fHg3t3uHXrJrdu3eL+vYc8erTP0eERo5MR49GY8XjMeDJlPJkwmk44OhlxcHTE8fEJRVkJH+n6/uZ0xqakHO0zmT5m5hvixjqcP09y+TLptatk11+md/1V+ldeId+5QNJfVjPIzA4NPXbat/2qHC9ROmOarpk6n6IofsjcGXZR9ptrnWVzvBUMrdPcVTTYcdm7wN5r7xSGVC2DBUfU/4mGr04Y1MaKupWKqr1MazTiGHvvdDf7OQheBAB4bhBYw2my0xy9Ty5EW61WilllVY3pBBSHa9fn92mOHy7h+z3qYkxTjHEO2W0+keHyPO/R6w3oD5YYDpdYXllldW2dzY0tts/scO7cBS5cvMTlK1e4fu0q169f49KVy5y/cI7N7S2WV9dYWl5haWnI0nDI0tIyK6trrK1vsb6xRX+wRF3XHOwf8uD+fe7f/ZC7d+5w785t/fyQu7dvc+fmTW69/x7vv/cO777zFu/deJu7H97h8PFjppMRZTGlKiU6VIyOGe0/ZHJywrSMTGaROunh17fId86T75wjW9+WXKak13aJcxrZaZnK2nbxuzCbMJg6yDaVUvvCmXlqDKj/OZB/nTPbam7qdJxWYTa1BJJE9ynTTfNCI3ObHfNIj2IBfZ9gQpxjp9oAL9vYzleiNuDKtdEh89gbWaQrS1LZm03neMhlT+a/H5V+NBBo4Vr0thGLthrtv3Jf2xYdskbqmFYBfJKQDIck65uU9YxyfEhoSr1G78MBHoft+ZuSJpn4HVlOv9djeZCzuZSws5pxdn2VM9tnOHNmh50zO2yf2eHMzg5nz53j/PmLXLp8hSvXXubaK69y/dXXuPbSK1y6dJmN9U3yvEeMkaosmEzGnByfcHhwwMHjR+w/2mN3b5eHew/ZU41y984t7ty5zf27d9l7+IBHew/ZffCQe/fucvf+fXb3Dtm/f8DuO3c4uL1LMZqKNkwynMsgJmqpCPPNTaAnkElnpwwTzQ63CI6ODCtzt9LXtESXUd0CCKJ8KtsLuBQEAiBJCZEu1DQKnXPeMqVURIwzC6AoqKItxJvKFq1R69P6HFoeF2VlO6oSHyrSxJOl6al9yl6EP8DzguC0LzB3RlS2tH/SSE9A5xMOgY36qWOFJxksk+5coHaB2fiAUBb4tp/MPpTOsU+jSMS7QFYf0R/fYWl0k9VwwnKekGU9sqxPvz9guLTC0soaq+sbbGxtc2Znh3PnL3D+0hUuX7nGlasvcfXaS1y6fJVzFy6wc/Ys22e2Wd/aYmV9ndW1dVbX1lhb22BjfZONjS1WVtfw3jOdTDjYf8ze7i4P793n9s33ef/W+9x9dMDe/ohH9x7x6OaHPHrvNge3HzB5fCT7JZu5gI28zqXiYjcb8zvlNTGb5JzTqIows/kBqlHaOL6YV2amdt8lHD9nXNeiTXyTNjpkj7c+1OQ8AdhCGFbNLbEc5tc573WzP3OWFZwRKbNDwq5VgasLHVvTFU/a8r4Yei4QOCcjdT7xeJVUKrNaFWt2nhhLz0cCKusch8+HZGfOEYd9ZpMjZkd71JMT2Te41gW/2uiFfqokEqejgdljmodvEe58l97JHXIkGS1GW0nZ4UjwamJlWY8879PvDRkMVlhaXmNtfUN8jq0zbO3ssH32HOfOn+f8xYtcuHyZS1evce3aS7z80qu88srrvPzy61y+cp2z586zvrHBcDjENQXl8QPq8pB8fUh/a4v+2jqD5WVcA7PHx4weHEgKSTmVUfMoJqYIHWGGxfa0X8or2hdCjq5kR00bFVyaP6QPlgdYOLQDwlYSax+DCkB1bLVYbd+15xy66Z8wMLEzCb8VoPP5B7bCn1wftUxmjsnvGBqoCtks3XvSJGmnWJpgfhH0fCBQJvdaSWlsORdVesncAHXCfgSyRoSIT1Oy5VX85hZVLJjufUB4fAs/3sWNd4mTR4TpY5k7PN2nGR/QTPaJ033c9IBYTQlNLZtWT0dUxZgmyDLyDg23af/HII6hCCoN0+FweHCyDmma5WTZgF5/yGAwZHlplZWVdVbXNljf3GRz64yYWGfFvDp/4QLnL57n7PYGa73Aal6wc2GFC29e59LPv8bln/syF9/4MmdeusrSxho4RzUraapSAO5E+kYzcTqRn7a9nvC9BUaH8duTTk0d+1RtHY3F3WkgiT9gq0KrCRNRDaADpF7aS8ppZfa6hpNqAcyhF03vEvEhYt1IWkeS6HNMnMo7pGDaF1EyTh2BLM3EHOosw/iiNMJzgSCqjdr+1maXf7WhTCIsdNrHUev8RQfOk2Q9sp0LxJUB9eg++f4P2SpuslneYXlyk97x++RHH7R/veP3WRp/wHJxj34Y43pr+K1X8OfepBycpWhSQlD1ijTwXAOpdHJiXrW80xFM0p9q7qmT6ZzH+6RdqDhNM/J+n/5gwLCXkhZH+OqI/tqAtetX2bh+jY0rl9i8fomt166y9fo1Nl6+xPL5LfKlIT5NhHdMmLSS0Qozp5a3u9/1h5ghZlLoVfrTqQmpL5L+0ihW+wCBhd3WAkSwIw6wvb01hVoNoWkQUpBOA9I60w7NQI4Bl3RAgwLAIlWmwVRKeefo9TLdtFzTQz5zEHQqa1KVTrNJtEfA0aL6Ockkn3SSx5GRb50hPXuO0PckxUMuJI95c6Pi57dq3lwveWN1ypfXpnxpbcobazO+slHypc3AxWVHb7AOm68Szv0ixdIVSvqyElFrqypjIwCwWpj6F4dUGEp5wARby44GDBejaHuT2k1JcbDLyf0bFM2E5Px5ehevkq2sk+oO9L21ZQabawy31xlurdNfWSHJBzLvIYqEbnn4IxA4fdy+m6nSFlR50BiyNR/0D6dmDYq3jrNpyBdnWtsLidRE3atBTJ95qnSbouHm2oaoc4ajRYJS4e9GFyLz3amVdr8VQQSOlLkmdY5er0euUyt/YuZQCIGmqQlR56pa4yAgEfAKM/9IZADQbok4kt6QbOci8dxlJr0+UHNxo89XXz7H1798ia9/+QLfeP0C33j9HF//0gV+5fWLfPX6WV4/s8zaoE+TLjNN1ymSJRrM+RLGbQXVU0hO2QVzgFiD2+h5NK3nkH0Rqhnl4S5H995jNH4E66sCgLUtcJIDZP6UczKI6H1KkuQk3gb9NCpi2lHe3pbNSmSfDukAs9Fb09QujlHL74XPzHlFmTTIGkgi8u1hBgLpl9aSsrkBWnYJZohfIcctrKpggHlqunOyJwLmm0iotQWNc8ZJUjeRQjKy3JSkMZLn+alJ9i8KADwvCCLQNA1VVdKYytJCO9UMcxPpxymcdLrTDnQkJMvruPPXOFy/yAfjhgdHJzgXObO1xvmz25w/u82Fc/J5dnuDnfUlLq6lbA0cWeKoo6MxYEYtlxmpH0t23Vy6RixCZowEzkW8awj1hNn+fY4fvsfo5CFha5PelWtk69t4n6mQsCiNk3VQgzC7WNQy6o22hLKL/jpd5u6v9rsTRjdt5jCUqN1u6cft+EFss0oFJyqJ7alqkbQOcETTs5n7DMqoMeqiu8b87V/H8bb7MCAh4wzeVrzWl0VABWrUa31T410kTXTxN9MyL5CeDwQxKghq2eDb6XiBGI3yvyF08ebnIYfCR+EUwSc9ko0dynPXuelX+Yt7+/zggzvsHx7SxIDLMpK8h9eNNBIfWc1rdgaBtRxSc+iwzpxrm48nu1c7FLOLza6W6I0jEMoxs/17HN1/h+OjezSrQ3ovvUp+TvJ/JE1AmL1laAOji2KmGciQSIlIcynrolDp/pIiKjgTGTtxzpwfYUqJiHkFxfx+p/0qM+0M2Gr+qH/iEMERVWvIjEB1mr2ATSJDGs1q28rMhNOx/xZ8sZM35KyDTOWoSYrTcQ3JM5JMhQ7IXiA9FwhM/YegrdsOd2vLylU/JgKUnDKKmUcuIcmG+K0LTM9e44PQ5zsfPOAvf/Au9x7sMpvNxBQ1weCglzacHdacHUQGtuy9SlSxM1lgoydRVCaXT2F8CQEad0m6QEMzHTF59CGHt3/IyWiXZm2Z/KVX6F24TDJYAcv/6Uh2eX3nU//mQsT+kzZZLK3xN1YTNWVES5nBrgwY9RnO6i9S1z5bR9Teh4U6533eDsQ1Add0Qpsaym0lt5NMUVEkC89vM1Vt7wNkXwKNDklk0XhLUjLkubr4s0NWRbc6vmB6LhCgSJwvhqrOCdrYsNA9Px6JRJxLzUiC7y2RbF9gunOVW+ka37m3z1+88wHv3brDwf4+VSlzcQESB9v9wKXlwLlhZDl1JE6eO5d2HcZWyW7f5ZxrP2O00qgz6QKEkjAbURzc5/jeDQ7uv8eoOiGe2aJ//RV6F66SDJaJJK2VYUbeU8lOdS95yuXdVpZqd+qg5bT2sO8xiqSWGgqTmnkn+7YlYtOr+Rht3oi+x2HzH2R2l5g2ogUIsicxXUdXBQiN7GiEd7LhiZlgzkOSqTbQqqq/EqMKGXRXzbrEE0nzjCQV32nOcy+GPhYE80Z0styK7u3lXKIN/5Te+rFImn4uDaOMJPeW8GcuU1x6lbvDs3z30YRvvXObv377Bnfu3eXo6IiykB3Wh1ngwnLDqxuRyyuRldyReZXsTuqDUyZzwij2vY3NKxBwyAK6yHKMTTmhPNll9OB9Du/8kMPH7zOhwF28SP/lL9M7f4VksAxIpKdbG63eJybHHAnyOP2hWrGNALXHLANUpa0T9Jh5h/eSC6Rax4SyMKOFluWZdv2pqE5tE2rQGWFoVEkW9XLRtIfY8ybZybL5eANSRhfmGy1GA1Ets8p6vR5ZnrcDnkYt4D8BfSwITM0K6DU6kKSydDniKOqVC3LqxyQnzxFwScdEl+L7KyTbF6kvv8ruxmW+N0v5ow8e8od/9Q7f/cG7fHD7Qx493mc2HbGczHhpveLntgOvrkfODKCfQ5LI+kmineX7/A+8jyQ+yjUuyqyvcko9OaTYv8/J/Rsc3P4+j+/+kOPJLtXqgPT6dQavvE5+5gK+v4wjBTW9xDJRUfcCAMCTHhPn5otIaZXhJvZN0qLf1VyKUaSvU2ZHmT0qiNp+VbA4ZWhcd7VqYVQXZJJMO/9X3y+JfDpO4LxmreqyL7oVVlu01lFXHwckOhRlDdJ+r0/eiQ51hfMnpY8Fgb0shEDd1IQo4S1nS+W1alNb/EWQUyZ0zjABeHw2JNk4S7zwEqNzL3NreJY/P4E/vvWIf//Dm/zHH77HD967xf37dymPH7IaHnE53edS75jtdMRyPCENE5k0X3b/xrICRXFMPT2imhxQjvaZHjxk9OgORw/eY//eWxw+uMHJ5BHlUoq7dIn85dfoX32FfGOHJOtD1FAkYiM7VLS+QIosNrPa7Gp0RcScmZ/WHB06NytIXQh4NZVMujo5PX+Ji7JahCa+tVEdx1xloCtxqF8n71JnWkFAkkgKRSPbScl6UIpQM+eCCD+nfCWbc9Sk3tHTqZXd3CERzp+8fT8WBLRACISoM/4TWbYcdGM7uWqxdz4hSeucMo6iA5eRDNdIdy7jr36J8cXXubNynr8qevyHByP+/QcP+ZN3bvHtt2/w1o232Lv7NmH/XYbH79MffQBHt6ge32H26EOmjz5kuneb8cObHD/4gKP7Nzi89w6H997i4P7bHO7e4GD/Foejh4zjhGptCX/5Mr3X32Tw6pfpnb1Mqg5wDFZKA4B1zotsE32aPlp4dR6mNIEl4Uvj9/mG3BLONnNpbh5ZuNNhg4WWEjFnUqsXWTofD7D3KaPHxKaDqmmjg2UxSUXym//gIGpUr3Xs7T+vPklE1ieqS1mCMZ/PJej+fTYgMPUjP3A+xWeZpgBLZ1s12t55YSTPl/+EwSQsm+KzAenaNumF68QrrzO5+Bq7m1e4kW/xl2WPbx/U/MeHx3zn3i5v37vL/Yc3Odx7n+O99zh8eIODBzc4fPAuBw9vsP/gPfb33md//zaHh/c4nuwxbo6YZBXVao94dpPk2lXyV1+n//KX6F+8Sra2SZL11QFW5lfOEwB07ZAXR90Wlu/CzEFHdInaH076zjmIXsSJmTvopwBGgYKZU5qbY89RJm1Nj1QmDREFBGImRUmL0PwgFBiyVKUwvPO66bdqgjaD1GoR1a6zEWF0/+KmJHGQ571T65B6jSy9CPr4JynSzCRySUqS93Bp1na6NKugWqr/gkh7U2WUvKu1AR0OmQKZrW2Tnb2Mv/gy1cXXODn/Ko/OvMSH65d5f3CWG8kqH7ge90jZJ3KSNoyziklWM8kCsyVPtdKjXl+iObNOPL+Dv3yZ7NpL9F96lf711xhcuU5v54JMgM+HRLX9oStJre6fDgCYN8n8u77SRRUVTswjOa79ExWaek10ulaQLZGo83+tHqgmsFSTGDsz0LxvzWADAUHGD+a+gtr4dS1mlPfqE6jdj5pIbYRxXn7tZjkYalxTkyWefq8/XxDaAPxZ+QT20qZpqOuG6BN81selqbSDXae1kYGhFwgETve8w3KNpHOIjuhSXN4nHa6RrG7jN87BmYtw9hrhwstUF1+luPgaxaXXCFdfI3npVdKXXyF9+VXSV14lf+U1+i+/Sv+l1+hff5XelZfpnb9KvnOBfPMs2coWvr+KS/st81uezxygKAOdKvmnQx2sifAxk3VuntiFokON0eb3x2jbIEkGqAgXBbVe1+1bmRrb2YMAGRGWNY70eNLZfywEqHSXU69RRZtLkHjIZOkUovSpCxHXaOq1Oucx1hBrEu/J8qzNIDWB/JmBwBqiqRuquia6BJf1ZPkVRbAAWFhCGt20g/6jAP9E1NbVIW03jyI4TUeQlOgE5zN82icdrJCtbpJvnCXdvkh69gr5+av0LlxjcOEa/YvX6F+4Sv/cFXpnL9LbPk9vfYd8ZYOkv0SS9nUnywTiPOwpnwYB+fyJUKRN44hBF9x1Ng1WLujIj/YeopgmLsi0SJd4YUSz/fUW6TpDhA5yJZ1lUnRXSeCjK0w3uuYoag45N48iJQmkmYRO9XIbh5DXKR8FiUgl3pNlqWwSo+bQi6SPBYEUMtKEhqYRc8hlvXavALShZKhfjkRzwOZQmEtLueHHI627U/YzdS3vUkCAZN9EJ7tVugx8hk97uLSHS/uiyfIBLusLo6c9XNLHJT1ZldolSLqbvUnK376z1UatnP1scdB5l0Oc4lDbFEdZvAAb/IqxNdvm94h5E0OQ+nXn+eoFUaUxUYIiLjaiLfJcGB7EydVnWMxfJJ6ODNe1KMc0FUe7sb2vNY3aNKe+I9KZhokc9w7yLCXPcryXsSkQC0Uu+XGZaU4fCwIMBE1DHQIhzXB5LtLDSWGkQHOWiYitKUqi+1uAEq2hFCRWYXnZwsufQBHrKIOW5NwISygo9UJZ90bVuU7qx75b1kAAF3Sea9Tveql2q7Gbfpo20hDuT4osshN1f+nWLJEwpomiTovoPdKnktek0SyLCOn3rrR1OoPPOTFjbKRXRosbcJLmEs1ZNXMo6EhymslxjRYJu5gZh7akAFhCsNKuThfgzfOcXi8nSbyEUTub+H0mILCXxNbmlI3pwmxMU4xo6hkhVMRYEamJThZnmje7/tsZfLEPeXR3Ms5ChZ5SP+seAZ0JFDlqHShSW2Fpv5/xnzzho/e03/Ud9k55V1uknwypnR/D3EaOPiE63a9NE/SitotxlkPus5lizoSHQzNOLf3B3qO945VJFXhm8kQsgW/BX0CiRjHT0KZuwIeTzFasLZ32teusT6qHvZPlF/M8b5l+EaSflD4WBGgD9no91tfXWO95eoe7NDffpnj/LYoP36PYvUV1cJ/6+BH15Ej2DAilbuimYtYF2bNWmlsZ/DRYRHMI2E5JryehQXrvNC3+7h4z7v24v+49T/v+pPf8hEjaSNIRIrLZSLsHM8rAURlYAd72AepYWkgSWUnCInB2v2nImHhJfFNTK9Yy28x5WbJ+/g5NjwgR1+YmMXeiNfWmBUxUrRLRzFKd1N80eCBNU9I2PDoXyKDg/oT0XCBI05SdnR1++au/yNe//DKv9Wp2Ht5g6cZ3Sd76Fs33/pTy+99i+sM/Z/r+9yjuvke5d5fq4CH1aJ96dizLnTcFkUb6wcswuzDfRyvSWkemJdSUak9gQHoKffSRPzq9iGd8GmT1dgqC2HT2RtZNRXQiTQsCx+nITrQZYR3tgPSFc2KqOGv3KKaWc56oDi0WHm1kqmTMbJl1oIm4RsOjSSLAAVytCyJ0NYr1qa5kYeWhaXS5lUb3xpAdagCaEGgaWbb+RdAzQWCIS9OUSxcv8lt/+zf43X/wd/hHX3uD37y2za9upXw1n/LabJfze++xdvv79N/7Lsnb3yb+8FuUb/0Z07e/y/TG95neepfpgzsUB3tU40OaakwIM4ilmFEmnaw3uvWLKqc6wNBv80sUFKZbTLLNtcnfUIqqBRoJR0Zcx5zoCgozh7TZojGdgsNCF8ZYnQ/XSA5PdGr2OF13SJeAj2mqIXN9bwi4WlcG8eKouxihroTZvY4uGwVdKYROgl4MuLrCx4Ys1TWHbIygMzr+IuiZIDDy3rOyssLLL7/C137xF/m1X/klfusbv8Rv/+ov8Y++/ov89le/xN95/Qq/fm2bb2z3+eqw5kvNPleO77D98G0GH/wV/u3vUH//Tym+/x8Z//DPGL/zl0xuvUPx8A7VwR71+JCmHBHqGTGWQKP+BafAYYEOhcy8MRQAT6VnnPqpo46AcDhJaQkLTNSpcLT2awM4Bg61wS2H33WOgWpg5ttzOd0HwUySRiMLaUZMLSsUifTYvmRJKn5BkNRonI46W0i1BaRqiESnacqDZJJ9lpFlummkjhbbiPGLAMIzQWDqJqo33uv3WVtf4+zZs1y5fJlXX3mFn3vzDb7+y1/lN3/t6/z23/4Gv/PrX+ef/OpX+Z2vvcHf+/IVfv3SBl9b83yJE66cfMjWvR/Qf+fb8Nd/TPPX/4Hi+99m+tafM7nxV0xuvc3swU2K/QeUo32aYkyoCxk0oQEnkQgDhBTyVJE76Jg3UFcvfOTan3ZSppapk2LTGzO20j5qX3bNh6hedRc0phk617mos89sLkHSWVbF0jRSM3nErCJqdmnL8Kk8PwTdOTRtTZu2vwLC/PZ85b/UMkgtjVqF8ouk53qaMZP3nsQnZFlGr9djMBiwtrbKzs4Zrl6+xKsvXeeN11/lF974Er/8C1/hN375F/m7f+uX+Mff/Bq/+82v8k++9gZ/7/VLfOPskK/0Sq5NH7L94G36N/6M+Fd/yOw7f8D4z/4dJ9/9Y46//x1G732f6b33KQ7uU432CeVYNhJHnGzno9RAN/+jZXjbuNoYoVsZOdT9/dNGxjfyQzShi/M9JGSdUA1Rqy8lI7CdJ9iPLmjoaAPDF7rSRDu1UucexCj7vMUgzriuTRqdmkO20kQqOUVi/ovNLw70adaLCPjs+RJQgTTLGAyH5P0eXscnuqbQi/ALngsEdICwaIt5XRnMgDEcDlheXmZjY52LF87zyssv8QtfeYNv/Mov8Zu/9g3+/m98k3/8G9/gH//a1/jtX3qDv/vGVX790gZfXYFXm0PO7d9m9c4PyN7+NvVf/hHT7/4hk7/8E8Y/+Dbjd/6Kye13mD28Tbn/UHaOn43E4Y6yB7BItwVtod3ZDmxh5tMC2TH97H7/XJKIXV1xuhE5nFgcXwKfnRorw+gRi8bYnGHMZ1BzRJnL0VlWxQDjEJNH84ZsyqUwum7O17H/LZoEOsjovYRIzbx1onGikzJGJ89wMZClCf1+XwbLnKRRNzYm8oLomSAwlNln0zQ0TSOJdBpFWASFXe+9121fBRxLy8tsbGxw6dIlvvzlL/PLX/sl/vav/Sr/8O/8Jr/7D/4O/8nf/U3+yW/8Lf7h177Mb716gV/ZynktHnH28fssffCX+O//KdV3/5DJt/43Rt/5A07+8j9w8sM/Z/z+D5neuyWgmBwQijGxLiDItp8yCVxHvxATQOpjZV7k8s7xp17TOfUToEXZFzU7M+CJSaaMN6+Bcxo6bSfimybQ8KimL7QXO52T4CzaI3MJ2vnFWN6QpkykMlWybZIQiVV3r2J9Z2Oj7TaSLSaSqytodKVAA5Mm26VJQr/fI0uzJ9T8xdAzQfA0MgAYCOwYPFlVOd3XIPFeVo5eXmZzY5OzZ89y+dIlXn3lJX7h59/km7/yNf7ub3yTf/xbv8bv/uY3+ae//iv8w6+9yW+9domvn1vmzV7FlfF91u58j+T7f8L0T/8Nj//wf2L33/0rdv/9v2bvz/6Qwx/8OeNbNyj2H9DMTkRD+IjLIj6FmED0kehFygmj6EAgkgCIfnaT5Fqu7zL/TwgIcx/HDkRCaIg+JWa5OKnWHypdXbIwohsVIjZfXK8HTWe28YKoUx+9I6YyIGZAcqodXK9HzDKdPOOlHUMgeifjB86LVqhrMZOKGe74GHdwgNvbxe3uEo+OJALVzneWFIssTen3B7rw1pzvurz1SSn55//8n/8/Fg92afFlNlzd9c5ttk/3WgNI97vd370m8V6zBHOGwyGra6tsbW6yc2abC+fPcfniRV66conrl85z9ewZzq8vs9nzLIeCdLRPfHyf6uEtyvs3Ke7dptq9S/V4l+pon3pyIiPb1VQcbI1dg24X5BDNYNGIJ7TnnP3V6VNYfOSiz5DMyHGJI8aGYn+Xo7f/isnDuzSbl+DqG7C0Jglu4wk8fiyO6pkt4uq63Ht4AAcHuMEAts/IZ2xw0xnu5JiY93Ab67gsh5Nj4miMy3PY3ibmGZSlMPFoBKsrsLomezw3De7oCB49wlUlbmsbt7EhmwnuPiSOTtr8IXdygjvYJx4dwWQKS0uwtQ3LK1AWpLs3Od8c8YuvXuONN99geWmpTaIzrfEsWuTDp9HHgsAeYMwuW2iePoe+sKsBFs0k+x7lR3us+0e7ooWs9ZnnOYPhkJWVFdbX19na3uLszg4XzurfzjbntzY4szxkI3csx5JeMcYfPaLeu0Nx7yblg9vMdu9S7D6g3H9EeXxIPT6hKabEuiDGUte20XraGjpmxlr9Oux/GgZO/JBFJDzh0IsjEygOQsXs0UOO3/lrJnsPqLYuES9/GQarssvLyQnu8SNhmu0zsLYm2D86FBAsDWH7DPRyMUGmBW50TMxy/Nqa+BhHR8TRCNfLiVvbkj9UVrj9x7jjI0gziRAVhb7vMRwd4/IMzuwQV1alz8cT8RW8l6iR1SXNcMtLsLWFW98QzTKbku/d5EI84Zdev8Ybb7zBYDicg0D57Fn0QkGAPjBJJItvkeG7ny2zL4DAzocYZSnHKN9jiDSaHy5LPQaquqYsaypL2tO5p94n5L2c4dIy65sbbJ85y4XzF7hw/hwXzu1wfnuLnfVVNgc5K66iNzshOdkn7u9S792lvH+b6b3bzB7cpti9S/H4IdXxAfX4hLqciYMdapGIGp3AyVC9fUf8QsmXiQqaltuV8+3nYru/MGDIO513xFBT7j3g5O2/5OTRLvXWJbj0OgyWoapwJ8cCAu9xZ3ZgbVWsoMMD4v6+gmCbmOdi+8+muONjqetgiGsq4qNHuNGYOBzgtrbEB6grue5kJJI9BChmItGLQnhkfR23vYXrD2Tijve4fh+3sopbWYHlVVhdEY2zuYlbXSMOBuATXDEhf3SbS4z4pddf4stfep1evz+3QDom0dPohYHAqGXiIE5ml/m7L4qqMTo3npL2dce5bpqGuglUdUPdyHyFsqwpK/mrqlqOVTVl1VCUJWVZUdSNLnXjyXs9lpaWWFldZX1zkzNnzrBzdodzZ7bZ2dxge2WJtX7CsqvoTY/xR7s0ex9SPLjF7P4tygcfUjz8kNnePYqDPerjQ5rRMc1sQlNXku+CjU8sbmCugGh/WiqaUNQkNjHMOzd0yS5fPP5UEiRFJOgSmopKQTB6tEezfRkuvkrsL0Fd4o5PYP+xrA6yfYa4vAxVjXu0q5pgGba3Ie+JtpjNxMyZzURDnpzg9vfFll9dEdMmSURrVLKVEnku92c5LstgOIT1ddjaguVlHStIoNcT02ltHVZXcSvLcn5pCP0BWH5QUxMnR/Qe3eJKMuNX3niZ1157jZ4m0WF8t9g0C7TIm08jV5blvNeeQV0J3zWL7HdX8ttnQEYVo0r/ECJ1XdM0Ep5rYqQOgVo3BzdQyAjoHDhBV79rmnqe0h104n+wqJwAKQRxEuu6oSoLZpMpo8mY8eiE48MjDvb32T844PDkhHFRUtaBWYAZCVVvCfor+OEKyeo6fm2LbGWdbHWddGWVZLhE0l8m6Q11HkICLtEthFRCScVbQFh2rPxrvH76V3vI6GM0RogSrfGJo6nGHP/wL7j7r/6fPHj3baavfR33td8mrm4TZxPcnQ9x771LSDLcSy/D+gbMpnDrJuzuweVL8NrrxMFQfIjjY7h9CzeeEHo9MROrktjr486cIe6clTyhWrXGZCx1TlKZcuslyS4mMigmo78WftVWcZIb5EIjmrepcU0FZYErCyjGxP37rNz9Pt/cdPxX/+nv8A/+/t9n0OvroxQAz2Bs40vn3MfmGX0sCIyh7SH28FPSHnSJxo6Nr1ojNIGgk3LqOlDXFY1mJTYhUjY1dVXThEBd19RBptgFTaiKUcylGCNNY8wvYGmahtBo9mSQ93TJIaZoHRpCXVNXFdPJhPH4hNFozGQyYToZc3xywuHRCUfjCeNZybQKFDjqtAe9PgzXSNY28aubpGub5Otb5CsbZMsr+P6QpNfHZQN8IptISE95kHWo58JevwiPd4GgiWNK6h6dum+uTKK5VLgEQjXm6K3vcvd/+m948MENitd+lfiLf4+4sgnTCe7eXXj3HTF1zp6D4RIUUzg4IDQN/tJl4tWrYg6FgCsK3OPHxNlUzBIvi3PFXg83HBL7fV0+Rd1z7WvUlzOtKG2vc4o1o5QoOU7UJa6Y4WZj4myMKya4aoqbjvGzE5icwPEuq8Uhv/6la/xX//l/xm/91t8h15RsecGzNcELBcEidR8uJJ0oklsY0RiyaYKYPyrt66qRtYs0ASqESNk01FVF1TQ0tYAhRAHPXLPIe5uga9tHeZ6BoGtydctJ1OVHLEqlGYihqambQNCVtqfTCePRiPHJiNFozNHxCQdHh5ycjBgXBbM6MCOhTnvE3gCGq2QrG2Srm6RrG6RrmyRrW6RLq2SDJZJ+nyTvywy8JNP8fOYjQ13eR4/LFz1hh6z+YlaJHyIzuSJAEgUEP/wLPvyf/1t2b92keO1XCT//W7C8BtOp+AO3buOmU1hZIfZ6oqqiE/NkawvW1oia2uBCgLIkNrUMTjnL57E/p6toCyPKOqJadHTKZl3hqhKqGVQFVDN8UUA5IRZj3PQENznBjQ9hNiKtZqTU5KEhDSVpU+GrGVvLfb75K1/jP/tn/yl/61f+FmmatELgWUzNpwkCY7IuCOTQ3N4PjSRz1SGKSVIL49eNagJlXJHocx+hDoGmlusEQPNRQdcmiYk/0r5Lpwg6J0whwNJr9Pf8GdJwNibgvUyfDEQpj45+VlXFdDrj8OiQk4NDRuMTTk5GHB+fMJpMmRYzJmVFERylzwj5ELe0ilvdxC+vk61tkK9uiLZY2yJZWScbDPBZD5em+DSThXq9jtLquMSckYTkqLSxmVXOSYOL7HW4BOpyxNFb3+XO//Iv2PvwLsWr34Sv/DpxuIwrCgHC4aEwdprK8odZCmkuoc48x6XJ/F3alvIuBZsGwOS7mKCEILvX1CWuLuX5ZYErJzA9htERTA5xszFJNSUpprhyiqtnpNVUGL+ZkbvIsJezurzE+soyS4MB/V5OL0vZ3tri537uK3zzm9/k2rVrrdkdQviIJbJInxoIUBPHfAKR6MgQehR73yR0FQJl1VCXNXVTtc6v2P3yKWaO+AchRhq9JkR5RsvATmdPRQlfCggEFF4viCHIjMnuNEMFWuyMV5gWsgYyoDiQ9e+dIzSBoiypy4KqqiiKGZPRiOl4rNu5HnFwdMzh8Qmj6YxZVVM0jtJ5qrSH76+Qrm+SbZwh3dghW9skXV0nW10jW16VSfz5AJfl+DTTCSa2CK52VmeQ2gbwUHDYOZdCU445/MF3uP2vf5+9+3uUr30T3vgGsTfQJU8kt9+0Ypv/43Vk1gnYnGldcyaRkV9JnqtlBlkt6wC5uhRzqRjB5AQ3PYbpCDeb4IsRyUykvJuekMWaYeroJ5488fR7Gcv9nKVBn6XhgJWlIRvrG2xvy0btKysrDAYDBv0+K6ur7OzscO7cOZaWlloBh4L1WfSpgcCY8rQmCNS1Sn8FQdU0VGb+1AKAqq71fE1Vi+Rtook/YUZxatUcUmY1m9OY1crRdNI3DASN3tOtbqPmmVNzqAsKHDS1AhFIko8CAwV+3dTEuiE0NWVZMBqNODkZMRmdiON9MmY0HjOaTJgW4lNU3lP5nCodEJdWSVfXydc2SJfWyZbXSNbWyVfWSZfXxOnuLeHSDJ96MTmcaopo2pBT6HCpoylHHHz/z/jwX//37D06oHz914iv/TIx68viVU6A5ZBJ7FKrOahw4PCSd9U0YsPXNdQFrpxBOcXNRsTJCW42ws3G+GICsxFueoSbjnDlhLypRKrnjpUsYZA48gSWl5bYXF9jTZl7ZWWZtdVV1tbWWVldYWV5hZWVZVaWV1haXqLX65GmKVmWkWVZu0ON9YMJs4+jTw0EpgVMLaEvq+uGJhijiwlUNUEluzB9XddUVUVZ1zS1SHsxTeS58l0kUug62EHmwYq2mQMxaITI8twb+x01/0TvD1LIj4DAEg9Co4uKOQG3vSNGmVgu7DLXWInmwYemkXrUNVUjdZtNpkzHI0bjCUejEUdHhxzsH3A4mjAua6roCD4hJDnkQ/zqBtnmGfLtc+RbZ8k3dkiXV8mWlvCDAT4f4NNcl8LXmVvKxJGI8wgIvvdn3P03/5K9gxHl679KfPmrxCSXFSK8LhETdbU50yYhEBHH1YWaWJUwG8vfdIybHOFGB7jxgUj18ZFI+bqiR0PmAzmBXgL9Xs7qcMj62irbW5uc2dpkc32d5aVl1tbX2NrcYHllmV7ea7OPB4OBTqAXpk9sJ5oFJrexKet3E1LPYmo+TRDYg7u/Y8c+r2th+LJqKJuGoOaNhEUb0RBV3e59FtTEaTQsGulEQoyJ9U/A0HahnFMQdH2IECW04hQodoc1gpVZwoz2HAAb5zCgyW+rb1SQOe9bILgodnprWiHzaMuyYjKdMjo64uhgn6OjI0YnJ632GI3EjJo2UCcZcbCMX17DrWyRrmyQbWyTb54h39whXd0gXVohGwzxvR4+7Wl+vscnnroYcfjX3+HOv/0feHRSCAiu/7yAINRi3oikkSmLQZPVzFGdHuPGx/jxIe7kADfah+kxaTkhKSdk1YQ0VPQI9NOE4aDH2soKGxtrbG1ssLGxzsb6Opubm6xvbLC5vsHq2horK8uym+dwyECzQJNUIkgmSFGrwpi6y+gm5BaPPw8A+LRB4DoDEDHOQ6HRIkC1DGyVBoCq+qgvEEK7jlHojBYHNX/sc/4Oiz5FvJ+bBbbKQivdDRhS2FYzRAOB+Q6tpNdApWojMxOk0SXpz+v8WAMB1hmIieIQzePV3k68JJ+FJlCWBXVZinAoC2YTiUKdHB9xeHTI0fExo5MR48mEaVkxqSIVCaG/DMtrJGvbJGubZKvrZOsbpKsSkUqWVvC9IelwSAwVh9//S+7+wf/Mo0lN+do3CJe/JBGpsoC6FJOmnMJMTBtfjmCi0n5yiJ8ckU1PSIsRaTkhdw3Dfo+VpSErwwFLwyErqyusra21DH/mzDY7OztsbmywsrLC8rIwfZ7lrVRP0mRhc5fTUt74ydp18ZiBoG3z5wQAnwUIDL0xxnYjv9iGRFUb1DoSXFXC+AYCtd3tdzRp3zFnQow6vjAPk9r7jbrXWvVaEHQBod9BnD57DwYCndxh13YBbnW1Z5tWiYij7nQltm4HWcPbM60jvZp+TV3T1BVFVVIWBdPJlPHomJPjE46Pjjk6ES0xLmS8oozQ+JSQD2B5nXT9jCwGvLpJfuYMyWDI6Ob77H77j3hcQHn152H7Ir6cShhycoybHOGnx7jpCF+ckNcFaVOSNgUZDb0ElvKcQS9nkKcsDQdsbGyyvb3N5oZIdrHjV1laXmZlaYnh0pClwVA3z9CNtr3MP/ZeBUiiwqHDyF1mtO/W3t12tz7rXvMsRl6k+GmBIHR8AnR+QZfZgjJ4bY6xOsdBQVAp89tfZUyqzNJEWUSqBUUM8zXru35Ch8FYaChh8I6GWgCD+Q7WIV2GjWpKRdNEWm9j/FPf9dr2/rohMm/49tlRojKJtyUHZXBAwBcJdU1RFBRFQTmbMh6NGY9lvGJ0MuLo5Ei1xZRxHalcSkhzQt4nrklYtjg65Pjmu4xqR715EXoDktmIrBiR1VPypiALNXkM9FNY6ucM+z36WcZgIKntq2trLC2v0O/3GQ6HrKyssrK6yvLyMr1+n2G/T7/fp5fnZHlOlqYkXqY/uiQh9Z40kf0DfOL1nICgKxi6312nTYzpu8xu37vHnpfipwUCK6g9vGWsVqKLnT+X+BrKbHQFOx0Qq9RHaEeCF0FgWqE1gxCGUVNGGDbIiiGnyifvNwYNaqbZfYAOuHWBA7ig68CeBpppOKIuD/MkUka3d5lplKizF6OMQ+BlC1UDoAkTM8/sUU3TUFc1VVlRlQWT8YjR8REnR0ccHR9zoiPdk+mMcYAiembTCdPDQ8ro8L0BSZLQo2Ep9QwHKUv9HoN+n0FfZv2trq2ytLJKv9ef2+1LQ7K81y5vkmUpaZq16TFemTxJE2V2Mf+yJCHLUnKN6KSJOrnekaaetAWFhICTJNG1T0UQJJ05AnR4bJF5f1QgfGogoKMNul67/AnTRx0viFEYuG4CVRAQNLWAoA6W4zN3amWkWEBQq8aIZvfHCEQavafR57eTPkDO69iBNaqBKZjNqeMNDhnpjJE218gaWcp92qQyppVrTIrLO81XwXKdvEh9i3jY+7ttRUd7sdjBWsbWPwkywl0WBbPplNlsxmw6ZTqZSEh2PObk+ITx+ISmieS9jH5vwHDQZ2m4xNLygOFgSK/fI+/16Q0GDPoD8l4Pr0yepQlJIikJwcw69XGwcSCN1BgYnBNJntrswSwT8Fikx8+1QZoocFLhG9EQIgSSxJHojDdrg8X+s2On2uljKH5aILAO7Ko0Ox7VPm/j9Rb5qcXskUE0SVUwaW5SWYAhjNLE2I4cy3Pn8X8DgQ2ICe+JVogKOgOps7BpXetCBtKwVgeza4IBTrVHW5cFf6LbCfJ8A5Bon2hAUkYxRmhUs+lDTj9PNcccyK1i6bxL/BaH+EmmNUNdU5UlRTFjOpkwnU4ITSDNUnq9PnlvQNbLdZsjKZOUTcrlvEa4TCtJc0idtY99RwpHZSpzeq33feLJklRArxqhu91qamBQ7ZKlKVmWKDCSFgTSptKuTsvT7Q9rDyvPs5iaTxMEPGWsoFs4YW4BgUhn8Q+qRu17beRgaRKqJWzwzJ5Rt8fkezcSZAwqmkbyjWx02KjLpGinWhm7jRjMZOoyvA2ydcYmonxpI0DWQQYiAYNqIbum0yZSJosqdaRdlHZyzG3n9n2oGWZm3+L9gFfh04LNicRuV3PQ+wkyTqCF0mer/6JM175b28vqgL7DgG37BEgbStmdc6RpQpbJ3mLOhKU+N01T8iylpwNgeZYKQBJPmiownYDCJ16ykzqCa7HfPo7ipwmCtnM6ktHsRitoK/nUea5Vgsm9MhDQhEjTVFSN+gRNoNEVDMS5FonfRBl0M3AZCOQz0mhektnvUTvMmNLKaqHVGMXEcr7TuAaqqOOpxuDKEFEBYPX1Xtb5dCrNLfQbDChOw7H6uwWHdoR1DjroFolqHugmFDr908ob1PnpAutU6FG1iSw9pO/vlF+e1dFuZuIpM6Pmj7dyh4BPJLxpdUbNIdMibX2cAMzO5+o0m9OLauEkScR/yHM1nVLSRBzrNElI04TUS1g11fEEe6bwzZy/umV6GsVPEwRG3cLYy7pM5zqSMlqHdCojDCyJdq1jrKaOjTobIweLKtlz7Fq1540BRVtYQp74Hfa+brlPfV8oF6jEtXOd+lhdrG7WsG15DFCdaFP3fV3mN8a0P2lHXfJc0zhANEUMEdcZlAv229kEeXuPE3PCObwmB8Y4B49pi/n7OkBSlvWmbTp1Nl+gawF0748aaEi8lxFgvd4hbZmo75AmCT5JyBIBfJKIf5FmCb00IVPHO0nFZ5B3zAfVjA/iwqDtk8iucZ8GCE51/gIircPtmDVYlxFiBxCxY+cLI83nHVR13Y4VyKizaIhoIOhI/KbRgbegI9fmaAeJMDX1PBkvqrQP6LIfXfNDmb5bZnMQjSG6zG2MYgwdNNIVO5qofU43tBzUXHS24qC0l1MGNCCZJNaT8h7r4FYSz8PHIJLZqVQXzWRmiWvHXeyZdp3E8+daxsjql6jGsPJb3Vtg6PckSSWq1AGBON7iCwhT2nvlXjGhMnqpmkVJotEk0USL77V2/YmC4EnUbVT7HnUhXyu4Fcg6of3r2OURJ5LcoknqTFeN5CRZ5mgr+Y3xzBzRc7UyWRNUe+h9RNEOMWpG5QII7M8aGpA4uIYyjQEbW13NmESZN7TAtPETaxsxvxLdacWiZ7SZq/I4e7+1n8xYM0k/b98Y5XnSsfr5BOaNCnjcfHM+ebb4Ok6B1TWtrI5EWwNoDoLu8+36RAGUaGg10eiYV98hT1Pydi1RBbtpRe8lepRm5KloCwOBAcDeZf1i7dMtz5NI2u8zAEF8giaw3120dkHQvTYaE5p07ZwTYOj0y0rnIygzl3Wts9Oipl3Po06Njke04AgynhCChBqtIeV9wlz2287Zs5xpgQ5grROs7NaxUQ622skcxqgRLLnCmFgAFlVKmwnUNPLseWrInPGt7dp2Q0GoILDzJmntXWDpIWJ+2PNEiIBD/QvzATrviOoMW995XZnOOUei5kqipo3Y9CLt5ZisJJ0pCFIdXBPAdbSICoc0sftkuqrVqctP1vZdPnoaxc8KBM8iK/AidSumB2QwKdo+YNoJKFOZnR8kZTvGSBWaNgW6CQoCTb9uWtMpUjWV7LhpIGhnpimzKkgiEENH0+ios5WyZYpOHazsZrJ0I0xRr0n0XGsiGQM7VCoLMPQl83ttS1Vl/m5bWlnkh5TBOQFO1ycwU8ieIYymWkcB2ChYvUp7k/ghzkfuhdE17Jsmc1td/+y+p4IgS+XdqTB6lojWMAAA7TO7vkBXwCwCwOr0LIqfBxA8iboVsT/TBKqfP9LhRHTk2Gx83XqsUS1QS75SiDIabGZU3QTKqqSsZMGtOQPq3AOLQpnjrXMd5D3qNwTRFibhrfEtP8ZMFQOfdZZTDdKaSR8BgRomWjf73YKubQE7YFooECRzfH6/Mr3T51iZ7B5xopVZW4mua3pqubyGMLMsw+u+YI06oE4n9KeJSHNjXskPUhNGBwfNdEw0jUIAIoBIkoQscRIa1eusHGL6eAX/nD+iCYYfEQB8XkDQLezidyNTid17nvXdQNBtoMYcZh1dbiybtWkoyoqyrISxOw0aFpP5WhAoI3ee1ZVC9mmNa8fMJ7HGtnPdzrTymxljUjooKLwBwe5FEv5MQ4hk109kCr+Ycwaiubkml0TBRDxtWrRjGPH0/OtEw5upLuZrJqrVVxhaGDhR0yXVgTfvxa7PdJnGxP4SBYzT6xMBm4HA6klXKHZ4pbG1Tn9EAPB5AcGTqFuJ8AQ/gU5l7bvdZ592PraSbt5Zc8YSCV+W81lsEmWSqFPTCNN3zRTTDML4YlKZadR1itvyaIeZhjrlRyhDR2NmvT7GuaOKRcY6TqpXSZg43SijKwk77SbPEba3QT0xn8zfkcttUpC1c1Spm+hglpOLAHl3pqO6XiM+IpnFZ3EONWuEiTP9NNMmTWSvYdeOEkvOkAzCKSCSeVTolPCzsmhdrazGI92+f16Kn1cQ0GEkI6twt5B2jTVAFwxdENixOJ9AqEDQnKSgS75opEgW9JIxBBuAM9sitABpKHUWXNPmOImP0Y4gm1lmppT6NE4lreuMKZhEdV7mPEdlMDr3W/lxsiS518iJ74y9mLSUOkZJo1C7PgRZRrI1tzqjz3SYwUCQprI0jCWvyWoWEqkyJm8/bSBUbfckNQBIGDNJLYNUQpz+lBbQvZRtjKNT9yeR9auVtUvPYuIn0ecaBIv0cZW2yviFMQe7r0tiv+t31RTiD4jjKwCYD2qJJoBGbe2qqmQ+RFVRVjInOppm6YxDWPpHo860jEPMUyas4U3TRBsx1nLadVIXcf6dLQfTSUvxTn0mrbPT364zhtBqK2sXZVYza0IQk8KpZnGWwpBmJKnkAEUFqTm6qUV10lQZW3OFlLkzZXyn/oXZ/2lqUl4AZkKsrXOnv1qN9gThx4/B9ItkfPO5BsFiAzyJjOm7IAidKXfWCYvPsvvQxrR5CTJGIOMRoBrC5j3Y4l+2JGQljjKWCBgidZABPPEnbKKQ7CYvfkkAjeo0jezz1XWoTQqKrO5Idy2rAceuTfw8R6lbR+89SZpCB8zC4NLpThkdJ0IAJ8AwIZEkCb1c5vaa1JibTo48y8gzyTCVqI8yt/oCmaVSOyDOQ56p7pTjEw1zah2fRI053p3zi/yweP5HoZ8KEDyLupVf/L5IxkTW+fa7e8zunf85WcwqzkOwVWesoW4kMS/YgF2IbQ5To2umVrVMGw0Gkqahqqt20bBg/kLU+b0WTrU6RYPMnFGkPLIuvwHE+Xn6gdNRX6/RGK+DeAaCREOcEbHf5X4BgIUjiaIVRMrLytDdtkuThDxLZWeYRCJcMgCWkGZq7rRgEzjLe2wMQABj7W7PN9Ove/xJTP6kYz8O/dSDYJGM+Rcr8jRQGHXVsTQuxnYCBvmiHWQ2v0h9M00EBPMkOXGqG0odg6gb9T+aRswpm+ugKl/8Elklr1sW+zOb3+sAWVCAOKexcnMindMFsMR/SDTFgKhrvsZAajvURGF2i+Ikmp0pgJJnSsh0nsYs42COJEnp5RrpUeDJAnRyj5lNAgKtkP6243LotK/XdCI9dv7TpL9RIFiUDPZ78TjKdE4Zx67pmk9dCdW9XxgSQEHQKJMSZUmWKKaSzHzTMGyoqStZQcMyXmvVEq1jbvn/Hf/A3mehzqaR6JUxlwBTMfMEEICUVRzbuYSPsqyQRHJwRBzeyUbsidro7eiuAsBrnn/i56nUPpFBLskWlWeJ6SMPtzYUjM4Z3v6eRNKmzSmhZMefds8npb9RIHge6gKDTqcIc88Zr9sJXaAsAmIeZelI7Uanf0aJ1zfK5BZylexVnQeh0zyr7op8tQzEYaZSBwR1XQNOpLVzRE38N+nsEi/c3b7fxlhEI8yTlmW0OdEdIBP1DVJNiRDGT0lSOWeDXPYs8x08sg+DV1PsNJN/FAD2ae35LKf3Wcz4Isn62/2sgKBL1thGXeZePO7UVnUL2iOaqaQUOza8gQB06UhNtQhRZ34188lBtvxMXdeUdUWjm1+Lo22ml6UHi0lk5oyYIVr2thwWAbN8H9vpXSM1gE8luuN1RT0BQdqOKHsvdr5zphm62kZAYBNwvGqnLlm7GRhoBwHlnLXfk+hZjPii6WcWBIvS52nU7SS7J+nswtPtVOtYe651sh03qYemKIRG4v4CCl2IrI061TKhSMOrFnK1udnyfAnbOmVYoo41mKmkIEiQmH2a2VInkHoJU2ZpgsPL1MUkIdFVsc1Eak0a1Rw2qmu2fYwSP7P62zFpEzC/ykhAfLrtF9vts6afWRDwBCB0GfZJDfGk4/MOnzO+SUs7t3htFDGtZo6OBOtCA90U8GiLD2uKRq2r79maqeako86yRIRkcMymSsYY29FaG7F10E5TzBLf5uLYM+YMLfOCTeU4p9MrO23UbZPFtrHzJiiMFtvx435/2mR95n4WQfDjUpe5u8xvn11zqXtN0JlX1sliXiGmi2kKxKSx0eMYZYRawq6BQHd0WyJSMeoO9TrJHpXaBgKvqzd4Bx6vmkBHZTWGb8xv5U28pkLoptiuNW3mzO01i7TLNGYy2j1Sh4+21+eJvgDBj0DWsYvUPd7t8C4Z01tjd4/bPR99TlTHdz5G0QRbNcN8DNEY7USYDvAcIsSdRozEZrfBNTtpIBDwGRjmUZ45dX8vMrmds8jOYjs86d7PC30Bgk+Zusxi5BfGJBY1R5e695umUEdAzaHQDujZ9XJabHoxzDsZlwoGdSGInfLEeNq+fxItMr6VofsMu65LnzfG79IXIHjB9KzO7moCYyaTnItMtPi7+906rftbfIEnMKGT1ezs2PywfIl2fOFeK5992nu6ADam6dr8T6r7s9rk80BfgOAzpCcxmdnQLVMqw3T/ukxov7sM+RHGV5pfLwph8Tnt9VGS4uy8kb2rW7buNe4pmmCxHJ93srZ0zwGC00N4X9CPTIvM1GXGLoNFBYf9Ld5j5xeZdpFOMbrS4nP0wlYj2DXdT3vX4rvts/uOxff9NNHHtSemCZ7nwi/o6WQM/6P8NjKGs/NPYzg7b9Kty6yLz44LJo6RMfziO57U/4vP/WkjawOvS2Eu1rlLX5hDPyVkzGt+w9MY+gsS6goC89GeRq4sy/hFQ37+qcvwXQ3wRd99lBY12Me10xea4Av6G0ddIcEzTEyjL3yCL+hvHC1qyS80wRf0M00fBwCA/z/uzVDSpA8BZQAAAABJRU5ErkJggg==;" vertex="1" parent="1">
          <mxGeometry x="386" y="407.96" width="113" height="86.07" as="geometry" />
        </mxCell>
        <mxCell id="Na29aNG7F6KIejRiTE2y-6" value="" style="shape=image;verticalLabelPosition=bottom;labelBackgroundColor=default;verticalAlign=top;aspect=fixed;imageAspect=0;image=data:image/png,iVBORw0KGgoAAAANSUhEUgAAAMEAAACTCAYAAAA3BH1gAAAAAXNSR0IArs4c6QAAAARnQU1BAACxjwv8YQUAAAAJcEhZcwAADsMAAA7DAcdvqGQAAHVWSURBVHhe7f33s2VZdt8HfvY+5prnTb70rmx3VcM0GmA3GgABOpAECc1MKKgYhDSaCM3EjP4JRsw/MxESoZGoEaWhyNCAAxAg0Y1Gw7Qpk1WVptK9l/nsdcftPT+stc4971ZmVnZXVnU1ulbVy3vvsdus73J77b1dWZaRL+gL+htGMUacc3jvaZoG59ziJS35xQNf0Bf0004xilx3zrXfn0VfgOAL+htHXan/LA1g9AUIvqCfefoCBF/Qzzx9AYIv6GeevgDBF/QzT1+A4Av6macvQPAF/czTFyD4gn7m6acGBE8a9IgxPvG40eJ5+754z7N+L577gv7m0U8FCGwI3Ji6OyJogyHdc/Zn57u/7T67p/vbaPGeL4DwN5s+FyB4FpMtMuIiY9ufnVu8t/vsxXue9JzuObtn8blzijyj6E+kbnm+oM8HfS5AsCiZu9+7APDet39dxnSaKLX4Z9T93dUG3nsc899dgHk9zxPAI8cAHPI4A8NHwWT32+fTAfUF/aTILWaRdpnvWce65550/Elkz3kadRnevgtvRbz3JEmC/JwzVQRlY6EnM57HOQghKtN26uIEBlHfEUJovzvnaJrmOerowEWIBgoUEA6Qd8Z4un7PQ89+52n6+DKepiddb8e6fdA9t3js80yLffiscn8EBF1arPiTOvBH7dgu2XNDR/IuPqsLApTpY4w4vS+GQBMCddMQmoamaajrmqZpaEJDDAICn3q8T0icxyeONEnx3uG9fCZJckp7OAQgEAnKwB9tRmF05+YgEKY/zTzWRl2ASb3afz4xfZJ+MFpklO7zFs993ukTg8Aqb0z5PI3bZaCn0eJz7HcIof0dgaauqZuaGCNNHYnRmFsYO4RIo0xf1zVl01BVNUUp91V1Q900NCESHTiXkGYpaZ6TOkeaOFLvSHCk3pMknixNSbOUxHuc9zhlXu8dOE/iPT7xeOfx3hEVFN5JQzs31ypmfkmbqNnl5h0jwFCMLVik0QD4IzCetd+LJqnX3G96Gtk1Vt7u96fR81zzSegTgaALAOswe8hHKgu4GInSw21jmcRDOyjGSGgCIQZCCK0EDyG0zF03tTB5XVOUFbOqpKwaQh2oQ0NZlhRlRVXXFHVDGRrRAtHRBKiahroOBO8hSSFJcT6BJBENkGWkWYoLAULAVSVUJS42OALeQ5qkJD7BEXExkDlIvCfxjizNyPK01RjOORwO1zI8pN6RqkZL0hSfJGR6fZKIOef0Xu+EebyfayBrYwON90l77PS5uQ9kffak/umSHbc+6t7jnGv7ya6x59u5JzGSc67V1IvnnoeeVtYXQVYH9+OAIISgnTa3v828CAtOX9SGq0MQRq4qmg5jN43cV9cNVd1QNTV1XVPVNXVVUYVIWQfKomwld4hQhSjXR5GL0SfSESFQRaijI3qP8wkuzXA+IQgrC/P1eiRZik8zfJKIOaSfhIZQ1zRlQSgLQl0Rm5oYGkF1CMTQ4JqKhIDXjkoSR+o8OIdX0yeoHI9EHA0Z4GIgNgGfOJzzpA6IAU8kTRLVFmb+CfDSVMrmnCNxniRNyNJUPhMBXpJ40kQ0WpZlpKkANk0T0jQjSVPSxMqnJhqqnU4dc8QYlPlFqxnjy7HTIAgqrIwX5JFPZ6gfhZ70nKcBY/H44u9F+kQgsIomiUihpmkYjUY8evSIxwcHVFVFjI6qqWmqhiYGmiZS1A11EwiIAxrqhiYEonNUEYoQ5DhQNgKU4BMaEjVbIt6nuDQDL53pkhSfJiRpTpJl+DQhuESOJwlJkpNkPVziwXs8Iml96nGJwzuvZovaHlq3SCRUDaEJAuQgplVoGmKoCKEm1g2EmhAa1XkQmwBNQyQSQyQiWiU0NaEJEAOxrqmLQhgnBlwTqKuCWFcCsBiITQWxgRAgOjGIYiPgAXziRHN4TwIkRJLE0Us9iYImzzKSJCXLUrK8R56lpEmmGseReNeCJklS8jQjyVOyJCNJE9IkUXDJ+SyT5yapmITGQMYTi9/t9xw40sQC8WczKPBUxpRnfdT0Wnz/4vdF+kQgME3gnDiLZVly48Z7fPvP/4IfvH+LWXSQ5iLJZzMpcKP8lWW4JAHnybyo8yTv4fIepBlJlsnvNMOnGVl/QNLrkfb6+CwjzXLSnnZkmrTOrPcetNMiDoeCxCc4EmL0YkiLA9B2SHuMSIgOL2yLdxDDHPCRCCEqczdEF3FBfJEYInh5awiNmH9EqbATqUojJh7mqNcCsPnvilBXhLomxkCoK5qmEkFR10Q939RVayYSggCwqaGucDHgnRY8NKJJhOv0uJYpRFysSWIgTcSU896TevWLkoQs8SREvLOoW0a/l9Hv98h7PfIsI0tTsjwnTTMBRzLXOlmWkmU5eZ7peQFSmqXyvA6AeILZFNVkXqTYMdOeBAQWQGLfn8TgnwgE3ZenacpsNuNP//Rb/I//5g/41u096o3z9NdWCWVJPZvhQsBXYkr4TG1eIHeQeU+S52S5NKrPUpIsJU1zsjyn1x+Q9/tkg6EAIMtIezl5LyfJPEnqSJJU7ei5TS0q3t6V4JwAT/5U8kda53UewRQ5pf+rUyNoaRs/WANrW0SxebwTIDmnzK5jBK4FkrwjdO+zc1HMxhg13BpFe8Qm0oQGF2uxyYOcD436Tur3xKYmNkGstaYh1pVooigaSQBUEqqSuqqoiwKaUu5Vc6+paylODLi6JtYFTTUj1AEHZKknSxPSNMW7SOoTenlO3uvRy1Lxd5KELM8YDvr0en0G/R55ntPv9+n3+uS9jCzNyPOsNakt0GDfu76G92KmyvFEW3Eu9Y2M2RdNNNc1+xboE4GATrQhyzImkwn/7g//iN//X/+/fPfYkb3xyyyfvwhNJFS1qPS6JjY1oanFJq4bkqbGNw3EQOoCPjbEUBNDEOC42DqRPknwUSRaliZkeU+ljiNRqeSd2MQ+TfFpKhIoS8UWzvqkmZhMSZLgDTgmCZMEl3i8S3BetEN0MlDmvCciwBXGV6CAoCfqh1OmjvNjp0coDAnK/woK5yA67Vy9SB6lktsjBkQUjSTf5bdD3hmJhCDvFq0lmsdFDTyEmhBqQi1/TV0TYkVsRNOEqlbNo6ZfVVNXJVU5oykrAWSMuCh+XChmhEq0T5o4AWBdEpsaFyFPXMvQWeLIfEKaJeSpaIs8z8jTjF6vR55nJF7Mt34vJ03F7BJNktPr9ej15HueiZ/jvZMARaIBCNV6SZqSqWaSNnoyaKTZPgEITmmCLGM8GvHv/ujf89/92/8fPwirDL/x91i6/hqeDPElAy5EaUiVOiFUUFfEuibWtaj0pqQpC1H5dUWsS5FITSOgq2qoKtIQxK4n4p2AxQNJE3Ax4DRqkiQJaYI0aJKIFvFi46ZJiksS0sRLRCdLSfOMNO+RppmaWAKgJOvh1Qn1adqOV4jTKL6G857ovER0pGSnBsaiMbsybuxYJ8b4nWbVi+bf7V7Eumm1lNMf7W9aTxxc7LxTgGJgIgY14SA0xizdgIaYI0EDAk2j/dcIOOrZlLosCE1FbCrKoqIuZjRVSVNW0NTUTYCmJjaVgCTWuNDgY5DxF6dh58ThYiRxjjxVBnee1EOSpPRy8Vf6qRczLXGkauL5RDRTmqb0eznLK8tsbZ1hZ2eHPM+fqRE+EQjoACFJU6aTCX/4R3/M7/+vf8D3mhWWvvnbLL/6Jt73CUEYNDrUphZbVmxmdRRb268Rdd+YcxjwNIRGpVwjEsrVtZgNTYULFbHW72VBU5XqsIqGcaGGUOPqBmKDq2t8HfBB3uVpSFzA4UiylCzriYmm0aI01bGDPKfXz8mzjDRT3yXLybKMRM8nWS7aJknFMVcgukS0i0krWvtXgIJKKpH00ljORR1N1vZWLTRneEGEM87XHjrVUW6uiOxJdqmzf/S9QuLXREWm4CLqxcigIoFIkMBAkNBxjJGmlvZsTbYgJhshiOYITWuSUZvWacRaqGvqsqQuS0Jd0pT2V1CXBXVVQVXSFDNiXRDrGaGSc845sjwjz3sM+j12tjb5uTff5Jvf/CYbGxvarp+CT0AHBGmSMJ3N+KN//8f8/v/yv/EX0x7DX/9HrH/pq7i0T2hE+rTRFzriz3okWthA49BRukMiCKLiAyKdXIgSJYlRJEtsiI3Y0gTRGrFRhzEE/S2RnNhUUM6IVUUoC2JVEMoZsZpBVcmzifimITYNLgScd2qGRbLUk6s55pMM5x1Z4iVq0stIsx55mquDmLYgSXu5ahSxl5NUQrNpIsBJ0kxA4zy0cX8DQ6eJOkwe1exxXdOre4GSdatdomyul3VuaNHR6SKnPpCTu6QfIxJjsGCAFK7VIIhwMxDEpqFWh76pSqpiRlNXVEVBXZY0RUlVllRFRVHMKIsZ1bSgLAuqYsZsOmM6nVHOJhTTCUVRUFUlZTWjnM2IeJJeLm3flJwfen7zl3+e3/tn/4xLly61YXz4qEn04kCQpkynU/74T/6Ef/Gv/i3fOYLhb/wTNr7yKyTZQJwq79ocGWlk80L1YU/ovI+Q9bVJKaQj2g6Vk9rpUSIxiPSSaAlEJPQYG7GRY1MSKzG7Qi2qOtahjcaIs9kQqgqaCteU+LLERZVw5QxXzUTbRDXJIvgYSVT6JIknTVMys4OzlLyXk/b79PpDesMl8v6ANMvJ8h5ZryeDdqn5K6pJXCKRLp+o3+LVvBFtEtX0EQaex/Lbtlmg6MCbiWbBgM6FomjUN2lNKBNADRHRtKGZh3+buqGpKpqqoq4rqqqiKSuqckYxmVAWBeVsRlnOKIqCejajms0oipKiDhS1hMXLpqGUIBZlEyibSN0EGRvyCY1LqX1CE4Akw/UHIkQO7nPp5Db/8CtX+L/9n/8Lrl+7Rpamqu2E4U+1wYsEwWw640/+9D/yL/7f/x/+dK9k+Lf/KZu/8Ksk+ZDYyPXy/K5RfOpxLZ2WVKcFlJw/fdx+tGk5HZK4T6djnZTbuaDhTxk+g0AI2ulBYv1RzTT5rHGhJgYJRcYgtm5TFsRqpv5Lo9omQlURq5k4j2UBTY1vKpKqhFpA5IiSmpGkpM6T4MjTlHzQp7+8TM8cxDwn7fXpDwbkgyXyXp9sMCDVMZEkkU8blQYb4EpFRAg3zxuwbQwVIg4CwtxipspYTWwCIdbEOlA3NU1VU5cVdVXSlDOqYkpZFhSTKVUxo5gVzKYzqqmcK8qCoqqp6oqmLCmqmjpEmugonaOOnhAjdYhU0VElObXvQZLRpCkhzQlpJoOgPiX6hOhTYpoRkpSYZOASGfVPM2KIJHff4fK9P+d3Xt3iv/4vf4/r166TpTL4+KmDYDqb8qff+ja//y//FX9y74T+b/wuW1/7DZLBMjROfDD3hI5oydj8I6/RMx1YPBtDH0uteSE8T3QyCCdFU4kY5LsodzHJHIjJRQSC+DchqBmmTNOIHRGbhliVhGpGU82gFuYPRUGcTcXxN+1SNwKassDVNalHY/W06RuJhzzL6WU90Sq9nCzvDIL1+mR5n6zXk1CzapkkzSXknGT4RPyR0GHyuqoIVUlVVVSzKVVZaESopJoVVNVUzJSqYjYVyV43DVVdUpYi7WdlpcweKeuGqqwlWdE5qugIztHESCAhpD1IU5qsR/QZMU2JzhN8SkgyQtrD6XGSlJjIoGf0Xr4jA5voyHkEcJKvFcsSf/N7XL33Z/zT187wX/+ffo+rV66Qpp+BOZQkCUVZ8K1vfZt/8S//R/7o5iP6v/a7bH/975EtrYsmiOD801/wTLI3d243yDybVDU4gU8LnPaHHmkdp/k18087J4YH+i/diIsDghOHPwrKnMX8aYAGNGEjNrU4g+Y41iJpQ1kRZlNCMSPWM2gEFKEsCNMxoZgJGEIg1DXEiiRGEg+Zk/SJLNVQYj9l0O/RHyzRHwzJl4bk/aH4Ih7quqauasqiZDYaU8zGFNOCyWTCZFZQFCVlVYltXhUUTcO0cczKSBMheEdwnuA9wSU0eBqX0CQZwWfEmBCTlNjLiUku0jtJwKfELMMpg4fW9xHGjlhIWrsNJ4LIy2dr6zVRTWIBgQNc4ojFlOS9v+Da7l/xv3vjAv/3//L3uHTxUhsqfRKDf2IQWNgpTVOKWcG3vvNt/tv/1//AH7xzj/6v/S47v/YP6a1tKgjErXoOzv306CPI0QPmlEfUxhYNYECwXlG5YzCwsy3NwSHAk/qq2mIeCDBrEGijYjFEHUOR0CJI3J5aJHVTSTw/1jWhLKirGVQllCWxLIiFmFwJER9rUiTcmCUpvSxV0yqBYsZsdMy4hlEVKKcFZV1TBChCpGwiDWJ+NA4a56iTjNr3qF0KSSKMnGTgE6JP5p9pQnSpSGufQCJOvg1O4hwxkcFKEYi+tWFljN5p0EO1LMrsanpSN9DIeBMgaTP9HmSSQhNnY7J3/4yX93/A//4XrvJ//S9+j4sXLkqGr9Iik39iEHQ1QVmWfOfPv8N/89/99/ybv/6A/Ju/w/nf/B36G2c1DAjOchE+J9Th/Zah5wBYLKcAxsDxJIrK4S14jBZviPp0J6CTQuh9TkAxD48GXJSEQYu4EBoa9U1CUxHLUpP8ZKCKSsdeKnH0nYaB43TC9M5N9h/tcpKtMhtuqCRPaNTODj6BJNM/Y+5MpLlXaa5Jf8LcWhHnNM9kXvsYlYm1ziLdJRgSldEdURg7aojcezGFvIcQcNMp7viYWMxwmmJCU2uaisdtbxPX1gSY42PSd77Fq0dv8X/46sv8X/7z/yPnzp1/YZrgiZMA7IaooTHLdIw6mhjrSmPIHWn7OSIrjlPmN8aXbjRoWNhvDnrpR6uL3G2awjmdQ9D9a59vV0d9iIItGGOgAsNDTOSTFHyG8xnO9/BpD58NyfqrZMsb5Kvb5FvnGZy7wuD8SyxdeoXh1dcZXH+D4ctfof/ym/RefoP02pfh/DWmg2UOQsZ+f5OT7euMzr3K9NzLFGevU+1co9m+QrN5kWbjHM36DmFti7C0ThyuQG8ImTiuMVFGdV6CDag2s2BC0+AaSecgis9FaGA6g6Mj3OPHuL1d3MMHuPv3cHfu4G7fhr1Hkr6Og6aBo0Pih3fgwQPi8ZFovqaB2ZR4cEAcj7Uv1WwNmoHQDo5pN70AeiIIjCksfSJNJSfEhSAxeBtmt7yA0/Lxc0oigV3URtVQ4/xzHk6Mek1EO9numT9KaQEwahpYm1hnWRM5xO92iPaM4lIopymkogcSPBne5/ikT5IPSfJlkt4K2WCNbGWdbHWLfHOH3tYO6fomsT+k9ilNNqRZ2SCsbhCWVoj9ZegNIB8Q8xwyYfSo5sy8VjrPwsZfqgo3m+HGYzg+xh0e4B4/hr1d4uEhrigM3biiwO0/hgf3cHt7uMMD4vGxMPL+PvHBfdyjPQkYmIaYjHFHR5JGs7xC3NqGjU1cvy9CJ4a5Jg2Nzv+Q6F2MOoflBdETQWCawCSe5be7KIWJdXVaJf4UgEDi68LYosKFwaML+tk1VYRjnTGnm7cJdHj/maQXGXO7DlD085RW0XdEpwOKWgzlMy2X/kWndncCLhXQVpVo6aZSd0WAjeq+NtE2BFzd4KpaJhVVlTjzUd8PUBS4gwPcw13c7kPc7i7u4UPc/fu423dEyo/HYvYER5wVxP3HuMNDub8/wC0tw+oqsd8X5p1O52aP5pvhHG5lhXjmDPHMGdzaGm4wlHR6J+HPLghcaFqtPOe9T05PBEGXXGcWkw8NsSpkECp2Xczn4oqfIEmESCSIMnuoNYtyRqgLHSSK4viqvxetsT9Jez9305j/oABR4CyCRMCpDB4Bp5mvdYkrpyIxmyDgwSnDVbjxGHdygjs6wh0diuTe3cU93oPxWMDiZR63G50I8z96RByPcU0j5YqROJ0ST05gNpPfMUJd44qSmCTEzU3izg7xzBnY2sKtrIjvgYBbRsGDOMOAy3JiT5zgaHOvUc5UNSqTnEq8CySdpLoXRR8LAnMwEp/IqGtZEKtSGsv95ADQ1UHd70+m+cCSA0KoqE6OKB5+yOzBHYrdexSPH1Du71IdPaIeHVAXE0Ko2gzQ1m/4NOk5OrZtcmfSXk2HpoG6JIZqrjCIUFa4w0Pc3h48fiwS/viYeHRE3NuFBw/E3AlifrgYcJMJTCaCseUV4tYWYXubuL6O6+UypyKIXeecSOoYAi7PcEtD4nCJOBwSB2qC6ay+iGg6dA5GjDLpyoHwUyNp3jKwJ4AH0xw6p0ITGp+nrZ6XPhYETifXpKnMz23KUlNv1Wb7jEnMGTSeI1EIKcXTozsgqQFOGaOpCsq9e8ze/QHTt37A7O3vM3vr+0zf+h7Td77H+N0fUDz4kGY2IkTp7M8EBM9BsVNJsZCc1K9pxLypK2EyJxLXjce43V04OCBWpYzO5j1i3hPmHY1hMpb6efWF6lpac2mJuLFJ3NiQSM3SMq7XU8d5Dlqno+8mhcz0k3/NplPBjk5gCpLYKNpN6oDmhLVaT5/gomgCMYfmgYgXRR8LApDJ5qn3uNgQqhmhrqRi3R75DCgi6lSiFubkase1n/Nkr+5vp9LcEYllQXN0QPP4gHg4JRxMqfeOqR/sU9+5R/Xee5R3btKcHEKs1ITSUMlPmE61eMdncDEIUzeVDuI5kbbTCXE0kjqsrMDmBmFrE7exgev35+aM9qdTGzx6R8wz6OWQ5ZotK+ZKdE7GA6RRJUUlmoc/b6YYZfSaoBnFqM8VI64WP0Q4XlJCrDLRJxJOdWKeSW5XReoCaWdO9IuiZ4KgZSCvS4+EiljOZC5AmCP8syIHc8cxqmOLRAps5NckixPOle/qSzqHhvoqmSqZDPCDHfzgHPS2Id+GuISb1oSTY8JsKtmmKqheqPh5ASTtgAgA54ixkfTzYGpPgOGcg/6AuLxCXF6GwUBHfWVlDRmsUCaMEr2RaaS2/IzxQiNONYj9ro68JmvN54arpiZGmW+CmDetfxOihFk7EaD5nyyiEL0NuEVi3eCamsRJZvNn6hO0hcYclDB3jFkwhz4DPIigiPIqFwkEHcFVdayRHmc5Qy7odwOJgEAm1Acd/exBMsRly7h8FZcvS26Lep6ttjYgfI7IAkYSUgRXV7iqEmmOIl/JGWOlMuIrwkLr1X7X61uzRDWpE1A5G9WN+j7VxmIOaeM437adNrgKIk2diDqPu67UD1HAtmBYNIciTudZ+3YNp88QBDFKOEomkKQkOAmnNbXU0UlFRa0t3v0pkLOelw5zMRLqgnp6TDU5phkf08xOaKoRoZkSmoImlsQoPowBQ+qgGaPRQCJLuOAlqcvphBmRsIsF+ZyRcwIEnfTigszJaBkrSFqGmDzGnKbd5mZN25naLsKC8+P2fGNseZbNBZGRYiuPObaiKOy9Mk+aIJJdmUgroe+1pW9a6aPmUKjwjjY69JmaQwBZltIf9OnlmUwSr215Qws5aoN+yuS0zUQIRGJTUh4+YvLBW0zf/QHT999hevMG09vvM713i+nDuxS79yn2d6lODqgnJ9SzqUy2KQqoCulUojCCqvMYg65rtCAxf9Q6dq//Ue99TnImwLXcRI3UODVRlKmdmSw2OKg+k0w20odEBYNmuNoIOSAMHHUwzZnEl/CEs/tNequKksiVOsEqUCWapH6CNWwHrISm1Q5SHAlnuxhINEjzmWkC0wLOObIsY2nQJ88zqGU0UVZGmNvbL7KTLQKkFv/8PxNADtEC5Yzq0UOKmx9Q3rpFefsu5a0PKd6/xey9G0zf/gHTt7/H7L13KG6+T3H7JsWHtyjvfUh4tEscHRDHj4mTfeL0iFhOiE0hWsJBTCSsZ9r9ebRdVEkrvkorR1sTQeTKi2ks4/GoM9FikOmpjjCXFs7SN6IOV1uwQE0U7Fzn2kbDpc6pc6qNblEdfbaASQtCx6xpzaHOnxO/BQOehmQlr1wZqAnQzLWDgUjypGpSncQkmmCxNX58eioIDGlOs0n7/T5ZmsgaOaUu5+FEelgbvigSH0Q+bWDIaQ6PaCeJjYeyIJwcw3gGhYe6BzNPHDXExyc0dz6k+uAm9e27VB/uUt66R3nzDtWdOzSPHxLHB8TRLvH4PuHkIXG8Sxg/ppmNJNqiKcFme38c70Ysx2hedmMCsRxVaDDvxI955DOp5Tlj7CBzgQWwqsGiMmk4HcK0U22bGiO3UhqN2kg41EVac0XA0ZH6dr+3C+WclEkmGXUthmjvcE60ryXodY8byKJk4boQSNOUPM9VOJ9qik9EzwUC52T9H++9TEnUGVgudir3wmjeKaelqXzO+VHi2eIwZbjeOn64jR9s4/vb+HQNQoprUhxLwArUfeIshULmCaBrlUKEpiAWJ4TJPmF2JDPNnExzNP74OKA77XgXFxxKA4Yed+pwo3b3j0vGiy0T65zrVvIbAGKUCE6b0KeBg6jaNcR5qMmkWpepo5wX80mYWgqgf0EluD7fTqEmmkSa9Kg928yhFkxaRjTKZNEn9XVwURYTU3PoRdJTQSASVz7tpZIbL9LGRe3ghfs+CYlq1ryeKNKyNSgconlMwjmRKLEJ4FJ8muOyAWRLkC/heiv43jK+t4LrrUjUJ1vGJ8v4ZIkkW8L31/HLO/iVs/ilbeit4bIBznLn1S59XnNoDl6tA1HmPqOLB6iUFHNE6qM882OR8RNI6oSrxRwi1MpgWvhgTuucwecjtfYgrZz9Rp4rDa18oCnf8krTNB3t0dE2UQsoPoHlmSmz17oEpXPzOQl6PVFBkOjq3VF8Bdc06hirdm7L+MnpqSDoaoL201ZOqyWLVLjjxZGYQVEzOzUtI8Z2CZbYzNRmL4mN5NmHupwzVZR5tA5HdBLpkQEedbLwRJ+CTyHJ8PkS9Ndw/U3ccAs/3MIPN/G9JZnf2trFcwAYa8v/88+ISldR/sQYCU1FMzmhHh0RqmkLhOjkHtMMPwqdutpAYM8LFb4pxbmkI92jSen53aLFdXxB1NIcAFHte1k6W/tEs0xNKOoCCxJhU+Y3ISWwbAsoA2lWeHXgQ2hTttt3mvPu9FlablfLdFWYzxF4kdrgqSDoktNM0iRJZDBGoyqnO/BH68wnkTEVURxJ0Qg11eiA4t4HFB+8Q/HBDYpb7zG98wHF/TvU+7s000PidJ84eUycnsgyK43kmojE8xIC1UW5bAnH6BOcl4ndMi82J6Y5PuvJDCvnPzISLT6KZXvqZ+u7CGCcg1hXlPu7TG58n8nb36O4f5tmeqLjK9KmrZYVsbnYHE+kVnobnyjfOieJZrEuZbZWjK1DG2MU7WDM7YSB5/91mN/+UHvd6TNMigcNc6I2uxVCHLe2cHK93DPX4AaKDiC9Mb32vTG/to0MbsoaSPa+nwgIvBev3PKHbKaTFMQ6r/v9xyRrfLM/nSM2BdXefabvvsX07beYvfse03ffZ3Ljfcpb79Ps3icc79GM9ognD4ijB4STh4TRLs3kgDAbSdSnHEM1kRUkQqmLe4nDKlpHG1fnzbpc1gtabHiT+qeAoFqg+1mfHDC7dYPi3R/S3LpJffs2xf0PCdMTmUhgDGlmkpkjH0MRQ8KcZ5wqKyyOb7F8bUuT4qAMZw66MqQ3wOgzhNGjsEdclMy6+PApZpwzrqHSGN3CrDICLNfNQ6TMI09x/u45UA0fooFMC4CU/UXRc4HA2VqQ3hNDaNevbO08sC5ZuPM5SCsT28iKdIhzalhUFfXRIc3BMXFcE6qcUOQwTmBcQ1G1C/LGGIjlmDB9TBjtUh8/pD55SDy5Tzy+Rzi+Szi+RzjZI4xHxGJKrKZQTaEpIFRqT1veu6wKHUOttr3+KaPL/6ol7LiDWJdUjx7Q3L1Nr3asLp+lP4vEu/eo9u4TiqkwZ8uIKiWlIZ5JTwKBFCTKZ2ubi2QWv8NuUCaMYiDGGOcDWE77Qv8cqo05zdSoRI6qyeQZ1vfK6NaPTp9jqd8KmPYe5+Y+QVRfoQl6LGmFoTj7YZ7I+ZPQBE7nFCTei19QV8IYHfUn9DE9uEARaYhWska1VVUORdAJ6CXgcdky9DZw/U18bwOfLePzIcnSFsnSGfxwC9dfg3xJ7H5T9URcqHHVDIoRYXJCmE2I5QRXHOGm+zJWMH5MGD2iGR1SHz6m2n1AsfeA8vEu1eEjypMDmtlI/BNjPMvbaTsmUk9HNPuPSGYFK5uXWL/0OqsrO+RFoH74kPr4UIElom4OJKTjjR/bdpqT8bx9F35SBztKTk4r9UEc/A5zS3mZh2sNMNbi0cKpCha9T542r6+Uw3wN9UFM2juV7qYh5iWXvrAoUOIh1RyhINEtQtCJ/Do+YSkWMcjKG1n2QgHA84DAzJJU15+Xxa0EBMawQsIAT6S2R62x5bvF0cWRVamhoKNtQ11My2fEtI9LMlzaw2d9fDrA50P8YA2/tIVfOoNfOUeycp5k+Szp8jbpyln8ynn88jmSpTMkg3VcPmj3SEi8w9PgqinMjgiTA5rjA6oH95ndfJ/JjbeZ3Pgh0xs/ZPb+Dynu36aeHEPUmVFOTCrTXsSGenxImIzo5UssbZ6nv77DcOs8w+UNODqmPtiXUWs1w6zu4iiLBpTnmlSet2sXBO0xM010fdbYdMwtJ1Z/bE0cfZc9J2oaNsq8pkk0p1+cZjN3kOdp+NK5+fpJc2a3MuuztY1Ew58GmYVCFY1zUyiZZ5C60EgYvAMC7z+6weMnoY8FgVO1ZwvYOud0mUNdW7SD8Dna5xS1M6KzCI4eU8anAyRRvxJSdOggizGCLlUo/SbMIg6XJzpdwSzJiUkf0gFkQ5LeMn6wCv01GGzAcEujQKskw2X88jpuuI0bbOIH67jeKi4b4tMc33gYNW2adXV/l/KDWxS3PqA+2m81oVkyFumJsSGMT6BsyPtr5MNVfJaTLq3SX94gDY7m+JgwHYELag10tYnWTSW2aMq5gInMm9lavAuCqGnHoPc6WqCaSaK8L+2qE+iNee3PyoQ7PegnwJ+XV6wBBYqW194r91pAYe4DteMJNi/Bno1eoxmkAjLZOsu7qJuDiCZ4kdrgY0FgmsB7GTn2zmsiVSdzED4KgCj/SGFVWtplagu3AImRUJfU4yOq/QdUj+9THexSHj6iPj6gmYyIVaESRNbJbMNpKnXaP30eMRKdhkSdF0jpsn/4BNIcsgEhHxJ6a8TBJgy38Uub+OEayWCLtL9Dmm3jk008K7hpQzw6pplONGIhDItFExGnL5QFLkayfECS9kS6JxlJb4ncD3DTKdXomGY6piknNOWUpinnvocTURAjc1Mpajt2mnjOPyZ55yt1C1OrX6WMZ+nvDgXbKaltf9Kuc/NOyiAkF0WneVXdyFJbIrlHtOM8uU4uUU1jmkr3WJNHzzWXXCzmseQrybpLme5L8ZmDAGUsc0q8k1AcoW7Tk0+TdJ44NZ3wIqfaSBuUVvrV0xOKBx8ye+eHlO+8RfneDYr3blDc/oDwaJcwPiLODmF6RCxOiOWIWE7nodogi8kao7goO7A4J1P72g5z6HcJf4YQBVu6HiY+E3Wc9XXgbRnfW8Plq5D2JLFOGaaV3B1Dw3jJeS+rW7tEOtR5kqRHng9Iyobm4JDq0S7l7j3KvXvUjx9SnxzQFBNiU2rESrWMSvNO47Vk18VoS0dGTaST40SZ2BJr25xwXlYxQ5XxnHZOVCa2zlKzBwUS+g4pjkr0dgzC/vTfKMCzPCVQU0jTsdtxgi4QED9JXi2/Y5C93LIsE03wkzCHDAR5npN6dVaCLia1eIM6XGIjS4WcE2kZgu7RFWU1a+cczou92ExOqB/t4vb2GRwX9E8qsoMx6dGUrHbkIZIUI5LxI/xoFz96CNNDzQjVdIfxI8J0nzg7JMyOCbUwFKHCxVokZVeLtKaBHZM/6WAZRwiaXk2SEdIUclkk1jmRsoq0uY3sHD7P8Xm/na4oTOpxaU4+XKWXDsinNf7REe7BI/jwHvWtDyhvvkdx7y718QGhKlR4qEYQrjrV0pHuu42JFQQwDzbYUip6XIAgjNzykjGgvUzbp6WoDKzL2hvwBaV6q/yj10s6hry3o8FCIyAwP8Ryh6SRlLmlLlF9gthUxNjIDMc01Sb/KOf9uPSxIDBV3GoCLxMjwFTcwvXWaZgGiEQCTVUweXzIyf1dZkfHNE3dNqADQjnDlSXDfJnVrctsbF9lY+Mym1vX2b74JbYuvsLq1jmWV1YZ9nKGecZgsExvuEriwJdHuPEunNwjntwljh4SxvvE0R5xdF/GDyaPiJN9QjEi1FNiPSNWJa6p5mZEkEV4XTSJbxN2pMOiAqFV5caAtlOmT0mX1/BLS9QuUjcyou1ixKU52co2yxsXWRueYTVZZcWtsBIGDKeQPzomvP8+xa33qI4eaefLvU8CgcOEjcOlqQgWjamjPpeUTRkqCmhQp1uA0HFUTRCYg2p/Boog6Rfzx4jmiFEEWasdkE/x8WK72QfutOONt9XtFJhWVwN2lPwwV+nq37qvtNP6vCht8LEgEE0wf6G93EWJYHREiVyvzG/3NFVJMRpxcn+XR+98wMPvvcve2zcZ7z6mHE9VM8wHeJK0h++v4Aar+OEGg43zrF1+jbVrb7B+7Q3Wrn6Z9UuvsnrxNbauvsGZaz/HxvnrrGydY3l1naXhMoP+gMFghf5gVTbaqKf42T5M9mC6D8VYliiZneDGj2C0SxztwfgRcXJA0MG1WJwQZyc60DbVfbtk7VDZjdL2PyjlXC2LEPi8T9PPKWNBWUxkoV3nwGdkS1KnpbXzLK2eZXn9AitbV1jbvMLSYAN3eEB19xbN0b5MZ1SQPckccgizOduXzesSh1EcXcFmh6GMmTuaS6S39mHUKE0XAC0QVBs4mV8cO76XDDoK8+KkjGZORWyEXa9HnWavm653QCamk/KcvU5HwV3QEeOFfZdfBBA+FgRoYUznxXbHep17q5W2DhIpYU5NQ1PMmD4+5OjOLgd37rN/5y6P37vN/o0PObm/x+TxIeXxiSwgW9SMJhMe7R9w/8Eu9x/ssX88ZkYKwzV6G2cZbF1geO4yy+evs3r5NTavfVn/3mDr+ptsXn2TjStfYePaz7P10i+yeeVLrJ25yMraJsPBEv3hMsO1DYar2+RpRlZPSIsj0skByeQxrjjBhRLKY+L4IZw80JHoXeL4gHB8SP14l+rhXcqHd8Wm371Ltfsh5e49qt371EdHhNmMqppRFiMxbYiyA2eWkfYGpL0l0t4y6XCFbHWdfHWNNO+3oCIKc0tMH3WMT5OJHed0Xm7UaE8jpp9IaRmosgkx0pl6T6vF7O8pplDL3HbO3q/M2zTKwLH1KaL+I+CYM7Y476YFOj5BVH/Gif8U7X26f0SiKf2yO41THrTAyyej5wLBXBqJgym7wdhI42lNAIrstnCyQ6PvZQw311je3iTLM2aHJxzf3eXo9kOO7uxx9OCEvf0pt/YOeO/mTd57921uvPMWN27c4Pbdu+wfHjOdVVQh0riUmOa4fIgfrpAurZOtbJIsb8FwnTDYIK7sMDj3EutXv8T61S+zef0rnHn559h+5RfYfv1vsf2lr7P58i+ycfV1Ni6+xMb5q6yeucDa2cusnX2JpeV1ej6QhSlpeYQvDkmKGcnJmHD7FuVb36f8/l9QfP8v5p8/+Guqd94i3LxJenhCHhJSl84ZS5c6tMkpYnrVhGrK9PgRJ3u3qKlJNrZIVzckbUObUDTBaTJ2i8pszjkBgKVTaxe02tmidW15FqQ9mrrQAqEr5Cy0qe8TKImjbFtg2QnTGq1G0oQ7nIzA68bm8wQ9uT7a/R41k2S02Nc1mXfik6apFveTM7/Rc4LAVpyQ1QlOhUjjaRBIxMHCcJ4k79NfX2Xtyll2vnSd8195lZ0vXWf14hmy5SEuTdRETKmDZ1LMKMopdQhUoWE0GfF4b4/dhw/Z233I40eP2H/0mMODfQ4ODtjfP+TR4wMePNzj7t173L59h9u373D3/gMeH48oSfFLokWG2xdZPnuNlQsvs3LpVVYuvsryhVcYnH+J/tnrLF94hfVrX2Hr1a+ydfUNNi+8xMb562ycu8r6mStsXHiFjTMvs5JvMmz6DOuMQZUyrFIGVcagTOnXOctxibXhDmsbl+mvbOOSnFjXVLMRxegxs+NdpkcPmB3cZ7J3h+O773Jw921OxruwtUnv4jXS1U2JLKkWlk7vDpt1NYEKHT3pjAHVtIhItCxGdWYjKkUhOhudVcY1e93F+TFEghsITIsYQNqSGcDslGkHL3M3onO6DH2j1UpaZke1mJhtLcRwMeCDbEyeZwICq/tnqgksxCXlFWcHlT5zSSGfovadfiYkaUa+tMzS1garF86wduU8Gy9dZPPlS2xcu8DaxTMsn99k5fwGa1tLrA/g7NY6l65c4/LVlzh79gLLgyUIkdl0yujkhJPjQ44ODth//Jjdh7vcv3+fD+98yO1bN7lz5wPufniTD+/c5M7tWzy4/5D9w2PGk4KyDFRNpA6OOnjqCLOq5nhacjCeMg4pDDcYnLnIyoVrrFx8hfUrX2L96ptsXP85Nl/5Kpuv/BKbV3+BjUtfYf3Sm2xcepP1y2+ycfEN1i98mfVzr7F+/jXWzr/K8MwVstVNXJJQVWMm412Oj+9ytH+Lo72bHO19wOHuBxwc3mUaJ3DmDPlLr5KfvYTvDcS0aH0yEbHdLhfHXZlVW/8j5o2ZPObHyZ2t9FVEyLU27TEGHf+Qvxg753SKpsw6E4Y3R7Z9r8lGtfNRIDjEN0HD1yS6xwFzIIgjLeUWX0YAZkmc7RxjFOCtEP7x6blAIG1oDq+ZRsb3VohWLklasf3nExIvu9ineZ+sPyBfWqa3ssJgfZXB+hqDzTVWzm2xsrXCSt9xZn2Fyxcvcv36S1y//gqXrlxl5+w51tY3WFpeYjgYkOe6narzbaq0TxPyLCfLc6KDk9EJDx884N6H97l37z4PHz5k9/5DHjx4wIN797h75za3br7P+zfe4ca7P+Tmzfe5v7vLybSgdim+t0y6tEG2skVvY4fB5jkGW+cZbl9kuH2RwdZFBpvnGWxdYLB9kcH2Rfob58nXzpAubZD0l/FJTqgLJpN9TsrHTLKKWRaYpg3jNDBbSglnNkivv8zgtTfpnb9KMlzBkSjjmu0eTd62TS4CU9hGDs/HKaQzlDlbJrPQsPRTGx0yILXXqi2vDCYRpKiJhebsGjCFDWxXGgNBCzo1/9Dn2QQbAdl8Ma/2HgxMUlvhu4B3sme1ZS2A8ORnpgmscKIN5r5BBwmdT3QoXT5bX0ujb+as4SzHPyFJe2RLS2RLQ3wSSakZ5BkrK6tsbG6xuXWGre0zbG5tsbW1xcbmFhub22xub7O9s8PZc+e5dOkyV69c5/r1V7h2/RUuXbnO9s5Z+v0BTdMwmUw4Pjrm8OCA/b1H7O495MGD+zy8f59HDx+wv7fHg3t3uHXrJrdu3eL+vYc8erTP0eERo5MR49GY8XjMeDJlPJkwmk44OhlxcHTE8fEJRVkJH+n6/uZ0xqakHO0zmT5m5hvixjqcP09y+TLptatk11+md/1V+ldeId+5QNJfVjPIzA4NPXbat/2qHC9ROmOarpk6n6IofsjcGXZR9ptrnWVzvBUMrdPcVTTYcdm7wN5r7xSGVC2DBUfU/4mGr04Y1MaKupWKqr1MazTiGHvvdDf7OQheBAB4bhBYw2my0xy9Ty5EW61WilllVY3pBBSHa9fn92mOHy7h+z3qYkxTjHEO2W0+keHyPO/R6w3oD5YYDpdYXllldW2dzY0tts/scO7cBS5cvMTlK1e4fu0q169f49KVy5y/cI7N7S2WV9dYWl5haWnI0nDI0tIyK6trrK1vsb6xRX+wRF3XHOwf8uD+fe7f/ZC7d+5w785t/fyQu7dvc+fmTW69/x7vv/cO777zFu/deJu7H97h8PFjppMRZTGlKiU6VIyOGe0/ZHJywrSMTGaROunh17fId86T75wjW9+WXKak13aJcxrZaZnK2nbxuzCbMJg6yDaVUvvCmXlqDKj/OZB/nTPbam7qdJxWYTa1BJJE9ynTTfNCI3ObHfNIj2IBfZ9gQpxjp9oAL9vYzleiNuDKtdEh89gbWaQrS1LZm03neMhlT+a/H5V+NBBo4Vr0thGLthrtv3Jf2xYdskbqmFYBfJKQDIck65uU9YxyfEhoSr1G78MBHoft+ZuSJpn4HVlOv9djeZCzuZSws5pxdn2VM9tnOHNmh50zO2yf2eHMzg5nz53j/PmLXLp8hSvXXubaK69y/dXXuPbSK1y6dJmN9U3yvEeMkaosmEzGnByfcHhwwMHjR+w/2mN3b5eHew/ZU41y984t7ty5zf27d9l7+IBHew/ZffCQe/fucvf+fXb3Dtm/f8DuO3c4uL1LMZqKNkwynMsgJmqpCPPNTaAnkElnpwwTzQ63CI6ODCtzt9LXtESXUd0CCKJ8KtsLuBQEAiBJCZEu1DQKnXPeMqVURIwzC6AoqKItxJvKFq1R69P6HFoeF2VlO6oSHyrSxJOl6al9yl6EP8DzguC0LzB3RlS2tH/SSE9A5xMOgY36qWOFJxksk+5coHaB2fiAUBb4tp/MPpTOsU+jSMS7QFYf0R/fYWl0k9VwwnKekGU9sqxPvz9guLTC0soaq+sbbGxtc2Znh3PnL3D+0hUuX7nGlasvcfXaS1y6fJVzFy6wc/Ys22e2Wd/aYmV9ndW1dVbX1lhb22BjfZONjS1WVtfw3jOdTDjYf8ze7i4P793n9s33ef/W+9x9dMDe/ohH9x7x6OaHPHrvNge3HzB5fCT7JZu5gI28zqXiYjcb8zvlNTGb5JzTqIows/kBqlHaOL6YV2amdt8lHD9nXNeiTXyTNjpkj7c+1OQ8AdhCGFbNLbEc5tc573WzP3OWFZwRKbNDwq5VgasLHVvTFU/a8r4Yei4QOCcjdT7xeJVUKrNaFWt2nhhLz0cCKusch8+HZGfOEYd9ZpMjZkd71JMT2Te41gW/2uiFfqokEqejgdljmodvEe58l97JHXIkGS1GW0nZ4UjwamJlWY8879PvDRkMVlhaXmNtfUN8jq0zbO3ssH32HOfOn+f8xYtcuHyZS1evce3aS7z80qu88srrvPzy61y+cp2z586zvrHBcDjENQXl8QPq8pB8fUh/a4v+2jqD5WVcA7PHx4weHEgKSTmVUfMoJqYIHWGGxfa0X8or2hdCjq5kR00bFVyaP6QPlgdYOLQDwlYSax+DCkB1bLVYbd+15xy66Z8wMLEzCb8VoPP5B7bCn1wftUxmjsnvGBqoCtks3XvSJGmnWJpgfhH0fCBQJvdaSWlsORdVesncAHXCfgSyRoSIT1Oy5VX85hZVLJjufUB4fAs/3sWNd4mTR4TpY5k7PN2nGR/QTPaJ033c9IBYTQlNLZtWT0dUxZgmyDLyDg23af/HII6hCCoN0+FweHCyDmma5WTZgF5/yGAwZHlplZWVdVbXNljf3GRz64yYWGfFvDp/4QLnL57n7PYGa73Aal6wc2GFC29e59LPv8bln/syF9/4MmdeusrSxho4RzUraapSAO5E+kYzcTqRn7a9nvC9BUaH8duTTk0d+1RtHY3F3WkgiT9gq0KrCRNRDaADpF7aS8ppZfa6hpNqAcyhF03vEvEhYt1IWkeS6HNMnMo7pGDaF1EyTh2BLM3EHOosw/iiNMJzgSCqjdr+1maXf7WhTCIsdNrHUev8RQfOk2Q9sp0LxJUB9eg++f4P2SpuslneYXlyk97x++RHH7R/veP3WRp/wHJxj34Y43pr+K1X8OfepBycpWhSQlD1ijTwXAOpdHJiXrW80xFM0p9q7qmT6ZzH+6RdqDhNM/J+n/5gwLCXkhZH+OqI/tqAtetX2bh+jY0rl9i8fomt166y9fo1Nl6+xPL5LfKlIT5NhHdMmLSS0Qozp5a3u9/1h5ghZlLoVfrTqQmpL5L+0ihW+wCBhd3WAkSwIw6wvb01hVoNoWkQUpBOA9I60w7NQI4Bl3RAgwLAIlWmwVRKeefo9TLdtFzTQz5zEHQqa1KVTrNJtEfA0aL6Ockkn3SSx5GRb50hPXuO0PckxUMuJI95c6Pi57dq3lwveWN1ypfXpnxpbcobazO+slHypc3AxWVHb7AOm68Szv0ixdIVSvqyElFrqypjIwCwWpj6F4dUGEp5wARby44GDBejaHuT2k1JcbDLyf0bFM2E5Px5ehevkq2sk+oO9L21ZQabawy31xlurdNfWSHJBzLvIYqEbnn4IxA4fdy+m6nSFlR50BiyNR/0D6dmDYq3jrNpyBdnWtsLidRE3atBTJ95qnSbouHm2oaoc4ajRYJS4e9GFyLz3amVdr8VQQSOlLkmdY5er0euUyt/YuZQCIGmqQlR56pa4yAgEfAKM/9IZADQbok4kt6QbOci8dxlJr0+UHNxo89XXz7H1798ia9/+QLfeP0C33j9HF//0gV+5fWLfPX6WV4/s8zaoE+TLjNN1ymSJRrM+RLGbQXVU0hO2QVzgFiD2+h5NK3nkH0Rqhnl4S5H995jNH4E66sCgLUtcJIDZP6UczKI6H1KkuQk3gb9NCpi2lHe3pbNSmSfDukAs9Fb09QujlHL74XPzHlFmTTIGkgi8u1hBgLpl9aSsrkBWnYJZohfIcctrKpggHlqunOyJwLmm0iotQWNc8ZJUjeRQjKy3JSkMZLn+alJ9i8KADwvCCLQNA1VVdKYytJCO9UMcxPpxymcdLrTDnQkJMvruPPXOFy/yAfjhgdHJzgXObO1xvmz25w/u82Fc/J5dnuDnfUlLq6lbA0cWeKoo6MxYEYtlxmpH0t23Vy6RixCZowEzkW8awj1hNn+fY4fvsfo5CFha5PelWtk69t4n6mQsCiNk3VQgzC7WNQy6o22hLKL/jpd5u6v9rsTRjdt5jCUqN1u6cft+EFss0oFJyqJ7alqkbQOcETTs5n7DMqoMeqiu8b87V/H8bb7MCAh4wzeVrzWl0VABWrUa31T410kTXTxN9MyL5CeDwQxKghq2eDb6XiBGI3yvyF08ebnIYfCR+EUwSc9ko0dynPXuelX+Yt7+/zggzvsHx7SxIDLMpK8h9eNNBIfWc1rdgaBtRxSc+iwzpxrm48nu1c7FLOLza6W6I0jEMoxs/17HN1/h+OjezSrQ3ovvUp+TvJ/JE1AmL1laAOji2KmGciQSIlIcynrolDp/pIiKjgTGTtxzpwfYUqJiHkFxfx+p/0qM+0M2Gr+qH/iEMERVWvIjEB1mr2ATSJDGs1q28rMhNOx/xZ8sZM35KyDTOWoSYrTcQ3JM5JMhQ7IXiA9FwhM/YegrdsOd2vLylU/JgKUnDKKmUcuIcmG+K0LTM9e44PQ5zsfPOAvf/Au9x7sMpvNxBQ1weCglzacHdacHUQGtuy9SlSxM1lgoydRVCaXT2F8CQEad0m6QEMzHTF59CGHt3/IyWiXZm2Z/KVX6F24TDJYAcv/6Uh2eX3nU//mQsT+kzZZLK3xN1YTNWVES5nBrgwY9RnO6i9S1z5bR9Teh4U6533eDsQ1Add0Qpsaym0lt5NMUVEkC89vM1Vt7wNkXwKNDklk0XhLUjLkubr4s0NWRbc6vmB6LhCgSJwvhqrOCdrYsNA9Px6JRJxLzUiC7y2RbF9gunOVW+ka37m3z1+88wHv3brDwf4+VSlzcQESB9v9wKXlwLlhZDl1JE6eO5d2HcZWyW7f5ZxrP2O00qgz6QKEkjAbURzc5/jeDQ7uv8eoOiGe2aJ//RV6F66SDJaJJK2VYUbeU8lOdS95yuXdVpZqd+qg5bT2sO8xiqSWGgqTmnkn+7YlYtOr+Rht3oi+x2HzH2R2l5g2ogUIsicxXUdXBQiN7GiEd7LhiZlgzkOSqTbQqqq/EqMKGXRXzbrEE0nzjCQV32nOcy+GPhYE80Z0styK7u3lXKIN/5Te+rFImn4uDaOMJPeW8GcuU1x6lbvDs3z30YRvvXObv377Bnfu3eXo6IiykB3Wh1ngwnLDqxuRyyuRldyReZXsTuqDUyZzwij2vY3NKxBwyAK6yHKMTTmhPNll9OB9Du/8kMPH7zOhwF28SP/lL9M7f4VksAxIpKdbG63eJybHHAnyOP2hWrGNALXHLANUpa0T9Jh5h/eSC6Rax4SyMKOFluWZdv2pqE5tE2rQGWFoVEkW9XLRtIfY8ybZybL5eANSRhfmGy1GA1Ets8p6vR5ZnrcDnkYt4D8BfSwITM0K6DU6kKSydDniKOqVC3LqxyQnzxFwScdEl+L7KyTbF6kvv8ruxmW+N0v5ow8e8od/9Q7f/cG7fHD7Qx493mc2HbGczHhpveLntgOvrkfODKCfQ5LI+kmineX7/A+8jyQ+yjUuyqyvcko9OaTYv8/J/Rsc3P4+j+/+kOPJLtXqgPT6dQavvE5+5gK+v4wjBTW9xDJRUfcCAMCTHhPn5otIaZXhJvZN0qLf1VyKUaSvU2ZHmT0qiNp+VbA4ZWhcd7VqYVQXZJJMO/9X3y+JfDpO4LxmreqyL7oVVlu01lFXHwckOhRlDdJ+r0/eiQ51hfMnpY8Fgb0shEDd1IQo4S1nS+W1alNb/EWQUyZ0zjABeHw2JNk4S7zwEqNzL3NreJY/P4E/vvWIf//Dm/zHH77HD967xf37dymPH7IaHnE53edS75jtdMRyPCENE5k0X3b/xrICRXFMPT2imhxQjvaZHjxk9OgORw/eY//eWxw+uMHJ5BHlUoq7dIn85dfoX32FfGOHJOtD1FAkYiM7VLS+QIosNrPa7Gp0RcScmZ/WHB06NytIXQh4NZVMujo5PX+Ji7JahCa+tVEdx1xloCtxqF8n71JnWkFAkkgKRSPbScl6UIpQM+eCCD+nfCWbc9Sk3tHTqZXd3CERzp+8fT8WBLRACISoM/4TWbYcdGM7uWqxdz4hSeucMo6iA5eRDNdIdy7jr36J8cXXubNynr8qevyHByP+/QcP+ZN3bvHtt2/w1o232Lv7NmH/XYbH79MffQBHt6ge32H26EOmjz5kuneb8cObHD/4gKP7Nzi89w6H997i4P7bHO7e4GD/Foejh4zjhGptCX/5Mr3X32Tw6pfpnb1Mqg5wDFZKA4B1zotsE32aPlp4dR6mNIEl4Uvj9/mG3BLONnNpbh5ZuNNhg4WWEjFnUqsXWTofD7D3KaPHxKaDqmmjg2UxSUXym//gIGpUr3Xs7T+vPklE1ieqS1mCMZ/PJej+fTYgMPUjP3A+xWeZpgBLZ1s12t55YSTPl/+EwSQsm+KzAenaNumF68QrrzO5+Bq7m1e4kW/xl2WPbx/U/MeHx3zn3i5v37vL/Yc3Odx7n+O99zh8eIODBzc4fPAuBw9vsP/gPfb33md//zaHh/c4nuwxbo6YZBXVao94dpPk2lXyV1+n//KX6F+8Sra2SZL11QFW5lfOEwB07ZAXR90Wlu/CzEFHdInaH076zjmIXsSJmTvopwBGgYKZU5qbY89RJm1Nj1QmDREFBGImRUmL0PwgFBiyVKUwvPO66bdqgjaD1GoR1a6zEWF0/+KmJHGQ571T65B6jSy9CPr4JynSzCRySUqS93Bp1na6NKugWqr/gkh7U2WUvKu1AR0OmQKZrW2Tnb2Mv/gy1cXXODn/Ko/OvMSH65d5f3CWG8kqH7ge90jZJ3KSNoyziklWM8kCsyVPtdKjXl+iObNOPL+Dv3yZ7NpL9F96lf711xhcuU5v54JMgM+HRLX9oStJre6fDgCYN8n8u77SRRUVTswjOa79ExWaek10ulaQLZGo83+tHqgmsFSTGDsz0LxvzWADAUHGD+a+gtr4dS1mlPfqE6jdj5pIbYRxXn7tZjkYalxTkyWefq8/XxDaAPxZ+QT20qZpqOuG6BN81selqbSDXae1kYGhFwgETve8w3KNpHOIjuhSXN4nHa6RrG7jN87BmYtw9hrhwstUF1+luPgaxaXXCFdfI3npVdKXXyF9+VXSV14lf+U1+i+/Sv+l1+hff5XelZfpnb9KvnOBfPMs2coWvr+KS/st81uezxygKAOdKvmnQx2sifAxk3VuntiFokON0eb3x2jbIEkGqAgXBbVe1+1bmRrb2YMAGRGWNY70eNLZfywEqHSXU69RRZtLkHjIZOkUovSpCxHXaOq1Oucx1hBrEu/J8qzNIDWB/JmBwBqiqRuquia6BJf1ZPkVRbAAWFhCGt20g/6jAP9E1NbVIW03jyI4TUeQlOgE5zN82icdrJCtbpJvnCXdvkh69gr5+av0LlxjcOEa/YvX6F+4Sv/cFXpnL9LbPk9vfYd8ZYOkv0SS9nUnywTiPOwpnwYB+fyJUKRN44hBF9x1Ng1WLujIj/YeopgmLsi0SJd4YUSz/fUW6TpDhA5yJZ1lUnRXSeCjK0w3uuYoag45N48iJQmkmYRO9XIbh5DXKR8FiUgl3pNlqWwSo+bQi6SPBYEUMtKEhqYRc8hlvXavALShZKhfjkRzwOZQmEtLueHHI627U/YzdS3vUkCAZN9EJ7tVugx8hk97uLSHS/uiyfIBLusLo6c9XNLHJT1ZldolSLqbvUnK376z1UatnP1scdB5l0Oc4lDbFEdZvAAb/IqxNdvm94h5E0OQ+nXn+eoFUaUxUYIiLjaiLfJcGB7EydVnWMxfJJ6ODNe1KMc0FUe7sb2vNY3aNKe+I9KZhokc9w7yLCXPcryXsSkQC0Uu+XGZaU4fCwIMBE1DHQIhzXB5LtLDSWGkQHOWiYitKUqi+1uAEq2hFCRWYXnZwsufQBHrKIOW5NwISygo9UJZ90bVuU7qx75b1kAAF3Sea9Tveql2q7Gbfpo20hDuT4osshN1f+nWLJEwpomiTovoPdKnktek0SyLCOn3rrR1OoPPOTFjbKRXRosbcJLmEs1ZNXMo6EhymslxjRYJu5gZh7akAFhCsNKuThfgzfOcXi8nSbyEUTub+H0mILCXxNbmlI3pwmxMU4xo6hkhVMRYEamJThZnmje7/tsZfLEPeXR3Ms5ChZ5SP+seAZ0JFDlqHShSW2Fpv5/xnzzho/e03/Ud9k55V1uknwypnR/D3EaOPiE63a9NE/SitotxlkPus5lizoSHQzNOLf3B3qO945VJFXhm8kQsgW/BX0CiRjHT0KZuwIeTzFasLZ32teusT6qHvZPlF/M8b5l+EaSflD4WBGgD9no91tfXWO95eoe7NDffpnj/LYoP36PYvUV1cJ/6+BH15Ej2DAilbuimYtYF2bNWmlsZ/DRYRHMI2E5JryehQXrvNC3+7h4z7v24v+49T/v+pPf8hEjaSNIRIrLZSLsHM8rAURlYAd72AepYWkgSWUnCInB2v2nImHhJfFNTK9Yy28x5WbJ+/g5NjwgR1+YmMXeiNfWmBUxUrRLRzFKd1N80eCBNU9I2PDoXyKDg/oT0XCBI05SdnR1++au/yNe//DKv9Wp2Ht5g6cZ3Sd76Fs33/pTy+99i+sM/Z/r+9yjuvke5d5fq4CH1aJ96dizLnTcFkUb6wcswuzDfRyvSWkemJdSUak9gQHoKffSRPzq9iGd8GmT1dgqC2HT2RtZNRXQiTQsCx+nITrQZYR3tgPSFc2KqOGv3KKaWc56oDi0WHm1kqmTMbJl1oIm4RsOjSSLAAVytCyJ0NYr1qa5kYeWhaXS5lUb3xpAdagCaEGgaWbb+RdAzQWCIS9OUSxcv8lt/+zf43X/wd/hHX3uD37y2za9upXw1n/LabJfze++xdvv79N/7Lsnb3yb+8FuUb/0Z07e/y/TG95neepfpgzsUB3tU40OaakwIM4ilmFEmnaw3uvWLKqc6wNBv80sUFKZbTLLNtcnfUIqqBRoJR0Zcx5zoCgozh7TZojGdgsNCF8ZYnQ/XSA5PdGr2OF13SJeAj2mqIXN9bwi4WlcG8eKouxihroTZvY4uGwVdKYROgl4MuLrCx4Ys1TWHbIygMzr+IuiZIDDy3rOyssLLL7/C137xF/m1X/klfusbv8Rv/+ov8Y++/ov89le/xN95/Qq/fm2bb2z3+eqw5kvNPleO77D98G0GH/wV/u3vUH//Tym+/x8Z//DPGL/zl0xuvUPx8A7VwR71+JCmHBHqGTGWQKP+BafAYYEOhcy8MRQAT6VnnPqpo46AcDhJaQkLTNSpcLT2awM4Bg61wS2H33WOgWpg5ttzOd0HwUySRiMLaUZMLSsUifTYvmRJKn5BkNRonI46W0i1BaRqiESnacqDZJJ9lpFlummkjhbbiPGLAMIzQWDqJqo33uv3WVtf4+zZs1y5fJlXX3mFn3vzDb7+y1/lN3/t6/z23/4Gv/PrX+ef/OpX+Z2vvcHf+/IVfv3SBl9b83yJE66cfMjWvR/Qf+fb8Nd/TPPX/4Hi+99m+tafM7nxV0xuvc3swU2K/QeUo32aYkyoCxk0oQEnkQgDhBTyVJE76Jg3UFcvfOTan3ZSppapk2LTGzO20j5qX3bNh6hedRc0phk617mos89sLkHSWVbF0jRSM3nErCJqdmnL8Kk8PwTdOTRtTZu2vwLC/PZ85b/UMkgtjVqF8ouk53qaMZP3nsQnZFlGr9djMBiwtrbKzs4Zrl6+xKsvXeeN11/lF974Er/8C1/hN375F/m7f+uX+Mff/Bq/+82v8k++9gZ/7/VLfOPskK/0Sq5NH7L94G36N/6M+Fd/yOw7f8D4z/4dJ9/9Y46//x1G732f6b33KQ7uU432CeVYNhJHnGzno9RAN/+jZXjbuNoYoVsZOdT9/dNGxjfyQzShi/M9JGSdUA1Rqy8lI7CdJ9iPLmjoaAPDF7rSRDu1UucexCj7vMUgzriuTRqdmkO20kQqOUVi/ovNLw70adaLCPjs+RJQgTTLGAyH5P0eXscnuqbQi/ALngsEdICwaIt5XRnMgDEcDlheXmZjY52LF87zyssv8QtfeYNv/Mov8Zu/9g3+/m98k3/8G9/gH//a1/jtX3qDv/vGVX790gZfXYFXm0PO7d9m9c4PyN7+NvVf/hHT7/4hk7/8E8Y/+Dbjd/6Kye13mD28Tbn/UHaOn43E4Y6yB7BItwVtod3ZDmxh5tMC2TH97H7/XJKIXV1xuhE5nFgcXwKfnRorw+gRi8bYnGHMZ1BzRJnL0VlWxQDjEJNH84ZsyqUwum7O17H/LZoEOsjovYRIzbx1onGikzJGJ89wMZClCf1+XwbLnKRRNzYm8oLomSAwlNln0zQ0TSOJdBpFWASFXe+9121fBRxLy8tsbGxw6dIlvvzlL/PLX/sl/vav/Sr/8O/8Jr/7D/4O/8nf/U3+yW/8Lf7h177Mb716gV/ZynktHnH28fssffCX+O//KdV3/5DJt/43Rt/5A07+8j9w8sM/Z/z+D5neuyWgmBwQijGxLiDItp8yCVxHvxATQOpjZV7k8s7xp17TOfUToEXZFzU7M+CJSaaMN6+Bcxo6bSfimybQ8KimL7QXO52T4CzaI3MJ2vnFWN6QpkykMlWybZIQiVV3r2J9Z2Oj7TaSLSaSqytodKVAA5Mm26VJQr/fI0uzJ9T8xdAzQfA0MgAYCOwYPFlVOd3XIPFeVo5eXmZzY5OzZ89y+dIlXn3lJX7h59/km7/yNf7ub3yTf/xbv8bv/uY3+ae//iv8w6+9yW+9domvn1vmzV7FlfF91u58j+T7f8L0T/8Nj//wf2L33/0rdv/9v2bvz/6Qwx/8OeNbNyj2H9DMTkRD+IjLIj6FmED0kehFygmj6EAgkgCIfnaT5Fqu7zL/TwgIcx/HDkRCaIg+JWa5OKnWHypdXbIwohsVIjZfXK8HTWe28YKoUx+9I6YyIGZAcqodXK9HzDKdPOOlHUMgeifjB86LVqhrMZOKGe74GHdwgNvbxe3uEo+OJALVzneWFIssTen3B7rw1pzvurz1SSn55//8n/8/Fg92afFlNlzd9c5ttk/3WgNI97vd370m8V6zBHOGwyGra6tsbW6yc2abC+fPcfniRV66conrl85z9ewZzq8vs9nzLIeCdLRPfHyf6uEtyvs3Ke7dptq9S/V4l+pon3pyIiPb1VQcbI1dg24X5BDNYNGIJ7TnnP3V6VNYfOSiz5DMyHGJI8aGYn+Xo7f/isnDuzSbl+DqG7C0Jglu4wk8fiyO6pkt4uq63Ht4AAcHuMEAts/IZ2xw0xnu5JiY93Ab67gsh5Nj4miMy3PY3ibmGZSlMPFoBKsrsLomezw3De7oCB49wlUlbmsbt7EhmwnuPiSOTtr8IXdygjvYJx4dwWQKS0uwtQ3LK1AWpLs3Od8c8YuvXuONN99geWmpTaIzrfEsWuTDp9HHgsAeYMwuW2iePoe+sKsBFs0k+x7lR3us+0e7ooWs9ZnnOYPhkJWVFdbX19na3uLszg4XzurfzjbntzY4szxkI3csx5JeMcYfPaLeu0Nx7yblg9vMdu9S7D6g3H9EeXxIPT6hKabEuiDGUte20XraGjpmxlr9Oux/GgZO/JBFJDzh0IsjEygOQsXs0UOO3/lrJnsPqLYuES9/GQarssvLyQnu8SNhmu0zsLYm2D86FBAsDWH7DPRyMUGmBW50TMxy/Nqa+BhHR8TRCNfLiVvbkj9UVrj9x7jjI0gziRAVhb7vMRwd4/IMzuwQV1alz8cT8RW8l6iR1SXNcMtLsLWFW98QzTKbku/d5EI84Zdev8Ybb7zBYDicg0D57Fn0QkGAPjBJJItvkeG7ny2zL4DAzocYZSnHKN9jiDSaHy5LPQaquqYsaypL2tO5p94n5L2c4dIy65sbbJ85y4XzF7hw/hwXzu1wfnuLnfVVNgc5K66iNzshOdkn7u9S792lvH+b6b3bzB7cpti9S/H4IdXxAfX4hLqciYMdapGIGp3AyVC9fUf8QsmXiQqaltuV8+3nYru/MGDIO513xFBT7j3g5O2/5OTRLvXWJbj0OgyWoapwJ8cCAu9xZ3ZgbVWsoMMD4v6+gmCbmOdi+8+muONjqetgiGsq4qNHuNGYOBzgtrbEB6grue5kJJI9BChmItGLQnhkfR23vYXrD2Tijve4fh+3sopbWYHlVVhdEY2zuYlbXSMOBuATXDEhf3SbS4z4pddf4stfep1evz+3QDom0dPohYHAqGXiIE5ml/m7L4qqMTo3npL2dce5bpqGuglUdUPdyHyFsqwpK/mrqlqOVTVl1VCUJWVZUdSNLnXjyXs9lpaWWFldZX1zkzNnzrBzdodzZ7bZ2dxge2WJtX7CsqvoTY/xR7s0ex9SPLjF7P4tygcfUjz8kNnePYqDPerjQ5rRMc1sQlNXku+CjU8sbmCugGh/WiqaUNQkNjHMOzd0yS5fPP5UEiRFJOgSmopKQTB6tEezfRkuvkrsL0Fd4o5PYP+xrA6yfYa4vAxVjXu0q5pgGba3Ie+JtpjNxMyZzURDnpzg9vfFll9dEdMmSURrVLKVEnku92c5LstgOIT1ddjaguVlHStIoNcT02ltHVZXcSvLcn5pCP0BWH5QUxMnR/Qe3eJKMuNX3niZ1157jZ4m0WF8t9g0C7TIm08jV5blvNeeQV0J3zWL7HdX8ttnQEYVo0r/ECJ1XdM0Ep5rYqQOgVo3BzdQyAjoHDhBV79rmnqe0h104n+wqJwAKQRxEuu6oSoLZpMpo8mY8eiE48MjDvb32T844PDkhHFRUtaBWYAZCVVvCfor+OEKyeo6fm2LbGWdbHWddGWVZLhE0l8m6Q11HkICLtEthFRCScVbQFh2rPxrvH76V3vI6GM0RogSrfGJo6nGHP/wL7j7r/6fPHj3baavfR33td8mrm4TZxPcnQ9x771LSDLcSy/D+gbMpnDrJuzuweVL8NrrxMFQfIjjY7h9CzeeEHo9MROrktjr486cIe6clTyhWrXGZCx1TlKZcuslyS4mMigmo78WftVWcZIb5EIjmrepcU0FZYErCyjGxP37rNz9Pt/cdPxX/+nv8A/+/t9n0OvroxQAz2Bs40vn3MfmGX0sCIyh7SH28FPSHnSJxo6Nr1ojNIGgk3LqOlDXFY1mJTYhUjY1dVXThEBd19RBptgFTaiKUcylGCNNY8wvYGmahtBo9mSQ93TJIaZoHRpCXVNXFdPJhPH4hNFozGQyYToZc3xywuHRCUfjCeNZybQKFDjqtAe9PgzXSNY28aubpGub5Otb5CsbZMsr+P6QpNfHZQN8IptISE95kHWo58JevwiPd4GgiWNK6h6dum+uTKK5VLgEQjXm6K3vcvd/+m948MENitd+lfiLf4+4sgnTCe7eXXj3HTF1zp6D4RIUUzg4IDQN/tJl4tWrYg6FgCsK3OPHxNlUzBIvi3PFXg83HBL7fV0+Rd1z7WvUlzOtKG2vc4o1o5QoOU7UJa6Y4WZj4myMKya4aoqbjvGzE5icwPEuq8Uhv/6la/xX//l/xm/91t8h15RsecGzNcELBcEidR8uJJ0oklsY0RiyaYKYPyrt66qRtYs0ASqESNk01FVF1TQ0tYAhRAHPXLPIe5uga9tHeZ6BoGtydctJ1OVHLEqlGYihqambQNCVtqfTCePRiPHJiNFozNHxCQdHh5ycjBgXBbM6MCOhTnvE3gCGq2QrG2Srm6RrG6RrmyRrW6RLq2SDJZJ+nyTvywy8JNP8fOYjQ13eR4/LFz1hh6z+YlaJHyIzuSJAEgUEP/wLPvyf/1t2b92keO1XCT//W7C8BtOp+AO3buOmU1hZIfZ6oqqiE/NkawvW1oia2uBCgLIkNrUMTjnL57E/p6toCyPKOqJadHTKZl3hqhKqGVQFVDN8UUA5IRZj3PQENznBjQ9hNiKtZqTU5KEhDSVpU+GrGVvLfb75K1/jP/tn/yl/61f+FmmatELgWUzNpwkCY7IuCOTQ3N4PjSRz1SGKSVIL49eNagJlXJHocx+hDoGmlusEQPNRQdcmiYk/0r5Lpwg6J0whwNJr9Pf8GdJwNibgvUyfDEQpj45+VlXFdDrj8OiQk4NDRuMTTk5GHB+fMJpMmRYzJmVFERylzwj5ELe0ilvdxC+vk61tkK9uiLZY2yJZWScbDPBZD5em+DSThXq9jtLquMSckYTkqLSxmVXOSYOL7HW4BOpyxNFb3+XO//Iv2PvwLsWr34Sv/DpxuIwrCgHC4aEwdprK8odZCmkuoc48x6XJ/F3alvIuBZsGwOS7mKCEILvX1CWuLuX5ZYErJzA9htERTA5xszFJNSUpprhyiqtnpNVUGL+ZkbvIsJezurzE+soyS4MB/V5OL0vZ3tri537uK3zzm9/k2rVrrdkdQviIJbJInxoIUBPHfAKR6MgQehR73yR0FQJl1VCXNXVTtc6v2P3yKWaO+AchRhq9JkR5RsvATmdPRQlfCggEFF4viCHIjMnuNEMFWuyMV5gWsgYyoDiQ9e+dIzSBoiypy4KqqiiKGZPRiOl4rNu5HnFwdMzh8Qmj6YxZVVM0jtJ5qrSH76+Qrm+SbZwh3dghW9skXV0nW10jW16VSfz5AJfl+DTTCSa2CK52VmeQ2gbwUHDYOZdCU445/MF3uP2vf5+9+3uUr30T3vgGsTfQJU8kt9+0Ypv/43Vk1gnYnGldcyaRkV9JnqtlBlkt6wC5uhRzqRjB5AQ3PYbpCDeb4IsRyUykvJuekMWaYeroJ5488fR7Gcv9nKVBn6XhgJWlIRvrG2xvy0btKysrDAYDBv0+K6ur7OzscO7cOZaWlloBh4L1WfSpgcCY8rQmCNS1Sn8FQdU0VGb+1AKAqq71fE1Vi+Rtook/YUZxatUcUmY1m9OY1crRdNI3DASN3tOtbqPmmVNzqAsKHDS1AhFIko8CAwV+3dTEuiE0NWVZMBqNODkZMRmdiON9MmY0HjOaTJgW4lNU3lP5nCodEJdWSVfXydc2SJfWyZbXSNbWyVfWSZfXxOnuLeHSDJ96MTmcaopo2pBT6HCpoylHHHz/z/jwX//37D06oHz914iv/TIx68viVU6A5ZBJ7FKrOahw4PCSd9U0YsPXNdQFrpxBOcXNRsTJCW42ws3G+GICsxFueoSbjnDlhLypRKrnjpUsYZA48gSWl5bYXF9jTZl7ZWWZtdVV1tbWWVldYWV5hZWVZVaWV1haXqLX65GmKVmWkWVZu0ON9YMJs4+jTw0EpgVMLaEvq+uGJhijiwlUNUEluzB9XddUVUVZ1zS1SHsxTeS58l0kUug62EHmwYq2mQMxaITI8twb+x01/0TvD1LIj4DAEg9Co4uKOQG3vSNGmVgu7DLXWInmwYemkXrUNVUjdZtNpkzHI0bjCUejEUdHhxzsH3A4mjAua6roCD4hJDnkQ/zqBtnmGfLtc+RbZ8k3dkiXV8mWlvCDAT4f4NNcl8LXmVvKxJGI8wgIvvdn3P03/5K9gxHl679KfPmrxCSXFSK8LhETdbU50yYhEBHH1YWaWJUwG8vfdIybHOFGB7jxgUj18ZFI+bqiR0PmAzmBXgL9Xs7qcMj62irbW5uc2dpkc32d5aVl1tbX2NrcYHllmV7ea7OPB4OBTqAXpk9sJ5oFJrexKet3E1LPYmo+TRDYg7u/Y8c+r2th+LJqKJuGoOaNhEUb0RBV3e59FtTEaTQsGulEQoyJ9U/A0HahnFMQdH2IECW04hQodoc1gpVZwoz2HAAb5zCgyW+rb1SQOe9bILgodnprWiHzaMuyYjKdMjo64uhgn6OjI0YnJ632GI3EjJo2UCcZcbCMX17DrWyRrmyQbWyTb54h39whXd0gXVohGwzxvR4+7Wl+vscnnroYcfjX3+HOv/0feHRSCAiu/7yAINRi3oikkSmLQZPVzFGdHuPGx/jxIe7kADfah+kxaTkhKSdk1YQ0VPQI9NOE4aDH2soKGxtrbG1ssLGxzsb6Opubm6xvbLC5vsHq2horK8uym+dwyECzQJNUIkgmSFGrwpi6y+gm5BaPPw8A+LRB4DoDEDHOQ6HRIkC1DGyVBoCq+qgvEEK7jlHojBYHNX/sc/4Oiz5FvJ+bBbbKQivdDRhS2FYzRAOB+Q6tpNdApWojMxOk0SXpz+v8WAMB1hmIieIQzePV3k68JJ+FJlCWBXVZinAoC2YTiUKdHB9xeHTI0fExo5MR48mEaVkxqSIVCaG/DMtrJGvbJGubZKvrZOsbpKsSkUqWVvC9IelwSAwVh9//S+7+wf/Mo0lN+do3CJe/JBGpsoC6FJOmnMJMTBtfjmCi0n5yiJ8ckU1PSIsRaTkhdw3Dfo+VpSErwwFLwyErqyusra21DH/mzDY7OztsbmywsrLC8rIwfZ7lrVRP0mRhc5fTUt74ydp18ZiBoG3z5wQAnwUIDL0xxnYjv9iGRFUb1DoSXFXC+AYCtd3tdzRp3zFnQow6vjAPk9r7jbrXWvVaEHQBod9BnD57DwYCndxh13YBbnW1Z5tWiYij7nQltm4HWcPbM60jvZp+TV3T1BVFVVIWBdPJlPHomJPjE46Pjjk6ES0xLmS8oozQ+JSQD2B5nXT9jCwGvLpJfuYMyWDI6Ob77H77j3hcQHn152H7Ir6cShhycoybHOGnx7jpCF+ckNcFaVOSNgUZDb0ElvKcQS9nkKcsDQdsbGyyvb3N5oZIdrHjV1laXmZlaYnh0pClwVA3z9CNtr3MP/ZeBUiiwqHDyF1mtO/W3t12tz7rXvMsRl6k+GmBIHR8AnR+QZfZgjJ4bY6xOsdBQVAp89tfZUyqzNJEWUSqBUUM8zXru35Ch8FYaChh8I6GWgCD+Q7WIV2GjWpKRdNEWm9j/FPf9dr2/rohMm/49tlRojKJtyUHZXBAwBcJdU1RFBRFQTmbMh6NGY9lvGJ0MuLo5Ei1xZRxHalcSkhzQt4nrklYtjg65Pjmu4xqR715EXoDktmIrBiR1VPypiALNXkM9FNY6ucM+z36WcZgIKntq2trLC2v0O/3GQ6HrKyssrK6yvLyMr1+n2G/T7/fp5fnZHlOlqYkXqY/uiQh9Z40kf0DfOL1nICgKxi6312nTYzpu8xu37vHnpfipwUCK6g9vGWsVqKLnT+X+BrKbHQFOx0Qq9RHaEeCF0FgWqE1gxCGUVNGGDbIiiGnyifvNwYNaqbZfYAOuHWBA7ig68CeBpppOKIuD/MkUka3d5lplKizF6OMQ+BlC1UDoAkTM8/sUU3TUFc1VVlRlQWT8YjR8REnR0ccHR9zoiPdk+mMcYAiembTCdPDQ8ro8L0BSZLQo2Ep9QwHKUv9HoN+n0FfZv2trq2ytLJKv9ef2+1LQ7K81y5vkmUpaZq16TFemTxJE2V2Mf+yJCHLUnKN6KSJOrnekaaetAWFhICTJNG1T0UQJJ05AnR4bJF5f1QgfGogoKMNul67/AnTRx0viFEYuG4CVRAQNLWAoA6W4zN3amWkWEBQq8aIZvfHCEQavafR57eTPkDO69iBNaqBKZjNqeMNDhnpjJE218gaWcp92qQyppVrTIrLO81XwXKdvEh9i3jY+7ttRUd7sdjBWsbWPwkywl0WBbPplNlsxmw6ZTqZSEh2PObk+ITx+ISmieS9jH5vwHDQZ2m4xNLygOFgSK/fI+/16Q0GDPoD8l4Pr0yepQlJIikJwcw69XGwcSCN1BgYnBNJntrswSwT8Fikx8+1QZoocFLhG9EQIgSSxJHojDdrg8X+s2On2uljKH5aILAO7Ko0Ox7VPm/j9Rb5qcXskUE0SVUwaW5SWYAhjNLE2I4cy3Pn8X8DgQ2ICe+JVogKOgOps7BpXetCBtKwVgeza4IBTrVHW5cFf6LbCfJ8A5Bon2hAUkYxRmhUs+lDTj9PNcccyK1i6bxL/BaH+EmmNUNdU5UlRTFjOpkwnU4ITSDNUnq9PnlvQNbLdZsjKZOUTcrlvEa4TCtJc0idtY99RwpHZSpzeq33feLJklRArxqhu91qamBQ7ZKlKVmWKDCSFgTSptKuTsvT7Q9rDyvPs5iaTxMEPGWsoFs4YW4BgUhn8Q+qRu17beRgaRKqJWzwzJ5Rt8fkezcSZAwqmkbyjWx02KjLpGinWhm7jRjMZOoyvA2ydcYmonxpI0DWQQYiAYNqIbum0yZSJosqdaRdlHZyzG3n9n2oGWZm3+L9gFfh04LNicRuV3PQ+wkyTqCF0mer/6JM175b28vqgL7DgG37BEgbStmdc6RpQpbJ3mLOhKU+N01T8iylpwNgeZYKQBJPmiownYDCJ16ykzqCa7HfPo7ipwmCtnM6ktHsRitoK/nUea5Vgsm9MhDQhEjTVFSN+gRNoNEVDMS5FonfRBl0M3AZCOQz0mhektnvUTvMmNLKaqHVGMXEcr7TuAaqqOOpxuDKEFEBYPX1Xtb5dCrNLfQbDChOw7H6uwWHdoR1DjroFolqHugmFDr908ob1PnpAutU6FG1iSw9pO/vlF+e1dFuZuIpM6Pmj7dyh4BPJLxpdUbNIdMibX2cAMzO5+o0m9OLauEkScR/yHM1nVLSRBzrNElI04TUS1g11fEEe6bwzZy/umV6GsVPEwRG3cLYy7pM5zqSMlqHdCojDCyJdq1jrKaOjTobIweLKtlz7Fq1540BRVtYQp74Hfa+brlPfV8oF6jEtXOd+lhdrG7WsG15DFCdaFP3fV3mN8a0P2lHXfJc0zhANEUMEdcZlAv229kEeXuPE3PCObwmB8Y4B49pi/n7OkBSlvWmbTp1Nl+gawF0748aaEi8lxFgvd4hbZmo75AmCT5JyBIBfJKIf5FmCb00IVPHO0nFZ5B3zAfVjA/iwqDtk8iucZ8GCE51/gIircPtmDVYlxFiBxCxY+cLI83nHVR13Y4VyKizaIhoIOhI/KbRgbegI9fmaAeJMDX1PBkvqrQP6LIfXfNDmb5bZnMQjSG6zG2MYgwdNNIVO5qofU43tBzUXHS24qC0l1MGNCCZJNaT8h7r4FYSz8PHIJLZqVQXzWRmiWvHXeyZdp3E8+daxsjql6jGsPJb3Vtg6PckSSWq1AGBON7iCwhT2nvlXjGhMnqpmkVJotEk0USL77V2/YmC4EnUbVT7HnUhXyu4Fcg6of3r2OURJ5LcoknqTFeN5CRZ5mgr+Y3xzBzRc7UyWRNUe+h9RNEOMWpG5QII7M8aGpA4uIYyjQEbW13NmESZN7TAtPETaxsxvxLdacWiZ7SZq/I4e7+1n8xYM0k/b98Y5XnSsfr5BOaNCnjcfHM+ebb4Ok6B1TWtrI5EWwNoDoLu8+36RAGUaGg10eiYV98hT1Pydi1RBbtpRe8lepRm5KloCwOBAcDeZf1i7dMtz5NI2u8zAEF8giaw3120dkHQvTYaE5p07ZwTYOj0y0rnIygzl3Wts9Oipl3Po06Njke04AgynhCChBqtIeV9wlz2287Zs5xpgQ5grROs7NaxUQ622skcxqgRLLnCmFgAFlVKmwnUNPLseWrInPGt7dp2Q0GoILDzJmntXWDpIWJ+2PNEiIBD/QvzATrviOoMW995XZnOOUei5kqipo3Y9CLt5ZisJJ0pCFIdXBPAdbSICoc0sftkuqrVqctP1vZdPnoaxc8KBM8iK/AidSumB2QwKdo+YNoJKFOZnR8kZTvGSBWaNgW6CQoCTb9uWtMpUjWV7LhpIGhnpimzKkgiEENH0+ios5WyZYpOHazsZrJ0I0xRr0n0XGsiGQM7VCoLMPQl83ttS1Vl/m5bWlnkh5TBOQFO1ycwU8ieIYymWkcB2ChYvUp7k/ghzkfuhdE17Jsmc1td/+y+p4IgS+XdqTB6lojWMAAA7TO7vkBXwCwCwOr0LIqfBxA8iboVsT/TBKqfP9LhRHTk2Gx83XqsUS1QS75SiDIabGZU3QTKqqSsZMGtOQPq3AOLQpnjrXMd5D3qNwTRFibhrfEtP8ZMFQOfdZZTDdKaSR8BgRomWjf73YKubQE7YFooECRzfH6/Mr3T51iZ7B5xopVZW4mua3pqubyGMLMsw+u+YI06oE4n9KeJSHNjXskPUhNGBwfNdEw0jUIAIoBIkoQscRIa1eusHGL6eAX/nD+iCYYfEQB8XkDQLezidyNTid17nvXdQNBtoMYcZh1dbiybtWkoyoqyrISxOw0aFpP5WhAoI3ee1ZVC9mmNa8fMJ7HGtnPdzrTymxljUjooKLwBwe5FEv5MQ4hk109kCr+Ycwaiubkml0TBRDxtWrRjGPH0/OtEw5upLuZrJqrVVxhaGDhR0yXVgTfvxa7PdJnGxP4SBYzT6xMBm4HA6klXKHZ4pbG1Tn9EAPB5AcGTqFuJ8AQ/gU5l7bvdZ592PraSbt5Zc8YSCV+W81lsEmWSqFPTCNN3zRTTDML4YlKZadR1itvyaIeZhjrlRyhDR2NmvT7GuaOKRcY6TqpXSZg43SijKwk77SbPEba3QT0xn8zfkcttUpC1c1Spm+hglpOLAHl3pqO6XiM+IpnFZ3EONWuEiTP9NNMmTWSvYdeOEkvOkAzCKSCSeVTolPCzsmhdrazGI92+f16Kn1cQ0GEkI6twt5B2jTVAFwxdENixOJ9AqEDQnKSgS75opEgW9JIxBBuAM9sitABpKHUWXNPmOImP0Y4gm1lmppT6NE4lreuMKZhEdV7mPEdlMDr3W/lxsiS518iJ74y9mLSUOkZJo1C7PgRZRrI1tzqjz3SYwUCQprI0jCWvyWoWEqkyJm8/bSBUbfckNQBIGDNJLYNUQpz+lBbQvZRtjKNT9yeR9auVtUvPYuIn0ecaBIv0cZW2yviFMQe7r0tiv+t31RTiD4jjKwCYD2qJJoBGbe2qqmQ+RFVRVjInOppm6YxDWPpHo860jEPMUyas4U3TRBsx1nLadVIXcf6dLQfTSUvxTn0mrbPT364zhtBqK2sXZVYza0IQk8KpZnGWwpBmJKnkAEUFqTm6qUV10lQZW3OFlLkzZXyn/oXZ/2lqUl4AZkKsrXOnv1qN9gThx4/B9ItkfPO5BsFiAzyJjOm7IAidKXfWCYvPsvvQxrR5CTJGIOMRoBrC5j3Y4l+2JGQljjKWCBgidZABPPEnbKKQ7CYvfkkAjeo0jezz1XWoTQqKrO5Idy2rAceuTfw8R6lbR+89SZpCB8zC4NLpThkdJ0IAJ8AwIZEkCb1c5vaa1JibTo48y8gzyTCVqI8yt/oCmaVSOyDOQ56p7pTjEw1zah2fRI053p3zi/yweP5HoZ8KEDyLupVf/L5IxkTW+fa7e8zunf85WcwqzkOwVWesoW4kMS/YgF2IbQ5To2umVrVMGw0Gkqahqqt20bBg/kLU+b0WTrU6RYPMnFGkPLIuvwHE+Xn6gdNRX6/RGK+DeAaCREOcEbHf5X4BgIUjiaIVRMrLytDdtkuThDxLZWeYRCJcMgCWkGZq7rRgEzjLe2wMQABj7W7PN9Ove/xJTP6kYz8O/dSDYJGM+Rcr8jRQGHXVsTQuxnYCBvmiHWQ2v0h9M00EBPMkOXGqG0odg6gb9T+aRswpm+ugKl/8Elklr1sW+zOb3+sAWVCAOKexcnMindMFsMR/SDTFgKhrvsZAajvURGF2i+Ikmp0pgJJnSsh0nsYs42COJEnp5RrpUeDJAnRyj5lNAgKtkP6243LotK/XdCI9dv7TpL9RIFiUDPZ78TjKdE4Zx67pmk9dCdW9XxgSQEHQKJMSZUmWKKaSzHzTMGyoqStZQcMyXmvVEq1jbvn/Hf/A3mehzqaR6JUxlwBTMfMEEICUVRzbuYSPsqyQRHJwRBzeyUbsidro7eiuAsBrnn/i56nUPpFBLskWlWeJ6SMPtzYUjM4Z3v6eRNKmzSmhZMefds8npb9RIHge6gKDTqcIc88Zr9sJXaAsAmIeZelI7Uanf0aJ1zfK5BZylexVnQeh0zyr7op8tQzEYaZSBwR1XQNOpLVzRE38N+nsEi/c3b7fxlhEI8yTlmW0OdEdIBP1DVJNiRDGT0lSOWeDXPYs8x08sg+DV1PsNJN/FAD2ae35LKf3Wcz4Isn62/2sgKBL1thGXeZePO7UVnUL2iOaqaQUOza8gQB06UhNtQhRZ34188lBtvxMXdeUdUWjm1+Lo22ml6UHi0lk5oyYIVr2thwWAbN8H9vpXSM1gE8luuN1RT0BQdqOKHsvdr5zphm62kZAYBNwvGqnLlm7GRhoBwHlnLXfk+hZjPii6WcWBIvS52nU7SS7J+nswtPtVOtYe651sh03qYemKIRG4v4CCl2IrI061TKhSMOrFnK1udnyfAnbOmVYoo41mKmkIEiQmH2a2VInkHoJU2ZpgsPL1MUkIdFVsc1Eak0a1Rw2qmu2fYwSP7P62zFpEzC/ykhAfLrtF9vts6afWRDwBCB0GfZJDfGk4/MOnzO+SUs7t3htFDGtZo6OBOtCA90U8GiLD2uKRq2r79maqeako86yRIRkcMymSsYY29FaG7F10E5TzBLf5uLYM+YMLfOCTeU4p9MrO23UbZPFtrHzJiiMFtvx435/2mR95n4WQfDjUpe5u8xvn11zqXtN0JlX1sliXiGmi2kKxKSx0eMYZYRawq6BQHd0WyJSMeoO9TrJHpXaBgKvqzd4Bx6vmkBHZTWGb8xv5U28pkLoptiuNW3mzO01i7TLNGYy2j1Sh4+21+eJvgDBj0DWsYvUPd7t8C4Z01tjd4/bPR99TlTHdz5G0QRbNcN8DNEY7USYDvAcIsSdRozEZrfBNTtpIBDwGRjmUZ45dX8vMrmds8jOYjs86d7PC30Bgk+Zusxi5BfGJBY1R5e695umUEdAzaHQDujZ9XJabHoxzDsZlwoGdSGInfLEeNq+fxItMr6VofsMu65LnzfG79IXIHjB9KzO7moCYyaTnItMtPi7+906rftbfIEnMKGT1ezs2PywfIl2fOFeK5992nu6ADam6dr8T6r7s9rk80BfgOAzpCcxmdnQLVMqw3T/ukxov7sM+RHGV5pfLwph8Tnt9VGS4uy8kb2rW7buNe4pmmCxHJ93srZ0zwGC00N4X9CPTIvM1GXGLoNFBYf9Ld5j5xeZdpFOMbrS4nP0wlYj2DXdT3vX4rvts/uOxff9NNHHtSemCZ7nwi/o6WQM/6P8NjKGs/NPYzg7b9Kty6yLz44LJo6RMfziO57U/4vP/WkjawOvS2Eu1rlLX5hDPyVkzGt+w9MY+gsS6goC89GeRq4sy/hFQ37+qcvwXQ3wRd99lBY12Me10xea4Av6G0ddIcEzTEyjL3yCL+hvHC1qyS80wRf0M00fBwCA/z/uzVDSpA8BZQAAAABJRU5ErkJggg==;" vertex="1" parent="1">
          <mxGeometry x="383" y="541" width="113" height="86.07" as="geometry" />
        </mxCell>
        <mxCell id="Na29aNG7F6KIejRiTE2y-8" value="" style="shape=image;verticalLabelPosition=bottom;labelBackgroundColor=default;verticalAlign=top;aspect=fixed;imageAspect=0;image=data:image/jpeg,/9j/4AAQSkZJRgABAQAAAQABAAD/2wCEAAkGBxAREhUSExIWFRUVEhUXGBUVFxcXGBYVFRYWFhUVFRUYHigiGBolGxcYITIhJSkrOi4uFx8zODMtNyktLi0BCgoKDg0OGxAQGy8lICYtLS0wListKzIvLTIyNy0tKy4tLSstKy4rLS0tKy0tLS01Ky8rLS0tLS0tLS0tLS0tLf/AABEIAOEA4QMBIgACEQEDEQH/xAAcAAEAAgMBAQEAAAAAAAAAAAAABQYDBAcCAQj/xABMEAABAwIBBwYKCAQFAgcBAAABAAIDBBEFBgcSITFBgSJRYXGRsRMUMjM0QlJ0obMjYnJzgrLB0UOSk6IVY9Lh8FNUF0SDo8LD4xb/xAAZAQADAQEBAAAAAAAAAAAAAAAAAwQCAQX/xAAsEQACAQIEBgAFBQAAAAAAAAAAAQIDEQQSITETIjIzQVEUQmFxsSNSgZHB/9oADAMBAAIRAxEAPwDuKIiACIiACIiACLQxXGKelbpTytYDsB8p32WjW7gFR8XzotFxTQ6X15TYcGN1kdZCbCjOfSjEqkY7s6OterroYheSRkY53ua0fErjNXlDitVe8sjWncy0TQOgixI6yVoNwGRx0nvFztOtx4kqmOD/AHMQ8UvCOtVeXWGx7alrvu2vf8Wgj4qKqM6NC3yWTv6Q1gH9zwfgqHHk/Hvc49Vh+hWYYPTt2t7XH90xYWkvYt4iZaZc68Pq00h+05re66wOztDdR/8Avf8A5qveLUg3R8SP1KaNH/lf2rfw9L1+TPHqeywtztDfRnhNf/4LPHnYg9amlH2XMPeQqvoUfNF/avnilI7dHwI/Qo+Gpeg48/ZdqfOjh7vKbNH9pjT+RxUtSZc4ZJsqmN+80o/mALmRwSmdsb2OP7rXlyajPkvcOux/ZYeFpva5pYiZ3Gmqo5BpRva8c7HBw7Qsy/PhyemjOlFINIbwSx3Aj91IUuVOMUlryPe0bpQJW8X+V/cEqWDfysYsSvKO5oua4NnYidZtTCWfXiOm3rLDygOrSV8wrF6eqbpwStkbv0Trb0ObtaeggKadKcOpD41Iy2ZvIiJZsIiIAIiIAIiIAIiIAIiIA8SyNaC5xDWgEkk2AA2kk7Aub5T5xXEmKiHR4Yi5J/ymHvPZvUXltlPJWy+LwE+Aa62r+K4eu4+wNw6L81tOmpY6dukSL73HuC9Cjhklmnv6IqtdvSJpMwuWVxkne4udtJOk89bjs+K3hFTweyDznW79+xRtZjD3amckc/rH9lGE31lW2bJrk5NjjR5LSek6gtKXGJjsIb1D97rQRayo5cyyVUjtr3Hie5YiiLpwIiIAIiIABZo6uRux7u09ywogCQixiUbbO6x+1luwY4w+U0t6RrH7qCRcyo7csUlJTVGuzSedup3H/dRUmDVFO4S00jtJuwtOi8dFx5Q6N/MtNriDcGx5wpSixlw1Scoc+8fusuLOployUznm4irhbd4dotY/5rBs629m9dPila9oc0hzXAEOBuCDrBBG0LiOJ4ZHUt02kB1tTxv6Hf8ANS9ZB5XSYfN4vOT4uXWcD/BcfXb9TeR06Q33irYZNZof0VUq72kdvRfAb619XnlgREQAREQAREQAVazh4iYKKTRNnSERA/bvpcdAOVlVGzueixe8t+XIm0FeokxdV2gyjZO0vJL7aydEdQ2/HuUbidWZHn2QSAP14q3ZFxCSn6WvcDx1g9/YqbX0boZHROGtjrdY3HiLHivWjK8mjznGyTMCIiaYCIiACIiACIiACIiACIiACIiACIiAN7CKsseG+q4gEdJ1Ar3lhQ2DZbb9B3TtLe4rHg1G6aaONo2uBPQ1pu49n6Kw5w4wyna3e6QEdTdvxcEqUrSSNxWly45q8VdUUDQ43dA8wkneGhrmdjHNH4VcFzjMl6NUe8D5bF0deTXVqjSPRpO8EEREoYEREAEREAFRs7nosXvI+XIryqNnc9Fi95Hy5E7D91Cq3QyoZF4l4B4J8hx0XDjqPQQe89aveUuSMdawOa4NkA5L9xHsvHNfiO0Hl+H+RxK6LgeNOj5JOrdfZ1Hm61biFJSzx3JaLTWWWxzXFsKnpX+DmjLDuO1rhztdscP+Gy0l36R9PUsMcrGuB2seARwvvVSxjNnC+7qeQxH2H3ezqDr6TeOku08ZF6T0CeGe8dTlyKwYlkXiEF7wmQD1ojp/2jlfBQEjC06LgWuG5wII4FVRnGWzJ3FrdHxERaOBERABERABERABF6hjc86LGlzvZaC49g1qwYbkRiE1j4HwbT60p0P7dbvgsynGO7NKLlsiurfwbBairfoQsLudx1Mb9p27q28wXRcHza08dnVEhmPsjkM42Ok7tHUpLE8qqKiZ4KENeW6hHFYMb9pw1Dhc9Cllir6U1dj44e2s3Yw4Vk/TYZA6SR4va8kp38zGDmvsG0lcxyvxY1TnSW0WiwY32Wg7+k7T/stvH8dnrH6UrtQ8ljdTW9Q3npKgsQ8g8O8LdGm080ndmak0+WOx0jMl6PUe8D5bF0dc4zI+j1HvA+WxdHXn4jusso9CCIiQNCIiACIiACo2dz0WL3kfLkV5VGzueixe8j5cidh+6hVboZzzDvI4lWlqq+G+RxKtDV6NUhgSmFVLtIMJuNe3dYX1KwQVT27HauY6wqzhfnG8e4qwBQVFqWU3oScWJ+03s/Yr3M+nmGjI1rhzSNDh8QQoSsrYYW6csjI2+1I5rB2uKhJsv8JYbGti/DpP+LQQkPQatSx1GR2GS/wGD7tzmfBhAUdPm1oXeS6ZnU8H8zSoNmcCgeeTVwdGkSz89lKQ42540o5GubzsNx2gpka1RbNmXTh5RjkzXQerUSDraw9wCwnNY3/uj/SH+pZqvKKSJpe+cRtHrOcGjtcq7VZ0qZhsa6/2GucO1rbJixFX9xjhU/RODNY3/uj/AEh/qWaPNdB61RKeoMHeCqvHnPp36hXEdbXt+JatPEM5sDLjxyV55oy8jt1D4rvHqv5jnCh+06DBm2oG+UZX/aeB+VoW23JvCKfyo4R96/T+EjiuNuzitlvow1Ug3+t28orXZl7S30XxyxnfdrdXXY3+C5nk95ncqW0TuD8psPgGjGRq9WJlhwNg34qGr84DtkMIH1pDf+1v7rn1BjdNUaopWuPs7HfyusVtPTIUoPXcxKpLbY3MVx6qqLiSVxafUbyW9RaNvG6h3LM5YXqqKS2J5NvcwvWriHmzw7wtp61sQ82eHeE5GGdHzJej1HvA+WxdHXOMyPo9R7wPlsXR15OI7rPQo9CCIiQNCIiACIiACo2dz0WL3kfLkV5VGzueixe8j5cidh+6hVboZz7DfI4lWdqrOGeQOsqzNXo1SGBu4afpG8e4qHysyuqPDjDsOj8LWPHKdqLYQd5vq0gNevUNV77ExzGPE6eSo3sadEHe93JYD0aRF+i6xZFU/wDhOFmvfyq2vIcHO1kNfd7OGjeQ85cAdgUFS7kkiyFlFtmF2b7D6cibGq19VUuFzG177C+uwDeWWg3sbtHQFsMr8nY+SzCQ4c7443Htc5xVSnmc9xe9xc5xu5zjckneSvCfHDRW5PLEyexbZZcmpuTJhhjvvY0MtxikB+CwR5vMFqXXw7EJaWY6mt0jt22a1+i93Bx2KsroGS0EeHUbsRlbeWQaMDDzO8m3NpWLifZHWFmpQglpuap15t67EQ7NpSwHw+NV7qg3IjjaXNDmjVsF3ndcNtY7SdqztxTAIhoxYRG8DVeWOIk9N36RPFVjEa+WokdLK4ue7aeYbg0bgOZay1DDRS5jMsTJvl0Lg/Ecnphoy4SxgO0xRxtI4sLSOCtuS9JguhbD4aYShuoPZaTV7TngvI6da5EvrXEEEGxBuCNRB5wdxRLDQewRxM1udIx3LTE6R+hLTQs9k2e5rgPZeHAHqsCOYLQ/8SHvGjUUkMrTtGsDseHAr7k7lZHUM8TxG0kb9TZnai0+rpnd0P2jfvKr+VmTklDLoG7o3XMb/aA2g/WGq/A70RpwvlktfyEqk7ZovT8EjUZNZPYrqiaaCpPk6ADGl26zAfBu17houKqmLQV+DSthrh4WBxtHUtuR1E7b22tOvba4Xwq8ZLYxHWxnDK8eFilGjG53lNIFw0u23FrtdtBFua2Z0XDmgbhWU+WZXWyBwDmkEEAgjWCDsIKxvUPQ0cmH1tThkjtIREuicd7DZze1rgSBsIcph6opTzxuLqRyuxhetbEPNnh3hbL1rYh5s8O8KhCmdHzJej1HvA+WxdHXOMyXo9R7wPlsXR15OI7rPQo9CCIiQNCIiACIiACo2dz0WL3kfLkV5VGzueixe8j5cidh+6hVboZQML8gdZVlaq3hfkDrKsjV6NUigU/OhpPgggabGapa34EC/Rdw7Fa860gbNTwN1Nip7gc2k7Rt2RhVXOC4NkoHnU1tY0k7hrYdfAFWTOw0itaeemZ8HyKOn3h9TtFMREVpGbOF0ZnmjhH8SRrL8wcQCeAueCtmdGuBnjpmamU8beSNgc8A2t0MDLdZWhm4g08QiPsCR/YwtHxcFN4jkTV1dVPO9zIY3Sus550nFjeS1wYN2iBtISJySqa+EOjFunp5Zz5FfW5AUz+RFiMT5fZsw34NeSPiqdi+GS0sroZW2c3m1hwOxzTvB/5YpkakZaIxKnKOrNNERbMBdCyXqW4nSPw+Y/Sxt0oXnbYamn8JOiedrutQeTGR8lWwzvkbBA2/0jvW0fK0QSAANhcTt59asmAYVhNPURyRYiXSB1gNOMtfpcnR1N13vbakVZRast0PpRknd7M5xNE5jnMcLOa4tcOZzTYjgQtvASRVU9tvjMNv6jVNZyqZsdfJo+uxjyPrEaJ7dG/ErSyKpvCV1O3mlD/6YMne0Jma8M30F5bTy/UwZzRbKGO2+mbpdPIl29g7F5etbKmo8PlDVOGtsLAwdBayNjh16Rctl6VhegoxHUYXrWxHzZ4d4Wy9a2I+bPDvCtRMdHzI+j1HvA+WxdHXOMyXo9R7wPlsXR15OI7rPQo9CCIiQNCIiACIiACo2dz0WL3kfLkV5VGzueixe8j5cidh+6hVboZQsK82OsqxtVdwnzY6yrE1ehVIoFSzqUunQ6X/AE5mO4G7O9wVnziSiogoKxuyaC5/G1kjR8X9i1spKLw9JPEBcuidYfWaNJv9wCw5Pz+OZNxna+jl0T0BjiAOEUrTwUaeWqmUNXpNFWREVxEW7Na61eOmGQflP6KNyuxeonqJmSyOLGTSNazYwBjy0ckaibDadakc1zb146IpD3D9VAY869VUHnqJvmOSUlxX9hrf6a+5OUuUVG2jELqJvh2ts2Zoa06Xqy+EHLa8Gx1bxtG6Tzgnw9HQ1ZtpOYGvI9p7A+3BzX9qoSveJcrAacn1ZzbhJM3uK5KKjJNezsZOUWn6/BRERE8SdCynqnQ4dhpjALQInlrhdrntja8B7d4uXG3P0hR1Pj0uJV9GHsYxscoLWsB3EPcSTt8gLeoG+PYM6Ia5aR5cBvLW3cLD7DnNHS1V3IaQNr6Y/wCYR/MxzR3qaKWWXtXKJN5l6djYzjT6eITfUEbRwjaT8XFSObCJsb6iskNo6eA3cdgvdzjfoaw/zKHy9Zo4hUD67T/NGx36ray1qf8ADcAEOyaufrG8MdZz9X3bWsPS9cqSy0UvdjtOOaq36bKTkg90zqmreOVPO5x6yS91uL/grA9a2C0XgII494byvtHW74krZen0Y5YpGajvJswvWviPmzw7wth618R82eHeFQhTOjZkfR6j3gfLYujrnGZL0eo94Hy2Lo68nEd1noUehBERIGhERABERABUbO56LF7yPlyK8kqh52n3poveB8uROw/dQqt0Mo2EebHWe9WJqr2EebHWe9WFq9CruRQMrFAZomBlRimEv1NeHPjG4MN2OPXoviPBTzVUcUq/8Pxmirr2jl+hlOwAeQ5zj0Ne13/pqGr7KqXojZI3NJa4Wc0kEcxBsR2ryrPnGwzwFa8gWbMPCjrdqkHXpAn8QVYV0ZZkmQyjlbRc801vHX+7SW/qRKp19/CyaW3wj79ekb/FbuTGLeKVMc2stabPA3scLO6yNvWAp/L/ACeLXmtg5dPN9IXN1hjnay429V22/OSNWpYvlqa+Rlr09PBTCVfcsW+L4ZRUp1PJEjm81mkvB/HKOxV/IjCxVVkbCLsafCP+yyxAPQXFo4rLl7i3jNZIQeREfBN/ATpHi7S181kS5ppetQjpBv3oV1ERNFFjyDxvxSqaXG0cv0b+YXPIeeo/AuW9iOCGjxaBrB9G+pifHzBrpBpM/DrHVbnVOXW8iquLEIYDLrno38SNFzWOPOCLX+tHdIq8vN/D/wAH0ubl/lf6Q+OYL43jXg7XYGxvl+w1ouD18lv4lR8ucU/xTGSxuunoQWDmL2nlnjJq6RGCr1lxj/8AhdFUVfk1dc8thB1OYwN0IyQdhZHZ5FvLcAVznJbDm0lOPCENfJyn6RAt7LdfMPiSp488kvCKHyRb8smXLC9e2ytcLtcHDnBBHaF4er4krML1r4j5s8O8LYetfEfNnh3hNRhnRsyPo9R7wPlsXR1zTMq+1PP7wPltXSgV5OI7rPQo9CPqIiQNCIiACIvjigDFNIqDnRfenj+/H5JFdZ3KiZy3fQR/fj8j07D91Cq3QyrYP5sdZ71YGqAwfzY6z3qfavQq7kUDI1QmXGDmro5GNF3s+kZ9pm0DpLdIcVNtWVikmURImhrP8YwSKccqpo+RINrnBjQHnp0maD+sEKnKRpcQdgGJmo0SaGsNpWtF9B2s3HS0kuA3tc4DZdWrFMhDO4T0EkT6eblN5Vg2/skA3Z8RstqXaFVR5ZHK9Jy5olSwXCpauZsMQu46yTsa0bXu6B+w3qy5VZxKfAvBYfSxiofGbz6biANK5LQRezyTe1rNGqxvq2q7E6bCfA4bBMzx6rljZLObHwDXkAyEbiAToMO86R1bd2fI7DMO5QwyatkdrdK8eMFztpc/SJs4nWSGb0urUdR5Y7G6VNU1mluSOQ2PUtRTSYgKIUTCCDIQweEA8otLAC4B2q9tZ2a1WsayeopqV1ZQOdaI/SRuLibC2keXrBAOltIIXvGH4piZbE2kfBC0izCHMZq2F73hulbcANXMSrFFgsdFhtZC2QPl8XldKQdjnRHRGj6o0dl9u3etR/Ttrr6My572Wns5IiIriILoWSFJBh9O3Eah7w6S7Y2M3tdewI9YnRLtZsABvXPV0vHcRwumoKCHEXOaHxNcwtEhs5kbNMnwev8Aicx2pFeVkk9h9CLbbW5G5WYTg2NSMqJcQlhcyMMEZcxjWi5Js17fKJOsgm9hzLTwbNbgEkmgKmeqfvAfdoHO50bBo8XLA/KXJOLlB00xHqhs+v8Am0R2rQr86k8zDT4PReLsOozOa24vtIaOQx3SS7tUbUH03K4ufzWIbKnBqbDcYZTUT3Fj4mmWMu0tBxDzoE7dTQ1+vWNLpUo9ReBYF4AulkeZJ5Ll7ySdbjd1idZJO1x2qUercPBxjZk1aSk9DC9a+I+bPDvC2HrXxHzZ4d4VaEF6zPPtBP8Afj8jV0qCRcvzSu+hm++H5Gro8D15OI7rPQo9CJJF5jOpekgaEREAF4l2L2vEg1IAjqgqjZyPMR/fD8j1eqgKj5x4z4uw80zb8WvCdh+6hVboZWMG82Os96n2qAwU/R9TiO4/qp2J1wvQq7kUDM1ZWrE1ZWqSQ+J4rqGKeN0UrA9jhYtPwIO4jcRsVObm+qIS4UWJT08bjcsBeO0se0O1c43K8tWVqnkPiUNma2l8E9sksj5nm/hzqs7aSGX1g77knpC90rsp6EaEFWypib5LZS1zrbheXlDmsH2CvblhcsI3cplVjOVdSCwyRUwOolngweDm6bm9YstzNjG9uG4zHI8veyWcOeSSXObEQXEnWblpOtWF6h83rORj0N9ZfI7+rHMR3LcdGjLd0yoIiL1TywQTqG0qzZ42xvr8MpHAODIpHFp1jRdYC45j4I9iiMAg8JVQM26U8QPVpjS+F1sZwZvDZRtaP/L0zWnoux7/AP7QpMRrKKKsP0yZ5bgtK03FPEDz+Db+y2CANQ1DmWdywvTYqxlswuWF6zOWF6cjDML1r4j5s8O8LZcFqYmeR1kfumIwXPNR5mb74fkaujU5XPM1EZ8BKdxnt2MZfvXRKcLycR3WehR6ESEKyrHCFkSRoREQAXwhfUQBpTsUDlDhoqIXxbC4ajzOBu09oCs8rLrQniXU2ndHGrqzOJ4fOYJHMkBbr0XA+q4arqxxPt1f81hS2V+S3h7yxWEoGsbBIBsBO53MeB6KPSV8kDjHI02abFp1OYei/cvVjNVo3W/lHnyg6bsy3RuBWZqi6OqY8aTHX5+cdY3Lejm51NOLGxZttWVqwxuB3rM1SzHxPTlhcszlhcsI2zC9R+QOizFsQpnG3jdLFK3pEYdG8dd3uPAqQeqxlZBURvgr6UXqKR5cG2vpxuFpGW36r6huc62uy34Mrcg6indE90bxZzHFrh0tNj3LGrrHieC42BMKltHVEAPjlLRdwFtjiBJqGpzTe1rjVYfJcAwal5VVisZA16EbmBxH2AXuPAK1YmFrsjeHneyNfNnhrpaxstuRAC9x3aRBawX59ZP4VXMPqBWYlX141sdKYo3bnMbYA/ysjPFSmNZaiqidh2DQuigdds1U4FvJNtLRvrLiNV3cojUANo9Ybh7KeJsLPJaNp2k7S49JKVfiTzeB6jw4ZfJlcsL1mcsLlQhLMLlicszgtapqGsGs8N/YmxMM+O1KIqZHSvDGAuJIDQNrnE2Fl6kmkncI2NJLjYMaLlx4LpGRORwprTTWMxGobREDtsd7raieA3klSqqau9zsKbm9CcyWwjxWnjh2kC7jzvcbut0XNuoBWSBiwwRKQhjsvIbbd2eglZWR7aF6RFw6EREAEREAFjkjusiIAjZoFAY7k7BUjlts4DU9upw47x0FW9zAVrS067GTi7o40mrM43imSVVTnTjvI0bHR3Dx1s29l1p02PysNntD7ajfkuHX/uF2SWmUTieBQT+cia489rOHU4ax2quOLvpUVyeWHtrBlIpcep3bXFh5nD9RcKXpqgOF2PDh9Uhw+C16/IGM3MUjmdDgHj9D8SoGpyLrGG7dB9tmi6x/utbtWmqM9pW+5j9SO6/otpmK8Om6FTHxYlDtE44F4/ULEcoKpnlEfiYB3WXPhL9LTO8e26ZdHShYnSBVIZTzb2xng7/Uvv8A/Tyf9NnaV34WaOcaJuYrkrQ1DtN8I0jtcwlhPSdE2J6StWmyOw+M3EAcfruc4fyk2+CxOylk9hnx/dYX5RS8zBwP7rSwz9HHW+pYmta0aLQGgbAAAB1ALw5VwYpUv8m5+wy/6FZWYZiEuyOY9d2D+6wTOFl3aRnPfZErPM1vlOA6yAo+fFohsu7qFh2lbVJkJVv8oxxjfdxc7saLHtU/h+byAWMsj5DzDkN+Fz8Vx1aUfN/sdVOcvBRZcSledFosTsDRdx6Bz8FMYPkRVTnSl+had79bz1M3cSOpdMwzBIIBaKJrOcgaz1u2nipaKmSZ4x7QVhscOvmZBYBk3T0otGzlEWL3a3u6zuHQLBWGGBbEVOtlkYCjcnJ3ZQkkrI8RRWWZEXDoREQAREQAREQAREQAREQB5cwFYX0wWwiAI+SkWu+kUwvhaEAQTqRYX0d9ourAYgvJpwgCsSYREdsTD1taf0WB2T9Of4EX9Nn7K2GmC+eKhdzP2csiqDJ+nH8CL+m39lnjwmMbI2DqaB+isnioX0UoRmb8hZEG2jWVtIpkU4XoRBcOkUykWxHSLfDQvSANZlMszYwF7RABERABERABERABERABERABERABERABERABERABERABERABERABERABERABERABERABERABERABERAH/9k=;" vertex="1" parent="1">
          <mxGeometry x="454" y="251" width="65" height="65" as="geometry" />
        </mxCell>
        <mxCell id="Na29aNG7F6KIejRiTE2y-9" value="" style="shape=image;verticalLabelPosition=bottom;labelBackgroundColor=default;verticalAlign=top;aspect=fixed;imageAspect=0;image=data:image/png,iVBORw0KGgoAAAANSUhEUgAAAOEAAADhCAMAAAAJbSJIAAAA8FBMVEX///8AmKkAUHIAlab2/P13v8oAlKYATXDg8fMJoLAAmaoASW0AR2wAS24ASGz4+/wAQmjX5OkAQGfj7fEAU3Xv9ffu+fp3l6oAW316xs+Cn6+c1Nuy3OFVtcLB0tpdh5w/sr4ANmDP7O8zbYlLfpeIrLyLztbb8fPC5eo2qrjS4OaTsb9jj6SivcoANmGyxtC4zNUhYoBFeZIWZYNjvMeS0dl9wctEqbcbYYBMdY4xco54l6pjgpc7prWcz9aRyNFis7+v0dp/sL9cmKswfZUxkKQohZpZnq8edo+ntsF0tcJZfZRSiqCZvsoAK1oAI1YboOtEAAAUgklEQVR4nO1deWOqSLZHNCKLFsgqIhoBF5YWkdxw7fHeTL+eOz3T6X7f/9u8U6DGLYlJENP9+P0TRY3185w6dbYqCKJEiRIlSpQoUaJEiRIlSpQoUaJEiRIlSnwGIIxrDyJf1JTGeDicGIbRxRgB7tJHhjEZDsdjRbn2CD+AhtHtdOLeYDqlMRiMCiB9wOBL0+m0F8edO2NYu/Zg34CaMp4Yo3jK1FNU69Vq5VlUq/B69ka61wGpKrVPrsPjSbfTm9LMi7SeIVuvVuhp72b0aQVaGxudhxXNVN5ObpcnKPHq/qY7/mTTs9Yw4gGo5Ue47dIExZ3Gd5+GpTL8djNlPiS5UyzrDN37NvkEJJW7eJU3uw2w+RkNr0tv2KPr9cvQywCiHBjKtezruNvLa+a9THJ6JUEaMPkuzy/lyExHhU9IZEyLkN8WdaZgjsqoKPk9IR4XSHDcY4rmB5gahRFsTC9qP59DtTopiKASF66hGerTgmyqcQ0VzdApxCmvfbmKjmJUp40iGCrx1RhW6EIYor+9DIkJfS2GzF0xHmqtcyVbWh0Utegrg6tQrDPFeTVKp3inrVLtFRlhKEbhc5H5XoyV2WIYVwoUY7VaoFP6xLFXmByZe+MqGUY06dCXStHsoE7H3TW/iVF0PqM2HNG55RBPoVqtV2JjE/sa9M01RDnpDOjLTMlqhZnG2+lXM6b1+lUY4grMqMfkLclqvTro7CT4hx26XqkWw7B2bLWR0jBimqnmQxOrJj24GypPdBqdVfpKMQwbdOfkylQbdju9FZ6X7+dZrdeZ1X3c3c91j2G2VwplWJ1+O+0/4crat++4+FR5owHCcmNoevDlmzFs7NFAw2/T7buKYgg2YNV93kdUGkNjFA+mdGVdQnxOqFWMrHg4HcSd7qShHDEYd6ZPdqw4hlidQFdf/joQ6NC463QeHu7vV6ttFXhbAF6t7u8fHuLOqDsZN04n7pVhvLfiFsmwglfiG+O8LK2ijMfDyQQX89eAJ5Mx8HrxY2Pj0DMsmCGA7nUv9pWN0ZQ+1O7iGeKJ1jHy9/nBLE9PmaorMEyVFZauXN1FWFunp72k6zDEpSHQ1nFO3w30Vs/mY6/FEH91vTIdTRofEyVSJqOXuwGuyLCS+clfjOHxinYWasrE+AKewstuwnUZZpKke53u8K2VvgbuwgH/4FUv6OoMM5Z1hp52DFjsaq/06KGa0mgMuzHuMDrPx/sUDDc0q/Qg/nLXNYZDzHVnYKiWNvNNjO7oC3iwb3LUPw/DbDgwMxncndfD3XlbxDFu5gMvjqm8Odr6ZAy3RLFE61vgXr33xlefk2GeKBmWDEuGJcOSYcmwZPj/gWFBdYvrMaxWRoVU167FsE73JsWUD6/DsMrEhTXuX4NhtToosM7dKKK0vUePoeN885WvoGbcTCvFtbZVmeld4a36NbwP4aL1+y29en36QpXrsiyNzvRC9fstvQrdG12JXgo0Tuv3F9JXLL1LlETeSlJpGIOzc4Hno15npp3JiXJpQQviAWrDbnxPv7Ws/Ty7KrOK70515deu1E+TfrcyNNLyffVDOpvW8nvfjNMbD4c39LX6adZQGpO7eEBnGcO3csPpxsq0BzPvGcdFGRXXT4NedJ6U8WR083C/otN9269RTV9nGHr1EN89I7rsv3bTfpOioqde91UTp6RZ+062U52pbFoyNkifrxPicadrTF7+h+PuIJvkxcWHg7OaPVFNUXCHgmF073A6f7BB3IlH2ZEDBzWN03jaBlhcx1C1znQ/WA49Ewj3Q12ln6YC3mIB7sZwNL1iPw2z6lzWI1YmN/R+Sb/oPA0sX72L+VW18d30yBJfIRMFoc23Nxe1XwdqGF9O7TK+Sq6tWqXjvAU56dwzJ52jq/XT1OmB8Uob37moKWN8LMpzzYzXyybWQZJv78E4BHi3nelLLRlX7qcBp3n0kY26k1HvtZj66jlv7Ivh9vM3dg3hjtvOABf7X2L3KRimg4DgtXfTNc5U2cbEgIDk+Zn3CRmmA8Hhwj2EC93hWDkpUNxSM+l24od7HIOcHWt9GobZaNIQokrTg0Eva6e5g2gjbaiBkINm6u8IJD8Xw6dhbYhkJ31VXjkc6y/IMEeUDEuGJcOS4d+LYXXTQVlN92Rlpz6e4Xf9VRjSq3sA7oJlVvGoOxmOMfCBkKvTgd1fi6FyZwwbSkMBh3liTBqKLLpmCkGWlbFxc7SX53MzlNPRu+Je6lA0ZzMnCGamK5uBb1tzTZMkSZt/9T2TIMYxfSk55ly3QKLrLzSyyXEspWlLfyZgnkhwlhLHt3m+3WYljeK5pjS3rK9frblEcTy7cARiGF/mFKIq8z1PhqJjcTwHo48iy9IkYMRGehCqEly0or7ft5dzkkvgGohYRrIomIFuaxwnOS5xN81fVatM78zdgOchjJrttu3h0cuiaIaBn7TbvKS12oljAiOA6IaBKSLQVE8HBKEISq02ecoKiEnOmgru+yDXhJfsc5zlyUgIA0dVdW8GZoSozVRLs0OYhp5vA3TMj0DBkudbAFBdSQ1l2ZuzbV9UBjlSrDLTnLPPSOcoX5DDviW1OI5rcU1tYauBIAuhLDqRxjUxWqy2VAME+pywZAqKlewZMvvNZl8Y5qao9ep0lHM/DXIkykFuX2tS5AYURZFzjyBmFn70dFX6HTiaUWt7RYpE5HDNpZjPYUv4eM9J7sd7ziTOQTOSJffB+YhQqebBVZaLXKKmPtFmk4DwND6SjQ/rabVO9y5SAFpwds2cUwdUyIWIAu7oKkk25wGSdelJsJqHAo1S5Y8JEW/3+36Zbr1Zm3Rl+1CCJBkQM+0EQayZOiGr/I7uzpDTksLR+4VYxdvhL1X2EW1OJ5wjKk0VidZJgkAJK7C/Mz01k7C4aPK+hR+Et+qNTqUjG/kYHDNJQnlxyAUPWudOE8RwkGg/fYZTiYDnhtPX6RyiXqWncffkoeVoMs3Ha/OoSHRbhwyatixqzxOkpAB+mi1FKpIFtv3PN516lvYvML27yTNFnlpnmo9fKvfboKRH0uJmJy7uUrx1iWA7dylNFC3+l96ZDNNWoWmv80IbYqPL5NVPIy7bAeEf2hkYsmwfLhR7YG2xttwIkUpEeQkMX69EVNNzP27w4RgvmM2akZ56mxNDrS2gr0fTcLmrhCchebCQ7v4g/P/00mrN/g7L7XN8Wgs9iEErG6/cEQFNHjKblQ9Dgbsljo0m5xH/OV4/9n+ERET9zXtSGTqNiYFv2oET+U+I47gzGnVxN81Zi50yGWxaknNi2L4lhGOGLvr5FYYk52yFSFl4Hgbrf1mr1ZQd1F5vEtrhZ/SewpR8GJpt8pjhZhpS1K5XuvsGimU5TRaj7FVseZMtw/dD6faY3PtpZrx2guESRtykpMT6aiXkMUcq+dpXVV/Y2FtWRbBamB+k1+gcnNqfD8PwlAzZPjKlxIeAUBZN/djk9M31VweZ79byCJNvyx8Zx9g4zvfkNQ/bx5YGZBKq5trgodnBjGR9kUAQ6QfChiE5IzyO+8AoGp3j83dytKUI/X6opTpOQpn68rbdfhRg9LsvwqQjdM2KpFuHCLJX5i6xbEXvHIEyHJ08fyfH9dAl+gdSgoCYMNWEa/lB0PeRmOy+CCtJoM1Esc9763kIfh9KeP09X18b3vWe3ZSTE0MLfJojB80hQhwwthwce5hoz+dphsgnHdFLwLNT0w+2VMLFmvpWKMPO/eolDygnvxR+/Bm/T7CpE0EqHM0JgQ3h7QnYhJWE4yA4duV+6tkBVY8HTX0DUAML75WG/3wYIh2CPeHQlkA0tF7MNTAsEArvvmjKqVbjRTN19+AB8jlbPPMba0pj8u3143dyYwjyiUQ5eZYhXhzRXo4DK2cabWlytsw0l7DeNJ2zvi29B9bqnON38mMYanOTOIgj9hkuZHd3OeE2JnRBuPP0QgDum/YwmozBqQYnbf8kHoTSI2rw4TudAZ22nZwbRubE0LUgmj3IYuwxJCVx451lk9SWhfTFZM1QEwmdW6zq6XFDvZsv4GenN8vLbqB3N/pyE/eyUxWvcz6NaIOC7fA5ZsiK4p6MwaakWQ+t5mLtZWE5sVq/Zpm2rJS6OSuRzu6f994TQPOqrul8Xxb3EzWY4dOztrAfDcOCGHJbS0NpYEkp6v49FApiGLQXory/5sNq4Tw94w8YNiM58/NcfJ2KBJjG80tU+/NiKLa5Q8cMlkB1h5O4m1fDEzNIfwA2xK4AGB6BJH98ZoaExoMLIx1QeHxKMy3kg+ADLw9LioSAUG+RLHipXHIBfjky9LnlQQAFU+tJL6noKGfDmuDE4FXC4cAfEC3214u0pOTGMGAlcEp2tJLSQiLaPm+qh6aWbPYRorB+OrxmwqvSvy5S586NoTsHN+WP3YmItbS5pWsi9TCxCG/wsJY6nIrEiF1eqJCfF0NwviE42BUT5TzZUhbnYI6yjTZYHw4sjebCUkFeRoT5MUROMxKJ3RWxibMY6+fNYBPn7gGukoIc+QSRNLULNYbl109jJlK4v16wLlIzY4qj26O6DYCDH4YwFyLhtS8lwhwZyl/BTRF21RQs5DqeAHMSnkoowiSUCU8nLjcLwdv7kls/jc5H8jqa3Uy0kJhRqRS30jyYieDKCD6IUJJ+XMaQVplufhVhlyNn+0sCNQ8JM5K41pJwTxdKm+Bwu4Sgsb/hiIhe3a/ybKnB9+rMsySMlpxPuMtdJmBCCXH2cwSx34mUMP4NKJzj9lnq1x+/LTQpefzvID9+len3nDsW9CYEeepunZTyUuoyIlzv8RTH5gLeEXJsk+N4nif5lvb9HTXgUwCNyL8jQ5jzHiFy+wKaBeI6XA+PFRWnhWVZUP/xj3/09cAVQ4vzOzlMyGqFiXPtZ1sDqdxXmXjy3CB8IkKWW6iOTMz0o9ADwIvErK+mfWCy6AqgBpx982GGoJ6dC925ckZKM8LcdJewfRnWOohueR+FCddHcvuQYQIWiKOSqO/7tmW7BM62PXyMIW7Xy+0o9CPAACNs+tPRt0ADzXmrSUmq7ILGJiZx2LXQjIhZs0k1WzwnRV6qBK1/f6S1LT1/56Kne4UsCTPRxsaGTUSIiHjN1gNZiFiSBe5HDG3C9ZeWZatOKEIUrTeb1vvvOIubMkYXP73M5kiREJIWxS5CcMaXMxEMiWMBYckljhiC00PIoijKqSmaRSRlvdN3q+Nzz7vP3NMjVwgJ9yiDm2L1XUL2bSR7jwuWZ1tkH6frDxmCm5fZWSS7ns2x5G8HpwUwzAHhowtZr9d9PLqE6TwFBP6XKoNgZLw8gsYGfStJLH8mEuiEDCG20P8DUG2NZMnkx8H4mfqPH/sXfvyo77wla6mJv/333896Lsh8UyXkDMh+u+njOq7scayNMi3E3ew1RzhiKM3AtvBrJL/VD0/tZn6jtD1/lVlk/mt2mguD+4WGjRr6+c9nyx3h3M9dc22KS9SZvmApkrPNbIohcbacHzNMTLlP4ab93/0/XLwFdhQ/ZHtO1vsqE4n8bXtGTcqQ/MHQ4L4+xCPgtlZMFPjP1cYFi8+foahr4IJxLNv3pRYZ6V4QeLrVZK0jhpQF0S8ViuLu+NI9J/gknk4c/4v8damtetkBNekx9L+SvxiT4St303kC6nNs/gwJFNrsbXvpyaCoPM+RkkRyHHeKYSSKliSIIXwk2PRgmMEsnTy1mlJ7pMKA/2PdUdP44xeT8CWTQC5YsSDAihl66ceEEKWfEbOrTwi4hLwAwx3U0t0xcytSg+hYS6m+bCaSq/8ZzNvc7QKcNghNbjleeoQgBQ+c7SMxsbJ/5VFt9tbvA0N3vnQojr8N3AXP3S4FcBT+F9ZePvLhs+3HHYWYUVFwgXl4AFFwXQEsqZ+4RwxVFEqaqHOW5cBi0RdxOqvveRbOPWJS7QBG307FYlKJGqiappkwt6QFPCbnUQTvxSuOegsMJUnSAw8XJjcQIi50k4szXANh/Tq0NA4RsJqs85aLgFwTfFougvEINo8Zyl9B7ODr4qqp7JMB3qbBZQw9RIh9/JMQZltFa4YkXAXv3t9+5yOrEgUzPExGBYTDL5DeTqNI81aHuCTED2ccZjgjfTBCrgUTGDTz9/S/LCXMcInF6rA4eBbBv88Ykkusn6Zmb77SaYOJLZChCr9+tM9QCtNagH6bLsowVhQl6cNQUrHYmvOltbQkCZiYUiaax5ShnTHE+ihSG4bwYI+hmcxNWTY1XyyGInKo3ST/ejkkltwjof8kENlY0TLrxTAxQ3dBLlJwIIqUM8Anz2Uo+1xi23Ykze2PNwOeBTyg/S5iyhIJiXMIvZ0aBxdrKZU+nMEEAiXzkAxAVtPdaCkRnS1DWbXAis/npDQ/r/3hwwi4tIy2g+bviLjlTVw+xu1hKow45Pt41LhAQGjSem3zeJ2QbQ3PUFM6X0tFAWOmPbofagY8HzPWw8W0HUDs5LZJAe9XUF3XkcB+iEtenYX9tD/qtr8emZssEPFHexmA69fSTjL86QTDzYeLsjSES+LVb5chH8CKhxv4eFW7veWWeDYKfZbn5zbMukdyM32QittqHa39E2/vWhruLIZaYQxlrS+7e/uiQAt9TkcIbOlMV73U3IDj5Tgm2BUUeFsHzNSxVxbCe8QZRCiyF6RcdGyVZAfWyZkuZw/wLtZ9uyI6s8KOoF1aAtrZBIRbNQQLZhfCtnSdcAz81JYGvEPsdgytw2T8B22fEujptd2rB4ReuQdYnghgYX8SIsXCGuA1wYtE69UCw7xdhILgJKTw0n/6rBC1BdDMCopNKgElFCzc1Y30P7d8ZFUiNamZeNcc6LsB0T9MkSAi26xmO6CNss2nHcHBTkOiHDxGkW4Wp1m5ItQSmPUI1ilsKJAZcfYpZfyLssMAFzvx1mucGKoJb+edJLo65EWbtJ0Q79OPNB53t//tIDtzro3BSpb6txNgCmTq/aUV+d7M/QtPt5eBnrL4JUqUKFGiRIkSJUqUKFGiRIkSJUqUKFHi0+H/AFmBSg3BWObfAAAAAElFTkSuQmCC;" vertex="1" parent="1">
          <mxGeometry x="456" y="391" width="75" height="75" as="geometry" />
        </mxCell>
        <mxCell id="Na29aNG7F6KIejRiTE2y-10" value="" style="shape=image;verticalLabelPosition=bottom;labelBackgroundColor=default;verticalAlign=top;aspect=fixed;imageAspect=0;image=data:image/png,iVBORw0KGgoAAAANSUhEUgAAATYAAACjCAMAAAA3vsLfAAAA+VBMVEX/////0wCoADAac6kicqdjY2OnAC1cXFynACxfX19aWlr/0QCmACcHcKh4k6763Y6kAB6lACLAvb1paWmtucf62n7o6OqmACXf3d1Kgaz9+PBjiqoGbKSvsbP28/L9//9zdHXV1NSXl5ihn5/82GSrKkLt7e6jABjNycnr39/67dG4Y27a3eOyTVvPoqatNUnfx8ioGjfl0tO9c3zTrK/BfoaqIz2wR1fJlJm0V2TizM2Dg4TYtbfMmZ69xtPq3NzEh42Jobr657j70S/39//+1TigAABXiLA7eajKztedrL+wu8n91lD56cn43pr646n47t392mr55LBfVYpEAAATfElEQVR4nO2dC3+ayNfHMVVEJV0wjdjGDF4alFoVb/GaatJb2mZ3033/L+aZgQERGRhw0PT5+/vsZxMbFPh6Zs6Zc2YGjjvppJNOOumkk0466SQOgGNfwR8koKP/l07I6KQOlmA1WrenJjYOaPqRL+hPEFh2FOFMkuRxdzjsLue62URVjtNHJ3wEqYNxXxLPTImyojR7y8FgOR1ObibDqSLO7laHa7LvgKaVakjlkqa94K4CLCeSwp+5xcsSNDxR4AVRQSSl3tBI/g60j2/ur76nKy6lv1/dfyq/QHj6ut8UzsIkKM3+cKAmeB3ln29fVSrn5+evtnR+juC9/vSyyM3bksyHQrMsELbdbkJXD369hcheEQXZvS4nc+oYMmZNkY4Ztjnptqvry3FnbDC9jh+PQcxscq9LTE8aV/OOHAmaaXKyAH2GqHzrMryQn+HQkCqPPxieNKb0thQZmgtff8CxarA/K3ZDDKF3XvnE6JSxdccr8aFBCUIXLJmAq1Wsrv/qzZvvlTCDO24Hp3ckSkdAtjeps+yNGPjWK2Rj548f0e8/0iH29n3/88UVuDOEsPbJ84IpPoCuoPDSbO8hhGaSqny0Xv0Itre0fdzhpU1kkQSDh5FtUxSkJt/rTaB6N7wV95LQKfxyz8spIVDnV/bL70H9Wzpdud/zdHG1uiF2aqLUb6+XK81Y6oBTTcGR6QqOsnqCpPij45vr/RqqhrBVftov78nY0hDbhu9hZZyRLEeQ28QBlKob454s+75V6mj7XJCJ7fy1/fIqAFv6aNi6BKOBkewkLIQdTG98wSm9fTo4E9urNA5ly8S+LX08bOra34HyitSj6aOAMZF8wIn9efxrsrCdfzcNvfRIMjaT2qujYANtydfSxN7YoOygVKPnQ144i89Nw8Fu+v7Hj3vvQH6rgZo6PDbQkf1ap9i8Gxj03RPo+kQvghCbm2Y3S5QnIvZrNrfDW5s22XWh0EF2htNRBGpQq8mu0QrCIO5lhY0M3LZ2eGzAh5rcG4E44cN4t6EK/Zj+9IVjm+1QE+Rp3EHlSNjxDGIv3odpKDXpI19qB8e23mlYYn+PpJnB73CTh7HiXvDWX49+1A6NbbDjDYS9oi1u0N/hJrHMwXFvKhtor46ETR16miivNO/2u8vVDjdejOsW/PTLCoO3bO3A2NSZx9hkYWjM98yWDXb6N3HCsNSAsXmFsH1w9C7JohBnbHdsorDeaxhpf6rg9afSlOZ94MfP1+F660sNWZv6VLCVevqPwY0QpE627EKardh87sjrZnghvL8s359XCM5zx5PuULMa6fvURoWvfydlcVvGBsMOZufZcc/KMOQd4HXQUIAcrxGxQXD/sLodj2au0ZB4u8ewe0cd7zhLDv70Umi1IJiaH7ZU6i+m9qbijPXA5UXlCdOJMHrf070Fm5tGTHDQQSNgK/zL9J4m1k9X8CG1GZfVR02PuYkBXwsIzHjTUPPHlko9M7wlwwqjVi5q8QL5AKntTTMVFeha5TX54Pu9urUgbE/M3QLY9D/NgFuKq5VTzhHQvLhmb0C054/01AjQiNgKf7O9K7DuOcYmrdl+tqU1jqT5PuI1E1QitoAygZcakRsBW+qJ7U2NNpOwkqHGaXbQa8ZsA4kYE5LLBP7G5ovOrNX4YEu9Y3lPoLehNmb5wS7Z5iaZ1Yg2MQKh7tnSZGpWnfS3DzamznQTx8dM61BIx+YmdNAk6QFpOA8ew4G5sfmr8gZ+1GcfbCxbqeoYm9KJHnkAfTUwBqvQ+bO2MxX6HXhKUgWMto0GQUubkxneFXywpRhGVs6oSriJOHZXjemsL8uyJMtib7gMfLdhp1d4CZoaqUT9iwm2t/DTn/2opRj6UmdUpUQbUel3N5JszneWpCbUN6EdkEoDt3YM0jTgK8KRAbMUqKk9mhPc/vWjVniIdIckIU4r29jkuyhvBWteFuCQv9lrr0fGfG50xzP+W0DaZCi6z0NItb+lwWbzIdCrmEnKJ19ru2TRdwN0A2M7ZONvIswLmqMCsiJPurr7QuZrfk16h+N4pBl8pfu2UhAyc42igaYrj+ij/dto6j0LbIMRvFJnnM3fUneY6hRamij7TKYHozZhvGkXKsQ1mkUDfI/S9sZ2nr5Cd6H6hR9QX1lg0+G1L51htkTdSNWxhKYe+fMBS/+GCm6s70eeGqiF+r5ZD/cIwdAqj7/MC3zwp5b6/IX2HkPkOAThhtrY1tKZEtCidV+XamePhZ6KkPmeLCz+MJdtkPV4hRd0fPCNPhhi053BaHNE+x7YS0mzyHUG1f6CZHLlNXAcD5Fd3d//ekPQr08f8Veh/k2ilvrMKHC7s8MpoUf7Fq0PG2iMU43sZW7kNwdNyq28pVsbpL67JEFjhk2d2SMEibb6DtpiLGrcyu4OJGL7JmM7f6RabaC+ew6AlmI1mHeykwEmsC3Qk8UYYzBuk3bnyfNAiI20Yk0I5FT1+eHfS6J+PxWI7ZNl39a126hMWytvy/xZvEqDbW3ChBgFkFzCuRlVcOrz5edUMJcQscGmdoSIxgYHsOQ2FiwHG9naSAHIo+mAnn/vhczExiTDs+luKHs2tSOKs5in1u2TkQswhFGCOcgkxmJRxKacoOEhAk87XW8ghRU5yXKwyV0SN39s52/R3x72NrUUo8EVx+FUW0B3s621LM7insvBdiYR66S+Q/kKivyfWVBL/cMGG44/aFnAASx1oLIj3SkykwNe3wJMBTYF1a80EFmMEkd2zlUMm5WBtZSt0hONdo5zrC3Atn/6+ASzjX5gQY1ZhRljU9ZUR4OJQB/fzbzcXH0b8V01P2yoDvUXE2qfKS8+THicSDkztNs8k2lHrmAnDTWwAxByuc/PJ5h1KNU/6xhVrKbP4L6tSReKrZUIfnRnfwZcTeB7QbPFX3s7t7S5sM+/oBJZrEoJOJlDWUWATTpo0su2dr7YroQ7hCDT/uRppShdi7AxofaV9trDZKUO+T4djJ7An8U/1x3u2e78E+KWPIVSM8t9z8jaWPlRTsXY6NLhKsTWj987rMzalTgEgbs1bPlSqzjAqpGyKy5b2Ghzbfth0602Og7+BOCeFMgUG8MJRxhbhwoGKt/zVNO8fWUljsy1SEHm5lSY7YIeo0ZaYDRCQLKwUQZjCJtwE/vkU9OTymhfkMAs1euK29ZYWVuBSYkUy8KmUM4z6gjUVcHdo6wSDM9rIdbGgavtNRpssF3S3SKdLGwBYfuWhsoZVY4S6D71vLlpbAoy7JBdQAGyN1e9eP9GynpdgoVNogz9Ub2mSTGUN/yK7tacajRvhgvNUv1KV9LMrK2QemK9KMEKd2XKfO0SBqxBs5WxVrrPFA9rgpvYRt96+F5h4JNrP8AAa7v8K1T/PHxgPoUb922U2HSByuuuBrsrdzWXsdHtsqWVPmKVyNhYzpmPIIyNNiWOjDNgIG7L2DlkLSoblx2j7kXAVjgqNpE29Yg6N8ok05ZWeNm8bPJkhy314Z2/op8hkrAnpa1FoZQZdd3BJWuSlqh0zFcMsRV8lXof/QxRhPs26iSa6Q4pnIJXyJfAMbyV+4hTm47oSX8nuvDWsTbqEdMK+kNe2O3djPFwOGwT6aMBggh9Sez13hGxJWxtOAChLSXAIBYtDvWrlILltEOkZqC64l5r5F8YNmtCrdCjNGqwMpd+0C3bdjRCu0PTz2jyExW2zfyPpLHhibvUljAHA7RxMbUP4ZwNuqRJrAvEosD29PDwYBdqku7b8NQZqrE8QDamm4tDI+xKgTfoktajfaaWhWOzEhx4pjPjNWk7WuIZRzTFBDCxWN010VoWSm7Wbo28dMfttWNBKDZ7LrM1UYRVYY8kA885oypdrWacjm4euQXhjCpEXprbgPC0ozeiQkswziK0g2CzS750dbxRlzNnvUxhbyWIYcGeBoC1qZYg7L25eBi2grPTR+EQ2HDgdqZQNSF1veLWiNsI+gVeHgb2VgPDsLZwU3oMtufxW6/nll04tjo3ZpU9guxV7ArdnYE7DqxRktHg4fvk/pLssQxRMLf2ZLFZMdQ/YeZmDUNVa+Zu0p4UFdqjpMXBCnLTYIte9WS0nS5pY1Qwxg9YEAU2O2iBUJ/wrHIqpsusIErUEq+EEukdHZjqXcCBYZM3d5TdCSwAmA/xFu5Ck9WWP+p/oSHI+8tLfEzSbdTxCXyk3V2Xc9TDjcxdOwWJb49WdqNQ9VEb7WVp1RGlKIvfQkTBzdEBsnB4Fgj93A6k+Wg2Qrt2mjbFi5JyO2mP1+NhpydK9t4VotSjTqzQSP2PEtpBcpe4c4uYDQLTb7M5p3UETAktxlUU0d6sDZIU22wfaQL1TDNbq3CZdI7SFF7yHWFVpKVB51u7u9JGw1tFgrycCaYQoCz1210We795pX54H7wsoVC4fE7aiVqyF2NH3zPSmHzrm+u3l8PZ5FaS0KJ5SbrptO/23WKQLPX5v8vPJHKF3w/JbgzoVtt2CpHvVTVmzSHuE4G2GkDpINYWvZHOCt49XD593WJX+Hr519/vDseM24QgykyLflp9jJ6kdsjLtaSq6pcvz7je8uULembDgeWs+hbFm3b0KEsdTGez8d1yvoKWBv6HHlbq7DEAh5m3saJTsBpNh0MYgnST69VenOauvSPFzrGv5o/R1hao9Eu//+fVdZnbbXSHekSVr6vHe2TfZiuQM2U0iz/L9OAq5rMXR3zS4dTZFVscq3uVSg6r62zmmNj0zWPRpD/pGcrF42Ljpk7vFroD80sSK2sD5K0yA6Vterf460UPpXLN/o2RtYFavaUtNK5YjPpOZxeVKHv2HEOgUc1f2y+YNVL4iY0W16iFH+m5mhsndou3N8qhVM5msolgK7bKrcjYXPtXUy+0PYpKmSSwNeBn1RqlVuQ3qp2tzfxerJLBVkL/lcIn/u9qs6k49UzeYygZbHto7eytdcau3sRcW9iOHO6a2uz1HGX2GosTt67ri+pi4XZkoLzl1mpQ1s9iJpOrw1fmU6ltawOlVrFY9ACsNRbV6qLe8gQGoIzOVl00ondk/nKeckVbomeicj2TN5XN5av2I7rLF/m8+7bgyyr6Wc1nM5AbPHqBXiJsGvyEC/T2bHbhesJ3DR6aRf+cv7h2fVC5cYFPBs/GCJzz0JbY+/FEllZHN1a/brWKi2wml8E3Xstnsu6bqmYyVfQT2gnEBi1zUUcvEbZWHVK8gP+ey+RyjoVeZ3PZi0ax2KhmM/mq3dWX6tl8dgFP1mpc5DKZfOTw1l+d8D2v2KoMr75qN6MWvJML63eILe+Hbbdvg6aXaZQB+gKyztu5BsTesH4vQpxV+9dcpo6bMlggu2XTMToPbUluS/ZtFfOZ3KZlQePJmlZEi62IsDVsW1rk7D+18q6DWvBTzSbN1XP2p2wfvrec3WTZPmmPKHjfLmyITtY0AFIj3cW2aZfoTxmTD7jAv1hq5PB3sI0N4szVGd3HtGkXYw4SvHmwXdsjJ/pG6g5AUL+HmiO04ayr2yrl7J5xCxvIsMOmtrE7FSi3BtlPHmy1LDYTemtzY4NYTGwLiM8d8C9wL5Ycts3jcMVOrMVR0eTBpmWwvdD3bW5sDQsbyGTceKxWiqwvQWycfmvPgm4nPzj1YONgp2S+3gtbGfpOV9dmuRr0niSxbR4pquy13IdKPtiyqI+P10gxtlrOw8Pu/BPFtnmkKP16ybjywWZa2V7WtoOteBBs3Bxzo90xKr4SsTbkOQ/fSKHm+FHTiU9t8OvbMLYYAQjJJcDDEncJpuxHTcsJD+o92FDAmsOeNL61oaNz7gAE4jLPkjg2boX9qTwcJ1ml98ZteYxnP2zIurbyJ3iwmjw2Tu9Zca+oJDmZxoOtntuMErbGi5EaKVfaHjY5VZsDYLPXgSbrULexlTN2UgLe+Fb3FM3auPrWx0JaVmbkENg41V7/w0vsnsPskRka2IMRUIXRPEaC0hONzWGbTh4O0zexLAmbBptlFWwOwk32INjsZS4oHzJjsEbPTyjzk800asj/1SC1rE2kDHu57ML899J1Ne/yjY3sptsjYYN2m8vhVDHq6PB3cSBs3Kpnr8j6lkxDRdgW+Xw+s6jmIJv8whkG1zIo/ZqrLlASO3OxwQYWMDhZXJvkivltbFkbG1eu5nPZRb0O3551siEebN6omJ3AWDIjESHuZv8hQtjKJTO/n83nq+4ktYZrDNmLehE0cq5RJrQ+XFooZi62sMGXYOsohLzhHFHPXFQ3R4OLi0xC2DjOuDU9qtDZ2X2YhbBLAOVisdgqe/4Iaq1Wq2zedN2NDR5es+YdeGame16WW+hDAfHvic5rB0PT4ATpJoHEpXeUQBLElphhJKX5xFrxLo91wqP3YosW2yLHKu1/SHX7ZiyiCO3lmCk3WmzVrSz3HyOwtsCJkjxhyY0SmwZDExq6L0/a9MxyqgpLbpTYYOxVZXfSwwp0e0205lbpMVr+ztFia+WYFdCPIqMtSOKZyHdZRXE02Eowis3/cX50W1p3JkpKszdik/cNwQZKretFJpvL/4Fu1Ct9Oew1m9JkOg99KHqoivlcADbtIodGD868jT9dYN4dz/o8fzMbj4x97A606kHWVs3mFnBotccJXpxUODjR9blhGIO9dhMIGuBopf9XyE466aSTTjrppJNOOunF6P8AkZJA19OM9i0AAAAASUVORK5CYII=;" vertex="1" parent="1">
          <mxGeometry x="454" y="551" width="81.78" height="43" as="geometry" />
        </mxCell>
        <mxCell id="Na29aNG7F6KIejRiTE2y-12" value="" style="shape=image;verticalLabelPosition=bottom;labelBackgroundColor=default;verticalAlign=top;aspect=fixed;imageAspect=0;image=data:image/png,iVBORw0KGgoAAAANSUhEUgAAAS8AAACmCAMAAAC8yPlOAAAAyVBMVEXh+f06u+Xk+v7n+v/g+f5Uwefk+fp/1Ozt+f/n/P4xueTh+P+J1O4pteLj+P3d9fy+6PkeueBjx+jX9vvP8/1cv+jl9v+04/U7uufe+vskteAtteU/uefs/P/p/v3N6/ir5PFsx+djxu57z/GK0/Ch3PSz6PTY7/2Z2u3R9fnr9fak3fC35PnE7fRKuuaW2vX09/4rtOkyvd9NxeFnu+ae4fWN3O9Etu687PBwzufm//jF5fZlu+iFz/CE0OBYxumByfGj2PVlvd9cOTZ1AAAKb0lEQVR4nO2bi5/SuBaA26RAk9JAoVMa0gY6DwQRxo7r6HjvOLr//x918yilPFZ39irizvlW9yekD/N5cnKSdhwHAAAAAAAAAAAAAAAAAAAAAAAAAAAAAAAAAAAAAAAAAAAAAAAAAAAAAAAAAAAAAAAAAP5vWIARQ6jtneqG5naOd7L7/WASFk8UQ36a2wXJK3W3uBcEp7nfDwfx9VhxfaoAwy1zO/y7+mrjFnVd2iWn8cXQhbpd2PHB198CfD0P8PU8wNczweDrWSTg6zl4EF/PwkMt8PUMwNfzAF/P49/oyzNUHwLPwdj3kcO9/S7yALe573MHJzwIzDlsewxPsKoeMPGRvpZu5d5RX+pAjjBGHv8dHB76QkGA9G/7Qfqv+qObm+nslS/3TiWSj246nflsIUnASKDPe91oXU3nt7fLNzEm9qKSeUd8IdJeLefzubqDbP/kzv4Adn15HiNdV7GOlijw2nJ1vRZChOq3WN8O84BVpzEPk+lgTMOQqqbWbTDUZ7l9aznwcu/eDUVIaUTDp/fko7nmor3nC3ks71/pA/Udxk9L0ubs+N/zXNj1FQT5Vaj7JtYxYm8XRZm6NRGdytrX68la0E0LHd919Yex9RUEZNWqG10q3l2b1iHf8xVIXox3DlzJM99I3PNFCqEN0T8QD9B7sbVlelXe59Vpeb9MTWNmDxHm/5Uvj8zGH+xptjUzZ4fD3fzFOF64Wnqqf9mria/SOes01vSl4uLB9IwWSOUanBoLURSJ0MpxyxE2Z6GYViqzRgBufMmPYWVrp1UsdvMX872LKrj0uLZ/LG/8sx6RO77yB2OIDqSa7xy0Ks0gWXeWy6I0LenaDhfSSiM7EGkr3XR1G19RVo2vdEC3rQe+SMuGpbhcrlbzi1C1RG45259XzoraVxA47UFo0tQgr7JLN0zLhxXBhCCyLLUEOvVV4JGpCaAo7PQJ8XvTQmRZ7Yt96mhDWZZ2JwQ5i+VFacOM7o3HfG6cp60eQQgRslrbMXmiRwn/jIYvUtg0M+D2aUSCcSv9mDv6UxD4cxNtRa47vba5SalU9RPz8/+kDV+xkZm5PaIulLz15dSG0b6voTD/AgOCAxO1iP9XfZGKW/JrlXyTja/cI4XuZxoWTvW0i3kMOYSbJyGq3JS204Q57b5Sl6bio66oHMbUyIrL2he5MXqyYdvTRSxDgXxTHuR7xuWjzoFijdpVccxQj2ph2Tk/bKt9caPLDQvMjk5QTJq5IOoph12hu/Xo+5tG7s/rekKaJE7ned1rL7+iB/Mj5yYky1kjmuRcq6bvyflOkbWvajB2Cdt5NqgWKRwRLCUedmtf6w963KxwfRRTE+bGV1CawoBvn9B5/ujQl9MP1YimF5IxtKHdM/9mT/n5+/pscm84l2i33cvfotWbebHObHmqfS104qHuzmVqX2hifD01wiZAR3yhG+PmcRFvWcQtM5TPOIFZX24Zmtw7J3vFD+ndPEUhLV1KbQmmfKFZqeSmD815v+FrqpObitNtY8AOfSXEzKLph7BBZOZgV5yk5/+MyldVNs6aI4ExH99Tum22vpiNFnHfjIKtL5vuxbIRp0d92XR4lPGrk3X/2ez4cu9eNSRwP3ZFutcX5Yt929et9hVOvxdfsvPXviYn6/6z2fWVrfmnekSSlbGVulGa0lBkm/FI+mYkfcfXd+KLbeLLjMB0h3Kxl0TPiNqXGXdZWZB6E4pXEkPRepj2X6FlNT8i44t+09d3x2Ng4yu6KC4Vg13OuMLf+IqW96GOJaFWkqZO8HJTUmXu+iZGeY5VYtr4MsVpVhz6CnW+X+qo3M33x+ZH/N581yVSQXbgp3sb7dlUvsRM+tc6MNJy9NrkfA8PTBhdIjsPclnXX54uLbJs5zJbXxOzzLn8jq+ErcxyonXGsXSMqv7qvPY4vlCBEZUiNiOSESMy7XHPfPa2vvInYevVuq/e1pfjqLV36pYOqge2R474cvidTojl5PcS1tjPaQ9tRl87utesbdY1RV7lf0/e1vW9XXo/kG1XZVH7IoVJh7f+9omAvHAPxqNDOjqey3fktxLW3P+y+3yZuNQjkMm1VjCQVUXWGI9kMtb9F6NNxYrMinLjy272jOPNiET5lTjiC8WqRqZZ+bgduYgMyflOjYZ6/ag/kBuzX0+v9aaNtONxkSdqRRlgchNV9YQaqiZe3HJEpL4C6T3YDVXjK5EtvRuWpSvie4Gf5/HAzsDaV/N9Jtmx+7dPC+InCcMo593yQWL8vb/zr2THl0PsBuuHEXYwMfNjREe9nODF6GK8qb8c77UJxDu3HNz2V/1lJ6p2640v1p7pjJ8JUbzpx/1pEVY1774vv2eeCqxpOLjpDxeL0aVIS/GAfiNfCX8n9F5g+JF4QTw2tWRIW08tuum09qUC7NoW/mq1FIbbNYDxxTm5DG0RGo7HIqwWnoe+HLTKqo1rvX2vr6P+o8UZr7YPfLEVrfaOUSCXY9tR6m6XAMaX4+A/QvcQOz86zLmgx1r3fTn+yj08UEzPOoXV+6v6A0v8kbjTa5ILngT55+byUYdJmqr1oz4w8R7CKErrFhE2fDmMD4S7OTV1MxrVvnDz+aOH43eCNm+RibB71uPRUx2gdFy/D8DldbnOdPLBScKXdBNGNFxfjmmWjYdVd/x5/aRVZZ3WG9rw5eiSYyMioqKY1/UXN7fr4MQe1/aX67I2loqyiP3zfisA318VXx6XG1/Ma99eXV11r4qhkyQy7qzNzlQ2mPLVly9X6uuqHhvKxdz87MF4nBUzEu/6SmTv1rSGofulL2cbX07y9ap4/LLc/LwC80gwfYj0LUQ0vujGedtLTq3geZglG9r/glRZV8rhJJ7EXBJVHW2/1jAkg34cr2JCkvaeL32ZT3yiWofEx75Zqo+1L3uVnQyF1D3ieLFa+Dk+62e1fwv7dpN3pAhXVVnAdFsSDNuTA18qGZpWyVjlq/cXt2As0M+RkL7iz+jCGZJPja/V0bHEX5ulQXjmA+2U4EdjZHFUSZtcmqUCOt9tmp8ND7hs5JrqYW5m363ByhBBjTcIe2bVcJm/XF9q8Vc0sna+1BUWrTYz+Fuv6JKkrqPyrn2Cu//w6aXAPJ53QnHJzXwWeJyszIN8MbW+2t5TKD5z+8Yrc/LZ2LTGzgv15fFqL7aPfc5lns/uzGhsVe38na7h/5xgH+c5D+5NPSr+/K32uX4o7Xn14lbrfjSa3pvXuFI3nNpFKPoqhNmfaM2n02l3LexD2NV51+0/EZ4MB3adRC0muspis7W4uBDuttnOBOW9/+2L/othDPNrsb+tMGgnVTXBvGJ/26Hs5Oil1KJHIdM7kZXbnYXwqvE6BcLdyL5BV7ks52f9kuUp8IedcFyNRxo+fZRJI344WXwpw6pxLB7jl1pKbPGSnI+uHwaDougs1ZLbCxpK2g7Kh8vuQLVedWdDVby+eF8a7EtCfB+TY7kcfSI5IXkuX24dcQgLApaw4z9iwNT3QYJf8CIIAAAAAAAAAAAAAAAAAAAAAAAAAAAAAAAAAAAAAAAAAAAAAAAAAAAAAAAAAH4V/wN2QuNaVJoUSAAAAABJRU5ErkJggg==;" vertex="1" parent="1">
          <mxGeometry x="850" y="649.9999999999999" width="83.96" height="46" as="geometry" />
        </mxCell>
        <mxCell id="Na29aNG7F6KIejRiTE2y-14" value="" style="whiteSpace=wrap;html=1;strokeColor=default;dashed=1;dashPattern=8 8;gradientColor=none;fillColor=none;strokeWidth=2;perimeterSpacing=2;" vertex="1" parent="1">
          <mxGeometry x="100" y="165" width="200" height="500" as="geometry" />
        </mxCell>
        <mxCell id="Na29aNG7F6KIejRiTE2y-15" value="client" style="rounded=1;whiteSpace=wrap;html=1;" vertex="1" parent="1">
          <mxGeometry x="130" y="140" width="120" height="60" as="geometry" />
        </mxCell>
        <mxCell id="Na29aNG7F6KIejRiTE2y-16" value="host" style="rounded=1;whiteSpace=wrap;html=1;" vertex="1" parent="1">
          <mxGeometry x="411" y="128" width="120" height="60" as="geometry" />
        </mxCell>
        <mxCell id="Na29aNG7F6KIejRiTE2y-18" value="Docker Compose" style="whiteSpace=wrap;html=1;aspect=fixed;" vertex="1" parent="1">
          <mxGeometry x="130" y="243" width="110" height="110" as="geometry" />
        </mxCell>
        <mxCell id="Na29aNG7F6KIejRiTE2y-19" value="Docker run" style="whiteSpace=wrap;html=1;aspect=fixed;" vertex="1" parent="1">
          <mxGeometry x="130" y="371" width="110" height="110" as="geometry" />
        </mxCell>
        <mxCell id="Na29aNG7F6KIejRiTE2y-21" value="Docker stop" style="whiteSpace=wrap;html=1;aspect=fixed;" vertex="1" parent="1">
          <mxGeometry x="130" y="503" width="110" height="110" as="geometry" />
        </mxCell>
        <mxCell id="Na29aNG7F6KIejRiTE2y-22" value="Docker daemon" style="whiteSpace=wrap;html=1;" vertex="1" parent="1">
          <mxGeometry x="396" y="196" width="180" height="30" as="geometry" />
        </mxCell>
        <mxCell id="Na29aNG7F6KIejRiTE2y-11" value="" style="shape=image;verticalLabelPosition=bottom;labelBackgroundColor=default;verticalAlign=top;aspect=fixed;imageAspect=0;image=data:image/png,iVBORw0KGgoAAAANSUhEUgAAAOEAAADhCAMAAAAJbSJIAAAAzFBMVEX///8Apv8AbvW44PnA5vkdqf8VcvXd8PwApP8Aov8Aa/W95Pm54fkAafUAZ/UAoP8AZfXx+v/p9//l9v/4/P/T7v8xsf/N6/9Puv+w2vkAYvW54/+l2v9kwf+/5f+hzvk3hPaAzP+W1P97yf90rPdwp/el0/mNwfhHjfZ9tPg9tP+GufhTlfdkofcqf/ZEifad1/+BuPgAXPS41fxhnfnH3v2y0fwSePafxvvX6f6pyvxuxP+Vx/hNkviByf9evf+iw/vg6/6Wt/rP5P1OBfewAAAQG0lEQVR4nO2da3vauBKAa2PAd2RjIIYEEsItQKDt5hx2N0m7u+f//6cjc/VIsj3CQFKz8/RDC3bjNyPNTSP5y5czSxB88ep+0Hj86dd93wuqpZJN/yyfO/XqH9WAfv3rSuAFfj3wPfrXcGoY5c2nlJCKVnHJcmzZpTBstVqe9+txUrB6sHvu26ahKApDqKomuR9r9vqfYanbqP9ClHUv/rSNNZ+AkDK6y9Aq7SVsND7mgaUkqHse+PdDTVeSCCM9Diy7FIPstj61Kj0f4lGe6UaBSYSqSiZxNW4g/cs/OkaCrw3u19/RdSWDUHXUHkSkMpp9PsjWXe2B+7C/V2AKIZ2N3zSG0Bp8f//twgSp4vWbNeOG+/ixpmAI6UgdcIhzQipPn0WRjVeF6qrssZ9DwDRClQwZRNtemKprvvzn0jACaU3Xc63WYr94NRQ0oQBxRKI5Su4/erB2pxtnYHCT8AFqMINQJU+MubGeyHqSthcfybjjU/Qma0ZvWcAMQtUdM4j20twYovb9fy9OtpHGjbHzBQY7RlsGC5hFqDojiGiPnJ2xJcuPmI/+3Z6PH6NVji+b0KyENkDcjtMN4/zvC/MF/QPf/uH34pd1eULVXJQgorYwDxomg4uGc91mfBTWuszXNwLAbELVnUODavdI7Fuyutx09O7ALNN/Mt/zVgZHqBLG2lgvTuxbOlTrlwHsGIyKmJ9b5a0MklB14FS0Q3iZ0/79AnzeHaMho89cMRWNUSThhFHik8toeV49N2CHMyJlxgL0xSpEEaou4/itlQkvcCp/nhfwkXt84xZe0UgAxBFSrwjGqTUmzAUmeT4jX72Z6Mj3Uk4ARBKaC2hP4x5jp+fVH+cC7Cj8DDM68JqvSSpEEqpkBsap/cYqkf4WnDON1AfBw+tTeI2XxIcmVFc2HKcTTolRKnIGvuBGpB1Whfw8lSZ0B4wSXcFFZMmlo3ml3hT6gCa8qiF2FFKEqgqdonUvUKLqnHoytgRTUOEN6c9TEDovQInWWKREOhlPmm/49al4+MHLusJwTVqHpAeUqK2EF72HJ6wfRxUh0Qxjw5lETyFHaN4Dj2HNeHOqukPNLnGVk2NlE3feCkYgnO6dZDMjRaiSNxiecheb6iZGZ5OaXICCucgmvgkBqTyhOYFKHDAz0VntisgnQTxkDj4T0ugwqRBULo4kVB0wE9kUw10eUuUTIAIK4PT1O3ilMO89knAOzKkWzxNNByzm5EZkcr9uLLUw4H+eGHIfQcgE4HbvQOiuejByzYnIJdWx9JCJue/SVShJ+AyVuEuiaGbBFHNyIooWDrrljbIYV1FP84XShCoBILtM2F30NBawlMdpdELRp8Hjpo4P9fuaoUJJQmcYV6Jtr2v85tDi+WjQc3Sq0eArFBtpTWuKDteaUpKKowjVCgzd5o5JJiNuoTH6r2aue2QA59Fg23gUfxcqNZhVhBl2RprQHQNb8/Z99SZSoK0NiGpWjluHWztwY5qQpvQD/uJTEjJevzSzRAq07ff1+F0cA7hdHdPLmAC3mgkoS6iqTMVGwFeyRoutCZrLAx7KEfpt9tWi/D8nIZMJi0Qbq7vckfwjC9iNPbLxmrVkEKRmFccRmgvBtAMj1HqOJR1EsuYPF4+McobLSU0Mjx2lTJqYOEJ3Ov+fFCFrOHSx29hJRkh6HKE7TxmmtvakwuqGKWVt+Gll3KStijyWa6e2pU57kTIRrfCdS4vdAR5QlAfpCd5/d8tjmV2wOZ7QdJzVYKQlAtrWN9PhbyPoFf+gKXxEo5nuN7qvqZBYQtMhi+eeJnLv+xm4FNQ16J0rrONPKnrq+kN6ldLrPDZrSZQYQkpHJs9vpRQ8+t1ApMD1OH3BAaYYRkPJ9I1+SFUposxcx3dcshhSujQ8amHGK2F1cS1tlMvwUqeT0USkY/XwtVnWGc7kvraITV0thmObjs1UD2FbvXvhAN0JwYzTrEy2doOqU3rVbv9uWq4ZFHSdbbGEFMyhaISslvPZ28hOm3n7CTgnogL4QZz37CfLqCcpkVXluxCTOTu3/R93N02lpgNCh6wm85fnp3FvFFpWhup2gIkTMKbEbHuanSQoekJKlS5+nDDKCixrjYaC2xAOk2fgfsgvsiJMcR8FFHbBSUqq2SRJIlpL5JU4S//5QTafwjVfXIwwRMR6qpNubBBZELekdjFC0ZI3L27qOn9CKwwU/fVihDZM7K1hpqWJxmlakpG2/rcXA1TggmZfapULT2hb2uhpCUpu4qVEdphOkn96F6NCxQBNOy0apjX7+D4eJCHFC2f3qkvitQy7hDA1qckwJs1TmGXRdbUjgkSaHwRh5EhK35amS2edC1ozxIulrJjLpB/eQngKbkFmN7CNWvNHB9E+kEEY0YW94YS4G6MCl7ytZ8xEVNtJ9VOcCuHafbxCoxv69KGbERmmEdKhWeoNJhXi7G0m7CCyZpiJmKjEKkqFSg3MOaaMqOtGmVKmTEshoR2pTiu9PU1Wrst4BDARwzaGUG2LzWlWyL0VuOQkqHVTSkO56Yf8JiGO0F6jRdsQx4OXisPRUSG/g9o3xiMmBeCIou76+eF6RdKCDMWs1co3P/q33aof30C5JaQq06xSOOq9Pb3M72mK4SbMMLjOZs1RE1F1Rd02j0jCH+CuafrFVJ1UoeXm9Obna5zQGr4vl/eL1RrNSdOLCTwizudHvxce0EfxsYYmPV0GrEqcUFMdkwrmYUELPyr4XiPypiCp8ZWVGohg0htMgEjXS7cCCsOwuT1FBKVFcX1NIMAbYH8vOQhB27Adonx+VHdjARs4V0ETC2AhkfY3DyE0NZqwj08gnNdH2hl26wFa88cTmpNjjClva7DPqcMaDVbzOQhVFxCy3fvJt0F3jLYYsIKBHtt5CNvxtgxcAhUJgf0LqMQwEv1YU3o8Iejjs0fY22CaWMc/KEgf+nhDk2OUgjUoC32nGd/udovWBazRoFWfh5AxprjIVGWqbvhBCpNDxOJ2fkImgcKliNF9sWGa3e6zJwSmFH9fHkJVPc6Yqs5hRmGW4TcCo9K01vwTEprxFNH6hiaM1Wt+oJ8UdlzKmNIchKA9Ch2ZRr1x+yfFRyYw7paISnMRxqtRyHrbWiq7B/XxfrsGnAU21MtLCN0FrpARSXuXB+N9hWIAUyrjLHIQwp5oC+st6ET8a/ugEgkCdIfpCf7JCOH+C2uJRtz7C/xTwiJNQs/GGQiBDl+wDpHKJvqWsPlwUcaXcfh5/OEqHnvjXT4dpv+RtfmwawhZnctPCGqm1kCCcJNfPOAfFDp83CrACQhhqYbbGpws2zQYuR6zJgQOP7vz+VSEMH/CE25MjSdhL2BFX8rh5yGELj/EE6rrBnCJ3FAxgMPHB3s5CUH+ZIcSttSNckTcsuhWAKGUw89FOD+moBjJOviWGWvwuCuJCXxCwlIJnQNvC8MSEQ1TLJUKafIQmu9gNR9bMo1+Ny+SzwkJpUKaXISwZCraoZ905ypAtdnvBJ4vIHNnTsJ7sM3rHU+ompRQYpAyYakUYK6YZhWfhpoMYTuQSQ6Zkn4g5Q5zEYJDCKR02P5bqmwNA29PKmjLRUgAoUxyQX6TqrXAtsvMPZXnIkSuA2/u/FMmwWdqiTLaPykhvp5IHeJfUoV5mDxJBUM5CUH6hGuq2RL+I1VNMr7GCTu5dChhLXKkT5HLvyvjRQFdiaEicSsVQLiqyIgJ0qc3U+LWiXC79jll20+jyQk8J0PqTn7H/WUILycfpcN/CU9IePITpT4Zof3l0oe8X57w0nL5UVp8HRZ/Hhbflhaf8N+Y5kyEF4xLi59bFD8/LH6OX/w6TfFrbcWvlxa/5l38dYvirz0Vf/3wCtaAi7+OX/xejOL30xS/J6r4fW1X0JtY/P7S4vcIF7/P+wp69Yu/36L4e2aKv+/pCvauFX//YfH3kBZ/H/AV7OUu/n784p+pcAXnYhT/bJMrOJ+m+GcMFf+cqCs466v457UV/8y9Kzg3sfhnX17B+aXFP4P2Cs4RLv5Z0Fdwnnfxz2S/gnP1i/9uhCt4v0Xx31FyBe+ZuYJ3BRX/fU9X8M6u4r937QrenXcF7z8s/jssr+A9pFfwLtkreB9w8d/pfAXv5b6Cd6tvrY0xTXDy/YC/+JSE5kQDMDNLxGjba5vqyFmZnXhNXTESEqVQqcEkMbsjWpIQNELR1PD76k0UBNjagKhm5ci9vg0lwcu3pjV2/SK7eUiSsAIrNHPHJJORSI3azHUT66NZ0glFnwaP62yoBkOApCWaIwmdISiy2euxaA5FarTGfwqeEiki5XfLmwHJ6Ddzv6UcISmBzVzb/gR30RMwZjjrdOFCNe+uxjzyTrIyZylCuKZW0lZbr2CS5xKLiEhYJRC75QMH7MT80siwNXKEwFXYvUOcTdWonRKQQQSOnVmiyQpOZQiZrVxavHndNAfxkZobMI7oN6GadKjgjBqWFCEISdk6KVkeRuoJAA+ILYVREltzS/f6Mvkh9PbWgKlbOKuedULAHeKt4PlhvJPeeiJBCHr1qA65i011bJ0QcOM0RMUbNiBIzTDwhHB/RcmaCWoW7lCz87kJBrE+FesHXpaaJuIJmcRQvCxK3kOpVb0s4ebgVolMYpW2/ogmhAvbNGQRVg9N5+hQTSz1pvDhmYW2tOZ9vA5DmDYJe/WclbBjJo8EN6Jxyi5DJZVaJQiZzNd+E6mQLM9xgpcoj4dnEKSmGFjCFSzsC3ffkyH/eKeQjmAyskr8mqhEJCGZMSrkDanp5Egm0qXe5J+fib+TPQaOEHYICRe23dNPwZjw84w1p4kBOI7QYaoz3KZfml2ckY9Kp8yO1DJTakxqxUURgobgiHDFqNCpnG2E7iSWIG6VyFY6EsJTDKEzYQDZznwyx/cmHS8ddgmGySETmnJQhNAVskmF0/79AnxfIjUCBmaDQlI/B4KQjBkVgk3NJplf7oDALjCqNTbEF+bC2YTuHNpR2LburqTr9nkk6MeHKusxfM4cYQjNBVOCiXsKhwwufdKqf3dg5NpPqjxg9jp+BU5Camb2KqQD9G/uCc4vjZs9o8FmaoKKRhahw9R77ZGz51ueOI9AS3e6XfrVm+wQ4q1NBqHLWJmSvT1ZwGzfX3QCMrJj5NukHljEdELCuPrdGDXbC4nV+bNIa7qp8XMVhVdDgpAMNUaD61NoHHL/0XyRNF4Vgz0kK5LHGpqQB4w2Vrjmy0fNP1a8frNm3HAfQ8QUQjJgAEvWnJDK06XPx02V1l2N71gEQXhyX5v7jQMcfH//DMMTSvCV3wbU0fVMQkftccuCo9mnUt9BPN9jZmP1UIVMICSTEAKG3dYnxdtIUIeQwcOuW0pIaBKwzBLhXTo4O0bqXj32mI1tlC4gNN1lXIFh46Q13vNK4FPK3bbD2zUjR2iS+/H2oO6w1G3UfwXlQaGEfp2i0r+GU8NgCF2yHEcbD8NWq+V5vx7dQYLgi1f3g8bjT7/u+15QLUX1UHv53KlX/6gGwdnZ/g89UCoCe9nFFgAAAABJRU5ErkJggg==;" vertex="1" parent="1">
          <mxGeometry x="843" y="610" width="55" height="55" as="geometry" />
        </mxCell>
        <mxCell id="Na29aNG7F6KIejRiTE2y-24" value="" style="endArrow=classic;html=1;rounded=0;entryX=0;entryY=0.5;entryDx=0;entryDy=0;" edge="1" parent="1" target="Na29aNG7F6KIejRiTE2y-13">
          <mxGeometry width="50" height="50" relative="1" as="geometry">
            <mxPoint x="535.78" y="440" as="sourcePoint" />
            <mxPoint x="585.78" y="390" as="targetPoint" />
          </mxGeometry>
        </mxCell>
        <mxCell id="Na29aNG7F6KIejRiTE2y-29" value="" style="endArrow=classic;startArrow=classic;html=1;rounded=0;exitX=1;exitY=0.75;exitDx=0;exitDy=0;" edge="1" parent="1" source="Na29aNG7F6KIejRiTE2y-10" target="Na29aNG7F6KIejRiTE2y-11">
          <mxGeometry width="50" height="50" relative="1" as="geometry">
            <mxPoint x="610" y="660" as="sourcePoint" />
            <mxPoint x="660" y="610" as="targetPoint" />
          </mxGeometry>
        </mxCell>
        <mxCell id="Na29aNG7F6KIejRiTE2y-30" value="" style="endArrow=classic;startArrow=classic;html=1;rounded=0;exitX=0.5;exitY=1;exitDx=0;exitDy=0;" edge="1" parent="1" source="Na29aNG7F6KIejRiTE2y-4">
          <mxGeometry width="50" height="50" relative="1" as="geometry">
            <mxPoint x="449" y="366" as="sourcePoint" />
            <mxPoint x="440" y="410" as="targetPoint" />
          </mxGeometry>
        </mxCell>
        <mxCell id="Na29aNG7F6KIejRiTE2y-31" value="" style="endArrow=classic;startArrow=classic;html=1;rounded=0;exitX=0.5;exitY=1;exitDx=0;exitDy=0;" edge="1" parent="1">
          <mxGeometry width="50" height="50" relative="1" as="geometry">
            <mxPoint x="430" y="494.03" as="sourcePoint" />
            <mxPoint x="430" y="537.03" as="targetPoint" />
          </mxGeometry>
        </mxCell>
        <mxCell id="Na29aNG7F6KIejRiTE2y-34" value="" style="shape=image;verticalLabelPosition=bottom;labelBackgroundColor=default;verticalAlign=top;aspect=fixed;imageAspect=0;image=data:image/png,iVBORw0KGgoAAAANSUhEUgAAAOEAAADhCAMAAAAJbSJIAAAAclBMVEX///8Lsu0AruwAsO31+/7O7foArexlxvGu3ve35Pnt+v6z4vjS7/sWtu7i9v2r3/dwzfPf9f3F6/qJ1fV8z/SQ1/Yxue/y/P5IvvC96PlUxfFIwvGj2/ZWwPDK6vrh9v1wyPKc2PZ2z/PE5vmP1PWl3PfQqoZpAAAFPElEQVR4nO2da3uiMBBGy0WokavcVNRq1f//FzcJ1hVLhQhpCH3Ps1/2WdeZI4TMrNvJ2xsAAAAAAABgOIhHVKcgj2IWRivDSVXnIYc4jHLLMi3DskrVuQxNEYdpaTlU7kquOqMBKbxFuvPv5Di+6rQGwlt8rnzrQW4ihja9crlpNslVFKoz7AHxwnRlPd6Wj2i6XRQe3Qq+rbmpGFK53Ghcc40EqvMVwZ5t09zpdOX0MyTellUolpAcJ1adejtkeYly33xBTgNDe7l12Tb3ohzDGq0h2R8PdM31kRuvYXDK3NfWXJOhp1qnDlkeN7nR67YcryFZHzeGM6TceAztYJ24/vBy4zCMT8ku7/e0HK9hPE9KQ6acWkO7vSnQ3dD5BTuGqczQnJhhPD9H9kQNWSNe8n2u1sZMw5DUGnGnFkp7Q3t5catG/Pa8NNdKDCU8S2kjHvkNTYEZTsAwoB0P3eea93Bzq7dhsM/c502BlWlraNOOp0Mjrspw1suNtnOHpjXXGCrRzPCD3pY/rrnGUBoZBqfshUZcE0PeiJsvdTxW7dvYURqSfo24BoYzp1c/p4Hhsl9SGhiuYdgS6gBDKYgYzmHYEgqGcoDhPQsYtoSCoRxgCEORUDCUAwyHNHRhKAUYwlAkFAzlIGL4DsOWUDCUAwxhKBIKhnKAIQxFQsFQDjCEoUgoGMoBhjAUCQVDOcAQhiKhYCgHGMJQJBQM5QBDGIqEgqEcYKjS0HqC2RlHyLB6985Z8Qj//0bd0Llm8PCevk9/5ZSyLDcU142iKE3TJDmfs+PxuN1uL++UMAzfF1/Mn7AQmIT1/pVDjfzKirLb7XhKn59JkmXbcDHf7/czz4s/AlLY9Xdjf3o67asXeHEcBOTba34bm3yj4Ni24swAAAAAALpjE16/qE5DIqFxV4JWVSjFZUQMVo2yepSVx2G4+Co7b4VnfaAvLUQDwopRMp7Cr6F76tLdsN+x7qFt4kBVyBt39fyqvDYYdx1GxjqMLW0uWEexXq+Xy9nsVrhLMBThtZkKbZ+g8wAbaMQ+IPbpbNzDIU0FZl/2Nfytn+X+6jarz0KsA+4XePw/rT59w77/kx2GcoAhDEVCwVAOvzlxAIZygOHfMsQUpbZQMJQDDGEoEmr8kyGnb9h3qqAGhv1G4WuwDvsaTv8awlAOYhNa+4WCoRxg+LcMPRi2hIKhHGA4pOH4T3+YvmEMw5ZQMJQDDO/5mLxhAMOWUEcYSkHonBkYtoRSdO4aDP+UYQHD56g6//AXDRWdYQnD+6Rg+BwNDN9g+BwdDA+9Tnw3F+M3pHl5YZo75kuaehhWeIvPVYfjcR/QyZBRxPN0J3Rop26GVZrB4rwxOq5Nc66hYUWwPpdG+02rynCwc7lPScsZwbob8qyDZXbIzZ/OVl/rb1hRLI9u01nd0zGsBGYXN2eL07iJKjI0JRlyyCyMVrdH7RQNK01vm5as2nNOEzWsiMPUn+o1/IE/YNivFeuOrGdpuyHdN1/vxHQwpHhhVG0okzVkFGxD8V9rOPUw5BDaV6+6tihaGnKqfz4YXnM8hhVsbfq1Ym9qhgziXaLhbtoxGnL42hxiQ7EEZpsogN20Zr8NZeSGDJt3KK9vKOM35PTYUDQx5Nj0ESS+oQSq0xZmJljs6WfIoDdt52JPYMru2CC0rS7b16bGhhybaubms6vZe8bZKPDmSfnDd0W+6tyGo4jnyc7nE/Amasjh3xXVvhLLVackhWB+3FxvWmujOhl5fJwyNzecrP2VWkO8MczUBAAAAAAAoJl/+zawTQShXnIAAAAASUVORK5CYII=;" vertex="1" parent="1">
          <mxGeometry x="30" width="50" height="50" as="geometry" />
        </mxCell>
        <mxCell id="Na29aNG7F6KIejRiTE2y-35" value="" style="endArrow=classic;html=1;rounded=0;entryX=0;entryY=0.5;entryDx=0;entryDy=0;" edge="1" parent="1" target="Na29aNG7F6KIejRiTE2y-13">
          <mxGeometry width="50" height="50" relative="1" as="geometry">
            <mxPoint x="530" y="547" as="sourcePoint" />
            <mxPoint x="812.22" y="316" as="targetPoint" />
          </mxGeometry>
        </mxCell>
        <mxCell id="Na29aNG7F6KIejRiTE2y-36" value="" style="endArrow=classic;html=1;rounded=0;entryX=0;entryY=0.5;entryDx=0;entryDy=0;" edge="1" parent="1" target="Na29aNG7F6KIejRiTE2y-13">
          <mxGeometry width="50" height="50" relative="1" as="geometry">
            <mxPoint x="510" y="316" as="sourcePoint" />
            <mxPoint x="798" y="-22" as="targetPoint" />
          </mxGeometry>
        </mxCell>
        <mxCell id="Na29aNG7F6KIejRiTE2y-13" value="" style="shape=image;verticalLabelPosition=bottom;labelBackgroundColor=default;verticalAlign=top;aspect=fixed;imageAspect=0;image=data:image/png,iVBORw0KGgoAAAANSUhEUgAAAOEAAADhCAMAAAAJbSJIAAABQVBMVEX///8QHy7vZWIAABcAAAAAABXN0NQQHy8AABPZ29yipqoAABDAwcOanqIAAAzj5ea6vrwAFynkY2HAU1MAHy5kxPYAECT29/cxOEUEHCprbnMAFCWwTk32aGWFQUX///x3e4AgJjENGCUAABxUWV89Qk2Hh4phYmhkaGq0s7Npz/8OICwAFiUAFyzUXl3xZmbuXlrzqKfvVVQAACBlw/lfvOhqzP0wWnHF6Pqt3fj/a2br7u+RlptLUFsrJTCRQ0dpOEK/U1f77Oftbm/5zMr52toeJDPvfn30pqfzsq8SJjcjQ1cmTF9Dh6ZeuOBcsNgxYXzwnZVQm8A5cIgMIihKiadYqshAKDQaM0T0ko1kZnMAEhyjTk4nITLa8PyI0vZSpNBJvPZs2f9yOj+j2fpTLDqBy/oDL0g6bZA0ZnvkZ1zBUCH8AAAOUklEQVR4nO2djX/SSBrHMzB0eCvdtJCYxhogQG0GrFZKX6Cueru6Wmu93VV7p9tat3rq//8H3DOTBAIESilJ6N18/dhSyNsvz8zzMpkESRIIBAKBQCAQCAQCgUAgEAgEAoFAIBAIBAKBQCAQCAQCgeAGYwCR7j/Knf+PoKYWoiSlBinOkJYWy/FEIpGMCth1nC4uBdZU1ZoeJyhiaD2u19Qg+qMhpapJwgWSyED27jPV1Mz1AamSwravJDPRAftWmEylFITEKtu2qRez0bKqmExidfYCaznYMC4G6somQi1iRFCmM/PtYoJIJj3rzU5FOkMowbM+12nwomZxLjIKQyqaiCRmfbYrMiKl9jwkTXAES88IlSsz3m6SIr0yO32GdI2TZUgVHWnJWR2LA6bInF3nNjw/p6FjIopndTAO4L/iizPbmiEZLx48nV7jIniF+VYoGctb9+8/nXr1xTgKQCEChe45X6gVfVic2IGr/7gfi239MvXRgA0DaKWoZ8MUNhUf8PqEG3vKBMa2fp26IwZnQ3cHJvVJv6n8bGmibT19zgU+mN7TBK4wizWfxF+bKFk0ugLH+ZlL2nvgCqUOKvlQXZhkSyoTuLn1G3Oofh8vdGqr65X1Ym1xdP0QvMIrwGO70QuAht0HfxteirGxiqGP67pc15UEVopZyTekzJXCvgM0bC86JNBhMZNTCKV2r6ZQ6yqYbPguOEcKWVN8+uKF2696Ao3B5aRsgo+REFJmwEuCKJEzfm1/nhQC6tb9ree2IHAym44FB9teu5jjgxTlTO7l4c7Oq0OEk2U2LqPEh7PF+VHIZbzYAlHPDceLbvoLTFXjYD2kK6+OXm8XWq1m4fXxt0OuESUqg8uHoFCdAFfkr1ubsbWt58yCW3aYGMRgg0DQ88of3hxbrYJNs2BZx4cZaKk0PhiGgleYrt66lOqGe+L/yYTdfy6N6oNQ8IFASHxPjq2Ch2azZf0OnRHKmoOQFWaxrF2CLDcwcxE86HGJm+yHfxOVboFAiv+wmrbxehoL1usPBKyYLIarsPOQXjZsiijK2Y6excIHoG4tNqoPslEJSvCR1S+PvW5tf0DkT/CquC9qBK4whXW/zNuLrsTjbpYKGh9srcVGxsEslGY0/tZtoVbh+N27d8ctiwk0y+xMNigpe3Pe4PvhwuoEeJIuR6KPk2HckhFNOE20YB3vnOiZXLJ88u21tV2G8E+193mCzNVQFV4N3iofQFT0baLSBmy7fNjiAlvbOxmFdQBEy5nyHycQ+Kl8O9ZAf5K4J/IHr3CCuscY/OuXf/3iu6ZalRFKvrMFHlOobd2LMJDcQMRv3N7f/9ggVPl3b515s+F4FjB0sp0Wcyyt4w9lZkAzmUxACQreiiDl9n4stp8Hh5pod9e5WQpXIVLgY1AIHbHBcphcafGn7EYnwzQimQmMrX2sg517Y8A3SmG7Co7yhPtRa0cBUW5cUIsZUFi/vRZbW4v9gJxV7oX9G6Cw1x1TkJeZRzxVO4bcm+CF7hKdHCL5vyCKQjN9r8FH3ZWiVGgYI2r37sfw6elZc89dBoIhwp+YQuubDkHBu5NVBREZjAhW/AjuCHdDYoQKuT7DLeydyt7wFPmGoe59BTnne84aNTYwyBvp5walWkn1nJ4lSAW0v3lHXJEJymXdD6JtpYZ6cXZ2sbd7OuJDJ3O5cN4BR0Nzn3moAKeqeOO6pB7USf4LS4Zi9zQ4gK6riVShcepkl+fn2xZX2pthZJyenTuJ5/mu815FhwDIbbgNCjP9gxY1aKaPllnCdw+8Tq8FR9oPL87drNmpgM7Pzwtc6eluAfRtszfPW65AUAiJmcWjPSjsNUROTaHao+WYo/BhxAq5D2kzaU23iPVUekwz/wm/Chceu64rEPA/N7kNyeA+igrNv7dbaZ7MgQ0Nac8R9BXMdM7kdIuhbuV3XthTDY+7LUI/xLwfWphQ/cDriNVnBOUfM1/K+2Ei6n5onH61TfX1VFLbp7t7Z2dfuUl7QpvNr7sq97bOKpKUTsLBbnOFh1ApKd5h4I0cxPk7+xAR157Ue6Eysla6a+toXnQdPoQG6H17F2fcfvDxmdM8XRsadlqae8vadev3DKShnvGKdkmmpHFv7QdE/L9l5JmcEKJCw/1hqF+dhng68LmthSndVQdTAfg7BWmp/p333BYbIjUr7mptNoMHGukms+EjSHcS3fVCU2i4SYpxegFusrldOD8bEKGyPMQwumdieCSYzYFQePnbegutkpgl25+m4zrLSyFWQNp2rwHBotZdK9xWCknYRRPcCqt/mqcDAtIYV8ZOSzCkTpIi1kxBo/UmBwWTnMzdqtzCJh8gzr+HvDu2/xgcTbIXSUJtpacX3EXyKHDm9SIMtawRqBXGzCo2pCVQSE5sT9Tawbz2reuyOwlS+wJZ6T2NoPqz3lrhKAQxKpPX9ZOF3eFxUKj3Ek6aYqiplMeUvVcsv04c2cM0rW+5Mi982f9yuUwJSFzb/6IRmvTsPiQbti/syM5dfbPFwpx92Nmi2568CqUD7D8ZLYXZqIwzGGx9OlSS/NJMprzz+o8MpHTa49t1QuulXokfkkLVjeRgxdbeac8oaWy6VaxX4QYmcsmpf/qNXVQQ1U+2nbE2693Rq5OXJ6+OXlusY7KhqAYdmFMXikJj99zJoQt7rn+xbVjRkVwdVpiOgw43nm/UPCm2igk0yUPLPWMt6/Nny75+8flNhrAxb6KzONk9MeHY8PTckWfvuK26BwDVQt1PoUmIq3ARzOzZ2gJGlHz4T6t3Uaab7Fnf2Kg+0RRPGw3N0+w1v150w/sq7o67OzY0bIWkZ0MI7Y7CdRkpdz3b6rBASM1PVv+gPjR/622Zjerj/pojnFYKzrFbu4MViBZvdxXWewrRJAqlIpeY/L5ttTwiW9bx4QcwL8ED17pDUih54lw6Ryl27hLoVzjKhvLdvm3VkqAExcmb44LFW2vLam2/20mwq90yu8bT55xCihbeEac0+LyrKNSRfrd/a+m4DD4FKbmT70efjrePfz/6/jJXZjMWHrI0LvRrwINADUSwbyv1V9gYVMguAyd5EgOREAO5D8x8UB3nKn1OhhOmQufcXlWhPGRDoIPZZAxntgmfb0JkLP/ks9ewFC4dvHSvZF9Xob0VdbGETTsjZfIUE1d9p9OEprCk1N2yeyY2ZKRqFZO1UfiP1jujZgKGpRBDCHMyzdEKR0WLEQqBdjuVzWZT7eHu1yU8hehyhVe04WQIhdPwf6oQeRUij0JPbUHi3cwb9SmcdMq0H+EpJAlXIZSqvgpJz4Ym6tYW6wrlCq88H8AhcIWQgDBAoVLjr1Idk6BElr9cOpChldpvZ8tsLN5dBBFiL5KqQF5agd8Dk53V1DARzaBdr+u6XiZsPjt7pcsaS7Ds13WNjR/xl/w1kflLGfHJo/bbYFqkwfv9N0qmqvowPjlbCAo3WFEO/yif+dKFIOJ5Sex5YbT7Th98gmzfCDc0b7M306RLzm9sJ4S7EWwNk9y5O/Z9ueRtp0imgwshdktgBArbOGOa8RmA+24iTOPk0FYTkBcOd8Tg+6Gang19U7gNacFnkSW/8eQbMNvkmgiF0yAUhotQOA2Y2ndYzsO93AZTGNB9wPOjMID7gOlM7wO+JkHdJdtZ8sn9o2CpE4ynQQrLomaRrF0LdgTsOTJBKBwqECLCPopgFM4TAXgapLBnYCWihh2CggLwNBQpqzOqKK7PqhJEPPRM0Y2c9I3I2q6TO4i8dBqup9CQsrVBspevNpL5Uyhl8fBzQq4hMRCF5FrPGFpXhuKZMu2wvsGfMUQCUKjfnd47LGJZk71oMp62SRh8psPMFVZlpN1qT61QrVUHqU37wDVDat/SupdGZgYbBL6WM1Xbbc+9+vDH1Fsy2MFQc9aefQlcDUn6jc6GjSEtJIn3Nq9ZAYkSkq/j/2ZGFssshZz5dtsJdn0JH6QXlqJkIX0AKTLSEmPmMUzLQpJfKovnoiVeh0ijJSd6nNFVydZ5UBtzQWngyhGyL6LR0XUz/2zy59q6+1b0gHrLUgXr2hVqVOJcPRy+KOjCHxlGCbnK2AHVcWXmXsaGPQbo4Bl/2O1k5JImm6WWr8sjybPZayYsORls588OAnR37MGa2exPk5LNdqAY1+7cHs0djVClc6VtBmS/KSmyELO8NppljSCleOXtRh+VXdijeR/xp5qMYJ/dsTXrDDNEFnKEaj/vj1P4s0ZJLhDXHwqsyKmvjLPh2kr9emVZxEAJkH+0ubY8UuDy2uajPBQtUR/otLQxpdrjcY2U33dHu/PFbhzpBHjSJ+MaKTTTJ7L3FuYbBrvtjizzJ3eMYjO2DAlNAIVCKLDHuGuPx5sQjPhYQ7N/wHo4ZDGh8sdLFX6U6eBtTTeFokJRYzl2SSuNLTcQnSKtiRInpVKrDZT/ApnZ/pisDT7b/5Injarat+6cw56TCxTjkJC9v3M576HOihfZKp2FG9EfN0o4bgLsCz9Igw+Tjnm6oqw1GqySVNgqcVzyv0dmrijiBhlT846tbeGM4LkPHDV+367PXN9JSdYu30mUtCFC/Ck38tOhyLR3U8Ocwp77KX+592N5Gn7c+wKR4+F8VxrsqzXsBztNAVQhf2mkfnD5bqJDfYlQHqoJ9kiZq7PGKg3oxfMcMtQSYfXSuCxmLPuP80R7Oc8KpVWdoMYKGHEaNvdXZET0+Y4X6QxFWuPOypOVq/Nk5U6DEjQnXyo1knKDfdFFY8wg8EjqDagykFyOWsIlZHN1dI2chsi5uS+kNlCcTjeHkT08OF6+AYnpUtGcdk5ewizO15j9SKb9qtJAvrdRMBVTfmNwtF80LBAIBAKBQCAQCAQCgUAgEAgEAoFAIBAIBAKBQCAQCAQCQRj8F5+RRh1w/IvCAAAAAElFTkSuQmCC;" vertex="1" parent="1">
          <mxGeometry x="820" y="194" width="85" height="85" as="geometry" />
        </mxCell>
        <mxCell id="Na29aNG7F6KIejRiTE2y-33" value="" style="shape=image;verticalLabelPosition=bottom;labelBackgroundColor=default;verticalAlign=top;aspect=fixed;imageAspect=0;image=data:image/png,iVBORw0KGgoAAAANSUhEUgAAAOEAAADhCAMAAAAJbSJIAAAAb1BMVEX///8AAADc3Nze3t7z8/Ph4eEYGBhKSkr7+/uwsLDw8PDq6uowMDCtra34+Pi2trYcHByKioqEhISdnZ1ZWVl4eHiSkpLLy8vW1tY1NTUTExPFxcWXl5dOTk5kZGRISEgnJydvb29AQEB9fX0oKCgH8eP7AAAEW0lEQVR4nO2d63KiQBBGXcVAQAU1icZcDJu8/zNuWZFBF3Qw05epznd+i3pKmUt3Dz0aAQAAAAAAAAAAAAAAAAAAAAB4yYuxLEUuJ1eUq3RW7f7Isqtm6aos+PUW81RY7Zx0vmD1S5aqet8sEza/bK0td2Sd8Qhudf+fp6RjDsF7ba0z7ukFn7Sd/uOJWjCGIeacJa1gbL/gAdJfMa57sIHwXtxqu1xgSyWYxTNNnJNSrW9imei7rGkEc22PK9BsOOKbKFpIpoyFtsVVKO7EOGeKBooZY68tcZV9uGDM48yB8F1/qa3goQw2XGkreFgFG75pK3h4CxXMZtoKHmahEY280lbwUIUuawrpuOit7EIH07G2gZeJecPQsBsM9YEhDGGoDwxhCEN9YAjDgYbrIt8oRQNkDF8OL80emF36ETGsv1+bPHPb9CFi2ET0phohDxFDF1rfcOv0IGL44F6ukOSQGWna/Ih8Kk5otti4C955fbpIzfjT5oKFdK5KyvDZFQxOP1iFOoit2trRRnhAlVuXtkkg2YSc4Mp77i565fPpIrm3eHFX1Uw2fYjunlwKIRPcZ4gaPrtMVyGXdpTdAT+4dKVcsZ/wHv/RXfjC49NFOorR1tJJ1fuJx2na6o+a3qYP+UiUK2sVimrIG85cYj0XiWooRBPfXL3gWKLMQSNeWrurJQZUlYhwe05gTu3TRSfm3Q6o/GVxSlH99pwAe1RDybByUY3kL61QB63MzN5FNSakPl3Uck/v7i2YRxu97Fp7UIB3baOYP3RRDd6dlGaG1IWJayKZXjQNP5oVKmt8UTXL7fbDnFk33Tx+E5rizNfoGn4e34VzBa5rWB3nfc6DN8rVJsePzxhvRGXDJnXKGCFWNmxCbzWFSz/Khq/Ht/mksekjEkPGXWIk9yHj4htjKa+h/fnQ/prG/LrU/N7C/v7Q7fFZY6aI0/AZmo+1mY+Xmo95f5jPW5jPPZnPH5rPAZvP45uvxbBfT9MOo0ZroszXtZmvTWzrS8UK9lEjTGpov87bfZjVWn3z5y3Mn5kxf+7J/Nk1++cPzZ8h/cE54OVm6mdSep+0He1Z7sFPG3+MwfAH5/GHPxQ/8aR1Yn2mwg0PjPf872Wfi3HHYVhHYHgMPd0StZhf/9hTviIw/MHzaarBjx31LQGjfcbQV5knA5h6a41ifk5UdedlQDgyZkMaYAhDGOoDQxjCUB8YwtC+IXdFUzihvRHs97ew36NkFH2fmVBB+72CfkG/J/s9uwptBQ8E3dZjbUL6TRouKFFAGcANkeWL2O9hab8P6SjR1rgCTS9Z+/2Af0FP52g3iWR9uWPtmEvYW300etK26WF4KcAg4psyaCaKE2L7FYl/wQNx3Yuk92DDNp5JIyUcRU/JYpn616Edci+TxzDgLBP/Fw1gMdf9r6ZzsnXMZYpylc4q6Tjqrpqlq5JgRz+UvJjIUhBtIwAAAAAAAAAAAAAAAAAAAAAAF/kHYzB+ZaQILlAAAAAASUVORK5CYII=;" vertex="1" parent="1">
          <mxGeometry x="835" y="160" width="55" height="55" as="geometry" />
        </mxCell>
        <mxCell id="Na29aNG7F6KIejRiTE2y-37" value="&lt;b&gt;bdsrv&lt;/b&gt;" style="rounded=0;whiteSpace=wrap;html=1;fillColor=none;verticalAlign=top;align=left;" vertex="1" parent="1">
          <mxGeometry x="370" y="240" width="170" height="120" as="geometry" />
        </mxCell>
        <mxCell id="Na29aNG7F6KIejRiTE2y-38" value="&lt;b&gt;pgadmin&lt;/b&gt;" style="rounded=0;whiteSpace=wrap;html=1;fillColor=none;verticalAlign=top;align=left;" vertex="1" parent="1">
          <mxGeometry x="370" y="383" width="170" height="120" as="geometry" />
        </mxCell>
        <mxCell id="Na29aNG7F6KIejRiTE2y-39" value="&lt;b&gt;flsrv&lt;/b&gt;" style="rounded=0;whiteSpace=wrap;html=1;fillColor=none;verticalAlign=top;align=left;" vertex="1" parent="1">
          <mxGeometry x="370" y="524" width="170" height="120" as="geometry" />
        </mxCell>
        <mxCell id="Na29aNG7F6KIejRiTE2y-41" value="itsrv" style="rounded=0;whiteSpace=wrap;html=1;" vertex="1" parent="1">
          <mxGeometry x="556" y="150" width="74" height="24" as="geometry" />
        </mxCell>
        <mxCell id="Na29aNG7F6KIejRiTE2y-42" value="" style="shape=image;verticalLabelPosition=bottom;labelBackgroundColor=default;verticalAlign=top;aspect=fixed;imageAspect=0;image=data:image/jpeg,/9j/4AAQSkZJRgABAQAAAQABAAD/2wCEAAkGBw0NDQ0NDQ0NDQ0NDQ0NDQ0NDw8NDQ0NFREWFhURFRUYHSggGBonGxUVJDEhJSkrLi4uFx8zODMsNygtLisBCgoKDg0OGhAQGy0lICAtLSstLSsvLS0tKystLS0tKy0tLS0tLS0tLS0tLS0rLS0tLS0tLS0tLS0tLS0tLS0tLf/AABEIALIBHAMBEQACEQEDEQH/xAAcAAEBAAIDAQEAAAAAAAAAAAAAAgEDBAUGBwj/xABKEAABAwEDBQsGCwcEAwAAAAABAAIDBAURUwYSMZLSExQWIUFRVIGRk9EVFyJhcYIHMkRFUnKDlKKjsQgjNHN0obMkM0JDYoTB/8QAGgEBAQADAQEAAAAAAAAAAAAAAAECBAUDBv/EACoRAQACAQMEAgICAwADAAAAAAABAgMRE1EEEhRSIWEVMTJxIjNBBUJi/9oADAMBAAIRAxEAPwD7igICAgICAgICAgICAgICAgICAgICAgICAgICAgICAgICAgICAgwgygICAgICAgICAgICDCDKAgICAgICAgICAgICAgICAgICAgICAgICAgICAgICAgICAgICAgICAgICAgICAgICAgICAgICAgICAgICAgICAgICAgICAgIMIMoCAgICAgICAgICAgICAgICAgICAgIMINNbVxU8Uk8z2xxRMdJJI74rGNF5JQdBw9sjpTvu9VsLPbtwx768s8PbI6U77vVbCbduDvrycPbI6U77vVbCbduDvrycPbI6U77vVbCbduDvrycPbI6U77vVbCbduDvryxw9sjpTvu9TsJt24O+vJw9sjpZ+71Owm3bg768nD6x+ln7vU7CbduDvrycPrH6Wfu9TsJt24O+vJw+sfpZ7ip2E27cHfXk4f2P0v8ip2E27cHfXljh/Y/TPyKnYTbtwd9eTzgWN0z8ip2E278HfXk84FjdM/IqdhNu/B315PODY3TPyKnYTbvwd9eWPODY3TR3NTsJt34O+vJ5wbF6aO5qNhNu/B315POFYvTR3NRsJt34O+vJ5wrF6aO5qNhNu/Cd9eTzh2L04dzUbCbV+Dvryx5w7F6c3uajYTbvwd9eTzh2J05vc1Gwm1fg768nnEsTpze6qNhNq/B315POJYnTm91UbCbV+Dvry7Ww7forRbI+inbO2J4ZIQ17c15F4BDgORYTEx8Sy/btEUQEBAQEBAQEBB4n4RKzdHUtmt4xO7fVXdyU0LgWsP1pM0esNctnpcffePpr9Rk7KT9urXc0hx9ZE0g1E0g1E0g1E0g1lJTSDVrKaQaoKukJqgppBqgq6QmrWU0g1QU0g1lBV0g1lBTSE1lDk0g1lrKaQaygq/BrKHJpCay1lXSDWRjM4gLxz5Ix0mz1w0m99G2toJIj6TSOW46QF4dP1lMnxb9vbP0t6fMfpwSt7SGnrKCrpCay49XO2KN8jvisaXHq5FhktFazMs8dZvaIh7L9nqV0lLab3/GfWscfaYmm5fNZZ1vMvoKRpWIh9ZXmzEBAQEBAQEBBhxABJIAAvJPEAOdB8qparfk9TaJv/ANW8CAHS2jjvbEB6nek/7RdnosfbTXlyuryd1+3hzFuNMQEBFFUSUEFBBQQ5VEFBrIQdXlFaG9aWWUccl2ZC3SXTO4mADl4/0Xj1GXbpMvXBj77xDl2f8H9Q6GJ09rVzZnRsdKxhjLGyEXlovGgFcTyMnLsbGPhyhkCR861x9u5+CeRk5NjHwsZDXfONYfbmeCeRk5NjHwoZFAfLqo+3MTyMnJsY+FjI9o+WVB9uankZOTYx8KGSbB8pmPtDU8jJybGPhYyXjH/dIepqeRk5NjHw3U9gRRva7Pc7NINxAANyxtlvaNJla461+Yh2FTTskFzhfzHlC84mYemmrytt2O2IF4c1vqJuDvZ611uj6q8z22jVy+q6ekf5ROjz5XWc15nK+r4mU4/5fvJPqg+iO39FodZk/VIb3SU+Ju+mfs7fwVo/1jP8LVxsv8pdXH/GH1tebNlAQEBAQEBAQeU+ESvLKRtFG4tmtF+9gW35zKcDOnkF2i5l4B5C9q9cOPcvEPPLfsrMvPMYGtDWgBrQGtA0ADiAX0ERpGjhzOsqTVNHGdWsztzZfLIdEcQz3X9S1snVUp/3Vs4+mvd2cNmSiN89SW08UbHSOGl4YBeb+QLQv1d7zpHxDdp0taRr+5dEMoaA6KuC7k9MHiW/TPjrWI1aN8OSZ10WLcojoqodYLLycfLHYycK8r0h0VEWsr5OPk8fJweUqc6Jo+1PJxcnj5ODfsJ0SM7U8nFyePk4Y3dh0OBV8nFyePk4M4HQb08nHyePk4YcF6UyVv8ANXlfHavxLgVlnsmmpZZL3NpJhO2E3bm+QfFLue5eefp4y6RM/p6Yc84tdIehOUMuHH+LxWv+Ppy9/Otwg5RS4cf4vFPx9OTzrcJOUcuHH+JPx9OTzrcIOUcuHH+LxT8dTk863CDlJLhx/i8Vfx1OTz7cJOUs2HH+LxT8dTk8+3DW/KeYAnc4/wAXisMnQ0pWZ1ZU6y9rRGjvKm0YYWgyPAJaDmDjd2LQx9PfJP8AjDdvnpSPmXQV+UsjrxA3cx9J3G/s0BdLD/4+sfN/lz8vXWn4o6CeV8hznuc93O4kroUpWsaRDStebftokcACSbgASSeQLKZ7Y1ljEazo+d19UZ5ZJj/zd6I5mDiaOz9Vxr27pmzr1r2xFY/4+0/s8H/RWj/WM/wtWjk/lLbx/wAYfWgV5s1XoF6DKAgICAgIPmVoVm/bSqam8Ohpr6CkI4wc03zvHtkGb9kup0GP473O63J89i10XPabKycmrXONZWhsYcbqWkBjLm38Rc48f6rk9VbNE6T+nU6aMUx8ft7OzrLp6VuZTxMjHKQPSd7XaStBuuRLG17XMc0Oa4FrmuAc1zTpBB0hB13B+zx8hox/68PggeQ6HoVJ3EXgmgz5Ho+iUvcReCaB5KpR8lp+5j8E0DydTD5PB3TPBA3jBgQ92zwQN6wj/qiHuN8FYiZ+EmYh5K0JRJK9zQA2+5oAAGaF3+nx9lIhxM+TvvMuIVsPFBREFUQUEORGsqiCgxmnSF45MmPu7LPWlL6d9Wp5J4ybzznjK9oiI/TynWf21lVigqq6HKys3OARNPpznN9YjHxj/wDOtanV30rFY/62ulprPdP/AB41y58/Ddh9t/Z7ddRWh/WM/wALVo5P5S26fxh9Za5YM1goKBQZQZQEBAQdFlnaz6Kglki46mTNp6VvPUSHNafYLy4+ppWVKza0RDG1orGsvFUFI2nhjhZeWxsDQTxudzuJ5STeetfQY69tYhw72m1pmXIXowVG9zSHNJa4cYINxCwtWLRpLKtprOsPQWdbTX3Mmua7kfoa728xXLz9FMfNXRw9XE/FnUVtc+SV7mve1pPogOIGaOILexYK1rETDTy5rWtOktO+JMSTXcvXapw89y3LG+JMSTXcm1Tg3Lcm+JMR+s5NqnBuW5YM8mI/Wcm1Tg3LcoNRJiSa7k2qcG5blBqJMSTXcrtU4Ny3LW6eTEfruSMVODcty6G0bXkZUso6Wkkrah0Tp3RxOa0xxAgZxv8AWtfqOrjFPa98HSzkjVQltU/MtSPtYvFeH5H6e3gfah5TOmyZx9pGn5H6TwPtQitE6bMmH2kafkfo8D7UKavOmz5R77E/I/R4H2oUNadNFKPean5H6PA+1Czas6aaQdbVfyX0eB9qFkVJ0wvHW1PyX0eB9u4smyAI37sy5zjcAfjNA5Vz8uWcl+5vYscUr2uutOw3MvczjH9j7eYrc6brZr/jdqdR0cW/yq6GRhaSHAgjSCuxW0WjWHKtWazpLWVl+mLwNuVm71Mjgb2M/dR82aDxnrN/9lyslu+8y6lK9lIq6uQ3AnkC8bTo9aw/RPwTWIbPsqLPF09Wd9TA6WlwAY3qYG9d60LTrOrciNI0e3a9RW1rkGwFBYKDKDKAgwg+d5VVm+7UEQN8NltuOgtdWzMBPWyIgfaldDocWs90tLrcmle2P+tS6rlioh8rW6SB6uU9S8r5qUj5l6UxWv8AqG4xPDQ9zHNa74ucLi71gLxxdRu20iPh65cG3XWZ+ULaawqCgIMFBBQQVRDkkhxsg6cQSV1dW3R1VVMY42H0jFSMuzG3i/SeM+wLjZenzXvNtHWx5sVKxGr1xtWnxR2O8F5+Jl4Z+Vi5SbWpsUdjvBPEy8HlYuUm16bFHY7wTxMvB5WLlJtemxR2O8E8TLweVi5SbYpsUdjvBPEy8HlYuUm2KXFHY7wTw8vB5WLlspq6GYkRvDiBeRcRcOteeTDbH/J6Y8tb/wAWyaVkYLnua1o5XG4LCuO150iGVr1r+3R1+UcYvbCzdDozncTOzSV0MX/j7T83aOXrqx8VeZqqh0rs591/IALgBzBdTFirjjSHNyZLZJ1l0uUNbuFO8tNz3/u4+fOPL1C89Sx6i/bT+3p09O6/z+oeDIuF3IBctDTSG9rrOruMirF8o2lT07hfE1271HNuLDfcfabh1laue2kaNjDXWdX6Sjf1eoci1Gw5LHoN7HINzXINjSgsIMoMoOBbtqR0NJPVy3lkEZfmj4z3aGsHOS4gD1lIjWTV84sqnkjhG7Oz6iRz56h+nOnkcXPu9QJuHqAXfwY9ukQ4ea/feZZtC0GU7WlzZHl5zWMijdI97uYXLLLljHGsmPFN50hybPse0qy5z2iggOJ6VS4fV0N61y8vW3t8V+HQx9JWvzPy9TZmT1NTXENMsnLLNc99/OOZac2mf224iI/Tr8psmpq6WOSO0J6RrGZhjia1zXG+/ON/Ks6ZbU/ixvjrb9uqbkLUj54qj9mxZ+Tk5YbGPhsGRU4+dak+4xPJycnj4+FjI+UfOU59xqeTk5PHx8LGSkg018x91qeTk5PHx8NgyYcPlcp90J5OTk8fHwoZOXaaiQ+6E8nJyePj4a6yyGQxueZXOIuDQQON3MvbBkyZLxGryzY8dKTOjqCuy5LW5VEFEQUEFUQURBVVrciN1FWPpy90d2c9rW3uF+aASeIda1cnTRkv3WltU6iaV7atFTPJIc6R7nn/AMjfd7OZbFMdaRpEPC+S1/3LjFZvNBVHicqazdancwfQpxm+oyn4x6hcO1c/Nbvv/ToYq9mP7l0j14WekPrPwQ2TuFJJWPF0lY70L9Ip2cTe05x7Fzslu62rfpXSH0eJ6wZOVG5ByY3IOQwoNzSg2AoKQZQeDy9q93q6Wz2kGOG6urBpvIN1PGR63hz/ALILb6PF3X14a3VZOymnLgrtOOpjy0hzSQ4G8EcRBUtWLRpLKtpidYeisy3A+5k1zXaA/Q13t5iuX1HRzX/Kjo4Oqifizn2jViCIyXXniDR9IlauHFOS/a2cuWKV1dPwhfhN1it78fHLS86eGOEDsJusVfx8cnnTwx5fdhN1in4+OTzp4Y8vOwm6xT8fHJ508Hl12E3WKfj68nnTwx5cdht7Sn4+vJ508JNuOw29pU/HxyedPDg2jaDpw0FoaG3m4G+8rYwdNGL5/bwzZ7ZIcAraa7WQqiCghyCHKogqjWUEFEQUEFUQ5EcK1KsU8Ekx/wCDfRH0nniaO25eeW/ZWZemKnfaIfOyTxlxvcSXOPO4m8laGmkN6Z1ldnULquohpmaZpA0n6LNLndTQVr5r6Ve+Kusvv1BEyKOOKMBscbGsY0cQDQLgFoNx2ULkHNiKDlRlByWFBvYg2NQWEFBB8JpcsYpZKmrkgqnSVk7pb2saWiEehC0XuvuEbW9ZK7XSYr0x6xWflyuqvW1/m0fDk8MIOjVndx7a2v8AP1lraU9oOGMHRqzu49pT/P1k0p7Qxwxp+j1ndx7Sf5+sr209obJMuonMax0NaWsJLQWMN1/vLCMc1nWKSym0TGk3hq4Z0/R6zu2bSz1v6yx7a+0HDSm6PWd2zaU1v6ydtfaDhpTdHrO7ZtJrb1le2vtDHDWmwKzu2bSd1vWTsr7QcNqbArO7ZtJ3W9ZOyvtDHDalwKvu2bSnfb1k7K+0MHLalwKvu2bSd9vWTbj2hJy1pcCr7tm0m5b1ldqPaEHLSlwKvu2bSbk+sm1HtCTlpTYNX3bNpNyfWTaj2hByypsGq7tm0m7PrKbUe0JOWVNg1Xds2k3Z4k2Y9oQcsKbBqu7ZtJvfUmzHtCTlhTYNTqM2k3vqTY+4Qcr6bCqdRu0m/wDUmx/9Qk5XU2FU6jdpN/6k2PuEHK2mwqnUbtJ5H1J4/wBwk5WU2FUajdpPI+pXx/uEHKunwqjUbtJ5McSnjTzDpcoLabV7nFG17WMO6PzwGlztDdB0aT2LwyZdy0Rw98ePbrM6/t0r1jKw9t8GFmXumrXDRfBDf2vcP7DqK5ue+tm/irpV9MgXi9XPhQc2JBzI0HJjQb2INrUFhBlB+ZrI/hYP5TP0X2vR/wCiv9Pkur/32/tySthrsFRUFYsmCoqSoqSsVSVJZJKxVJUVJUVJWLJgqKgrGVYKipKxZJKgkqMkrFUlRUlYsklRUlRWCsVcY/7h+o39SvCf5vf/ANI/szHPc1jBe+RzWMHO5xuCwy37a6s8de62j7TYVnNpaeGnboiYGk/SdyuPtN5XLmdXQd3C1Bz4WoOZEEHLjCDksCDe1BsagsIMhB+ZbJ/hYP5TP0X2vR/6K/0+S6v/AH2/tyithrpKipKxZMFRUFYsmCoqCorBWMqkqSqSoySViqVFSViqSsVSVGTBUVJUVKxVJUlUlYsklRUlYqkqK47v9x31G/qV4T/se8fwep+Duyt3q3VDhfHSj0eLiM7hxdjb9YLS6m/zo2+nppGr6rDEtVsOdDGg5sTEHLjag5UbUHIYEG5oQWEFoMoPzJZP8NB/KZ+i+16P/RX+nyfV/wC+39uUVsNdJWKwkqKkqKkrFkkqKkrFWCoqCpKwwVjLJJUVJWKpKipKxVJUZJKipKxVgqKgqMoYKxVJUWErGVSVGTiyG57jp9BvENJN54lrXnS0zPDYpGtYj7fbMjbE3nRQxOH71w3Wf+a/jI6uIdS5lrd06uhEaRo9HFCsVcyKJByo40HJjYg3sag3Nag2tCCwgygyg/LlmVsLaeFrpY2uEbQQXAEEDQQvrul6nFXDWJtH6fM9V0+W2a0xWf25Jr4MaPWC9/Kw+0PDxsvrKTXwY0esFJ6rF7QvjZfWU7/gxo9YKeTi9oXxsvrLBroMWPWCx8rF7QvjZfWU7+gxY9YKeTi9oXxsvrKTXQYsesFPJxe0L4+X1lJrYcWPWCnk4vaGXj5fWWDWw4sesFj5GL2g8fL6yk1kOKzWCnkYvaGXj5PWUmshxWawU8jF7Quxk9ZSayHEZrBTyMftC7GT1lg1cWIzWCx8jH7Quxk9ZTvuLEZrBTfx+0LsZOJYNXFiM1gpv4/aF2MnCd9RYjNYLHfx8wuzk4SaqLEZrBTfx8rs34SaqLEZ2hTex8rs34YNVHiM7QpvU5Xavwk1Mf029oU3qcrtX4SamP6be0Kb1OV2r8MGoj+m3tCx3acrtX4TviP6be0KbtOV2r8JM8f029oU3acrt24d9kBY+/7UYSM6Cma2eUjjaXNcdzYfa7j91aHVZNZ0hvdPTSPl90ZAtRsORHCg5LIkG9kaDexiDa1qDa0ILAQZQZQEGjekWFHqNQN5w4Ueo3wQN5w4UWo1A3nDhRajUDecOFHqN8EDecOFHqN8EDecOFHqN8EDekOFHqN8EDecOFFqN8EEmjhwotRvggl1HFhRajfBBrdRRYUWo3wQa3UUWFHqN8EGp1DFhR6jfBBpdQxYUeo3wQanUEWFHqN8EGp1BFhR6jfBBqdZ8WFHqNQQbPjw49RqCTZ0eEzUagx5Ojwo9VqDIs6PCj1G+CCxZ8eHHqN8EFts+PCj1G+CDkQ0jW/Fa1t+nNAF6De2FBubEg2tjQbmsQbGtQWAgsBBlBlAQEBAQEBAQEBAQEGLkGCEElqCS1BBYg1mNBDo0GsxIJMKCDCgxuKBuKDIhQZEKCxEgsRILEaCwxBsDEFhqCgEGbkGUGUBAQEBAQEBAQEBAQEBAQYuQYIQYLUElqDBYgksQSY0GNzQY3NA3NBnc0Dc0FBiDIYgoMQUGoMgIKuQLkGUBAQEBAQEBAQEBAQEBAQEBAQEBBi5AuQYzUGM1AzUDNQYzUGc1AzUGbkC5Bm5AuQZQEBAQEBAQEBAQEGEGUBAQEGEGUBAQYQZQEBAQEBAQEGEBAQEGUBAQEBAQEBAQEBAQf/Z;" vertex="1" parent="1">
          <mxGeometry x="610" y="117" width="76.58" height="48" as="geometry" />
        </mxCell>
        <mxCell id="Na29aNG7F6KIejRiTE2y-43" value="Diagrama SoluciÃ³n" style="rounded=0;whiteSpace=wrap;html=1;fontColor=#132AFF;strokeColor=none;fontStyle=1;fontSize=16;" vertex="1" parent="1">
          <mxGeometry x="287" y="-8" width="289" height="60" as="geometry" />
        </mxCell>
      </root>
    </mxGraphModel>
  </diagram>
</mxfile>
